<?xml version="1.0" standalone="no"?>
<!DOCTYPE svg PUBLIC "-//W3C//DTD SVG 1.1//EN" "http://www.w3.org/Graphics/SVG/1.1/DTD/svg11.dtd" >
<svg>
<metadata>
Created by FontForge 20090914 at Mon Oct 14 20:45:21 2013
 By www-data
&#194;&#169; 1985, 1987, 1994, 2001, 2002 Adobe Systems Incorporated. All rights reserved.
</metadata>
<defs>
<font id="SouvenirStd-Light" horiz-adv-x="600" >
  <font-face 
    font-family="ITC Souvenir Std Light"
    font-weight="300"
    font-stretch="normal"
    units-per-em="1000"
    panose-1="2 8 5 3 4 5 10 2 3 4"
    ascent="762"
    descent="-238"
    x-height="472.999"
    cap-height="732.001"
    bbox="-157 -250 1190 960"
    underline-thickness="50"
    underline-position="-50"
    unicode-range="U+0020-U+FB02"
  />
<missing-glyph horiz-adv-x="500" 
d="M0 0v700h500v-700h-500zM250 395l170 255h-340zM280 350l170 -255v510zM80 50h340l-170 255zM50 605v-510l170 255z" />
    <glyph glyph-name="f_i" unicode="fi" horiz-adv-x="520" 
d="M173 425l0.00292969 -337.997c0 -8.66699 3.16699 -17.334 9.5 -26.001s13.166 -14.334 20.499 -17.001c13.333 -6.66699 20 -14 20 -22c0 -6.66699 -2.5 -12 -7.5 -16s-10.833 -6 -17.5 -6h-124c-16 0 -24 7.33301 -24 22c0 4.66699 1.16699 8.16699 3.5 10.5
s7.16602 5.16602 14.499 8.49902c12 4.66699 20 11.667 24 21s6 28.666 6 57.999v305h-41c-8 0 -14.167 0.333008 -18.5 1s-8.16602 3 -11.499 7s-5 10 -5 18c0 7.33301 2.33301 12.5 7 15.5s10.167 4.83301 16.5 5.5s17.166 1 32.499 1h20v52c0 44.667 6 85 18 121
s33.333 66.667 64 92s69 38 115 38c48.667 0 86 -12.5 112 -37.5s39 -53.5 39 -85.5c0 -14.667 -4.66699 -28.5 -14 -41.5s-22.666 -19.5 -39.999 -19.5c-16.667 0 -30.167 5 -40.5 15s-15.5 21.667 -15.5 35c0 4.66699 2.33301 12.334 7 23.001s7 17.667 7 21
c0 14.667 -5.5 25.834 -16.5 33.501s-25.5 11.5 -43.5 11.5c-78 0 -117 -55.667 -117 -167v-91h127c26 0 49.667 1.33301 71 4c2 0 8.16699 0.5 18.5 1.5s18.166 1.5 23.499 1.5c6.66699 0 11.667 -1.33301 15 -4s6.66602 -13.834 9.99902 -33.501s5 -48.834 5 -87.501v-232
c0 -30 1.33301 -49.167 4 -57.5s9.66699 -14.833 21 -19.5c9.33301 -3.33301 16 -6.5 20 -9.5s6 -7.83301 6 -14.5c0 -14.667 -11 -22 -33 -22h-113c-22.667 0 -34 7.33301 -34 22c0 10.667 6.33301 17.667 19 21c16 4 25.833 10.167 29.5 18.5s5.5 23.833 5.5 46.5v263
c0 22.667 -4.66699 37.334 -14 44.001s-27.333 10 -54 10h-127z" />
    <glyph glyph-name="f_l" unicode="fl" horiz-adv-x="500" 
d="M174 425l-0.00195312 -327c0 -17.333 2 -29.5 6 -36.5s11.667 -12.833 23 -17.5c13.333 -5.33301 20 -12.666 20 -21.999c0 -14.667 -9 -22 -27 -22h-120c-17.333 0 -26 7.66699 -26 23c0 8 4.66699 14 14 18c13.333 2.66699 22.5 9 27.5 19s7.5 27 7.5 51v314h-20
c-22 0 -37 1.5 -45 4.5s-12 10.5 -12 22.5c0 14 12.333 21 37 21h40v77c0 40 4.33301 74.667 13 104s18.834 51.5 30.501 66.5s26 27 43 36s31.333 14.5 43 16.5s23.834 3 36.501 3c34 0 67.333 -11.333 100 -34l23 9c10 4 21.667 6 35 6c8.66699 0 14 -3.16699 16 -9.5
s3 -17.5 3 -33.5v-602c0 -20 1.33301 -34 4 -42s8.33398 -14.333 17.001 -19c0.666992 -0.666992 2.5 -1.66699 5.5 -3s5.16699 -2.33301 6.5 -3s3.16602 -2 5.49902 -4s4 -3.66699 5 -5s2 -3 3 -5s1.5 -4.33301 1.5 -7c0 -6 -2.33301 -11.5 -7 -16.5s-10 -7.5 -16 -7.5
h-105h-5c-24.667 -0.666992 -37 7 -37 23c0 2 0.166992 3.66699 0.5 5s0.833008 2.5 1.5 3.5l2 3c0.666992 1 1.66699 2 3 3s2.33301 1.66699 3 2l4 2c2 1 3.33301 1.83301 4 2.5c12.667 7.33301 20.5 14.833 23.5 22.5s4.83301 21.834 5.5 42.501v462
c0 37.333 -0.833008 63.666 -2.5 78.999s-5.5 27.666 -11.5 36.999c-19.333 29.333 -48.333 44 -87 44c-28.667 0 -51.167 -11.5 -67.5 -34.5s-24.5 -63.5 -24.5 -121.5v-102h86c10.667 0 16 -8.33301 16 -25c0 -15.333 -13.333 -23 -40 -23h-62z" />
    <glyph glyph-name=".notdef" horiz-adv-x="500" 
d="M0 0v700h500v-700h-500zM250 395l170 255h-340zM280 350l170 -255v510zM80 50h340l-170 255zM50 605v-510l170 255z" />
    <glyph glyph-name="space" unicode=" " horiz-adv-x="300" 
 />
    <glyph glyph-name="exclam" unicode="!" horiz-adv-x="300" 
d="M146 -8c-15.333 0 -27.999 5.33301 -37.999 16s-15 23.667 -15 39c0 14.667 5.16699 27 15.5 37s22.833 15 37.5 15c15.333 0 28.166 -5.33301 38.499 -16s15.5 -23.667 15.5 -39c0 -14 -5.5 -26.167 -16.5 -36.5s-23.5 -15.5 -37.5 -15.5zM197.001 662l-32.001 -431.001
l-1 -9c0 -6 -0.166992 -10.5 -0.5 -13.5s-1.16602 -6.83301 -2.49902 -11.5s-3.33301 -8 -6 -10s-6 -3 -10 -3s-7.33301 1.16699 -10 3.5s-4.5 6 -5.5 11s-1.83301 9.33301 -2.5 13s-1 8.33398 -1 14.001v10.5l-29 451c0 46.667 17.667 70 53 70c16 0 28 -5.5 36 -16.5
s11.833 -23.5 11.5 -37.5s-0.5 -27.667 -0.5 -41z" />
    <glyph glyph-name="quotedbl" unicode="&#x22;" horiz-adv-x="360" 
d="M99 507h-20l-33 196c-2 10.667 1.66699 20.667 11 30s20 14 32 14s22.667 -4.66699 32 -14s13 -19.333 11 -30zM280 507h-20l-33 196c-2 10.667 1.66699 20.667 11 30s20 14 32 14s22.667 -4.66699 32 -14s13 -19.333 11 -30z" />
    <glyph glyph-name="numbersign" unicode="#" 
d="M392 261l-41.001 -122.003c-6 -17.333 -16 -26 -30 -26c-8 0 -14.833 2.66699 -20.5 8s-8.5 12 -8.5 20c0 2.66699 0.5 5.83398 1.5 9.50098s2.16699 7.66699 3.5 12s2.33301 7.5 3 9.5l30 89h-146l-35 -106c-0.666992 -1.33301 -1.66699 -4.16602 -3 -8.49902
s-2.33301 -7.16602 -3 -8.49902s-1.83398 -3.83301 -3.50098 -7.5s-3.16699 -6.16699 -4.5 -7.5s-3.16602 -3 -5.49902 -5s-5 -3.33301 -8 -4s-6.16699 -1 -9.5 -1c-8 0 -15 2.83301 -21 8.5s-9 12.5 -9 20.5c0 3.33301 3 14 9 32l29 87h-71c-23.333 0 -35 9.33301 -35 28
c0 18 11.333 27 34 27h90l53 159h-70c-23.333 0 -35 9.33301 -35 28s11 28 33 28h91l41 120c6 18.667 16.333 28 31 28c8.66699 0 15.834 -2.83301 21.501 -8.5s8.5 -12.5 8.5 -20.5c0 -7.33301 -2.66699 -18 -8 -32l-29 -87h146l40 122c6.66699 17.333 17 26 31 26
c7.33301 0 13.833 -2.66699 19.5 -8s8.5 -12 8.5 -20c0 -6.66699 -2.66699 -17 -8 -31l-30 -89h69c23.333 0 35 -9.33301 35 -28s-11.333 -28 -34 -28h-88l-54 -159h69c23.333 0 35 -9 35 -27c0 -18.667 -11.333 -28 -34 -28h-88zM401.999 475.997h-146l-53 -159h146z" />
    <glyph glyph-name="dollar" unicode="$" 
d="M328 708v-276.996c31.333 -13.333 57.833 -26 79.5 -38s43.334 -27.167 65.001 -45.5s37.834 -40 48.501 -65s16 -53.5 16 -85.5c0 -58.667 -19.833 -107.5 -59.5 -146.5s-89.5 -61.5 -149.5 -67.5v-81v-6.5v-6v-5.5c0 -2.66699 -0.333008 -4.66699 -1 -6
s-1.33398 -3 -2.00098 -5s-1.66699 -3.5 -3 -4.5s-2.83301 -2 -4.5 -3s-3.66699 -1.66699 -6 -2s-4.83301 -0.5 -7.5 -0.5c-8 0 -14 1.5 -18 4.5s-6.16699 6.16699 -6.5 9.5s-0.5 9.66602 -0.5 18.999v87c-54.667 4.66699 -98.334 18.334 -131.001 41.001
c-20.667 14 -38.834 32.833 -54.501 56.5s-23.5 46.167 -23.5 67.5c0 22.667 9.66699 34 29 34c15.333 0 26 -11.333 32 -34c10.667 -40 27.334 -68.667 50.001 -86s55.334 -28 98.001 -32v322l-13 6c-24 11.333 -42.5 20.333 -55.5 27s-28.667 16.5 -47 29.5
s-32.166 25.667 -41.499 38s-17.5 28.166 -24.5 47.499s-10.5 40.333 -10.5 63c0 51.333 19 95.166 57 131.499s83 56.166 135 59.499v76c0 9.33301 0.166992 15.833 0.5 19.5s2.33301 7.5 6 11.5s9.5 6 17.5 6c11.333 0 18.333 -3 21 -9s4 -15.333 4 -28v-76
c41.333 -2 79.166 -15 113.499 -39s51.5 -55.667 51.5 -95c0 -12 -2.83301 -22.5 -8.5 -31.5s-13.834 -13.5 -24.501 -13.5c-22 0 -33.667 14.333 -35 43v11v13c0 2 -0.333008 5.5 -1 10.5s-2 9 -4 12s-4.33301 6.16699 -7 9.5c-14 15.333 -42.333 26.666 -85 33.999z
M278 450.004v256.001c-36 -2 -66.833 -13.667 -92.5 -35s-38.5 -50 -38.5 -86c0 -18 3.66699 -34.333 11 -49s18.333 -27.334 33 -38.001s28 -19.167 40 -25.5s27.667 -13.833 47 -22.5zM328 328.005v-298.998c41.333 3.33301 76.166 17.666 104.499 42.999
s42.5 58.333 42.5 99c0 17.333 -3.16699 33.5 -9.5 48.5s-13.166 27 -20.499 36s-19.166 18.833 -35.499 29.5s-28.833 18.167 -37.5 22.5s-23.334 11.166 -44.001 20.499z" />
    <glyph glyph-name="percent" unicode="%" horiz-adv-x="820" 
d="M192 439c32 0 56.833 12.5 74.5 37.5s26.5 56.167 26.5 93.5c0 36.667 -8.83301 67 -26.5 91s-42.167 36 -73.5 36c-32 0 -56.333 -12.667 -73 -38s-25 -56.666 -25 -93.999c0 -36.667 8.33301 -66.834 25 -90.501s40.667 -35.5 72 -35.5zM177 24l396.001 668.001
c-39.333 -14.667 -83.666 -22 -132.999 -22c-44 0 -82.333 5 -115 15c28.667 -26 43 -65 43 -117s-17.5 -95 -52.5 -129s-76.5 -51 -124.5 -51c-47.333 0 -87.666 17.5 -120.999 52.5s-50 77.833 -50 128.5c0 49.333 17.833 91.5 53.5 126.5s76.167 52.5 121.5 52.5
c16.667 0 38.334 -2.66699 65.001 -8c1.33301 0 13 -2.33301 35 -7s37.667 -7.83398 47 -9.50098s23.5 -3.5 42.5 -5.5s36.833 -3 53.5 -3c57.333 0 110.666 9 159.999 27c17.333 5.33301 30.666 8 39.999 8c14 0 21 -3.33301 21 -10c0 -6 -3.66699 -13.667 -11 -23
l-413 -697c-0.666992 -1.33301 -2.5 -4.33301 -5.5 -9s-4.83301 -7.66699 -5.5 -9s-2.33398 -3.5 -5.00098 -6.5s-4.83398 -5 -6.50098 -6s-4.16699 -2 -7.5 -3s-7 -1.5 -11 -1.5c-17.333 0 -26 3 -26 9c0 8 3 18 9 30zM623.001 -15.999
c-47.333 0 -87.667 17.501 -121 52.501s-50 77.833 -50 128.5c0 49.333 17.833 91.5 53.5 126.5s76.167 52.5 121.5 52.5c46.667 0 87.167 -17.333 121.5 -52s51.5 -77.334 51.5 -128.001c0 -52 -17.5 -95 -52.5 -129s-76.5 -51 -124.5 -51zM624 35.002
c32 0 56.833 12.5 74.5 37.5s26.5 56.167 26.5 93.5c0 36.667 -8.83301 67 -26.5 91s-42.167 36 -73.5 36c-32 0 -56.333 -12.667 -73 -38s-25 -56.666 -25 -93.999c0 -36.667 8.33301 -66.834 25 -90.501s40.667 -35.5 72 -35.5z" />
    <glyph glyph-name="ampersand" unicode="&#x26;" horiz-adv-x="800" 
d="M545 418l151.002 -0.00195312c26.667 0 40 -7 40 -21c0 -8.66699 -10.5 -17.667 -31.5 -27s-33.833 -17.666 -38.5 -24.999l-28.5 -47l-33.5 -55.5c-8.66699 -14.333 -20.334 -31.666 -35.001 -51.999s-29.334 -38.5 -44.001 -54.5c55.333 -54 112.333 -81 171 -81
c10 0 22.833 1.5 38.5 4.5s26.834 4.5 33.501 4.5c12.667 0 19 -6 19 -18c0 -14 -13.167 -26.833 -39.5 -38.5s-56.166 -17.5 -89.499 -17.5c-66.667 0 -131.334 28.667 -194.001 86c-68.667 -60.667 -142.334 -91 -221.001 -91c-59.333 0 -111 17.5 -155 52.5
s-66 81.5 -66 139.5c0 84 55.667 158 167 222c-49.333 65.333 -74 124 -74 176c0 53.333 19.833 95.333 59.5 126s87.167 46 142.5 46c42.667 0 81.667 -13.167 117 -39.5s53 -60.5 53 -102.5c0 -19.333 -4.83301 -38.333 -14.5 -57s-19.667 -34 -30 -46
s-26.833 -26 -49.5 -42s-38.667 -26.667 -48 -32l-51 -29l45 -55.5l50.5 -62l47 -55c18.333 -21 35.5 -39.5 51.5 -55.5c58 66.667 87 121.667 87 165c0 14 -10.833 25.167 -32.5 33.5s-32.5 17.833 -32.5 28.5c0 13.333 11.667 20 35 20zM428.002 112.998
c-87.333 92 -156.999 174.333 -208.999 247c-78 -44 -117 -99.667 -117 -167c0 -44 15.333 -79.5 46 -106.5s68.334 -40.5 113.001 -40.5c33.333 0 62.166 5.33301 86.499 16s51.166 27.667 80.499 51zM263.003 439.998l51 28.5c12 7 27.833 17.667 47.5 32
s34.334 29.5 44.001 45.5s14.5 33 14.5 51c0 31.333 -10.833 56.833 -32.5 76.5s-48.5 29.5 -80.5 29.5c-30.667 0 -58.334 -9 -83.001 -27s-37 -42 -37 -72c0 -44 25.333 -98.667 76 -164z" />
    <glyph glyph-name="quotesingle" unicode="'" horiz-adv-x="160" 
d="M90 507h-20l-33 196c-2 10.667 1.66699 20.667 11 30s20 14 32 14s22.667 -4.66699 32 -14s13 -19.333 11 -30z" />
    <glyph glyph-name="parenleft" unicode="(" horiz-adv-x="240" 
d="M224 -146c0 -8 -8.00098 -11.998 -24.001 -11.998c-5.33301 0 -10.166 0.833008 -14.499 2.5s-7.83301 3.16699 -10.5 4.5s-5.66699 4.16602 -9 8.49902s-5.5 7.5 -6.5 9.5l-6.5 12.5l-6 11.5c-73.333 136 -110 272.333 -110 409c0 100.667 19.667 200.667 59 300
c20.667 52.667 42.667 97.334 66 134.001c9.33301 15.333 22 23 38 23s24 -4 24 -12c0 -2.66699 -5.33301 -16.334 -16 -41.001c-62 -128 -93 -263 -93 -405c0 -141.333 31 -276 93 -404c10.667 -24.667 16 -38.334 16 -41.001z" />
    <glyph glyph-name="parenright" unicode=")" horiz-adv-x="240" 
d="M15 745c0 8 8.00098 11.9971 24.001 11.9971c4 0 7.83301 -0.333008 11.5 -1s7.16699 -2.16699 10.5 -4.5s6 -4.33301 8 -6s4.16699 -4.5 6.5 -8.5s4.16602 -6.83301 5.49902 -8.5s3.33301 -5.16699 6 -10.5l5 -10c73.333 -136 110 -272.333 110 -409
c0 -101.333 -20 -201.666 -60 -300.999c-22 -56 -43.667 -100.333 -65 -133c-9.33301 -15.333 -22 -23 -38 -23s-24 4 -24 12c0 6 5.33301 19.667 16 41c61.333 128.667 92 263.334 92 404.001c0 140 -30.667 275 -92 405c-10.667 18.667 -16 32.334 -16 41.001z" />
    <glyph glyph-name="asterisk" unicode="*" horiz-adv-x="360" 
d="M134 549c-1.33301 -1.33301 -3.83398 -4.66992 -7.50098 -10.0029s-6.5 -9 -8.5 -11s-5 -5.16699 -9 -9.5s-7.5 -7.33301 -10.5 -9s-6.66699 -3.33398 -11 -5.00098s-8.83301 -2.5 -13.5 -2.5c-9.33301 0 -17.166 3.5 -23.499 10.5s-9.5 15.167 -9.5 24.5
c0 22 22 35 66 39c40.667 4.66699 61 11.334 61 20.001c0 6 -6.66699 10.5 -20 13.5s-27.833 4.83301 -43.5 5.5s-30.167 4.16699 -43.5 10.5s-20 15.833 -20 28.5c0 9.33301 3.16699 17.5 9.5 24.5s14.166 10.5 23.499 10.5c12.667 0 25.334 -6.83301 38.001 -20.5
s24.167 -27.334 34.5 -41.001s19.166 -20.5 26.499 -20.5c2.66699 0 4 2.33301 4 7c0 10.667 -5.33301 28.334 -16 53.001s-16 40.334 -16 47.001c0 10 3.33301 18.5 10 25.5s15 10.5 25 10.5c10.667 0 19.167 -3.83301 25.5 -11.5s9.5 -16.834 9.5 -27.501
c0 -9.33301 -5.16699 -25.833 -15.5 -49.5s-15.5 -39.834 -15.5 -48.501c0 -5.33301 1.33301 -8 4 -8c5.33301 0 12 4.5 20 13.5s15.5 19 22.5 30s15.5 21 25.5 30s20 13.5 30 13.5c9.33301 0 17.333 -3.16699 24 -9.5s10 -14.166 10 -23.499
c0 -13.333 -6.5 -23.666 -19.5 -30.999s-27.5 -11.666 -43.5 -12.999s-30.5 -3.33301 -43.5 -6s-19.5 -7 -19.5 -13s6.5 -10.5 19.5 -13.5s27.5 -5.16699 43.5 -6.5s30.5 -5.66602 43.5 -12.999s19.5 -17.666 19.5 -30.999c0 -9.33301 -3.33301 -17.166 -10 -23.499
s-14.667 -9.5 -24 -9.5c-15.333 0 -33.666 14.667 -54.999 44c-1.33301 2 -3.5 5 -6.5 9s-5.33301 7 -7 9l-6 7.5c-2.33301 3 -4.33301 5.33301 -6 7s-3.66699 3.5 -6 5.5s-4.33301 3.33301 -6 4s-3.5 1 -5.5 1c-2.66699 0 -4 -2.66699 -4 -8
c0 -8.66699 5.16699 -24.834 15.5 -48.501s15.5 -40.167 15.5 -49.5c0 -10.667 -3.16699 -19.834 -9.5 -27.501s-14.833 -11.5 -25.5 -11.5c-10 0 -18.167 3.5 -24.5 10.5s-9.5 15.5 -9.5 25.5c0 7.33301 5.16699 23.333 15.5 48s15.5 42 15.5 52c0 5.33301 -1.33301 8 -4 8
c-8 0 -21 -12 -39 -36z" />
    <glyph glyph-name="plus" unicode="+" horiz-adv-x="660" 
d="M70 292h229v228h63v-228h228v-63h-228v-229h-63v229h-229v63z" />
    <glyph glyph-name="comma" unicode="," horiz-adv-x="300" 
d="M148 -8c-18.667 -1.33301 -32.332 1.99902 -40.999 9.99902c-12 12 -18 26.333 -18 43c0 14.667 5.5 26.834 16.5 36.501s23.833 14.5 38.5 14.5c23.333 0 40.666 -9 51.999 -27s17 -39.333 17 -64c0 -30 -7 -59.667 -21 -89s-32.333 -54 -55 -74
c-8.66699 -8.66699 -14.667 -13 -18 -13s-6.33301 1.5 -9 4.5s-4 6.16699 -4 9.5c0 2.66699 5.66699 9.66699 17 21s22.5 25.833 33.5 43.5s16.5 35.5 16.5 53.5c0 12 -1.66699 20.167 -5 24.5s-10 6.5 -20 6.5z" />
    <glyph glyph-name="hyphen" unicode="-" horiz-adv-x="300" 
d="M235 257l-169.999 0.00195312h-9h-9c-1.33301 0 -3.83301 0.166992 -7.5 0.5s-6.16699 1.16602 -7.5 2.49902s-3 2.83301 -5 4.5s-3.33301 4 -4 7s-1 6.5 -1 10.5c0 15.333 2.33301 24.5 7 27.5s14.334 4.5 29.001 4.5h7h170h9h9.5c1.66699 0 4.16699 -0.166992 7.5 -0.5
s5.66602 -1 6.99902 -2s3 -2.5 5 -4.5s3.33301 -4.33301 4 -7s1 -6 1 -10c0 -8.66699 -0.333008 -15.334 -1 -20.001s-3.83398 -8 -9.50098 -10s-9.5 -3 -11.5 -3h-21z" />
    <glyph glyph-name="period" unicode="." horiz-adv-x="300" 
d="M149 -8c-15.333 0 -27.999 5.33301 -37.999 16s-15 23.667 -15 39c0 14.667 5.16699 27 15.5 37s22.833 15 37.5 15c15.333 0 28.166 -5.33301 38.499 -16s15.5 -23.667 15.5 -39c0 -14 -5.5 -26.167 -16.5 -36.5s-23.5 -15.5 -37.5 -15.5z" />
    <glyph glyph-name="slash" unicode="/" horiz-adv-x="520" 
d="M11 -72l455.001 799.001c4 6.66699 7.5 11.834 10.5 15.501s7.33301 7 13 10s12.167 4.5 19.5 4.5c24.667 0 32.667 -12 24 -36l-453 -795c-4.66699 -8.66699 -8.33398 -14.834 -11.001 -18.501s-7 -7.33398 -13 -11.001s-12.667 -5.5 -20 -5.5c-14 0 -23 4.66699 -27 14
s-3.33301 17 2 23z" />
    <glyph glyph-name="zero" unicode="0" 
d="M303 -15c-36 0 -68.8359 8.50195 -98.5029 25.502s-53.667 38.667 -72 65s-33.833 56.666 -46.5 90.999s-21.5 68 -26.5 101s-7.5 65.5 -7.5 97.5c0 26.667 1.83301 53.834 5.5 81.501s9.5 56.167 17.5 85.5s18.667 56.833 32 82.5s28.833 48.667 46.5 69
s39.334 36.5 65.001 48.5s53.834 18 84.501 18c76.667 0 137.667 -37.833 183 -113.5s68 -166.167 68 -271.5c0 -40.667 -4.33301 -81.834 -13 -123.501s-22.167 -82.334 -40.5 -122.001s-44.666 -72 -78.999 -97s-73.833 -37.5 -118.5 -37.5zM302.997 30.002
c13.333 0 26.5 2.66602 39.5 7.99902s26.833 15.5 41.5 30.5s27.334 34.5 38.001 58.5s19.5 56.5 26.5 97.5s10.5 87.833 10.5 140.5c0 52 -3.33301 98.333 -10 139s-15.334 73.334 -26.001 98.001s-23 45 -37 61s-27.833 27 -41.5 33s-27.5 9 -41.5 9
c-48.667 0 -86.834 -30.167 -114.501 -90.5s-41.5 -143.5 -41.5 -249.5c0 -52.667 3.5 -99.5 10.5 -140.5s16 -73.5 27 -97.5s23.833 -43.5 38.5 -58.5s28.334 -25.167 41.001 -30.5s25.667 -8 39 -8z" />
    <glyph glyph-name="one" unicode="1" 
d="M369 709l0.000976562 -572.001c0 -34.667 4 -57.167 12 -67.5s29 -16.5 63 -18.5c0.666992 0 2.83398 -0.166992 6.50098 -0.5s6.33398 -0.5 8.00098 -0.5s4.5 -0.166992 8.5 -0.5s7.16699 -0.833008 9.5 -1.5s5.16602 -1.33398 8.49902 -2.00098s6 -1.66699 8 -3
s4 -2.83301 6 -4.5s3.5 -3.5 4.5 -5.5s1.5 -4.33301 1.5 -7c0 -11.333 -3 -18.5 -9 -21.5s-15.667 -4.5 -29 -4.5h-289c-27.333 0 -41 7.66699 -41 23c0 4.66699 1.66699 8.66699 5 12s8.16602 5.83301 14.499 7.5s11.666 3 15.999 4s10.5 1.83301 18.5 2.5s12.333 1 13 1
c34.667 3.33301 55.834 10.666 63.501 21.999s11.5 34.333 11.5 69v417c0 29.333 -2.66699 47.333 -8 54c-10.667 12.667 -35.334 19 -74.001 19c-6 0 -14.833 -0.333008 -26.5 -1s-20.5 -1 -26.5 -1c-22 0 -33 7 -33 21c0 4.66699 1 8.5 3 11.5s5.5 5.33301 10.5 7
s9 2.83398 12 3.50098s8 1.33398 15 2.00098s10.833 1 11.5 1c55.333 4 105 22 149 54c1.33301 1.33301 4 3.5 8 6.5l9.5 7c2.33301 1.66699 5.5 3.33398 9.5 5.00098s7.66699 2.5 11 2.5c12.667 0 19 -13.667 19 -41z" />
    <glyph glyph-name="two" unicode="2" 
d="M458 0h-362.005c-9.33301 0 -16 0.166992 -20 0.5s-8.5 2.5 -13.5 6.5s-7.5 10 -7.5 18c0 19.333 21.333 58 64 116s100.667 122.667 174 194c56 54 93.667 95 113 123c28.667 41.333 43 80.333 43 117s-13.167 67 -39.5 91s-57.833 36 -94.5 36
c-44 0 -81.167 -12.5 -111.5 -37.5s-45.5 -51.167 -45.5 -78.5c0 -10.667 4.83301 -23.667 14.5 -39s14.5 -26.333 14.5 -33c0 -12.667 -4.66699 -22.334 -14 -29.001s-20.666 -10 -33.999 -10c-19.333 0 -34.666 7.66699 -45.999 23s-17 33.333 -17 54
c0 52 22.333 98 67 138s104.334 60 179.001 60c70.667 0 125.334 -17.833 164.001 -53.5s58 -79.5 58 -131.5c0 -21.333 -4 -42.833 -12 -64.5s-17 -40.334 -27 -56.001s-24.5 -33.167 -43.5 -52.5s-34.5 -34.166 -46.5 -44.499l-50 -41.5
c-50.667 -41.333 -93.167 -79.666 -127.5 -114.999s-62.5 -74.333 -84.5 -117h215c36.667 0 61.834 2.33301 75.501 7s31.167 18.667 52.5 42c14 15.333 25.667 23 35 23c11.333 0 17 -6 17 -18c0 -5.33301 -3.83301 -16.833 -11.5 -34.5s-13.5 -35.167 -17.5 -52.5
c-4.66699 -19.333 -10.5 -31 -17.5 -35s-21.5 -6 -43.5 -6z" />
    <glyph glyph-name="three" unicode="3" 
d="M367 400c52.667 -10 97.3301 -31.3369 133.997 -64.0039s55 -75.667 55 -129c0 -67.333 -24.667 -121.166 -74 -161.499s-114.666 -60.5 -195.999 -60.5c-24.667 0 -49.834 2.83301 -75.501 8.5s-50.667 14.167 -75 25.5s-44.333 27.333 -60 48
s-23.5 44.334 -23.5 71.001c0 15.333 4 27.666 12 36.999s19.667 14 35 14c14 0 23.667 -3.83301 29 -11.5s8.66602 -19.167 9.99902 -34.5c2.66699 -38 17 -66.333 43 -85s59 -28 99 -28c61.333 0 106.5 16.667 135.5 50s43.5 74.333 43.5 123c0 48 -16.5 87.333 -49.5 118
s-82.833 46 -149.5 46c-23.333 0 -39.333 1.5 -48 4.5s-13 9.83301 -13 20.5c0 3.33301 0.833008 6.33301 2.5 9s4 4.83398 7 6.50098s6 3.16699 9 4.5s6.83301 2.33301 11.5 3s8.33398 1 11.001 1s6.33398 0.166992 11.001 0.5s7.33398 0.5 8.00098 0.5
c112.667 4.66699 169 57.334 169 158.001c0 38 -13.5 68.667 -40.5 92s-58.167 35 -93.5 35c-34 0 -62.333 -6.83301 -85 -20.5s-34 -34.5 -34 -62.5c0 -5.33301 0.833008 -12.666 2.5 -21.999s2.5 -16 2.5 -20c0 -20 -16.667 -30 -50 -30
c-11.333 0 -21.666 4.83301 -30.999 14.5s-14 22.167 -14 37.5c0 40.667 23.167 76 69.5 106s97.5 45 153.5 45c61.333 0 112.5 -16.333 153.5 -49s61.5 -77.667 61.5 -135c0 -42 -15 -77 -45 -105s-67 -48.333 -111 -61z" />
    <glyph glyph-name="four" unicode="4" 
d="M352 195l-269 -0.000976562c-12.667 0 -22 0.333008 -28 1s-12 3.16699 -18 7.5s-9 10.833 -9 19.5c0 42 31.667 118.5 95 229.5s139.333 201.833 228 272.5c20 16.667 37.667 25 53 25c12 0 21 -3.5 27 -10.5s9.33301 -13.833 10 -20.5s1 -16.334 1 -29.001v-438h93
c10 0 17.5 -0.5 22.5 -1.5s9.33301 -3.66699 13 -8s5.5 -11.166 5.5 -20.499c0 -11.333 -3 -18.666 -9 -21.999s-15 -5 -27 -5h-98v-79c0 -26 1.66699 -42.833 5 -50.5s11 -13.167 23 -16.5c1.33301 0 3.83301 -0.5 7.5 -1.5s6.16699 -1.5 7.5 -1.5s3.33301 -0.5 6 -1.5
s4.5 -1.66699 5.5 -2s2.5 -1 4.5 -2s3.33301 -2 4 -3s1.5 -2.33301 2.5 -4s1.66699 -3.5 2 -5.5s0.5 -4 0.5 -6c0 -14.667 -11 -22 -33 -22h-158c-22 0 -33 7 -33 21c0 11.333 7.66699 18.333 23 21c19.333 3.33301 31.333 8.83301 36 16.5s7 23.5 7 47.5v89zM352 250.999
v405c-116.667 -114.667 -202 -249.667 -256 -405h256z" />
    <glyph glyph-name="five" unicode="5" 
d="M98 377l19.001 308.998c0.666992 12.667 1.16699 21.834 1.5 27.501s1.33301 12 3 19s4 11.667 7 14s6.83301 3.5 11.5 3.5c7.33301 0 28.333 -2 63 -6c30.667 -4.66699 55.667 -7 75 -7c46 0 88.333 2.33301 127 7l66 6c14.667 0 22 -6 22 -18
c0 -6.66699 -3 -13.167 -9 -19.5s-15.833 -12.833 -29.5 -19.5s-30.334 -12.5 -50.001 -17.5s-44.334 -9 -74.001 -12s-62.167 -4.5 -97.5 -4.5h-58l-16 -244c50.667 30 109.334 45 176.001 45c61.333 0 113.666 -19.833 156.999 -59.5s65 -94.167 65 -163.5
c0 -68 -24.833 -127 -74.5 -177s-120.167 -75 -211.5 -75c-68.667 0 -122.834 15.333 -162.501 46s-59.5 64.334 -59.5 101.001c0 14.667 4.33301 27.167 13 37.5s20.334 15.5 35.001 15.5c10.667 0 20.334 -3.83301 29.001 -11.5s13 -17.167 13 -28.5
c0 -3.33301 -0.5 -7.83301 -1.5 -13.5s-1.5 -10.167 -1.5 -13.5c0 -29.333 13.167 -51 39.5 -65s55.833 -21 88.5 -21c61.333 0 109.333 17.667 144 53s52 84 52 146c0 52 -13.5 94.833 -40.5 128.5s-66.167 50.5 -117.5 50.5c-24 0 -46.667 -3.83301 -68 -11.5
s-38 -16 -50 -25s-23.833 -17.333 -35.5 -25s-21.5 -11.5 -29.5 -11.5c-10.667 0 -17.167 2.83301 -19.5 8.5s-2.83301 16.167 -1.5 31.5z" />
    <glyph glyph-name="six" unicode="6" 
d="M145 361c62.667 57.333 131 86 205 86c62 0 112 -19.833 150 -59.5s57 -90.167 57 -151.5c0 -71.333 -23.333 -131 -70 -179s-106 -72 -178 -72c-76.667 0 -139.167 25.333 -187.5 76s-72.5 129.667 -72.5 237c0 60.667 9.16699 116.667 27.5 168s42.166 94 71.499 128
s62.166 63.167 98.499 87.5s72.5 41.833 108.5 52.5s70 16 102 16c20.667 0 31 -7 31 -21c0 -12.667 -16.667 -20.334 -50 -23.001c-85.333 -11.333 -154.166 -49.666 -206.499 -114.999s-81.166 -142 -86.499 -230zM144 303c0 -95.333 15.332 -164.167 45.999 -206.5
s71.334 -63.5 122.001 -63.5c42.667 0 78.334 17.333 107.001 52s43 81 43 139c0 48 -12.333 88.667 -37 122s-60.334 50 -107.001 50c-62.667 0 -120.667 -31 -174 -93z" />
    <glyph glyph-name="seven" unicode="7" 
d="M459 659l-259.002 -0.000976562c-12 0 -20.667 -0.166992 -26 -0.5s-12.166 -1.5 -20.499 -3.5s-14.666 -5.16699 -18.999 -9.5s-8.5 -10.666 -12.5 -18.999s-6.66699 -18.5 -8 -30.5c-2.66699 -20 -10.667 -30 -24 -30c-12.667 0 -19 13 -19 39v75
c0 24 3.5 38.667 10.5 44s20.5 8 40.5 8h378c26 0 39 -5.33301 39 -16c0 -5.33301 -7.83301 -26.833 -23.5 -64.5s-43.667 -109 -84 -214s-82.833 -224.167 -127.5 -357.5c-16.667 -49.333 -28.667 -78.333 -36 -87c-9.33301 -12.667 -25.333 -19 -48 -19
c-17.333 0 -28.833 2 -34.5 6s-8.5 11.667 -8.5 23c0 14 16.167 58.167 48.5 132.5z" />
    <glyph glyph-name="eight" unicode="8" 
d="M380 407c119.333 -46.667 178.996 -115.667 178.996 -207c0 -24 -4.83301 -48 -14.5 -72s-24.5 -47 -44.5 -69s-48.167 -39.833 -84.5 -53.5s-78.5 -20.5 -126.5 -20.5c-39.333 0 -76.666 6 -111.999 18s-65.666 32.333 -90.999 61s-38 63 -38 103
c0 46.667 17.833 86.667 53.5 120s78.834 60.333 129.501 81c-98 45.333 -147 106 -147 182c0 56 23.833 103.333 71.5 142s103.5 58 167.5 58c52 0 101 -14.333 147 -43s69 -67.667 69 -117c0 -40.667 -14.667 -75.167 -44 -103.5s-67.666 -54.833 -114.999 -79.5z
M270.996 348c-100 -42.667 -150.002 -103.333 -150.002 -182c0 -40 15.833 -72 47.5 -96s72.834 -36 123.501 -36c46.667 0 89.667 12.5 129 37.5s59 59.167 59 102.5c0 16.667 -3.66699 32.5 -11 47.5s-15.666 27.333 -24.999 37s-22.5 19.5 -39.5 29.5
s-31.5 17.5 -43.5 22.5l-48 20zM335.994 425.001c86.667 47.333 129.998 97.665 129.998 150.998c0 38.667 -15.167 69.5 -45.5 92.5s-65.166 34.5 -104.499 34.5c-40.667 0 -77.5 -12.167 -110.5 -36.5s-49.5 -55.833 -49.5 -94.5c0 -16 4.16699 -31.167 12.5 -45.5
s17 -25.666 26 -33.999s23.167 -17.5 42.5 -27.5s33.5 -16.667 42.5 -20s24.167 -8.66602 45.5 -15.999c4.66699 -2 8.33398 -3.33301 11.001 -4z" />
    <glyph glyph-name="nine" unicode="9" 
d="M461 374c-62.667 -57.333 -131 -86 -205 -86c-62 0 -112 19.833 -150 59.5s-57 90.167 -57 151.5c0 71.333 23.333 131 70 179s106 72 178 72c76.667 0 139.167 -25.333 187.5 -76s72.5 -129.667 72.5 -237c0 -60.667 -9.16699 -116.667 -27.5 -168
s-42.166 -94 -71.499 -128s-62.166 -63.167 -98.499 -87.5s-72.5 -41.833 -108.5 -52.5s-70 -16 -102 -16c-20.667 0 -31 7 -31 21c0 12.667 16.667 20.334 50 23.001c85.333 11.333 154.166 49.666 206.499 114.999s81.166 142 86.499 230zM462 432
c0 95.333 -15.332 164.167 -45.999 206.5s-71.334 63.5 -122.001 63.5c-42.667 0 -78.334 -17.333 -107.001 -52s-43 -81 -43 -139c0 -48 12.333 -88.667 37 -122s60.334 -50 107.001 -50c62.667 0 120.667 31 174 93z" />
    <glyph glyph-name="colon" unicode=":" horiz-adv-x="300" 
d="M149 -8c-15.333 0 -27.999 5.33301 -37.999 16s-15 23.667 -15 39c0 14.667 5.16699 27 15.5 37s22.833 15 37.5 15c15.333 0 28.166 -5.33301 38.499 -16s15.5 -23.667 15.5 -39c0 -14 -5.5 -26.167 -16.5 -36.5s-23.5 -15.5 -37.5 -15.5zM149.001 285
c-15.333 0 -27.999 5.33301 -37.999 16s-15 23.667 -15 39c0 14.667 5.16699 27 15.5 37s22.833 15 37.5 15c15.333 0 28.166 -5.33301 38.499 -16s15.5 -23.667 15.5 -39c0 -14 -5.5 -26.167 -16.5 -36.5s-23.5 -15.5 -37.5 -15.5z" />
    <glyph glyph-name="semicolon" unicode=";" horiz-adv-x="300" 
d="M147 285c-15.333 0 -28 5.33301 -38 16s-15 23.667 -15 39c0 14.667 5.33301 27 16 37s23.334 15 38.001 15c15.333 0 28 -5.33301 38 -16s15 -23.667 15 -39c0 -14.667 -5.33301 -27 -16 -37s-23.334 -15 -38.001 -15zM148 -8
c-18.667 -1.33301 -32.332 1.99902 -40.999 9.99902c-12 12 -18 26.333 -18 43c0 14.667 5.5 26.834 16.5 36.501s23.833 14.5 38.5 14.5c23.333 0 40.666 -9 51.999 -27s17 -39.333 17 -64c0 -30 -7 -59.667 -21 -89s-32.333 -54 -55 -74
c-8.66699 -8.66699 -14.667 -13 -18 -13s-6.33301 1.5 -9 4.5s-4 6.16699 -4 9.5c0 2.66699 5.66699 9.66699 17 21s22.5 25.833 33.5 43.5s16.5 35.5 16.5 53.5c0 12 -1.66699 20.167 -5 24.5s-10 6.5 -20 6.5z" />
    <glyph glyph-name="less" unicode="&#x3c;" horiz-adv-x="660" 
d="M610 41v-64l-554 253v58l554 255v-65l-482 -220z" />
    <glyph glyph-name="equal" unicode="=" horiz-adv-x="660" 
d="M70 368h520v-63h-520v63zM70 215h520v-63h-520v63z" />
    <glyph glyph-name="greater" unicode="&#x3e;" horiz-adv-x="660" 
d="M50 41l482 217l-482 220v65l554 -255v-58l-554 -253v64z" />
    <glyph glyph-name="question" unicode="?" horiz-adv-x="460" 
d="M188 -8c-15.333 0 -28 5.33301 -38 16s-15 23.667 -15 39c0 14.667 5.33301 27 16 37s23.334 15 38.001 15c15.333 0 28 -5.33301 38 -16s15 -23.667 15 -39c0 -14.667 -5.33301 -27 -16 -37s-23.334 -15 -38.001 -15zM158 238l-0.00292969 86.999
c0 5.33301 0.166992 9.5 0.5 12.5s0.5 5.83301 0.5 8.5s0.666992 4.83398 2 6.50098s2.33301 3.16699 3 4.5s2.33398 2.83301 5.00098 4.5s4.83398 2.83398 6.50098 3.50098l10 4c5 2 8.83301 3.66699 11.5 5c18.667 8.66699 32.167 15.167 40.5 19.5
s18.666 11.166 30.999 20.499s23.5 19.666 33.5 30.999c31.333 36.667 47 78.667 47 126c0 42 -11.667 76.667 -35 104s-55.666 41 -96.999 41c-28 0 -52 -6.66699 -72 -20c-20.667 -13.333 -29.667 -34.333 -27 -63c1.33301 -18.667 0 -31.334 -4 -38.001
c-8 -10.667 -19.667 -16 -35 -16c-27.333 0 -41 14.333 -41 43c0 34.667 15.667 64.334 47 89.001c39.333 30.667 88 46 146 46c58.667 0 106.167 -17 142.5 -51s54.5 -80 54.5 -138c0 -64 -20.667 -119.333 -62 -166c-12 -13.333 -27 -25.833 -45 -37.5
s-31.5 -19.667 -40.5 -24s-26.833 -12.5 -53.5 -24.5c-11.333 -6 -17.666 -11.333 -18.999 -16c-4.66699 -12 -7 -35.667 -7 -71c0 -29.333 -7.66699 -44 -23 -44c-4.66699 0 -8.66699 1.16699 -12 3.5s-5.5 6 -6.5 11s-1.66699 9.16699 -2 12.5s-0.333008 8.33301 0 15
s0.5 10.334 0.5 11.001z" />
    <glyph glyph-name="at" unicode="@" horiz-adv-x="820" 
d="M630 574l-113 -303.998c-12.667 -38 -19 -60 -19 -66c0 -8.66699 3.5 -15.167 10.5 -19.5s14.833 -6.5 23.5 -6.5c46.667 0 92 29 136 87c30 38.667 45 94.667 45 168c0 44 -9.16699 83.833 -27.5 119.5s-41.833 64.167 -70.5 85.5s-59 37.5 -91 48.5s-63 16.5 -93 16.5
c-95.333 0 -173.833 -32.333 -235.5 -97s-92.5 -146.667 -92.5 -246c0 -94 30.5 -172.667 91.5 -236s136.5 -95 226.5 -95c64 0 121.333 14.667 172 44s90 72.333 118 129h35c-31.333 -68.667 -75.333 -122 -132 -160s-121.334 -57 -194.001 -57
c-98.667 0 -183.5 36.833 -254.5 110.5s-106.5 162.167 -106.5 265.5c0 108 36 199.333 108 274s159.667 112 263 112c87.333 0 163.666 -29.667 228.999 -89s98 -134 98 -224c0 -70.667 -22.667 -134.334 -68 -191.001c-23.333 -28.667 -50.666 -52.334 -81.999 -71.001
s-63.666 -28 -96.999 -28c-24 0 -41.333 6.66699 -52 20s-14.334 32.333 -11.001 57c-44 -47.333 -89.667 -71 -137 -71c-36 0 -64 12.5 -84 37.5s-30 56.167 -30 93.5c0 46 9.83301 92.333 29.5 139s48.334 86.5 86.001 119.5s79.167 49.5 124.5 49.5
c47.333 0 81 -20.333 101 -61l17 46h76zM326 184.002c16.667 0 31.333 3.16699 44 9.5s24.667 17 36 32s19.333 26.833 24 35.5l23 44c37.333 76 56 135.333 56 178c0 20 -4.66699 36.833 -14 50.5s-23 20.5 -41 20.5c-34 0 -66.167 -18.667 -96.5 -56
s-53 -78.833 -68 -124.5s-22.5 -85.5 -22.5 -119.5c0 -20.667 5 -37.5 15 -50.5s24.667 -19.5 44 -19.5z" />
    <glyph glyph-name="A" unicode="A" horiz-adv-x="720" 
d="M501 256l-325.001 -0.00195312l-16.5 -47.5c-8.33301 -23.667 -15.333 -45.167 -21 -64.5s-8.5 -34.333 -8.5 -45c0 -14 2.83301 -25.333 8.5 -34s11.667 -14.334 18 -17.001s12.333 -6 18 -10s8.5 -9.33301 8.5 -16c0 -5.33301 -1.5 -9.5 -4.5 -12.5
s-7.83301 -5.16699 -14.5 -6.5s-12.667 -2.16602 -18 -2.49902s-13 -0.5 -23 -0.5h-81c-10 0 -17.333 0.333008 -22 1s-9.16699 2.66699 -13.5 6s-6.5 8.66602 -6.5 15.999c0 8.66699 5.33301 16.667 16 24c15.333 10 25.666 22.667 30.999 38
c74 230 157.667 429.667 251 599c24.667 45.333 41.334 68 50.001 68c10.667 0 29.334 -22.667 56.001 -68c78 -133.333 162.667 -334.666 254 -603.999c3.33301 -9.33301 7.33301 -16.333 12 -21s12.334 -9.66699 23.001 -15c11.333 -5.33301 17 -12.666 17 -21.999
c0 -7.33301 -2.5 -12.666 -7.5 -15.999s-9.5 -5.16602 -13.5 -5.49902s-10.333 -0.5 -19 -0.5h-124c-24 0 -36 7.66699 -36 23c0 6.66699 2.66699 12.167 8 16.5s11.166 7.33301 17.499 9s12.166 4.66699 17.499 9s8 10.166 8 17.499c0 9.33301 -7.16699 35 -21.5 77
s-27.166 76.667 -38.499 104zM194.999 307.998h290.001c-56.667 148 -106.334 255.333 -149.001 322c-53.333 -100 -100.333 -207.333 -141 -322z" />
    <glyph glyph-name="B" unicode="B" horiz-adv-x="680" 
d="M92 106l0.00292969 556.001c0 2.66699 -0.666992 5.16699 -2 7.5s-3.5 4.33301 -6.5 6s-5.33301 2.83398 -7 3.50098s-4.83398 1.66699 -9.50098 3s-7.33398 2 -8.00098 2c-5.33301 1.33301 -9 2.33301 -11 3s-4.83301 2 -8.5 4s-6.16699 4.5 -7.5 7.5s-2 6.5 -2 10.5
c0 15.333 12.333 23 37 23h325c64 0 115 -13.667 153 -41s57 -65 57 -113c0 -40.667 -15.833 -76 -47.5 -106s-69.834 -53.667 -114.501 -71c58 -8.66699 108.167 -31 150.5 -67s63.5 -81.333 63.5 -136c0 -22.667 -5.16699 -45 -15.5 -67s-25.833 -43 -46.5 -63
s-49.5 -36.333 -86.5 -49s-79.5 -19 -127.5 -19h-313c-23.333 0 -35 7.66699 -35 23c0 10.667 8.33301 18.667 25 24c17.333 5.33301 27.833 11.166 31.5 17.499s5.5 20.166 5.5 41.499zM182.003 598.001l-0.000976562 -218.999c114 21.333 195.333 48 244 80s73 70 73 114
c0 20.667 -4.33301 38.167 -13 52.5s-18.5 25 -29.5 32s-26.667 12.5 -47 16.5s-36.666 6.16699 -48.999 6.5s-29.833 0.5 -52.5 0.5c-58 0 -94 -4 -108 -12c-12 -6.66699 -18 -30.334 -18 -71.001zM182.002 323.002v-194.001c0 -38 7 -60.667 21 -68
c14.667 -7.33301 47 -11 97 -11c82.667 0 145.167 13.333 187.5 40s63.5 63.334 63.5 110.001c0 47.333 -18.5 85 -55.5 113s-81.5 46.667 -133.5 56c-57.333 -18 -117.333 -33.333 -180 -46z" />
    <glyph glyph-name="C" unicode="C" horiz-adv-x="720" 
d="M685 621l-0.000976562 -71.999c0 -22.667 -8.33301 -34 -25 -34c-3.33301 0 -6.33301 0.833008 -9 2.5s-5 4.16699 -7 7.5s-3.66699 6.33301 -5 9l-5 10.5c-2 4.33301 -3.33301 7.16602 -4 8.49902c-24.667 48.667 -53.334 84.667 -86.001 108s-73 35 -121 35
c-61.333 0 -114.166 -16.667 -158.499 -50s-76.5 -74.166 -96.5 -122.499s-30 -100.166 -30 -155.499c0 -104 26.833 -184.333 80.5 -241s119.834 -85 198.501 -85c42 0 79.5 8 112.5 24s65.833 40.333 98.5 73c1.33301 1.33301 3.83301 4.16602 7.5 8.49902
s6.66699 7.5 9 9.5s5.5 4 9.5 6s8 3 12 3c6.66699 0 12 -2.33301 16 -7s6 -10.334 6 -17.001c0 -14.667 -12 -33 -36 -55s-45.333 -38.667 -64 -50c-55.333 -34.667 -117.666 -52 -186.999 -52c-101.333 0 -187.5 33.5 -258.5 100.5s-106.5 151.167 -106.5 252.5
c0 50.667 7.66699 99.667 23 147s38.166 90.833 68.499 130.5s71.333 71.5 123 95.5s110.5 36 176.5 36c40 0 73.667 -3.66699 101 -11s57.333 -19.333 90 -36c26.667 -14 44.5 -26.833 53.5 -38.5s13.5 -25.167 13.5 -40.5z" />
    <glyph glyph-name="D" unicode="D" horiz-adv-x="740" 
d="M89 106l0.00292969 555.999c0 2.66699 -0.5 5 -1.5 7s-2.16699 3.5 -3.5 4.5s-3.33301 2.16699 -6 3.5s-4.83398 2.33301 -6.50098 3s-4.33398 1.5 -8.00098 2.5s-5.83398 1.5 -6.50098 1.5c-15.333 5.33301 -24 11 -26 17c-0.666992 2 -1 4.66699 -1 8
c0 15.333 11.667 23 35 23h206c68 0 124.167 -4.33301 168.5 -13s87.5 -28.667 129.5 -60c92.667 -69.333 139 -167.666 139 -294.999c0 -24.667 -2.66699 -51 -8 -79s-16.5 -59.5 -33.5 -94.5s-39 -66.167 -66 -93.5s-64.333 -50.333 -112 -69s-102.5 -28 -164.5 -28h-259
c-24 0 -36 7.66699 -36 23c0 10.667 8.33301 18.667 25 24s26.667 10.833 30 16.5s5 17.167 5 34.5v8zM179.003 577.999v-401.999v-46c0 -7.33301 1.16699 -17.833 3.5 -31.5s5.33301 -22 9 -25s9.83398 -7.16699 18.501 -12.5s19.167 -8.33301 31.5 -9s28.166 -1 47.499 -1
c98 0 175.333 27.5 232 82.5s85 131.5 85 229.5c0 101.333 -27.333 179.666 -82 234.999s-137 83 -247 83c-44 0 -71.333 -6.33301 -82 -19s-16 -40.667 -16 -84z" />
    <glyph glyph-name="E" unicode="E" 
d="M88 106l-0.00195312 527.999c0 14.667 -2 26.334 -6 35.001s-12.667 14 -26 16c-6.66699 2 -11.334 3.5 -14.001 4.5s-5.5 3.33301 -8.5 7s-4.5 8.16699 -4.5 13.5c0 14.667 12 22 36 22h435c24.667 0 39.334 -16 44.001 -48c5.33301 -35.333 8 -55.666 8 -60.999
c0 -10.667 -5.66699 -16 -17 -16c-7.33301 0 -13 2.66699 -17 8c-19.333 24 -40.833 40.833 -64.5 50.5s-60.5 14.5 -110.5 14.5h-91c-29.333 0 -49.5 -5.83301 -60.5 -17.5s-15.5 -31.834 -13.5 -60.501v-182h174c24.667 0 42.5 1.16699 53.5 3.5s21.5 7.83301 31.5 16.5
c8.66699 8.66699 16 13 22 13c9.33301 0 15 -3.83301 17 -11.5s3 -20.834 3 -39.501c0 -26.667 -1.16699 -44.167 -3.5 -52.5s-9.16602 -12.5 -20.499 -12.5c-6 0 -13.333 4.33301 -22 13c-9.33301 8.66699 -18.333 13.834 -27 15.501s-24.667 2.5 -48 2.5h-180v-228
c0 -36 3.83301 -59.667 11.5 -71s25.167 -17 52.5 -17h74c69.333 0 118.333 4.33301 147 13s53.334 22.667 74.001 42c18.667 16.667 31 25 37 25c10.667 0 16 -5.66699 16 -17c0 -2.66699 -4.33301 -30.667 -13 -84c-2 -12.667 -5.83301 -21 -11.5 -25s-17.5 -6 -35.5 -6
h-460c-27.333 0 -41 7.66699 -41 23c0 11.333 8 19.333 24 24s25.833 10.5 29.5 17.5s5.5 20.833 5.5 41.5z" />
    <glyph glyph-name="F" unicode="F" horiz-adv-x="560" 
d="M179 640l0.00390625 -239.002h181c26.667 0 45.667 1.16699 57 3.5s22 7.83301 32 16.5c8.66699 8.66699 16 13 22 13c9.33301 0 15 -3.83301 17 -11.5s3 -20.834 3 -39.501c0 -26.667 -1.16699 -44.167 -3.5 -52.5s-9.16602 -12.5 -20.499 -12.5
c-6 0 -13.333 4.33301 -22 13c-9.33301 8.66699 -18.666 13.834 -27.999 15.501s-28.333 2.5 -57 2.5h-181v-278c0 -2 0.333008 -4 1 -6s1.66699 -3.66699 3 -5s2.66602 -2.5 3.99902 -3.5s3.16602 -2 5.49902 -3s4.16602 -1.66699 5.49902 -2s3.5 -1 6.5 -2
s4.83301 -1.5 5.5 -1.5c5.33301 -1.33301 9 -2.33301 11 -3s4.83301 -2 8.5 -4s6.16699 -4.5 7.5 -7.5s2 -6.5 2 -10.5c0 -15.333 -12.333 -23 -37 -23h-132c-27.333 0 -41 7.66699 -41 23c0 11.333 8 19.333 24 24s26 10.5 30 17.5s6 20.833 6 41.5v544
c0 8 -2 14.5 -6 19.5s-7.66699 8.16699 -11 9.5s-8.33301 3 -15 5c-0.666992 0 -2 0.333008 -4 1l-4.5 1.5c-1 0.333008 -2.33301 0.833008 -4 1.5s-2.83398 1.33398 -3.50098 2.00098s-1.66699 1.33398 -3 2.00098s-2.33301 1.5 -3 2.5s-1.5 2 -2.5 3
s-1.66699 2.16699 -2 3.5l-1 4c-0.333008 1.33301 -0.5 3 -0.5 5c0 14.667 12 22 36 22h435c14.667 0 26.167 -2.83301 34.5 -8.5s13.666 -11.334 15.999 -17.001s4.16602 -13.167 5.49902 -22.5c5.33301 -35.333 8 -55.666 8 -60.999c0 -10.667 -5.66699 -16 -17 -16
c-7.33301 0 -13 2.66699 -17 8c-19.333 24 -40.833 40.833 -64.5 50.5s-60.5 14.5 -110.5 14.5h-103c-28 0 -47.167 -2.83301 -57.5 -8.5s-15.5 -16.167 -15.5 -31.5z" />
    <glyph glyph-name="G" unicode="G" horiz-adv-x="760" 
d="M534 367l110 0.00195312c26 0 45.5 -1.66699 58.5 -5s20.333 -6.5 22 -9.5s2.5 -7.5 2.5 -13.5c0 -4.66699 -1.83301 -18.5 -5.5 -41.5s-5.5 -48.167 -5.5 -75.5c0 -28.667 1.66699 -55 5 -79s5 -38 5 -42c0 -23.333 -32.667 -48.666 -98 -75.999
c-68 -26.667 -133 -40 -195 -40c-116 0 -211 34.167 -285 102.5s-111 157.166 -111 266.499c0 111.333 38.333 204.666 115 279.999s170.334 113 281.001 113c82 0 152.667 -16.333 212 -49c20.667 -11.333 33.667 -23.666 39 -36.999s8 -38.333 8 -75
c0 -10 -0.166992 -17.333 -0.5 -22s-1 -9.66699 -2 -15s-2.66699 -9 -5 -11s-5.83301 -3 -10.5 -3c-5.33301 0 -10 2.83301 -14 8.5s-10.333 16.834 -19 33.501c-39.333 79.333 -109.333 119 -210 119c-60 0 -112.667 -17.167 -158 -51.5s-79 -77.333 -101 -129
s-33 -106.834 -33 -165.501c0 -95.333 29.167 -171.5 87.5 -228.5s128.166 -85.5 209.499 -85.5c66 0 116.333 13.667 151 41c19.333 15.333 31.833 35.166 37.5 59.499s8.5 53.833 8.5 88.5c0 39.333 -6 64.666 -18 75.999s-36.667 17 -74 17c-45.333 0 -68 9.33301 -68 28
c0 14 20.333 21 61 21z" />
    <glyph glyph-name="H" unicode="H" horiz-adv-x="800" 
d="M90 106l0.00585938 555.001c0 2.66699 -0.5 5 -1.5 7s-2.16699 3.66699 -3.5 5s-3.5 2.66602 -6.5 3.99902s-5.16699 2.33301 -6.5 3s-3.83301 1.5 -7.5 2.5s-5.83398 1.5 -6.50098 1.5s-2.66699 0.666992 -6 2s-5.33301 2.16602 -6 2.49902s-2.33398 1 -5.00098 2
s-4.33398 2 -5.00098 3s-1.83398 2.33301 -3.50098 4s-2.66699 3.5 -3 5.5s-0.5 4.33301 -0.5 7c0 14.667 12.333 22 37 22h138c23.333 0 35 -7.33301 35 -22c0 -5.33301 -1.33301 -9.66602 -4 -12.999s-5 -5.5 -7 -6.5s-6.33301 -2.83301 -13 -5.5
c-12.667 -4 -21.334 -8.33301 -26.001 -13s-7.33398 -9.33398 -8.00098 -14.001s-1 -15.334 -1 -32.001v-202h433v238c0 8.66699 -10.167 15.334 -30.5 20.001s-30.5 14 -30.5 28c0 14.667 11.667 22 35 22h142c23.333 0 35 -7.33301 35 -22c0 -12 -8.33301 -20.333 -25 -25
c-17.333 -4.66699 -27.666 -10 -30.999 -16s-5 -17.667 -5 -35v-8v-546c0 -8.66699 3.16699 -15.667 9.5 -21s13.333 -9.16602 21 -11.499s14.667 -5.5 21 -9.5s9.5 -9 9.5 -15c0 -15.333 -11.667 -23 -35 -23h-141c-24 0 -36 7.66699 -36 23c0 10.667 8.33301 18.667 25 24
c17.333 5.33301 27.666 10.833 30.999 16.5s5 19.834 5 42.501v266h-433v-301c0 -2.66699 0.666992 -5.16699 2 -7.5s3.33301 -4.33301 6 -6s5 -2.83398 7 -3.50098l9 -3c4 -1.33301 6.66699 -2.33301 8 -3c15.333 -5.33301 24 -11 26 -17c0.666992 -2 1 -4.66699 1 -8
c0 -15.333 -12 -23 -36 -23h-138c-24 0 -36 7.66699 -36 23c0 11.333 8.66699 19.333 26 24c16.667 4.66699 26.667 10 30 16s5 17.667 5 35v8z" />
    <glyph glyph-name="I" unicode="I" horiz-adv-x="260" 
d="M86 106l0.000976562 555.999c0 2.66699 -0.5 5 -1.5 7s-2.16699 3.5 -3.5 4.5s-3.33301 2.16699 -6 3.5s-4.83398 2.33301 -6.50098 3s-4.33398 1.5 -8.00098 2.5s-5.83398 1.5 -6.50098 1.5s-2 0.333008 -4 1l-4.5 1.5c-1 0.333008 -2.33301 0.833008 -4 1.5
s-2.83398 1.33398 -3.50098 2.00098s-1.66699 1.33398 -3 2.00098s-2.33301 1.5 -3 2.5s-1.5 2 -2.5 3s-1.66699 2.16699 -2 3.5l-1 4c-0.333008 1.33301 -0.5 3 -0.5 5c0 14.667 12 22 36 22h138c23.333 0 35 -7.33301 35 -22c0 -5.33301 -1.33301 -9.66602 -4 -12.999
s-5 -5.5 -7 -6.5s-6.33301 -2.83301 -13 -5.5c-4.66699 -1.33301 -8.5 -2.5 -11.5 -3.5s-5.66699 -2.33301 -8 -4s-4.33301 -3 -6 -4s-3.16699 -2.66699 -4.5 -5s-2.16602 -4 -2.49902 -5s-0.666016 -3.33301 -0.999023 -7s-0.666016 -6.33398 -0.999023 -8.00098
s-0.5 -5.16699 -0.5 -10.5v-12v-555c0 -2.66699 0.666992 -5.16699 2 -7.5s3.33301 -4.33301 6 -6s5 -2.83398 7 -3.50098l9 -3c4 -1.33301 6.66699 -2.33301 8 -3c15.333 -5.33301 24 -11 26 -17c0.666992 -2 1 -4.66699 1 -8c0 -15.333 -12 -23 -36 -23h-138
c-24 0 -36 7.66699 -36 23c0 11.333 8.66699 19.333 26 24c16.667 4.66699 26.667 10 30 16s5 17.667 5 35v8z" />
    <glyph glyph-name="J" unicode="J" horiz-adv-x="480" 
d="M306 208l-0.000976562 441.999c0 6.66699 -0.333008 11.834 -1 15.501s-2.66699 6.66699 -6 9s-5.66602 3.66602 -6.99902 3.99902s-5.66602 1.5 -12.999 3.5c-8 2 -13 3.5 -15 4.5s-5.33301 2.5 -10 4.5s-7.66699 4.5 -9 7.5s-2 6.83301 -2 11.5c0 14.667 12 22 36 22
h140c24 0 36 -7.33301 36 -22c0 -8 -2.33301 -13.667 -7 -17s-12.667 -6.66602 -24 -9.99902c-12 -4 -19.667 -9 -23 -15s-5 -20 -5 -42v-420c0 -79.333 -19.667 -136 -59 -170s-88.333 -51 -147 -51c-50.667 0 -94.834 13.833 -132.501 41.5s-56.5 65.834 -56.5 114.501
c0 31.333 9.83301 59.666 29.5 84.999s44.834 38 75.501 38c11.333 0 21.5 -3.66699 30.5 -11s13.5 -16.666 13.5 -27.999s-3.33301 -19.333 -10 -24s-16.334 -8.66699 -29.001 -12c-19.333 -4.66699 -33 -11 -41 -19s-12 -21 -12 -39c0 -28.667 12.5 -51.5 37.5 -68.5
s52.5 -25.5 82.5 -25.5c41.333 0 73 13.167 95 39.5s33 70.166 33 131.499z" />
    <glyph glyph-name="K" unicode="K" horiz-adv-x="700" 
d="M91 106l0.000976562 556.002c0 10 -10.667 17.333 -32 22c-16 5.33301 -25 11 -27 17c-1.33301 2.66699 -2 5.66699 -2 9c0 14.667 11.667 22 35 22h137c24 0 36 -7.33301 36 -22c0 -2.66699 -0.333008 -5.16699 -1 -7.5s-1.33398 -4.16602 -2.00098 -5.49902
s-2 -2.66602 -4 -3.99902s-3.5 -2.16602 -4.5 -2.49902s-3 -1.16602 -6 -2.49902s-5.16699 -2.33301 -6.5 -3c-4 -2 -7.5 -3.5 -10.5 -4.5s-5.66699 -2.33301 -8 -4s-4.16602 -2.83398 -5.49902 -3.50098s-2.66602 -2.33398 -3.99902 -5.00098l-2.5 -5
c-0.333008 -0.666992 -0.833008 -2.83398 -1.5 -6.50098s-1 -6.16699 -1 -7.5v-10.5v-12.5v-289c115.333 108 202.333 192.333 261 253c30 30 45 52.667 45 68c0 8 -2.83301 14.333 -8.5 19s-11.667 7.66699 -18 9s-12.333 4.16602 -18 8.49902s-8.5 10.5 -8.5 18.5
c0 12.667 10.667 19 32 19h147c21.333 0 33.333 -3.66699 36 -11c1.33301 -2 2 -4.66699 2 -8c0 -10.667 -7.66699 -19.334 -23 -26.001s-27.666 -13.834 -36.999 -21.501s-25.666 -24.834 -48.999 -51.501c-55.333 -63.333 -110.333 -122 -165 -176
c50.667 -50.667 98.167 -106 142.5 -166s77.5 -113 99.5 -159c6 -13.333 10.5 -22.666 13.5 -27.999s8.16699 -11.5 15.5 -18.5s16 -12.5 26 -16.5c16 -6 25 -12.333 27 -19c1.33301 -2.66699 2 -6 2 -10c0 -14 -11.667 -21 -35 -21h-130c-31.333 0 -47 7.66699 -47 23
c0 8.66699 6.66699 16.334 20 23.001s20 15 20 25c0 25.333 -28.167 75.666 -84.5 150.999s-100.833 128 -133.5 158l-132 -121v-188c0 -4 1.16699 -7.33301 3.5 -10s4.66602 -4.5 6.99902 -5.5s6.16602 -2.33301 11.499 -4s8.66602 -2.83398 9.99902 -3.50098
c14.667 -5.33301 23 -11 25 -17c0.666992 -2 1 -4.66699 1 -8c0 -15.333 -12 -23 -36 -23h-138c-24 0 -36 7.66699 -36 23c0 11.333 8.66699 19.333 26 24s27.666 10.334 30.999 17.001s5 20.667 5 42z" />
    <glyph glyph-name="L" unicode="L" 
d="M92 106l-0.00195312 544.002c0 8.66699 -1.66699 15.334 -5 20.001s-6.66602 7.66699 -9.99902 9s-9.33301 3 -18 5c-6.66699 2 -11.5 3.5 -14.5 4.5s-6.16699 3.33301 -9.5 7s-5 8.5 -5 14.5c0 6.66699 2 11.834 6 15.501s8 5.66699 12 6s10 0.5 18 0.5h136
c24 0 36 -7.33301 36 -22c0 -2.66699 -0.166992 -4.83398 -0.5 -6.50098s-1 -3.33398 -2 -5.00098s-1.83301 -2.83398 -2.5 -3.50098s-2 -1.5 -4 -2.5l-4 -2c-0.666992 -0.333008 -2.5 -1.16602 -5.5 -2.49902s-4.83301 -2 -5.5 -2c-4.66699 -2 -8.66699 -3.83301 -12 -5.5
s-6.16602 -3 -8.49902 -4s-4.16602 -2.66699 -5.49902 -5s-2.5 -4 -3.5 -5s-1.66699 -3.33301 -2 -7s-0.5 -6.33398 -0.5 -8.00098v-11v-13.5v-511c0 -29.333 4.83301 -47.5 14.5 -54.5s37.5 -10.5 83.5 -10.5c65.333 0 114.5 1.66699 147.5 5s56.333 7.66602 70 12.999
s29.834 15 48.501 29c19.333 14.667 31.666 22 36.999 22c11.333 0 17 -6.66699 17 -20c0 -4 -2.33301 -17.333 -7 -40s-8 -36 -10 -40c-1.33301 -2.66699 -2.5 -4.83398 -3.5 -6.50098s-2.5 -3.16699 -4.5 -4.5s-3.66699 -2.5 -5 -3.5s-3.33301 -1.83301 -6 -2.5
s-4.5 -1.16699 -5.5 -1.5s-3.16699 -0.666016 -6.5 -0.999023s-5.33301 -0.5 -6 -0.5h-8h-6h-462c-23.333 0 -35 7.66699 -35 23c0 5.33301 1.16699 9.5 3.5 12.5s4.66602 5.16699 6.99902 6.5s6.5 3 12.5 5c16.667 6 26.5 12 29.5 18s4.5 19.667 4.5 41z" />
    <glyph glyph-name="M" unicode="M" horiz-adv-x="860" 
d="M60 732l123.998 0.00292969c13.333 0 22.5 -2.66699 27.5 -8s12.5 -20.333 22.5 -45c88 -216 151.667 -365.667 191 -449c80.667 166.667 149 320 205 460c6.66699 16.667 12.5 27.834 17.5 33.501s11.5 8.5 19.5 8.5h129c10 0 17.167 -1.5 21.5 -4.5
s6.5 -9.83301 6.5 -20.5c0 -10 -9 -17.333 -27 -22c-17.333 -4.66699 -28.5 -10 -33.5 -16s-7.5 -18 -7.5 -36c0 -2.66699 2.5 -72 7.5 -208s7.5 -243 7.5 -321c0 -22 1.33301 -35.5 4 -40.5s9.33398 -8.83301 20.001 -11.5c2 -0.666992 5 -1.5 9 -2.5l8 -2
c1.33301 -0.333008 3.5 -1 6.5 -2s5 -1.83301 6 -2.5s2.5 -1.5 4.5 -2.5s3.33301 -2 4 -3s1.5 -2.33301 2.5 -4s1.66699 -3.33398 2 -5.00098s0.5 -3.5 0.5 -5.5c0 -15.333 -12 -23 -36 -23h-135c-23.333 0 -35 7.66699 -35 23c0 7.33301 2.16699 12.5 6.5 15.5
s12.833 6.83301 25.5 11.5c9.33301 4 14.833 9 16.5 15s2.5 19.667 2.5 41c0 99.333 -5 274 -15 524c-62 -154.667 -135 -318.334 -219 -491.001c-14.667 -29.333 -27 -44 -37 -44s-20 10 -30 30c-87.333 181.333 -162.333 355 -225 521
c-10 -251.333 -15 -428.666 -15 -531.999c0 -26 1.33301 -42 4 -48s9.33398 -10.667 20.001 -14c24.667 -8 38.667 -14.667 42 -20c2 -3.33301 3 -7.33301 3 -12c0 -13.333 -9 -20 -27 -20h-120c-8 0 -14 0.166992 -18 0.5s-8 2.33301 -12 6s-6 8.83398 -6 15.501
c0 10.667 8 19 24 25c14.667 6 23.5 11.5 26.5 16.5s4.5 16.167 4.5 33.5c0 59.333 1.16699 132.666 3.5 219.999s4.83301 163.333 7.5 228s4 99.334 4 104.001c0 13.333 -3.33301 23.166 -10 29.499s-14.167 9.66602 -22.5 9.99902s-15.833 2.16602 -22.5 5.49902
s-10 8.66602 -10 15.999c0 14.667 9 22 27 22z" />
    <glyph glyph-name="N" unicode="N" horiz-adv-x="740" 
d="M105 119l0.00390625 491c0 16.667 -0.5 29 -1.5 37s-4.83301 16.5 -11.5 25.5s-17 14.833 -31 17.5c-0.666992 0 -2.33398 0.333008 -5.00098 1s-4.5 1.16699 -5.5 1.5s-2.66699 0.833008 -5 1.5s-4 1.33398 -5 2.00098s-2.33301 1.5 -4 2.5
s-2.83398 2.16699 -3.50098 3.5s-1.33398 3 -2.00098 5s-1 4 -1 6c0 12.667 9.66699 19 29 19h103c17.333 0 31 -6.33301 41 -19c138 -148.667 267.667 -323.667 389 -525v421c0 28.667 -1.33301 47.167 -4 55.5s-9.66699 14.166 -21 17.499
c-1.33301 0.666992 -4 1.5 -8 2.5l-8 2c-1.33301 0.333008 -3.5 1.16602 -6.5 2.49902s-5 2.5 -6 3.5l-4 4c-1.66699 1.66699 -2.66699 3.66699 -3 6s-0.5 4.83301 -0.5 7.5c0 14.667 9 22 27 22h123c19.333 0 29 -7.66699 29 -23c0 -3.33301 -0.666992 -6.33301 -2 -9
s-4 -5.16699 -8 -7.5s-7.16699 -3.83301 -9.5 -4.5s-7.16602 -2.33398 -14.499 -5.00098c-12.667 -4.66699 -20 -10.334 -22 -17.001s-3 -23.667 -3 -51v-577v-8.5v-10.5c0 -2.66699 -0.166992 -6 -0.5 -10s-1 -7.16699 -2 -9.5s-2.33301 -4.66602 -4 -6.99902
s-3.83398 -4.16602 -6.50098 -5.49902s-6 -2 -10 -2c-8.66699 0 -14.667 2.33301 -18 7s-8.66602 15.667 -15.999 33s-16.666 34.333 -27.999 51l-142 217c-34.667 52 -77.834 113.333 -129.501 184s-95.167 124 -130.5 160v-539c0 -10.667 0.5 -18.5 1.5 -23.5
s3.66699 -9.66699 8 -14s11.166 -7.83301 20.499 -10.5c6.66699 -1.33301 11 -2.33301 13 -3s5 -2 9 -4s6.66699 -4.5 8 -7.5s2 -7.16699 2 -12.5c0 -15.333 -8.66699 -23 -26 -23h-136c-17.333 0 -26 7.66699 -26 23c0 7.33301 2.66699 12.833 8 16.5
s14.666 7.16699 27.999 10.5c13.333 2.66699 21.833 8.33398 25.5 17.001s5.5 26 5.5 52z" />
    <glyph glyph-name="O" unicode="O" horiz-adv-x="800" 
d="M388 -15c-45.333 0 -88.6689 8.33105 -130.002 24.998s-78.666 40.334 -111.999 71.001s-59.833 70.334 -79.5 119.001s-29.5 102.667 -29.5 162c0 108.667 33 200 99 274s152.333 111 259 111c100.667 0 186.334 -35.167 257.001 -105.5s106 -163.166 106 -278.499
c0 -108.667 -34.667 -198.834 -104 -270.501s-158 -107.5 -266 -107.5zM392.997 36.998c76.667 0 139.667 31.001 189 93.001s74 138 74 228c0 99.333 -24 180.166 -72 242.499s-111 93.5 -189 93.5c-79.333 0 -141.833 -33.333 -187.5 -100s-68.5 -143.667 -68.5 -231
c0 -96 24 -174.333 72 -235s108.667 -91 182 -91z" />
    <glyph glyph-name="P" unicode="P" horiz-adv-x="620" 
d="M89 106l0.000976562 534c0 16 -1.33301 26.167 -4 30.5s-9.33398 8.16602 -20.001 11.499c-10 2.66699 -16.667 4.66699 -20 6s-6.83301 3.66602 -10.5 6.99902s-5.5 8 -5.5 14c0 15.333 11.667 23 35 23h256c94.667 0 165.667 -16.667 213 -50s71 -76 71 -128
c0 -48 -11.5 -90.167 -34.5 -126.5s-54.833 -65 -95.5 -86s-85.667 -36.5 -135 -46.5s-102.666 -15 -159.999 -15v-176c0 -20 1.5 -33.167 4.5 -39.5s9.5 -10.833 19.5 -13.5c11.333 -3.33301 19 -5.66602 23 -6.99902s8 -3.66602 12 -6.99902s6 -8 6 -14
c0 -15.333 -12 -23 -36 -23h-140c-24 0 -36 7.66699 -36 23c0 4.66699 1.33301 8.66699 4 12s5 5.5 7 6.5s6.33301 2.83301 13 5.5c15.333 6 24.666 12.167 27.999 18.5s5 19.833 5 40.5zM179.001 603l-0.000976562 -270.999c34 -0.666992 68.5 2.16602 103.5 8.49902
s69.5 16.5 103.5 30.5s61.833 34.833 83.5 62.5s32.5 59.834 32.5 96.501c0 47.333 -17.667 84.166 -53 110.499s-86.666 39.5 -153.999 39.5c-27.333 0 -49 -1.33301 -65 -4s-27.667 -7.66699 -35 -15s-11.833 -15 -13.5 -23s-2.5 -19.667 -2.5 -35z" />
    <glyph glyph-name="Q" unicode="Q" horiz-adv-x="800" 
d="M495 0c51.333 -45.333 104.332 -68.0029 158.999 -68.0029c8 0 19.5 1 34.5 3s26.167 3 33.5 3c9.33301 0 16.666 -3.33301 21.999 -10s8 -14.667 8 -24c0 -15.333 -7.83301 -26.5 -23.5 -33.5s-32.5 -10.5 -50.5 -10.5c-44 0 -87.167 12 -129.5 36
s-78.833 54.667 -109.5 92c-4.66699 0 -13 -0.666992 -25 -2c-3.33301 0 -7.83301 -0.166992 -13.5 -0.5s-9.83398 -0.5 -12.501 -0.5c-45.333 0 -88.666 8.33301 -129.999 25s-78.666 40.334 -111.999 71.001s-59.833 70.334 -79.5 119.001s-29.5 102.667 -29.5 162
c0 108.667 33 200 99 274s152.333 111 259 111c100.667 0 186.334 -35.167 257.001 -105.5s106 -163.166 106 -278.499c0 -80.667 -25.5 -157.667 -76.5 -231s-113.167 -117.333 -186.5 -132zM462.999 40.9971c63.333 21.333 111.335 62.0029 144.002 122.003s49 125 49 195
c0 99.333 -24 180.166 -72 242.499s-111 93.5 -189 93.5c-79.333 0 -141.833 -33.333 -187.5 -100s-68.5 -143.667 -68.5 -231c0 -92.667 24.5 -171 73.5 -235s106.5 -96 172.5 -96c11.333 0 19.666 0.333008 24.999 1c-16.667 41.333 -25 78 -25 110c0 26 7.66699 39 23 39
c2.66699 0 5.16699 -0.5 7.5 -1.5s4.16602 -2.5 5.49902 -4.5s2.5 -3.66699 3.5 -5s2 -3.83301 3 -7.5s1.5 -6.16699 1.5 -7.5s0.333008 -3.83301 1 -7.5s1 -5.83398 1 -6.50098c6 -40.667 16.667 -74.334 32 -101.001z" />
    <glyph glyph-name="R" unicode="R" horiz-adv-x="680" 
d="M91 106l0.00488281 510.006c0 26 -1.33301 42.667 -4 50s-9 12.333 -19 15c-8.66699 2.66699 -14.334 4.33398 -17.001 5.00098s-6.33398 2.16699 -11.001 4.5s-7.66699 4.83301 -9 7.5s-2 6.33398 -2 11.001c0 15.333 12 23 36 23h311c67.333 0 121.5 -14.333 162.5 -43
s61.5 -71.667 61.5 -129c0 -80 -55 -144 -165 -192c51.333 -58.667 104 -147 158 -265c8 -17.333 15 -29.833 21 -37.5s16.333 -14.834 31 -21.501c1.33301 -0.666992 3.16602 -1.33398 5.49902 -2.00098s4 -1.33398 5 -2.00098s2.5 -1.5 4.5 -2.5s3.5 -2 4.5 -3l3.5 -3.5
c1.33301 -1.33301 2.16602 -3 2.49902 -5s0.5 -4 0.5 -6c0 -13.333 -11.333 -20 -34 -20h-148c-26.667 0 -40 7 -40 21c0 10 8.5 18.833 25.5 26.5s25.5 17.834 25.5 30.501c0 25.333 -19.5 69 -58.5 131s-71.833 106.667 -98.5 134c-54.667 -13.333 -108.667 -23 -162 -29
v-244c0 -3.33301 1.16699 -6.33301 3.5 -9s4.5 -4.5 6.5 -5.5s5.66699 -2.33301 11 -4s8.66602 -2.83398 9.99902 -3.50098s3.83301 -1.83398 7.5 -3.50098s6.16699 -2.83398 7.5 -3.50098s3.16602 -1.83398 5.49902 -3.50098s3.83301 -3.83398 4.5 -6.50098
s1 -5.66699 1 -9c0 -14.667 -12.333 -22 -37 -22h-134c-24 0 -36 7.33301 -36 22c0 2 0.166992 3.66699 0.5 5s0.666016 2.5 0.999023 3.5s1 2.16699 2 3.5s1.83301 2.33301 2.5 3s1.83398 1.5 3.50098 2.5s2.83398 1.83301 3.50098 2.5s2.33398 1.5 5.00098 2.5
s4.5 1.66699 5.5 2s3.16699 1.16602 6.5 2.49902s5.66602 2.33301 6.99902 3c10 3.33301 16.167 8 18.5 14s3.83301 19.333 4.5 40zM181.005 605.006v-238c89.333 13.333 152 26.333 188 39c86 31.333 129 80 129 146c0 85.333 -69.667 128 -209 128
c-34 0 -58.667 -2.66699 -74 -8s-24.833 -12.5 -28.5 -21.5s-5.5 -24.167 -5.5 -45.5z" />
    <glyph glyph-name="S" unicode="S" 
d="M83 168c49.333 -87.333 123.335 -131.002 222.002 -131.002c51.333 0 96.333 13.667 135 41s58 65.666 58 114.999c0 28.667 -8.16699 52.5 -24.5 71.5s-37.666 33.333 -63.999 43s-55.5 18 -87.5 25s-64 14.667 -96 23s-61.167 19 -87.5 32s-47.666 32 -63.999 57
s-24.5 55.5 -24.5 91.5c0 58.667 22.333 108.5 67 149.5s107 61.5 187 61.5c71.333 0 132.666 -16.333 183.999 -49c11.333 -7.33301 18.666 -15.666 21.999 -24.999c2 -8 3 -27.333 3 -58c0 -23.333 -5.33301 -35 -16 -35c-5.33301 0 -13.5 6 -24.5 18l-36 40
c-13 14.667 -33.667 28 -62 40s-60.166 18 -95.499 18c-37.333 0 -70.5 -11.333 -99.5 -34s-43.5 -52.334 -43.5 -89.001c0 -26 6.33301 -48.167 19 -66.5s29.167 -31.833 49.5 -40.5s43.666 -16.667 69.999 -24s53.333 -13.5 81 -18.5s54.667 -12.667 81 -23
s49.666 -22.666 69.999 -36.999s36.833 -35.166 49.5 -62.499s19 -59.666 19 -96.999c0 -22.667 -5.66699 -46.167 -17 -70.5s-27.833 -47.833 -49.5 -70.5s-51.334 -41.334 -89.001 -56.001s-79.834 -22 -126.501 -22c-49.333 0 -93 7.33301 -131 22
s-66.333 32.334 -85 53.001s-32.5 40 -41.5 58s-13.5 33 -13.5 45c0 8.66699 2.33301 16.167 7 22.5s11.334 9.5 20.001 9.5c12.667 0 24 -9 34 -27z" />
    <glyph glyph-name="T" unicode="T" horiz-adv-x="640" 
d="M275 122l-0.00292969 497.001c0 26 -2.33301 42.833 -7 50.5s-17 11.5 -37 11.5c-32 0 -60.333 -3.66699 -85 -11s-41.667 -14.166 -51 -20.499s-21.666 -15.833 -36.999 -28.5c-15.333 -13.333 -26 -20 -32 -20c-13.333 0 -20 7.33301 -20 22
c0 7.33301 3.33301 31.666 10 72.999c2.66699 15.333 6 25.166 10 29.499s12.333 6.5 25 6.5h538c12.667 0 21 -2.16699 25 -6.5s7.33301 -14.166 10 -29.499c6.66699 -41.333 10 -65.666 10 -72.999c0 -14.667 -6.66699 -22 -20 -22c-6 0 -16.667 6.66699 -32 20
c-15.333 12.667 -27.666 22.167 -36.999 28.5s-26.333 13.166 -51 20.499s-53 11 -85 11c-20 0 -32.333 -3.83301 -37 -11.5s-7 -24.5 -7 -50.5v-505c0 -26 0.833008 -42 2.5 -48s6.83398 -10.333 15.501 -13c23.333 -8 36.666 -14.667 39.999 -20
c1.33301 -2.66699 2 -6 2 -10c0 -15.333 -12 -23 -36 -23h-139c-24 0 -36 7.66699 -36 23c0 7.33301 2.33301 12.666 7 15.999s12.334 6.33301 23.001 9c14.667 4 23.5 10 26.5 18s4.5 26.667 4.5 56z" />
    <glyph glyph-name="U" unicode="U" horiz-adv-x="760" 
d="M65 732h130.999c24 0 36 -7.33301 36 -22c0 -5.33301 -1.33301 -9.66602 -4 -12.999s-5.33398 -5.5 -8.00098 -6.5s-7 -2.5 -13 -4.5c-12.667 -4 -21.167 -9 -25.5 -15s-7.16602 -15.667 -8.49902 -29c-8.66699 -106.667 -13 -220.667 -13 -342
c0 -85.333 19.833 -150.333 59.5 -195s93.167 -67 160.5 -67c36 0 67.5 3.5 94.5 10.5s52.667 19.5 77 37.5s43 45 56 81s19.5 80.333 19.5 133c0 143.333 -4.33301 253 -13 329c-2 20 -5.33301 34 -10 42s-13 13 -25 15c-24.667 4.66699 -37 13 -37 25
c0 12.667 9.66699 19.667 29 21h133c17.333 -1.33301 26 -9 26 -23c0 -2.66699 -0.5 -5 -1.5 -7l-2.5 -5c-0.666992 -1.33301 -2.16699 -2.66602 -4.5 -3.99902s-4 -2.16602 -5 -2.49902s-3 -1.33301 -6 -3s-4.83301 -2.5 -5.5 -2.5c-14 -5.33301 -23 -11.333 -27 -18
s-6 -18 -6 -34c0 -7.33301 2.16699 -52 6.5 -134s6.5 -148.333 6.5 -199c0 -59.333 -7.66699 -110 -23 -152s-37.333 -74.5 -66 -97.5s-60.667 -39.667 -96 -50s-75.333 -15.5 -120 -15.5c-104 0 -181.667 25.5 -233 76.5s-77 130.5 -77 238.5
c0 51.333 2.16699 122.166 6.5 212.499s6.5 136.5 6.5 138.5c0 2.66699 -0.166992 5 -0.5 7s-0.833008 4 -1.5 6l-1.5 4.5c-0.333008 1 -1.16602 2.16699 -2.49902 3.5l-3 3c-0.666992 0.666992 -2 1.66699 -4 3s-3.33301 2.16602 -4 2.49902s-2.5 1 -5.5 2
s-4.83301 1.83301 -5.5 2.5c-6.66699 2.66699 -11.167 4.5 -13.5 5.5s-5 3.16699 -8 6.5s-4.5 7.66602 -4.5 12.999c0 14.667 12 22 36 22z" />
    <glyph glyph-name="V" unicode="V" horiz-adv-x="700" 
d="M536 732h135c16 0 24 -6.66699 24 -20c0 -7.33301 -6 -16.5 -18 -27.5s-19.667 -21.833 -23 -32.5c-37.333 -134.667 -78.833 -258.5 -124.5 -371.5s-90.834 -200.833 -135.501 -263.5c-20.667 -28.667 -37 -43 -49 -43c-12.667 0 -25.334 9.33301 -38.001 28
c-51.333 78 -99.666 173.667 -144.999 287s-81.666 228.666 -108.999 345.999c-3.33301 13.333 -8 24.333 -14 33s-11.833 14.667 -17.5 18s-10.5 7.16602 -14.5 11.499s-6 9.16602 -6 14.499c0 13.333 10.667 20 32 20h143c20.667 0 31 -7.33301 31 -22
c0 -6.66699 -3 -12 -9 -16s-12.833 -7.16699 -20.5 -9.5s-14.5 -7.33301 -20.5 -15s-9 -18.5 -9 -32.5c0 -41.333 19.5 -117.333 58.5 -228s90.167 -220.334 153.5 -329.001c49.333 78.667 97 182.834 143 312.501s69 212.834 69 249.501c0 11.333 -3.33301 20.5 -10 27.5
s-14.167 11.833 -22.5 14.5s-15.833 6.33398 -22.5 11.001s-10 10.334 -10 17.001c0 13.333 9.66699 20 29 20z" />
    <glyph glyph-name="W" unicode="W" horiz-adv-x="940" 
d="M781 732l117.001 0.000976562c22 0 33 -6 33 -18c0 -7.33301 -6.33301 -16 -19 -26c-8.66699 -6.66699 -14.834 -13.834 -18.501 -21.501s-7.5 -21.834 -11.5 -42.501c-47.333 -263.333 -103.333 -465.666 -168 -606.999c-0.666992 -1.33301 -1.66699 -3.5 -3 -6.5
s-2.5 -5.5 -3.5 -7.5l-3.5 -7c-1.33301 -2.66699 -2.66602 -5 -3.99902 -7s-3 -4 -5 -6s-4 -3.66699 -6 -5s-4.16699 -2.33301 -6.5 -3s-4.83301 -1 -7.5 -1c-3.33301 0 -6.66602 1 -9.99902 3s-6.66602 5 -9.99902 9s-6.33301 7.83301 -9 11.5s-5.5 8.33398 -8.5 14.001
l-7 13c-1.66699 3 -3.83398 7.16699 -6.50098 12.5l-4 8c-56 110 -109.333 249 -160 417c-44.667 -180 -97 -327.333 -157 -442c-12.667 -24.667 -22.334 -39 -29.001 -43c-3.33301 -2 -7.33301 -3 -12 -3c-3.33301 0 -6.16602 0.5 -8.49902 1.5s-4.5 2.83301 -6.5 5.5
l-5 6.5c-1.33301 1.66699 -3 4.33398 -5 8.00098s-3.33301 6.16699 -4 7.5c-82 175.333 -142.667 385 -182 629c-2.66699 16.667 -5.83398 28.167 -9.50098 34.5s-10.5 12.833 -20.5 19.5c-13.333 9.33301 -20 18 -20 26c0 13.333 11 20 33 20h134c22 0 33 -6.66699 33 -20
c0 -6.66699 -3 -12 -9 -16s-12.833 -7.16699 -20.5 -9.5s-14.5 -7.33301 -20.5 -15s-9 -18.167 -9 -31.5c0 -38 13 -111.333 39 -220s59 -215.334 99 -320.001c30.667 61.333 64.167 156.833 100.5 286.5s54.5 216.167 54.5 259.5c0 12 -2.66699 21.5 -8 28.5
s-11.333 11.5 -18 13.5s-12.667 5.16699 -18 9.5s-8 10.166 -8 17.499c0 5.33301 2.5 9.5 7.5 12.5s10.5 4.5 16.5 4.5h131c19.333 0 29 -6.33301 29 -19c0 -6.66699 -2.83301 -12.167 -8.5 -16.5s-11.834 -7.83301 -18.501 -10.5s-12.834 -8 -18.501 -16
s-8.5 -18.667 -8.5 -32c0 -39.333 19 -123.333 57 -252s77 -223.667 117 -285c26.667 58.667 55.834 154.334 87.501 287.001s47.5 216.667 47.5 252c0 13.333 -3.33301 23.833 -10 31.5s-14.167 12.5 -22.5 14.5s-15.833 5.16699 -22.5 9.5s-10 10.166 -10 17.499
c0 12.667 8 19 24 19z" />
    <glyph glyph-name="X" unicode="X" horiz-adv-x="700" 
d="M178 0l-128.002 0.00195312h-4c-25.333 0 -38 6.33301 -38 19c0 2.66699 0.333008 5.16699 1 7.5s1.83398 4.5 3.50098 6.5s3.33398 3.5 5.00098 4.5s4 2.16699 7 3.5s5.33301 2.33301 7 3s4.16699 1.33398 7.5 2.00098s5.66602 1.33398 6.99902 2.00098
c9.33301 3.33301 18.333 9.16602 27 17.499s14.834 15.333 18.501 21l17.5 27.5c29.333 47.333 88.333 129.333 177 246c-70.667 75.333 -139.667 171 -207 287c-11.333 19.333 -24.333 32 -39 38c-4.66699 2 -7.66699 3.16699 -9 3.5s-3.83301 1.66602 -7.5 3.99902
s-6.16699 4.16602 -7.5 5.49902s-2.66602 3.5 -3.99902 6.5s-2 6.16699 -2 9.5c0 12 11 18 33 18h140c23.333 0 35 -5.33301 35 -16c0 -7.33301 -4.33301 -13 -13 -17c-1.33301 -0.666992 -2.33301 -1.33398 -3 -2.00098s-2 -1.5 -4 -2.5l-4 -2
c-0.666992 -0.333008 -1.83398 -1 -3.50098 -2s-2.83398 -1.83301 -3.50098 -2.5l-2.5 -2.5l-2.5 -2.5c-0.666992 -0.666992 -1.33398 -1.66699 -2.00098 -3s-1.16699 -2.66602 -1.5 -3.99902l-1 -4c-0.333008 -1.33301 -0.5 -3 -0.5 -5c0 -23.333 19.667 -60.333 59 -111
s76.333 -93.334 111 -128.001c89.333 112.667 139.333 178 150 196c8.66699 14 13 26 13 36c0 9.33301 -3 16.333 -9 21s-12.5 7.5 -19.5 8.5s-13.5 3.83301 -19.5 8.5s-9 11.334 -9 20.001c0 9.33301 8.66699 14 26 14h145c21.333 0 32 -5.66699 32 -17
c0 -8.66699 -8.5 -17.5 -25.5 -26.5s-27.5 -15.833 -31.5 -20.5c-2.66699 -3.33301 -12.5 -17.5 -29.5 -42.5s-41.333 -58.833 -73 -101.5s-67.5 -87.667 -107.5 -135c92.667 -99.333 156.334 -177.666 191.001 -234.999l32 -53c10 -15.333 18.833 -26.5 26.5 -33.5
s18.834 -13.167 33.501 -18.5c18.667 -6.66699 28 -16 28 -28c0 -14 -10.667 -21 -32 -21h-154c-22 0 -33 6.33301 -33 19c0 10 8 18.167 24 24.5s24 13.833 24 22.5c0 16 -26.333 55.833 -79 119.5s-92.667 108.5 -120 134.5c-34 -40.667 -70 -88.334 -108 -143.001
s-57 -90.334 -57 -107.001c0 -10.667 7.5 -19.167 22.5 -25.5s22.5 -14.833 22.5 -25.5c0 -12.667 -10.667 -19 -32 -19z" />
    <glyph glyph-name="Y" unicode="Y" horiz-adv-x="700" 
d="M305 106l0.000976562 190.006c-88 101.333 -169 222.666 -243 363.999c-4 7.33301 -15.333 15.333 -34 24s-28 18.334 -28 29.001c0 12.667 10.333 19 31 19h148c22 0 33 -6.66699 33 -20c0 -8.66699 -8 -16.5 -24 -23.5s-24 -14.833 -24 -23.5
c0 -18.667 18.5 -58.334 55.5 -119.001s86.5 -125.334 148.5 -194.001c49.333 52 95.333 111.167 138 177.5s64 107.166 64 122.499c0 10 -2.83301 18 -8.5 24s-12 10 -19 12s-13.333 5.16699 -19 9.5s-8.5 10.166 -8.5 17.499c0 11.333 10.667 17 32 17h112
c26.667 0 40 -6 40 -18c0 -8.66699 -7.66699 -18.167 -23 -28.5s-25 -19.833 -29 -28.5c-60.667 -122 -144.667 -243 -252 -363v-188c0 -22 1 -36 3 -42s7.33301 -10.333 16 -13c11.333 -2.66699 19.333 -4.83398 24 -6.50098s8.66699 -4.16699 12 -7.5s5 -8 5 -14
c0 -15.333 -11.667 -23 -35 -23h-137c-24 0 -36 7.66699 -36 23c0 7.33301 2.16699 12.666 6.5 15.999s12.166 6.66602 23.499 9.99902c12 4 19.667 9.33301 23 16s5 20.334 5 41.001z" />
    <glyph glyph-name="Z" unicode="Z" horiz-adv-x="580" 
d="M389 682l-80.001 0.000976562c-66 0 -113.5 -5.16699 -142.5 -15.5s-52.167 -25.5 -69.5 -45.5c-0.666992 -0.666992 -2.16699 -2.5 -4.5 -5.5l-5.5 -7c-1.33301 -1.66699 -3.33301 -3.33398 -6 -5.00098s-5.33398 -2.5 -8.00098 -2.5c-11.333 0 -17 8.33301 -17 25
c0 26.667 2.66699 53.334 8 80.001c2 12 5.33301 19.333 10 22s15.667 4 33 4h381c8.66699 0 14.667 -0.166992 18 -0.5s7.83301 -1.33301 13.5 -3s9.66699 -4.5 12 -8.5s3.5 -9.66699 3.5 -17c0 -46 -77.667 -173.333 -233 -382
c-66.667 -89.333 -111.5 -150.833 -134.5 -184.5s-34.5 -55.5 -34.5 -65.5c0 -8 2.66699 -13 8 -15s13.666 -3 24.999 -3h122c32.667 0 58.667 0.833008 78 2.5s41.5 7 66.5 16s46.5 22.5 64.5 40.5c20.667 20.667 34.667 31 42 31c9.33301 0 14 -5 14 -15
c0 -31.333 -4.33301 -67 -13 -107c-3.33301 -14 -15.666 -21 -36.999 -21h-420c-13.333 0 -23.666 0.5 -30.999 1.5s-14.166 4.16699 -20.499 9.5s-9.5 13.333 -9.5 24c0 20.667 16 55.667 48 105s90 130.666 174 243.999c122.667 164 184 257.667 184 281
c0 11.333 -13 17 -39 17z" />
    <glyph glyph-name="bracketleft" unicode="[" horiz-adv-x="240" 
d="M61 -105v818.998c0 18 2.83301 29.667 8.5 35s17.5 8 35.5 8h62h7h7.5c1 0 3.33301 -0.166992 7 -0.5s6.33398 -0.833008 8.00098 -1.5l6.5 -2.5c2.66699 -1 4.5 -2.33301 5.5 -4s2 -3.66699 3 -6s1.5 -5.16602 1.5 -8.49902c0 -14 -11 -22 -33 -24
c-23.333 -2 -37.666 -7 -42.999 -15s-8 -23 -8 -45v-691c0 -22 2.66699 -37 8 -45s19.666 -13 42.999 -15c22 -2 33 -10 33 -24c0 -3.33301 -0.5 -6.16602 -1.5 -8.49902s-2 -4.33301 -3 -6s-2.83301 -3 -5.5 -4l-6.5 -2.5
c-1.66699 -0.666992 -4.33398 -1.16699 -8.00098 -1.5s-6 -0.5 -7 -0.5h-7.5h-7h-62c-18 0 -29.833 2.66699 -35.5 8s-8.5 17 -8.5 35z" />
    <glyph glyph-name="backslash" unicode="\" 
d="M391 0l-308 757h71l306 -757h-69z" />
    <glyph glyph-name="bracketright" unicode="]" horiz-adv-x="240" 
d="M179 714v-818.998c0 -18 -2.83301 -29.667 -8.5 -35s-17.5 -8 -35.5 -8h-62h-7h-7.5c-1 0 -3.33301 0.166992 -7 0.5s-6.33398 0.833008 -8.00098 1.5l-6.5 2.5c-2.66699 1 -4.5 2.33301 -5.5 4s-2 3.66699 -3 6s-1.5 5.16602 -1.5 8.49902c0 14 11 22 33 24
c23.333 2 37.666 7 42.999 15s8 23 8 45v691c0 22 -2.66699 37 -8 45s-19.666 13 -42.999 15c-22 2 -33 10 -33 24c0 3.33301 0.5 6.16602 1.5 8.49902s2 4.33301 3 6s2.83301 3 5.5 4l6.5 2.5c1.66699 0.666992 4.33398 1.16699 8.00098 1.5s6 0.5 7 0.5h7.5h7h62
c18 0 29.833 -2.66699 35.5 -8s8.5 -17 8.5 -35z" />
    <glyph glyph-name="asciicircum" unicode="^" horiz-adv-x="660" 
d="M157 280h-63l206 452h58l208 -452h-64l-174 378z" />
    <glyph glyph-name="underscore" unicode="_" horiz-adv-x="500" 
d="M0 -75h500v-50h-500v50z" />
    <glyph glyph-name="grave" unicode="`" horiz-adv-x="320" 
d="M125 648l98.001 -56.999c18 -10 27 -18 27 -24c0 -6.66699 -2.5 -13.667 -7.5 -21s-10.167 -11 -15.5 -11c-2.66699 0 -18.334 4.33301 -47.001 13l-114 40c-10 3.33301 -19.333 8.33301 -28 15s-13 12.667 -13 18c0 11.333 3.5 23.166 10.5 35.499
s15.167 18.5 24.5 18.5c11.333 0 33 -9 65 -27z" />
    <glyph glyph-name="a" unicode="a" horiz-adv-x="500" 
d="M429 284l0.000976562 -161.002c0 -29.333 2.16699 -49.166 6.5 -59.499s13.166 -17.166 26.499 -20.499c14 -4 21 -11 21 -21c0 -7.33301 -2.66699 -12.666 -8 -15.999s-10 -5.16602 -14 -5.49902s-10 -0.5 -18 -0.5h-44c-12 0 -20.667 2.33301 -26 7s-8.5 10 -9.5 16
s-1.5 16.333 -1.5 31v25c-40 -62.667 -95.667 -94 -167 -94c-46.667 0 -86.667 12.5 -120 37.5s-50 60.167 -50 105.5c0 20 4.66699 40.333 14 61s23.833 40.667 43.5 60s47.5 35.166 83.5 47.499s77.333 18.5 124 18.5c26.667 0 48 -1.66699 64 -5
c-2.66699 36.667 -17.5 66.167 -44.5 88.5s-58.833 33.5 -95.5 33.5c-26.667 0 -48.334 -3.83301 -65.001 -11.5s-30 -15.334 -40 -23.001s-19.667 -11.5 -29 -11.5c-18.667 0 -28 8.33301 -28 25c0 14.667 13.333 29 40 43c36.667 17.333 76 26 118 26
c68.667 0 122.334 -17 161.001 -51s58 -82.333 58 -145zM354.001 184.998v80.999c-12.667 2.66699 -29 4 -49 4c-30 0 -59.333 -3.83301 -88 -11.5s-54.5 -22.5 -77.5 -44.5s-34.5 -49 -34.5 -81c0 -26 9.16699 -47.833 27.5 -65.5s41.833 -26.5 70.5 -26.5
c48 0 85.167 13.333 111.5 40s39.5 61.334 39.5 104.001z" />
    <glyph glyph-name="b" unicode="b" horiz-adv-x="520" 
d="M137 715l-0.00390625 -313.999c44 52.667 97.333 79 160 79c64 0 112.667 -22.167 146 -66.5s50 -99.5 50 -165.5c0 -82.667 -23.667 -147.167 -71 -193.5s-104.666 -69.5 -171.999 -69.5c-125.333 0 -188 69 -188 207v454c0 3.33301 -0.166992 6.5 -0.5 9.5
s-1.16602 5.83301 -2.49902 8.5s-2.16602 4.83398 -2.49902 6.50098s-1.66602 3.33398 -3.99902 5.00098s-3.83301 3 -4.5 4s-2.66699 2.16699 -6 3.5s-5.16602 2.16602 -5.49902 2.49902s-2.5 1.16602 -6.5 2.49902l-6 2c-10.667 3.33301 -16 8.33301 -16 15
s6.66699 13.667 20 21c37.333 20.667 66 31 86 31c7.33301 0 12.666 -2.33301 15.999 -7s5.33301 -9.33398 6 -14.001s1 -11.667 1 -21zM136.996 341.001l0.00292969 -161c0 -35.333 10.667 -68.833 32 -100.5s53.333 -47.5 96 -47.5c33.333 0 61.666 10.167 84.999 30.5
s39.666 44.5 48.999 72.5s14 58.333 14 91c0 58 -13.333 106.333 -40 145s-57.334 58 -92.001 58c-27.333 0 -54.333 -8.66699 -81 -26s-47.667 -38 -63 -62z" />
    <glyph glyph-name="c" unicode="c" horiz-adv-x="460" 
d="M387 98c12 15.333 22.666 22.9971 31.999 22.9971c11.333 0 17 -6 17 -18c0 -16 -13 -36 -39 -60c-42.667 -38.667 -91.667 -58 -147 -58c-68 0 -121.833 22.333 -161.5 67s-59.5 101.334 -59.5 170.001c0 71.333 22.833 132.166 68.5 182.499s103.834 75.5 174.501 75.5
c40 0 75 -9.83301 105 -29.5s45 -41.167 45 -64.5c0 -9.33301 -3.33301 -18.166 -10 -26.499s-14.667 -12.5 -24 -12.5c-12.667 0 -23.334 4.33301 -32.001 13s-15.667 18.334 -21 29.001s-15.166 20.334 -29.499 29.001s-32.5 13 -54.5 13
c-42 0 -76.167 -21.5 -102.5 -64.5s-39.5 -90.167 -39.5 -141.5c0 -50 14 -92.833 42 -128.5s65.333 -53.5 112 -53.5c52 0 93.333 18.333 124 55z" />
    <glyph glyph-name="d" unicode="d" horiz-adv-x="520" 
d="M373 437l-0.00292969 209.001c0 3.33301 -0.166992 6.5 -0.5 9.5s-1.16602 5.83301 -2.49902 8.5s-2.16602 4.83398 -2.49902 6.50098s-1.66602 3.33398 -3.99902 5.00098s-3.83301 3 -4.5 4s-2.66699 2.16699 -6 3.5s-5.16602 2.16602 -5.49902 2.49902
s-2.5 1.16602 -6.5 2.49902l-6 2c-10.667 3.33301 -16 8.33301 -16 15s6.66699 13.667 20 21c37.333 20.667 66 31 86 31c7.33301 0 12.666 -2.33301 15.999 -7s5.33301 -9.33398 6 -14.001s1 -11.667 1 -21v-636c0 -12 10 -23.667 30 -35c11.333 -6 17 -13 17 -21
c0 -10 -3 -16.333 -9 -19s-15.667 -4 -29 -4h-47c-14.667 0 -23.5 4 -26.5 12s-4.5 24.667 -4.5 50c-40 -51.333 -90.667 -77 -152 -77c-64 0 -115.5 23.333 -154.5 70s-58.5 102.667 -58.5 168c0 70 21.5 130.333 64.5 181s98.5 76 166.5 76c41.333 0 84 -14.333 128 -43z
M372.997 139.001l-0.000976562 250.002c-25.333 15.333 -46.333 26.166 -63 32.499s-36.667 9.5 -60 9.5c-49.333 0 -87.666 -19.833 -114.999 -59.5s-41 -84.834 -41 -135.501c0 -54.667 12.5 -100.667 37.5 -138s63.5 -56 115.5 -56c43.333 0 79 14 107 42
c8.66699 8 14 15.5 16 22.5s3 17.833 3 32.5z" />
    <glyph glyph-name="e" unicode="e" horiz-adv-x="500" 
d="M113 174c7.33301 -40 26.668 -72 58.001 -96s67.333 -36 108 -36c25.333 0 48.5 4.33301 69.5 13s37 18.334 48 29.001s21.5 20.334 31.5 29.001s17.667 13 23 13s9.83301 -1.83301 13.5 -5.5s5.5 -7.83398 5.5 -12.501c0 -12.667 -6.83301 -26.167 -20.5 -40.5
s-27.834 -26.5 -42.501 -36.5c-45.333 -30.667 -93.333 -46 -144 -46c-66.667 0 -122.667 21.5 -168 64.5s-68 97.5 -68 163.5c0 74 25.667 137 77 189s114 78 188 78c48.667 0 88.167 -12.833 118.5 -38.5s45.5 -55.167 45.5 -88.5c0 -60.667 -40 -106.334 -120 -137.001
c-44 -17.333 -118.333 -31.333 -223 -42zM107.002 217c17.333 1.33301 31.333 2.66797 42 4.00098s26.5 3.66602 47.5 6.99902s38.5 7 52.5 11s29.667 9.66699 47 17s31.333 15.333 42 24s19.667 19.5 27 32.5s11 27.167 11 42.5c0 25.333 -8.33301 44.333 -25 57
s-38 19 -64 19c-58.667 0 -103.5 -20.667 -134.5 -62s-46.167 -92 -45.5 -152z" />
    <glyph glyph-name="f" unicode="f" horiz-adv-x="300" 
d="M98 124l0.00195312 300.999h-24c-13.333 0 -23 0.333008 -29 1s-11.5 2.83398 -16.5 6.50098s-7.5 9.5 -7.5 17.5c0 10.667 3.5 17.167 10.5 19.5s20.5 3.5 40.5 3.5h26c1.33301 96 6.66602 159.333 15.999 190c9.33301 31.333 24.333 58 45 80s46 33 76 33
c16 0 30.167 -4.83301 42.5 -14.5s18.5 -22.167 18.5 -37.5c0 -10 -3.5 -18.833 -10.5 -26.5s-15.5 -11.5 -25.5 -11.5c-4.66699 0 -11.834 3.83301 -21.501 11.5s-18.167 11.5 -25.5 11.5c-16 0 -26.667 -9.83301 -32 -29.5s-8 -50.834 -8 -93.501v-113h59
c11.333 0 19.5 -0.333008 24.5 -1s9.33301 -2.83398 13 -6.50098s5.5 -9.5 5.5 -17.5c0 -15.333 -13.667 -23 -41 -23h-61v-301c0 -29.333 1 -48.666 3 -57.999s7.66699 -15.666 17 -18.999c11.333 -4 19 -7.5 23 -10.5s6 -7.5 6 -13.5c0 -15.333 -11 -23 -33 -23h-114
c-10 -0 -16.833 1.33301 -20.5 4s-5.5 9 -5.5 19c0 8.66699 8 16.334 24 23.001c10.667 4 17.5 10.167 20.5 18.5s4.5 28.166 4.5 59.499z" />
    <glyph glyph-name="g" unicode="g" horiz-adv-x="520" 
d="M419 421l-31 -0.00292969c48 -48 72 -105 72 -171c0 -74 -29.667 -134.333 -89 -181c31.333 -11.333 57.5 -27.666 78.5 -48.999s31.5 -47 31.5 -77c0 -29.333 -8.66699 -54.333 -26 -75s-40.166 -35.834 -68.499 -45.501s-55.833 -16.5 -82.5 -20.5s-53.667 -6 -81 -6
c-127.333 0 -191 26.333 -191 79c0 14 5.66699 29.333 17 46s23.666 25 36.999 25c8.66699 0 13 -5 13 -15c0 -2.66699 -0.333008 -6.66699 -1 -12s-1 -9.66602 -1 -12.999c0 -17.333 13.5 -30.666 40.5 -39.999s60.167 -14 99.5 -14c108.667 0 163 29.667 163 89
c0 12.667 -2.33301 24.167 -7 34.5s-11.834 19.333 -21.501 27s-18.5 13.667 -26.5 18s-18.667 9.5 -32 15.5c-26 -9.33301 -51.667 -14 -77 -14c-65.333 0 -117.333 20.833 -156 62.5s-58 95.5 -58 161.5c0 68.667 21.167 124.834 63.5 168.501s97.166 65.5 164.499 65.5
c4 0 22 -1 54 -3c22.667 -2.66699 41.334 -4 56.001 -4h76c20 0 34.167 -1.5 42.5 -4.5s12.5 -10.5 12.5 -22.5c0 -11.333 -5.16699 -18.333 -15.5 -21s-29.166 -4 -56.499 -4zM233 75.9971c50 0 87 17.168 111 51.501s36 77.166 36 128.499c0 48 -11.5 89.5 -34.5 124.5
s-57.5 52.5 -103.5 52.5c-45.333 0 -80 -18.833 -104 -56.5s-36 -80.5 -36 -128.5c0 -45.333 11 -85.333 33 -120s54.667 -52 98 -52z" />
    <glyph glyph-name="h" unicode="h" horiz-adv-x="560" 
d="M77 123l0.000976562 523.001c0 3.33301 -0.166992 6.5 -0.5 9.5s-1.16602 5.83301 -2.49902 8.5s-2.16602 4.83398 -2.49902 6.50098s-1.66602 3.33398 -3.99902 5.00098s-3.83301 3 -4.5 4s-2.66699 2.16699 -6 3.5s-5.16602 2.16602 -5.49902 2.49902
s-2.5 1.16602 -6.5 2.49902l-6 2c-10.667 3.33301 -16 8.33301 -16 15s6.66699 13.667 20 21c37.333 20.667 66 31 86 31c7.33301 0 12.666 -2.33301 15.999 -7s5.33301 -9.33398 6 -14.001s1 -11.667 1 -21v-300c45.333 43.333 99.666 65 162.999 65
c52.667 0 95.667 -18 129 -54c27.333 -30.667 41 -77 41 -139v-164c0 -27.333 1.16699 -45.833 3.5 -55.5s7.16602 -15.834 14.499 -18.501c13.333 -4.66699 22.166 -8.66699 26.499 -12s6.5 -8 6.5 -14c0 -7.33301 -2.66699 -13 -8 -17s-11.333 -6 -18 -6h-109
c-2 0 -4.83301 -0.166992 -8.5 -0.5s-6.5 -0.5 -8.5 -0.5s-4.5 0.333008 -7.5 1s-5.33301 1.83398 -7 3.50098s-3 4.16699 -4 7.5s-1.5 7.33301 -1.5 12c0 7.33301 5.33301 14 16 20l10 5c8 4 13.333 11 16 21s4 28 4 54v183c0 38 -9.83301 67.333 -29.5 88
s-47.834 31 -84.501 31c-51.333 0 -99.333 -21.333 -144 -64v-238c0 -29.333 1.16699 -48.333 3.5 -57s8.83301 -15 19.5 -19c11.333 -4 19.166 -7.5 23.499 -10.5s6.5 -7.5 6.5 -13.5c0 -15.333 -8.66699 -23 -26 -23h-117c-25.333 0 -38 7.66699 -38 23
c0 5.33301 1.83301 9.5 5.5 12.5s10.834 6.5 21.501 10.5s17.667 10.5 21 19.5s5 28.167 5 57.5z" />
    <glyph glyph-name="i" unicode="i" horiz-adv-x="240" 
d="M109 557c-15.333 0 -27.832 5.33203 -37.499 15.999s-14.5 23.667 -14.5 39c0 16 5.33301 29 16 39s24 15 40 15c15.333 0 28.166 -5 38.499 -15s15.5 -22.333 15.5 -37c0 -17.333 -5.33301 -31.166 -16 -41.499s-24.667 -15.5 -42 -15.5zM89.001 107.999
l0.00195312 212.001c0 18 -0.5 31 -1.5 39s-4.16699 16 -9.5 24s-14 13 -26 15c-18 3.33301 -27 9.66602 -27 18.999c0 6.66699 3.66699 12.834 11 18.501s24.666 14.834 51.999 27.501c24.667 11.333 40 17 46 17c6.66699 0 11.667 -1.33301 15 -4
s6.66602 -13.834 9.99902 -33.501s5 -48.834 5 -87.501v-232c0 -30 1.33301 -49.167 4 -57.5s9.66699 -14.833 21 -19.5c9.33301 -3.33301 16 -6.5 20 -9.5s6 -7.83301 6 -14.5c0 -14.667 -11 -22 -33 -22h-113c-22.667 0 -34 7.33301 -34 22c0 10.667 6.33301 17.667 19 21
c16 4 25.833 10.167 29.5 18.5s5.5 23.833 5.5 46.5z" />
    <glyph glyph-name="j" unicode="j" horiz-adv-x="220" 
d="M108 557c-15.333 0 -27.832 5.33203 -37.499 15.999s-14.5 23.667 -14.5 39c0 16 5.33301 29 16 39s24 15 40 15c15.333 0 28.166 -5 38.499 -15s15.5 -22.333 15.5 -37c0 -17.333 -5.33301 -31.166 -16 -41.499s-24.667 -15.5 -42 -15.5zM165.001 354.999
l0.000976562 -261.999c0 -86 -9 -149.667 -27 -191c-11.333 -26.667 -28.166 -51.167 -50.499 -73.5s-45.833 -33.5 -70.5 -33.5c-11.333 0 -21.833 3.5 -31.5 10.5s-14.5 15.833 -14.5 26.5c0 12 4 21.667 12 29s18 11 30 11c6 0 13.333 -1.33301 22 -4s14.667 -4 18 -4
c11.333 0 19.833 4.83301 25.5 14.5s9 20 10 31s1.5 27.167 1.5 48.5v362c0 18 -0.5 31 -1.5 39s-4.16699 16 -9.5 24s-14 13 -26 15c-18 3.33301 -27 9.66602 -27 18.999c0 6.66699 3.66699 12.834 11 18.501s24.666 14.834 51.999 27.501c24.667 11.333 40 17 46 17
c6.66699 0 11.667 -1.33301 15 -4s6.66602 -13.834 9.99902 -33.501s5 -48.834 5 -87.501z" />
    <glyph glyph-name="k" unicode="k" horiz-adv-x="500" 
d="M77 123l-0.00292969 523.002c0 3.33301 -0.166992 6.5 -0.5 9.5s-1.16602 5.83301 -2.49902 8.5s-2.16602 4.83398 -2.49902 6.50098s-1.66602 3.33398 -3.99902 5.00098s-3.83301 3 -4.5 4s-2.66699 2.16699 -6 3.5s-5.16602 2.16602 -5.49902 2.49902
s-2.5 1.16602 -6.5 2.49902l-6 2c-10.667 3.33301 -16 8.33301 -16 15s6.66699 13.667 20 21c37.333 20.667 66 31 86 31c7.33301 0 12.666 -2.33301 15.999 -7s5.33301 -9.33398 6 -14.001s1 -11.667 1 -21v-482c118.667 91.333 178 152 178 182
c0 7.33301 -4.83301 14.666 -14.5 21.999s-14.5 14.333 -14.5 21c0 10 8 15 24 15h117c17.333 0 26 -5.33301 26 -16s-7.66699 -19.334 -23 -26.001c-16 -6.66699 -31.5 -16.834 -46.5 -30.501s-33 -32 -54 -55s-39.167 -41.5 -54.5 -55.5
c61.333 -58 117.333 -129.667 168 -215c6 -10 15.333 -19.833 28 -29.5s19 -17.5 19 -23.5c0 -10 -1.83301 -16.167 -5.5 -18.5s-10.167 -3.5 -19.5 -3.5h-114c-18.667 0 -28 6.66699 -28 20c0 8 5.5 15.167 16.5 21.5s16.5 12.833 16.5 19.5
c0 18.667 -16.333 48.834 -49 90.501s-60.667 72.834 -84 93.501c-31.333 -28 -60 -50.667 -86 -68v-54c0 -29.333 1.16699 -48.333 3.5 -57s8.83301 -15 19.5 -19c11.333 -4 19.166 -7.5 23.499 -10.5s6.5 -7.5 6.5 -13.5c0 -15.333 -8.66699 -23 -26 -23h-117
c-25.333 0 -38 7.66699 -38 23c0 5.33301 1.83301 9.5 5.5 12.5s10.834 6.5 21.501 10.5s17.667 10.5 21 19.5s5 28.167 5 57.5z" />
    <glyph glyph-name="l" unicode="l" horiz-adv-x="220" 
d="M74 123l-0.00292969 523.002c0 3.33301 -0.166992 6.5 -0.5 9.5s-1.16602 5.83301 -2.49902 8.5s-2.16602 4.83398 -2.49902 6.50098s-1.66602 3.33398 -3.99902 5.00098s-3.83301 3 -4.5 4s-2.66699 2.16699 -6 3.5s-5.16602 2.16602 -5.49902 2.49902
s-2.5 1.16602 -6.5 2.49902l-6 2c-10.667 3.33301 -16 8.33301 -16 15s6.66699 13.667 20 21c37.333 20.667 66 31 86 31c7.33301 0 12.666 -2.33301 15.999 -7s5.33301 -9.33398 6 -14.001s1 -11.667 1 -21v-592c0 -29.333 1.16699 -48.333 3.5 -57s8.83301 -15 19.5 -19
s18 -7.5 22 -10.5s6 -7.5 6 -13.5c0 -15.333 -8 -23 -24 -23h-117c-7.33301 0 -13 0.333008 -17 1s-7.83301 2.66699 -11.5 6s-5.5 8.66602 -5.5 15.999c0 5.33301 1.66699 9.5 5 12.5s9.33301 6.5 18 10.5c10.667 4 17.667 10.5 21 19.5s5 28.167 5 57.5z" />
    <glyph glyph-name="m" unicode="m" horiz-adv-x="840" 
d="M770 288l0.00292969 -165c0 -29.333 1.16699 -48.333 3.5 -57s8.83301 -15 19.5 -19c11.333 -4 19.166 -7.5 23.499 -10.5s6.5 -7.5 6.5 -13.5c0 -15.333 -8.66699 -23 -26 -23h-117c-25.333 0 -38 7.66699 -38 23c0 5.33301 1.83301 9.5 5.5 12.5
s10.834 6.5 21.501 10.5s17.667 10.5 21 19.5s5 28.167 5 57.5v157c0 20.667 -1.16699 38.5 -3.5 53.5s-6.83301 30 -13.5 45s-16.834 26.5 -30.501 34.5s-31.167 12 -52.5 12c-36 0 -69.667 -14 -101 -42c-14 -12.667 -22.833 -26 -26.5 -40s-5.5 -32.333 -5.5 -55v-165
c0 -29.333 1.16699 -48.333 3.5 -57s8.83301 -15 19.5 -19c11.333 -4 19.166 -7.5 23.499 -10.5s6.5 -7.5 6.5 -13.5c0 -15.333 -8.66699 -23 -26 -23h-117c-25.333 0 -38 7.66699 -38 23c0 5.33301 1.83301 9.5 5.5 12.5s10.834 6.5 21.501 10.5s17.667 10.5 21 19.5
s5 28.167 5 57.5v157c0 20.667 -1.16699 38.5 -3.5 53.5s-6.83301 30 -13.5 45s-16.834 26.5 -30.501 34.5s-31.167 12 -52.5 12c-36 0 -69.667 -14 -101 -42c-14 -12.667 -22.833 -26 -26.5 -40s-5.5 -32.333 -5.5 -55v-165c0 -29.333 1.16699 -48.333 3.5 -57
s8.83301 -15 19.5 -19c11.333 -4 19.166 -7.5 23.499 -10.5s6.5 -7.5 6.5 -13.5c0 -15.333 -8.66699 -23 -26 -23h-117c-25.333 0 -38 7.66699 -38 23c0 5.33301 1.83301 9.5 5.5 12.5s10.834 6.5 21.501 10.5s17.667 10.5 21 19.5s5 28.167 5 57.5v202
c0 24.667 -1.33301 41.834 -4 51.501s-8.33398 15.834 -17.001 18.501c-20.667 7.33301 -31.667 13.333 -33 18c-0.666992 1.33301 -1 2.66602 -1 3.99902c0 8.66699 8.33301 19.667 25 33c26.667 20 43.667 30 51 30c12 0 21 -7 27 -21s11 -36 15 -66
c46 58 104.333 87 175 87c26.667 0 51.667 -8 75 -24s42.333 -37.333 57 -64c18.667 26.667 42.667 48 72 64s60 24 92 24c50 0 90 -17.333 120 -52c24.667 -28.667 37 -75.334 37 -140.001z" />
    <glyph glyph-name="n" unicode="n" horiz-adv-x="560" 
d="M79 123l0.00292969 201.999c0 24.667 -1.33301 41.834 -4 51.501s-8.33398 15.834 -17.001 18.501c-20.667 7.33301 -31.667 13.333 -33 18c-0.666992 1.33301 -1 2.66602 -1 3.99902c0 8.66699 8.33301 19.667 25 33c26.667 20 43.667 30 51 30c12 0 21 -7 27 -21
s11 -36 15 -66c46 58 104.333 87 175 87c52.667 0 95.667 -18 129 -54c27.333 -30.667 41 -77 41 -139v-164c0 -27.333 1.16699 -45.833 3.5 -55.5s7.16602 -15.834 14.499 -18.501c13.333 -4.66699 22.166 -8.66699 26.499 -12s6.5 -8 6.5 -14
c0 -7.33301 -2.66699 -13 -8 -17s-11.333 -6 -18 -6h-109c-2 0 -4.83301 -0.166992 -8.5 -0.5s-6.5 -0.5 -8.5 -0.5s-4.5 0.333008 -7.5 1s-5.33301 1.83398 -7 3.50098s-3 4.16699 -4 7.5s-1.5 7.33301 -1.5 12c0 7.33301 5.33301 14 16 20l10 5c8 4 13.333 11 16 21
s4 28 4 54v183c0 38 -10 67.333 -30 88s-48.667 31 -86 31c-42 0 -78.667 -14 -110 -42c-14 -12.667 -22.833 -26 -26.5 -40s-5.5 -32.333 -5.5 -55v-165c0 -29.333 1.16699 -48.333 3.5 -57s8.83301 -15 19.5 -19c11.333 -4 19.166 -7.5 23.499 -10.5s6.5 -7.5 6.5 -13.5
c0 -15.333 -8.66699 -23 -26 -23h-117c-25.333 0 -38 7.66699 -38 23c0 5.33301 1.83301 9.5 5.5 12.5s10.834 6.5 21.501 10.5s17.667 10.5 21 19.5s5 28.167 5 57.5z" />
    <glyph glyph-name="o" unicode="o" horiz-adv-x="560" 
d="M281 480c68 0 126.333 -23.833 175 -71.5s73 -105.167 73 -172.5c0 -71.333 -24.333 -131 -73 -179s-108.667 -72 -180 -72c-68 0 -125.833 24.167 -173.5 72.5s-71.5 106.5 -71.5 174.5c0 67.333 24.833 125.5 74.5 174.5s108.167 73.5 175.5 73.5zM279 431
c-54.667 0 -96.333 -19.833 -125 -59.5s-43 -87.5 -43 -143.5c0 -54.667 14.5 -100.667 43.5 -138s69.833 -56 122.5 -56c46 0 86.167 18.333 120.5 55s51.5 86 51.5 148c0 54.667 -15 100.667 -45 138s-71.667 56 -125 56z" />
    <glyph glyph-name="p" unicode="p" horiz-adv-x="580" 
d="M95 -84l0.00390625 406.005c0 18.667 -0.5 32.5 -1.5 41.5s-4.66699 17.833 -11 26.5s-16.166 14 -29.499 16c-0.666992 0 -2.83398 0.333008 -6.50098 1s-6.33398 1.16699 -8.00098 1.5s-3.83398 1.16602 -6.50098 2.49902s-4.5 3 -5.5 5s-1.5 4.33301 -1.5 7
c0 12 11.333 24.5 34 37.5s40.334 19.5 53.001 19.5c6 0 11.333 -1 16 -3s8.83398 -5 12.501 -9s6.66699 -7.83301 9 -11.5s4.66602 -8.83398 6.99902 -15.501s4 -11.834 5 -15.501s2.33301 -9.33398 4 -17.001s2.83398 -12.5 3.50098 -14.5
c25.333 28.667 50.833 50.167 76.5 64.5s55.5 21.5 89.5 21.5c61.333 0 112.166 -22.667 152.499 -68s60.5 -102.666 60.5 -171.999c0 -79.333 -22.333 -141.666 -67 -186.999s-101.334 -68 -170.001 -68c-18 0 -41 4.66699 -69 14s-42 22 -42 38
c0 5.33301 1.66699 10.5 5 15.5s7.66602 7.5 12.999 7.5c1.33301 0 12.833 -4 34.5 -12s43.5 -12 65.5 -12c44 0 80 18 108 54s42 83.333 42 142c0 53.333 -11.833 98.333 -35.5 135s-60.834 55 -111.501 55c-38 0 -72.667 -12.667 -104 -38s-47 -57.333 -47 -96v-362
c0 -40 3.33301 -62 10 -66c15.333 -8 25.833 -14.333 31.5 -19s8.5 -10 8.5 -16c0 -8.66699 -1.83301 -14.334 -5.5 -17.001s-10.167 -4 -19.5 -4h-120c-7.33301 0 -12.5 0.333008 -15.5 1s-5.83301 2.5 -8.5 5.5s-4 7.83301 -4 14.5c0 9.33301 7.33301 16 22 20
c11.333 3.33301 18.5 9.16602 21.5 17.499s4.5 26.166 4.5 53.499z" />
    <glyph glyph-name="q" unicode="q" horiz-adv-x="520" 
d="M385 -94l0.000976562 158c-18.667 -24 -42 -43.167 -70 -57.5s-57.333 -21.5 -88 -21.5c-64 0 -115.333 23.333 -154 70s-58 102.667 -58 168c0 70.667 22.167 131.167 66.5 181.5s101.5 75.5 171.5 75.5c51.333 0 95.666 -14 132.999 -42c24 28 43.667 42 59 42
c6 0 10 -2.5 12 -7.5s3 -15.5 3 -31.5v-515c0 -29.333 1.33301 -48.5 4 -57.5s8 -15.167 16 -18.5s13.833 -5.83301 17.5 -7.5s6.66699 -4 9 -7s3.5 -6.5 3.5 -10.5c0 -9.33301 -1.33301 -15.166 -4 -17.499s-8.66699 -3.5 -18 -3.5h-122
c-9.33301 0 -16.166 1.33301 -20.499 4s-6.5 8.33398 -6.5 17.001c0 5.33301 1.66699 9.33301 5 12s9.66602 6 18.999 10c8.66699 3.33301 14.5 8.66602 17.5 15.999s4.5 21.666 4.5 42.999zM385.001 167l0.000976562 129c0 44.667 -11.667 78.334 -35 101.001
c-24.667 23.333 -55.334 35 -92.001 35c-54.667 0 -95.5 -20 -122.5 -60s-40.5 -89 -40.5 -147c0 -50 13.333 -93 40 -129s64 -54 112 -54c42 0 78.667 13.667 110 41c8.66699 8 15.167 16.5 19.5 25.5s6.83301 17.167 7.5 24.5s1 18.666 1 33.999z" />
    <glyph glyph-name="r" unicode="r" horiz-adv-x="360" 
d="M91 123l-0.000976562 193.001c0 39.333 -14.333 65.666 -43 78.999c-15.333 6.66699 -23 13.667 -23 21c0 10 8.66699 21.333 26 34c27.333 20 46 30 56 30c24.667 0 42.667 -42 54 -126c12 28.667 31 56.834 57 84.501s51.667 41.5 77 41.5c38 0 57 -20.333 57 -61
c0 -24.667 -7.66699 -37 -23 -37c-5.33301 0 -15.166 3.5 -29.499 10.5s-24.833 10.5 -31.5 10.5c-24.667 0 -49 -20.667 -73 -62c-19.333 -32.667 -29 -68 -29 -106v-112c0 -28.667 1.33301 -47.667 4 -57s8.66699 -15.666 18 -18.999
c6.66699 -2.66699 11.667 -4.83398 15 -6.50098s6 -3.83398 8 -6.50098s3 -6 3 -10c0 -16 -11 -24 -33 -24h-107c-22.667 0 -34 8 -34 24c0 8.66699 10.333 17.334 31 26.001c8 3.33301 13.333 9.16602 16 17.499s4 26.833 4 55.5z" />
    <glyph glyph-name="s" unicode="s" horiz-adv-x="400" 
d="M123 56c32 -15.333 59 -23.0059 81 -23.0059c26.667 0 50.667 7.33301 72 22s32 35 32 61c0 23.333 -9.16699 41.333 -27.5 54s-40.666 21.834 -66.999 27.501s-52.5 12.167 -78.5 19.5s-48.167 20.833 -66.5 40.5s-27.5 46.167 -27.5 79.5c0 39.333 15.667 73 47 101
s71.666 42 120.999 42c46 0 87.333 -10.667 124 -32c8.66699 -5.33301 14.167 -11 16.5 -17s3.5 -15.333 3.5 -28l1 -8c0 -5.33301 -0.166992 -9.5 -0.5 -12.5s-0.833008 -6.66699 -1.5 -11s-2 -7.66602 -4 -9.99902s-4.66699 -3.5 -8 -3.5c-6 0 -13.333 3.83301 -22 11.5
s-17.334 16.334 -26.001 26.001s-21.5 18.334 -38.5 26.001s-35.5 11.5 -55.5 11.5c-24.667 0 -46.5 -6.16699 -65.5 -18.5s-28.5 -30.166 -28.5 -53.499c0 -17.333 6.83301 -31.5 20.5 -42.5s30.5 -19 50.5 -24s42 -11 66 -18s46 -14.667 66 -23
s36.833 -21.666 50.5 -39.999s20.5 -40.833 20.5 -67.5c0 -48 -18.5 -86.833 -55.5 -116.5s-80.167 -44.5 -129.5 -44.5c-39.333 0 -77.5 10.333 -114.5 31s-55.5 45.334 -55.5 74.001c0 6.66699 2.5 13.167 7.5 19.5s10.833 9.5 17.5 9.5
c14.667 0 28.334 -9.33301 41.001 -28s24 -30.334 34 -35.001z" />
    <glyph glyph-name="t" unicode="t" horiz-adv-x="300" 
d="M87 50v374.997c-16 0 -27.5 0.166992 -34.5 0.5s-14.833 1.33301 -23.5 3s-14.5 4.5 -17.5 8.5s-4.5 9.66699 -4.5 17c0 12.667 11 19 33 19c8.66699 0 15.334 0.333008 20.001 1s10 2.83398 16 6.50098s10.667 9.5 14 17.5c11.333 28 18.666 62 21.999 102
c0 0.666992 0.166992 3.16699 0.5 7.5s0.666016 7.5 0.999023 9.5l1.5 9c0.666992 4 1.5 7.16699 2.5 9.5l3.5 8.5c1.33301 3.33301 2.83301 5.83301 4.5 7.5s3.83398 3.16699 6.50098 4.5s5.66699 2 9 2c14 0 21 -12.667 21 -38v-147h77c11.333 0 19.5 -0.333008 24.5 -1
s10 -2.66699 15 -6s7.5 -8.66602 7.5 -15.999c0 -11.333 -3.5 -18.333 -10.5 -21s-17.833 -4 -32.5 -4h-81v-299c0 -28.667 3.66699 -48.667 11 -60s24.333 -17 51 -17c26 0 43.167 -1.16699 51.5 -3.5s12.5 -9.16602 12.5 -20.499c0 -8 -3.16699 -14.167 -9.5 -18.5
s-13.5 -6.5 -21.5 -6.5h-132c-16 0 -26.333 4 -31 12s-7 20.667 -7 38z" />
    <glyph glyph-name="u" unicode="u" horiz-adv-x="520" 
d="M381 180l-0.00390625 164.998c0 15.333 -0.166992 26.666 -0.5 33.999s-2.16602 15.333 -5.49902 24s-8 14.667 -14 18c-14 8 -21 15 -21 21c0 8.66699 7.66699 16.334 23 23.001c21.333 10 43 15 65 15c13.333 0 21.333 -8.16699 24 -24.5s4 -53.166 4 -110.499v-223
c0 -30 1.5 -49.167 4.5 -57.5s8.5 -13.833 16.5 -16.5c9.33301 -3.33301 15.833 -6 19.5 -8s6.83398 -4.5 9.50098 -7.5s4 -6.5 4 -10.5c0 -9.33301 -2 -15.333 -6 -18s-10.667 -4 -20 -4h-70c-9.33301 0 -16 2.66699 -20 8s-6.33301 11.833 -7 19.5s-1 21.167 -1 40.5
c-52 -55.333 -108.667 -83 -170 -83c-11.333 0 -22.666 1 -33.999 3s-24.5 6.83301 -39.5 14.5s-28 18 -39 31s-20.5 31.833 -28.5 56.5s-12 53.334 -12 86.001v169c0 15.333 -0.166992 26.666 -0.5 33.999s-2.16602 15.333 -5.49902 24s-8 14.667 -14 18
c-2 1.33301 -5 3 -9 5l-9 4.5c-2 1 -3.83301 2.5 -5.5 4.5s-2.5 4.33301 -2.5 7c0 1.33301 0.333008 2.83301 1 4.5s1.33398 3 2.00098 4s1.66699 2 3 3s2.5 1.83301 3.5 2.5s2.5 1.5 4.5 2.5s3.5 1.83301 4.5 2.5s2.66699 1.5 5 2.5s3.83301 1.5 4.5 1.5
c21.333 10 43 15 65 15c13.333 0 21.333 -8.16699 24 -24.5s4 -53.166 4 -110.499v-165c0 -93.333 32.333 -140 97 -140c21.333 0 43.666 4.83301 66.999 14.5s42.333 22.5 57 38.5c10 10.667 16.167 21.667 18.5 33s3.5 29.333 3.5 54z" />
    <glyph glyph-name="v" unicode="v" horiz-adv-x="460" 
d="M26 473l117.001 0.00488281c6 0 11 -2.16699 15 -6.5s6 -9.5 6 -15.5s-2.33301 -11 -7 -15s-9.83398 -7.16699 -15.501 -9.5s-10.834 -7.33301 -15.501 -15s-7 -17.834 -7 -30.501c0 -30.667 15 -81.334 45 -152.001s58.667 -122 86 -154
c30.667 43.333 59.167 98.666 85.5 165.999s39.5 115 39.5 143c0 19.333 -7.33301 34.333 -22 45c-10 11.333 -15.333 19.666 -16 24.999c0 12.667 9.33301 19 28 19h75c6.66699 0 11.834 -0.333008 15.501 -1s6.83398 -2.5 9.50098 -5.5s4 -7.5 4 -13.5
c0 -4.66699 -4.33301 -12.667 -13 -24s-14.334 -22 -17.001 -32c-17.333 -70.667 -36.5 -131.5 -57.5 -182.5s-49.833 -107.5 -86.5 -169.5c-12.667 -21.333 -23.167 -36.666 -31.5 -45.999s-17.833 -14 -28.5 -14c-11.333 0 -27.333 14.333 -48 43
c-40 57.333 -70.667 112.833 -92 166.5s-40.666 119.5 -57.999 197.5c-2.66699 13.333 -9.33398 24.666 -20.001 33.999s-16 17.666 -16 24.999c0 14.667 8.33301 22 25 22z" />
    <glyph glyph-name="w" unicode="w" horiz-adv-x="720" 
d="M332 473l92.001 0.00195312c13.333 0 20 -6.33301 20 -19c0 -8.66699 -6.16699 -16.667 -18.5 -24s-18.5 -18.666 -18.5 -33.999c0 -41.333 12.167 -94.5 36.5 -159.5s49.833 -119.167 76.5 -162.5c25.333 33.333 50 84.166 74 152.499s36 121.833 36 160.5
c0 11.333 -2 20.666 -6 27.999s-8.5 12.166 -13.5 14.499s-9.5 5.5 -13.5 9.5s-6 8.66699 -6 14c0 13.333 9 20 27 20h75c18.667 0 28 -5.66699 28 -17c0 -6 -4.16699 -15.833 -12.5 -29.5s-15.166 -31.5 -20.499 -53.5c-34.667 -144.667 -76.667 -255 -126 -331
c-20.667 -31.333 -34.334 -49 -41.001 -53c-4.66699 -2.66699 -9.66699 -4 -15 -4c-13.333 0 -26 10.333 -38 31c-42 74 -77.667 153 -107 237c-38 -98.667 -75.333 -174.334 -112 -227.001c-10 -14.667 -18.333 -25.167 -25 -31.5s-14 -9.5 -22 -9.5
c-5.33301 0 -13.5 5.83301 -24.5 17.5s-20.167 24.167 -27.5 37.5c-56.667 103.333 -95.334 220.333 -116.001 351c-2.66699 16.667 -8.66699 29.667 -18 39s-14 17 -14 23c0 13.333 8.66699 20 26 20h97c6.66699 0 11.5 -0.333008 14.5 -1s5.5 -2.66699 7.5 -6
s3 -8.66602 3 -15.999c0 -6 -2 -10.667 -6 -14s-8.33301 -5.83301 -13 -7.5s-9 -5.16699 -13 -10.5s-6 -12.333 -6 -21c0 -34 10.667 -85.333 32 -154s46.333 -125 75 -169c31.333 40.667 58.5 92.167 81.5 154.5s34.5 117.833 34.5 166.5
c0 14.667 -5.83301 26.5 -17.5 35.5s-17.5 17.167 -17.5 24.5c0 12 10.667 18 32 18z" />
    <glyph glyph-name="x" unicode="x" horiz-adv-x="500" 
d="M142 0h-113.004c-8 0 -13.5 1.16699 -16.5 3.5s-4.5 8.16602 -4.5 17.499c0 8 7.16699 16 21.5 24s23.833 14.667 28.5 20l48 60.5l49.5 62.5c13.667 16.667 27.834 32.334 42.501 47.001l-50 60.5c-27.333 33 -47.333 56.5 -60 70.5
c-5.33301 6 -11.666 13.833 -18.999 23.5l-19 24.5c-5.33301 6.66699 -10 11 -14 13c-11.333 6 -18.666 10.667 -21.999 14s-5 8.66602 -5 15.999c0 6.66699 1.83301 11 5.5 13s9.83398 3 18.501 3h117c8 0 13.833 -1 17.5 -3s5.5 -6.66699 5.5 -14c0 -6 -4 -12.5 -12 -19.5
s-12 -13.167 -12 -18.5c0 -16.667 32.667 -60.667 98 -132c62 64.667 93 108.667 93 132c0 6 -5.16699 12 -15.5 18s-15.5 13 -15.5 21c0 10.667 8.66699 16 26 16h92c9.33301 0 15.833 -1 19.5 -3s5.5 -6.66699 5.5 -14c0 -8.66699 -6.33301 -16 -19 -22
s-21.334 -12.333 -26.001 -19c-35.333 -47.333 -78 -101 -128 -161c20 -22 42.667 -48.5 68 -79.5l63 -76.5c16.667 -20 27.334 -32 32.001 -36s11.5 -7.66699 20.5 -11s16.167 -7 21.5 -11s8 -10.333 8 -19c0 -14 -9.33301 -21 -28 -21h-120c-16.667 0 -25 6.33301 -25 19
c0 6 4.16699 12.833 12.5 20.5s12.5 14.167 12.5 19.5c0 6.66699 -6.33301 18.334 -19 35.001s-30.5 38 -53.5 64l-41.5 47c-56 -66.667 -87 -106 -93 -118c-3.33301 -7.33301 -5 -14.333 -5 -21c0 -10 6.16699 -18.5 18.5 -25.5s18.5 -14.5 18.5 -22.5
c0 -12 -9 -18 -27 -18z" />
    <glyph glyph-name="y" unicode="y" horiz-adv-x="480" 
d="M26 473l106 0.00585938c15.333 0 23 -5.33301 23 -16c0 -6.66699 -3.16699 -12.167 -9.5 -16.5s-12.833 -10.166 -19.5 -17.499s-10 -18.333 -10 -33c0 -58 13 -124.333 39 -199c27.333 -77.333 63.333 -116 108 -116c22 0 39.167 8.66699 51.5 26
s24.833 46.666 37.5 87.999c22.667 74.667 34 141 34 199c0 13.333 -2.5 23.5 -7.5 30.5s-10.5 11.167 -16.5 12.5s-11.5 4.16602 -16.5 8.49902s-7.5 10.5 -7.5 18.5c0 10 7.33301 15 22 15h88c14.667 0 22 -4.66699 22 -14c0 -5.33301 -3.16699 -13.666 -9.5 -24.999
s-10.5 -25 -12.5 -41c-11.333 -80.667 -28 -155 -50 -223s-46 -124.667 -72 -170s-53.833 -83.833 -83.5 -115.5s-58.167 -54.5 -85.5 -68.5s-53 -21 -77 -21c-14.667 0 -27.5 3.33301 -38.5 10s-16.5 17 -16.5 31c0 9.33301 3.5 17.666 10.5 24.999s15.167 11 24.5 11
c5.33301 0 14.166 -1.33301 26.499 -4s21.5 -4 27.5 -4c30 0 62.667 19.167 98 57.5s58 74.166 68 107.499c-17.333 -7.33301 -32.666 -11 -45.999 -11c-50.667 0 -93.667 35.667 -129 107c-8 16 -15.5 33.833 -22.5 53.5s-12.667 37.167 -17 52.5
s-8.33301 33.166 -12 53.499s-6.16699 35.666 -7.5 45.999l-5.5 41.5c-2.33301 17.333 -3.5 26.666 -3.5 27.999c-2 15.333 -8.66699 26.666 -20 33.999s-17 14.333 -17 21c0 12 8.66699 18 26 18z" />
    <glyph glyph-name="z" unicode="z" horiz-adv-x="420" 
d="M334 0l-251 0.000976562c-11.333 0 -20.5 0.333008 -27.5 1s-14.333 3.66699 -22 9s-11.5 13 -11.5 23c0 24 44.333 89 133 195c64 76.667 103.5 124.834 118.5 144.501s22.5 32.834 22.5 39.501c0 7.33301 -11 11 -33 11h-82c-24.667 0 -43.5 -2.33301 -56.5 -7
s-25.833 -16 -38.5 -34c-0.666992 -0.666992 -2.16699 -2.83398 -4.5 -6.50098s-4.33301 -6.33398 -6 -8.00098s-3.83398 -3.5 -6.50098 -5.5s-5.33398 -3 -8.00098 -3c-8 0 -12 7.66699 -12 23c0 12 5 37.333 15 76c2 7.33301 5.33301 11.666 10 12.999s14.334 2 29.001 2
h240c9.33301 0 16.5 -0.166992 21.5 -0.5s10.833 -1.16602 17.5 -2.49902s11.667 -4 15 -8s5 -9 5 -15c0 -17.333 -9.83301 -39.833 -29.5 -67.5s-62.167 -79.834 -127.5 -156.501c-76 -89.333 -114 -142.333 -114 -159c0 -9.33301 10 -14 30 -14h123c15.333 0 27 3 35 9
s18 17.333 30 34c15.333 21.333 27.333 32 36 32c7.33301 0 11 -4.33301 11 -13c0 -12 -1.66699 -28.333 -5 -49s-7 -35.667 -11 -45c-5.33301 -12 -20.666 -18 -45.999 -18z" />
    <glyph glyph-name="braceleft" unicode="{" horiz-adv-x="300" 
d="M187 187v-195.999c0 -32.667 5.66699 -57.834 17 -75.501s32 -31.5 62 -41.5c-49.333 -1.33301 -86 7.66699 -110 27c-25.333 18 -38 54.667 -38 110v194c0 13.333 -0.166992 23.166 -0.5 29.499s-2.16602 14 -5.49902 23s-8.33301 17.5 -15 25.5
c-14.667 17.333 -34.667 29.333 -60 36c18 2 35.333 9.66699 52 23c9.33301 7.33301 16.166 16.5 20.499 27.5s6.83301 20 7.5 27s1 18.833 1 35.5v172c0 58.667 10.333 99.5 31 122.5s59.667 33.167 117 30.5c-28.667 -8 -49 -21.333 -61 -40s-18 -44 -18 -76v-182
c0 -41.333 -5.83301 -73.166 -17.5 -95.499s-35.5 -37.166 -71.5 -44.499c34.667 -8.66699 58.167 -23.334 70.5 -44.001s18.5 -50 18.5 -88z" />
    <glyph glyph-name="bar" unicode="|" horiz-adv-x="660" 
d="M298 -250v1000h63v-1000h-63z" />
    <glyph glyph-name="braceright" unicode="}" horiz-adv-x="300" 
d="M117 459l0.000976562 182c0 32 -6 57.333 -18 76s-32.333 32 -61 40c57.333 2.66699 96.333 -7.5 117 -30.5s31 -63.833 31 -122.5v-172c0 -16.667 0.333008 -28.5 1 -35.5s3.16699 -16 7.5 -27s11.166 -20.167 20.499 -27.5c16.667 -13.333 34 -21 52 -23
c-25.333 -6.66699 -45.333 -18.667 -60 -36c-6.66699 -8 -11.667 -16.667 -15 -26s-5.16602 -16.833 -5.49902 -22.5s-0.5 -15.5 -0.5 -29.5v-194c0 -55.333 -12.667 -92 -38 -110c-24.667 -19.333 -61.334 -28.333 -110.001 -27c30 10 50.667 23.833 62 41.5
s17 42.834 17 75.501v196c0 38 6.16699 67.333 18.5 88s35.833 35.334 70.5 44.001c-36 7.33301 -59.833 22.166 -71.5 44.499s-17.5 54.166 -17.5 95.499z" />
    <glyph glyph-name="asciitilde" unicode="~" horiz-adv-x="660" 
d="M561 333l48.001 -30.001c-16.667 -22.667 -30.167 -40.167 -40.5 -52.5s-25.333 -24.166 -45 -35.499s-40.834 -17 -63.501 -17c-24 0 -57.667 8.33301 -101 25l-55 20c-47.333 18 -79 27 -95 27c-17.333 0 -33.333 -4.33301 -48 -13s-26 -18 -34 -28
s-17.667 -23.667 -29 -41l-47 31c23.333 36 46.833 63.5 70.5 82.5s53.167 28.5 88.5 28.5c25.333 0 69 -11.667 131 -35c58.667 -24 97.667 -36 117 -36c16 0 30.833 4 44.5 12s24.167 16.333 31.5 25s16.333 21 27 37z" />
    <glyph glyph-name="uni00A0" unicode="&#xa0;" horiz-adv-x="300" 
 />
    <glyph glyph-name="exclamdown" unicode="&#xa1;" horiz-adv-x="300" 
d="M146 480c15.333 0 28.168 -5.33301 38.501 -16s15.5 -23.667 15.5 -39s-5.33301 -27.833 -16 -37.5s-23.334 -14.5 -38.001 -14.5c-15.333 0 -28 5.33301 -38 16s-15 23.667 -15 39c0 14 5.33301 26.167 16 36.5s23 15.5 37 15.5zM94.002 -123l32.001 370.001v8
c0.666992 5.33301 1.16699 9.16602 1.5 11.499s1.16602 5.5 2.49902 9.5s3.33301 7 6 9s6 3 10 3s7.33301 -1 10 -3s4.5 -5.16699 5.5 -9.5l2.5 -11c0.666992 -3 1 -7.16699 1 -12.5v-9l29 -387c0 -40 -17.667 -60 -53 -60c-16 0 -28 4.66699 -36 14s-11.833 20 -11.5 32
s0.5 23.667 0.5 35z" />
    <glyph glyph-name="cent" unicode="&#xa2;" 
d="M359 589l-0.00683594 -390.998c19.333 2.66699 39.833 9.16699 61.5 19.5s37.5 22.5 47.5 36.5c0.666992 0.666992 2 2.66699 4 6s3.66699 5.83301 5 7.5s3 3.5 5 5.5s4.16699 3.5 6.5 4.5s4.83301 1.5 7.5 1.5c13.333 0 20 -6.66699 20 -20
c0 -18 -14.667 -39.667 -44 -65c-32.667 -28 -70.334 -45 -113.001 -51v-86v-7v-7.5c0 -1.66699 -0.166992 -3.83398 -0.5 -6.50098s-0.666016 -4.66699 -0.999023 -6s-1.16602 -3 -2.49902 -5s-2.66602 -3.33301 -3.99902 -4s-3.33301 -1.33398 -6 -2.00098
s-5.66699 -1 -9 -1c-16.667 0 -25 5.33301 -25 16v109c-65.333 2.66699 -118 26.334 -158 71.001s-60 100 -60 166c0 67.333 19.833 125.333 59.5 174s92.5 77 158.5 85v103c0 12 1.33301 20.333 4 25s9.33398 7 20.001 7c3.33301 0 6.33301 -0.333008 9 -1
s4.83398 -1.16699 6.50098 -1.5s3 -1.5 4 -3.5s1.83301 -3.33301 2.5 -4s1.16699 -2.66699 1.5 -6s0.5 -5.33301 0.5 -6v-7.5v-7.5v-98c26.667 2 58.334 -6.83301 95.001 -26.5s55 -41.834 55 -66.501c0 -11.333 -4 -21 -12 -29s-17.667 -12 -29 -12
c-7.33301 0 -14.166 2 -20.499 6s-10.666 7.66699 -12.999 11l-12.5 18c-11.333 16 -20.333 26.667 -27 32s-18.667 11 -36 17zM309.993 197.002v391.001c-43.333 -5.33301 -75.833 -27.833 -97.5 -67.5s-32.5 -83.834 -32.5 -132.501c0 -48 10.667 -89.5 32 -124.5
s54 -57.167 98 -66.5z" />
    <glyph glyph-name="sterling" unicode="&#xa3;" 
d="M375 334l-153.003 -0.00585938c5.33301 -55.333 8 -86 8 -92c0 -39.333 -5.16699 -73.166 -15.5 -101.499s-28.166 -57.166 -53.499 -86.499c46.667 22.667 85.667 34 117 34c30 0 62 -5.66699 96 -17c32 -11.333 56.333 -17 73 -17c16 0 27.667 2.66699 35 8
s15.666 15.666 24.999 30.999c8.66699 16 16.334 24 23.001 24c12 0 18 -6.33301 18 -19c0 -21.333 -11.833 -45.5 -35.5 -72.5s-55.5 -40.5 -95.5 -40.5c-20 0 -54.667 6.66699 -104 20s-84.666 20 -105.999 20c-15.333 0 -34.333 -5.5 -57 -16.5
s-34.334 -16.5 -35.001 -16.5c-8 0 -15.333 3.16699 -22 9.5s-10 13.5 -10 21.5c0 5.33301 4 11.5 12 18.5l26.5 23c9.66699 8.33301 18.5 22.833 26.5 43.5s12 45.667 12 75c0 24 -7.66699 74.333 -23 151h-12c-14 0 -23.833 0.333008 -29.5 1s-11 2.83398 -16 6.50098
s-7.5 9.5 -7.5 17.5c0 11.333 3.5 18.333 10.5 21s17.5 4 31.5 4h16c-12 54 -18 98.667 -18 134c0 67.333 20 122.833 60 166.5s93.333 65.5 160 65.5c49.333 0 92.333 -14.667 129 -44s55 -64 55 -104c0 -11.333 -3.16699 -20.833 -9.5 -28.5s-15.166 -11.5 -26.499 -11.5
c-21.333 0 -33.333 16 -36 48c-2.66699 28 -15.167 50.167 -37.5 66.5s-47.166 24.5 -74.499 24.5c-45.333 0 -79.333 -14.833 -102 -44.5s-34 -67.834 -34 -114.501c0 -16 1 -32.333 3 -49s5.16699 -36.667 9.5 -60s7.16602 -39.666 8.49902 -48.999h160h7h7
c1.33301 0 3.5 -0.166992 6.5 -0.5s5 -0.666016 6 -0.999023s2.66699 -0.833008 5 -1.5s4 -1.66699 5 -3l3.5 -4.5c1.33301 -1.66699 2.16602 -3.66699 2.49902 -6s0.5 -5.16602 0.5 -8.49902s-0.166992 -6.16602 -0.5 -8.49902s-1.16602 -4.33301 -2.49902 -6l-3.5 -4.5
c-1 -1.33301 -2.83301 -2.33301 -5.5 -3s-4.5 -1.16699 -5.5 -1.5s-3.16699 -0.666016 -6.5 -0.999023s-5.66602 -0.5 -6.99902 -0.5h-7h-7z" />
    <glyph glyph-name="currency" unicode="&#xa4;" 
d="M301 517c-41.333 0 -76.333 -14.833 -105 -44.5s-43 -64.834 -43 -105.501c0 -41.333 14.333 -77 43 -107s63.667 -45 105 -45s76 15 104 45s42 65.667 42 107c0 40.667 -14 75.834 -42 105.501s-62.667 44.5 -104 44.5zM28 144l98 95.999c-27.333 36 -41 78.333 -41 127
s13.667 90.334 41 125.001l-98 98c-6 6 -6 14.667 0 26s14 19.166 24 23.499s18.667 3.83301 26 -1.5l96 -96c37.333 26 79.666 39 126.999 39c50.667 0 92.334 -13 125.001 -39l98 96c10 10 23 7 39 -9s19 -29 9 -39l-96 -98c26 -35.333 39 -77 39 -125
c0 -47.333 -13 -89.666 -39 -126.999l96 -96c5.33301 -7.33301 5.83301 -16 1.5 -26s-12.166 -18 -23.499 -24s-20 -6 -26 0l-98 98c-34.667 -27.333 -76.334 -41 -125.001 -41c-48 0 -90.333 13.667 -127 41l-96 -98c-10 -10 -23.333 -6.66699 -40 10s-20 30 -10 40z" />
    <glyph glyph-name="yen" unicode="&#xa5;" 
d="M341 215l-0.000976562 -127.994c0 -18.667 12 -33 36 -43c12.667 -6 19 -14.667 19 -26c0 -12 -7.66699 -18 -23 -18h-138c-5.33301 0 -9.83301 2.16699 -13.5 6.5s-5.5 9.83301 -5.5 16.5c0 4.66699 1.16699 8.66699 3.5 12s4.5 5.33301 6.5 6s5.33301 1.66699 10 3
c8 2.66699 14.333 6.5 19 11.5s7.83398 13.167 9.50098 24.5s2.66699 19.166 3 23.499s0.833008 13.833 1.5 28.5v83h-122c-7.33301 0 -12.833 0.333008 -16.5 1s-7 3 -10 7s-4.5 10 -4.5 18c0 16 8.66699 23.333 26 22h127v29l-25 38h-92c-10 0 -16.833 0.166992 -20.5 0.5
s-7.83398 2.66602 -12.501 6.99902s-7 11.166 -7 20.499c0 8.66699 1.66699 14.167 5 16.5s9 3.5 17 3.5h79c-78.667 134.667 -125.667 217 -141 247l-6.5 13c-3 6 -5 10.167 -6 12.5s-2.66699 5.33301 -5 9s-4.33301 6.5 -6 8.5s-3.5 4 -5.5 6s-4.33301 3.66699 -7 5
c-0.666992 0 -2.5 0.666992 -5.5 2s-5 2.33301 -6 3s-2.66699 1.66699 -5 3s-4 2.66602 -5 3.99902s-2.16699 3 -3.5 5s-2.16602 4.16699 -2.49902 6.5s-0.5 5.16602 -0.5 8.49902c0 14 7.33301 21 22 21h112c19.333 0 29 -8 29 -24c0 -8.66699 -6.33301 -16.5 -19 -23.5
s-19 -15.5 -19 -25.5c0 -12 12.167 -39.833 36.5 -83.5s69.833 -119.834 136.5 -228.501c40 55.333 78 116.666 114 183.999s54 107.333 54 120s-3.66699 21.5 -11 26.5s-14.833 9.66699 -22.5 14s-11.5 11.5 -11.5 21.5c0 12.667 9 19 27 19h106c12 0 18 -7.33301 18 -22
c0 -8.66699 -5.66699 -18.667 -17 -30c-12.667 -12.667 -25.334 -32.667 -38.001 -60c-30 -64 -75.333 -144.667 -136 -242h81c6 0 10.333 -0.333008 13 -1s5 -2.5 7 -5.5s3 -7.83301 3 -14.5c0 -11.333 -3 -18.666 -9 -21.999s-15 -5 -27 -5h-99l-17 -29v-38h120
c20.667 0 31 -7.33301 31 -22c0 -10.667 -2.66699 -17.667 -8 -21s-13.666 -5 -24.999 -5h-118z" />
    <glyph glyph-name="brokenbar" unicode="&#xa6;" horiz-adv-x="660" 
d="M298 -135v284h63v-284h-63zM298 365v284h63v-284h-63z" />
    <glyph glyph-name="section" unicode="&#xa7;" horiz-adv-x="520" 
d="M265 111l-82.9961 24.001c-54 15.333 -91.333 33.333 -112 54c-32 32 -48 68.667 -48 110c0 49.333 28.667 98.666 86 147.999c-17.333 20.667 -30 39.334 -38 56.001s-12 37 -12 61c0 54 21.833 98 65.5 132s93.167 51 148.5 51c49.333 0 100.333 -13.667 153 -41
c6 -3.33301 10.833 -6.33301 14.5 -9s6.5 -4.83398 8.5 -6.50098s3.83301 -4.83398 5.5 -9.50098s2.66699 -7.66699 3 -9s1.16602 -5.83301 2.49902 -13.5s2.33301 -13.167 3 -16.5l8 -47c5.33301 -28.667 -1 -43 -19 -43c-8 0 -14.667 6 -20 18
c-37.333 85.333 -90 128 -158 128c-35.333 0 -68.166 -10 -98.499 -30s-45.5 -47 -45.5 -81c0 -51.333 44.333 -90.333 133 -117l65 -19c25.333 -8 46.166 -15.333 62.499 -22s34.166 -16.167 53.499 -28.5s33.666 -27.666 42.999 -45.999s14 -39.5 14 -63.5
c0 -20.667 -3.83301 -41.167 -11.5 -61.5s-15.834 -37 -24.501 -50s-21.334 -30.167 -38.001 -51.5c32.667 -40 49 -79 49 -117c0 -59.333 -24 -110.333 -72 -153c-43.333 -38.667 -97 -58 -161 -58c-46.667 0 -91.667 11.667 -135 35
c-12 5.33301 -20.167 10.166 -24.5 14.499s-8.16602 11.5 -11.499 21.5c-20 58 -30 100 -30 126c0 15.333 7.33301 23 22 23c7.33301 0 15.166 -8.66699 23.499 -26s16.833 -36.5 25.5 -57.5s24.334 -40.167 47.001 -57.5s50.667 -26 84 -26c40 0 76 12.333 108 37
s48 56.334 48 95.001c0 58 -44.667 100 -134 126zM222.004 212.001l71.999 -20.001c42 -11.333 73.667 -23.666 95 -36.999l13 23c6 10.667 10.333 18.834 13 24.501s5.33398 13.167 8.00098 22.5s4 18.666 4 27.999c0 29.333 -10.333 53.666 -31 72.999
c-14 14 -39 26.333 -75 37l-105 29c-30 8.66699 -54 18.334 -72 29.001c-15.333 -17.333 -26.5 -33 -33.5 -47s-10.5 -30.667 -10.5 -50c0 -31.333 11.167 -55.333 33.5 -72s51.833 -30 88.5 -40z" />
    <glyph glyph-name="dieresis" unicode="&#xa8;" horiz-adv-x="460" 
d="M128 542c-14.667 0 -27.5 5.16699 -38.5 15.5s-16.5 22.5 -16.5 36.5c0 16 5.16699 29.667 15.5 41s23.5 17 39.5 17s29 -5.33301 39 -16s15 -23.667 15 -39c0 -14 -5.5 -26.667 -16.5 -38s-23.5 -17 -37.5 -17zM333 542c-14.667 0 -27.5 5.16699 -38.5 15.5
s-16.5 22.5 -16.5 36.5c0 16 5.16699 29.667 15.5 41s23.5 17 39.5 17s29 -5.33301 39 -16s15 -23.667 15 -39c0 -14 -5.5 -26.667 -16.5 -38s-23.5 -17 -37.5 -17z" />
    <glyph glyph-name="copyright" unicode="&#xa9;" horiz-adv-x="840" 
d="M53 366c0 105.333 35.833 195.166 107.5 269.499s157.834 111.5 258.501 111.5c101.333 0 187.833 -37.167 259.5 -111.5s107.5 -164.166 107.5 -269.499s-35.833 -195.166 -107.5 -269.499s-158.167 -111.5 -259.5 -111.5c-100.667 0 -186.834 37.167 -258.501 111.5
s-107.5 164.166 -107.5 269.499zM742 366c0 92.667 -31.667 172 -95 238s-139.333 99 -228 99s-164.5 -33 -227.5 -99s-94.5 -145.333 -94.5 -238s31.5 -172 94.5 -238s138.833 -99 227.5 -99s164.667 33 228 99s95 145.333 95 238zM545 241
c4 6.66699 7.00195 11.168 9.00195 13.501s5.16699 5 9.5 8s9.16602 4.5 14.499 4.5c6.66699 0 12.667 -2.83301 18 -8.5s8 -12.167 8 -19.5c0 -16 -8.33301 -33 -25 -51c-36.667 -44 -86.334 -66 -149.001 -66c-65.333 0 -117.333 24.167 -156 72.5
s-58 107.166 -58 176.499c0 64.667 19.5 122 58.5 172s88.833 75 149.5 75c24 0 49.667 -4.16699 77 -12.5s49.666 -19.5 66.999 -33.5c8.66699 -7.33301 14 -29 16 -65c0 -7.33301 0.333008 -14.666 1 -21.999s-1 -13.833 -5 -19.5s-10.667 -8.5 -20 -8.5
c-8.66699 0 -16.167 5.5 -22.5 16.5s-12.333 23.167 -18 36.5s-16.667 25.5 -33 36.5s-37.5 16.5 -63.5 16.5c-23.333 0 -43.666 -6.16699 -60.999 -18.5s-30.5 -28.5 -39.5 -48.5s-15.5 -40.667 -19.5 -62s-6 -43.333 -6 -66c0 -50.667 11.833 -94.5 35.5 -131.5
s58.5 -55.5 104.5 -55.5c25.333 0 46 4.66699 62 14s31.333 24.666 46 45.999z" />
    <glyph glyph-name="ordfeminine" unicode="&#xaa;" horiz-adv-x="400" 
d="M310 623l-0.00195312 -98.001c0 -14.667 0.833008 -24 2.5 -28s6.83398 -7.66699 15.501 -11c13.333 -5.33301 20 -12.666 20 -21.999c0 -4 -2.16699 -7.83301 -6.5 -11.5s-10.166 -5.5 -17.499 -5.5h-52c-10 0 -16 2.16699 -18 6.5s-3 15.166 -3 32.499
c-23.333 -31.333 -54.333 -47 -93 -47c-30.667 0 -56 7.33301 -76 22s-30 36.334 -30 65.001c0 26.667 9.66699 49 29 67s41.166 30.333 65.499 37s49.5 10 75.5 10h23c-5.33301 38 -30.666 57 -75.999 57c-16.667 0 -32.5 -5.33301 -47.5 -16s-25.5 -16 -31.5 -16
s-11 2.66699 -15 8s-6 12 -6 20c0 14 12.333 24.833 37 32.5s46 11.5 64 11.5c93.333 0 140 -38 140 -114zM246.998 552.999v48.001h-25c-24 0 -47 -5.83301 -69 -17.5s-33 -29.834 -33 -54.501c0 -14.667 4.66699 -26 14 -34s20 -12 32 -12c20 0 38.5 6.83301 55.5 20.5
s25.5 30.167 25.5 49.5z" />
    <glyph glyph-name="guillemotleft" unicode="&#xab;" horiz-adv-x="340" 
d="M156 404l-60 -87.9971c-14 -20.667 -14 -41.334 0 -62.001l60 -88c12.667 -18.667 19 -31.334 19 -38.001c0 -5.33301 -12.333 -8 -37 -8c-10.667 0 -21 7.33301 -31 22l-74 108c-5.33301 8 -8 19.667 -8 35s2.66699 27 8 35l74 108c10 14.667 20.333 22 31 22
c24.667 0 37 -2.66699 37 -8c0 -6.66699 -6.33301 -19.334 -19 -38.001zM296 404.003l-60 -87.9971c-14 -20.667 -14 -41.334 0 -62.001l60 -88c12.667 -18.667 19 -31.334 19 -38.001c0 -5.33301 -12.333 -8 -37 -8c-10.667 0 -21 7.33301 -31 22l-74 108
c-5.33301 8 -8 19.667 -8 35s2.66699 27 8 35l74 108c10 14.667 20.333 22 31 22c24.667 0 37 -2.66699 37 -8c0 -6.66699 -6.33301 -19.334 -19 -38.001z" />
    <glyph glyph-name="logicalnot" unicode="&#xac;" horiz-adv-x="660" 
d="M528 52v253h-458v63h520v-316h-62z" />
    <glyph glyph-name="uni00AD" unicode="&#xad;" horiz-adv-x="300" 
d="M235 257l-169.999 0.00195312h-9h-9c-1.33301 0 -3.83301 0.166992 -7.5 0.5s-6.16699 1.16602 -7.5 2.49902s-3 2.83301 -5 4.5s-3.33301 4 -4 7s-1 6.5 -1 10.5c0 15.333 2.33301 24.5 7 27.5s14.334 4.5 29.001 4.5h7h170h9h9.5c1.66699 0 4.16699 -0.166992 7.5 -0.5
s5.66602 -1 6.99902 -2s3 -2.5 5 -4.5s3.33301 -4.33301 4 -7s1 -6 1 -10c0 -8.66699 -0.333008 -15.334 -1 -20.001s-3.83398 -8 -9.50098 -10s-9.5 -3 -11.5 -3h-21z" />
    <glyph glyph-name="registered" unicode="&#xae;" horiz-adv-x="800" 
d="M40 366c0 105.333 35.833 195.166 107.5 269.499s157.834 111.5 258.501 111.5s186.834 -37.167 258.501 -111.5s107.5 -164.166 107.5 -269.499s-35.833 -195.166 -107.5 -269.499s-157.834 -111.5 -258.501 -111.5s-186.834 37.167 -258.501 111.5
s-107.5 164.166 -107.5 269.499zM84 366c0 -92.667 31.5 -172 94.5 -238s138.833 -99 227.5 -99s164.5 33 227.5 99s94.5 145.333 94.5 238s-31.5 172 -94.5 238s-138.833 99 -227.5 99s-164.5 -33 -227.5 -99s-94.5 -145.333 -94.5 -238zM321 325l0.000976562 -106.004
c0 -2.66699 -0.166992 -6.16699 -0.5 -10.5s-0.333008 -7.33301 0 -9s0.833008 -3.66699 1.5 -6s2.16699 -4.16602 4.5 -5.49902s5.5 -2.33301 9.5 -3c17.333 -4.66699 26 -13.667 26 -27c0 -16 -13.333 -24 -40 -24h-67c-20.667 0 -33 3.33301 -37 10
c-2.66699 4 -4 9.33301 -4 16c0 12 7 19.667 21 23c9.33301 2.66699 14 18.334 14 47.001v303c0 12 -3.66699 19 -11 21c-16 6 -24 14.333 -24 25c0 3.33301 0.333008 6.5 1 9.5s1.5 5.33301 2.5 7s2.66699 3.16699 5 4.5s4 2.33301 5 3s3.33301 1.16699 7 1.5
s5.83398 0.5 6.50098 0.5h7h7h180c44.667 0 78 -8.66699 100 -26c30 -22 45 -51 45 -87c0 -27.333 -8.66699 -51.666 -26 -72.999s-39.333 -38.666 -66 -51.999c39.333 -50.667 66.666 -98 81.999 -142c1.33301 -3.33301 3 -8 5 -14s3.66699 -10 5 -12s3.5 -4.66699 6.5 -8
s6.83301 -6.33301 11.5 -9c10.667 -6.66699 16.667 -12.334 18 -17.001c0.666992 -2 1 -4.33301 1 -7c0 -8 -2.5 -13.833 -7.5 -17.5s-9.33301 -5.66699 -13 -6s-9.83398 -0.5 -18.501 -0.5h-66c-8.66699 0 -15 0.166992 -19 0.5s-8.5 2.33301 -13.5 6s-7.5 9.5 -7.5 17.5
c0 10 5.16699 17 15.5 21s15.5 8.66699 15.5 14c0 20 -9.5 45.833 -28.5 77.5s-37.5 56.834 -55.5 75.501zM321.001 522.996l0.000976562 -142.001c124 19.333 186 55.333 186 108c0 16 -3.83301 28.833 -11.5 38.5s-18.834 16.334 -33.501 20.001s-27 6 -37 7
s-23.333 1.5 -40 1.5c-24.667 2.66699 -41.5 1.66699 -50.5 -3s-13.5 -14.667 -13.5 -30z" />
    <glyph glyph-name="macron" unicode="&#xaf;" horiz-adv-x="380" 
d="M270 587h-159h-9.5h-9c-1.66699 0 -4.16699 0.166992 -7.5 0.5s-5.66602 1.16602 -6.99902 2.49902s-2.5 3.33301 -3.5 6s-1.5 6 -1.5 10s0.166992 7.33301 0.5 10s0.666016 5 0.999023 7s1.33301 3.5 3 4.5s3 1.83301 4 2.5s2.83301 1.16699 5.5 1.5s4.66699 0.5 6 0.5
h8.5h9.5h159h9h9c2 0 4.5 -0.166992 7.5 -0.5s5.16699 -1.16602 6.5 -2.49902s2.5 -3.33301 3.5 -6s1.5 -6 1.5 -10s-0.166992 -7.33301 -0.5 -10s-0.666016 -5 -0.999023 -7s-1.33301 -3.5 -3 -4.5s-2.83398 -1.83301 -3.50098 -2.5s-2.5 -1.16699 -5.5 -1.5
s-5.16699 -0.5 -6.5 -0.5h-8h-9z" />
    <glyph glyph-name="degree" unicode="&#xb0;" horiz-adv-x="400" 
d="M350 600c0 -41.333 -14.668 -76.666 -44.001 -105.999s-64.666 -44 -105.999 -44s-76.666 14.667 -105.999 44s-44 64.666 -44 105.999c-0.666992 41.333 13.833 76.666 43.5 105.999s65.167 44 106.5 44s76.666 -14.667 105.999 -44s44 -64.666 44 -105.999zM96.999 600
c0 -28.667 9.99902 -53 29.999 -73s44.333 -30 73 -30c28 0 52.167 10 72.5 30s30.5 44.333 30.5 73c0 28 -10.167 52.167 -30.5 72.5s-44.833 30.5 -73.5 30.5c-28 0 -52.167 -10.167 -72.5 -30.5s-30.166 -44.5 -29.499 -72.5z" />
    <glyph glyph-name="plusminus" unicode="&#xb1;" horiz-adv-x="660" 
d="M70 355h229v165h63v-165h228v-63h-228v-166h-63v166h-229v63zM70 63h520v-63h-520v63z" />
    <glyph glyph-name="twosuperior" unicode="&#xb2;" horiz-adv-x="360" 
d="M281 300h-235c-6 0 -10.333 0.166992 -13 0.5s-5.66699 2 -9 5s-5 7.83301 -5 14.5c0 11.333 13.833 34.5 41.5 69.5s65.5 73.833 113.5 116.5c57.333 52 86 93.333 86 124c0 22.667 -6.66699 41 -20 55s-32.666 21 -57.999 21c-24.667 0 -44.334 -6 -59.001 -18
s-22 -24 -22 -36c0 -5.33301 3.16699 -11.833 9.5 -19.5s9.5 -16.5 9.5 -26.5c0 -24 -13.333 -36 -40 -36c-14.667 0 -26.167 6.66699 -34.5 20s-12.5 27 -12.5 41c0 31.333 14.5 59 43.5 83s67.833 36 116.5 36c45.333 0 80.666 -10.667 105.999 -32s38 -47.666 38 -78.999
c0 -30.667 -9.5 -58 -28.5 -82s-44.833 -48.333 -77.5 -73c-55.333 -42 -96.333 -83.667 -123 -125h105c42.667 0 68.667 8.66699 78 26c10 18.667 19.667 28 29 28c13.333 0 20 -5.33301 20 -16c0 -4.66699 -2.5 -13.834 -7.5 -27.501s-8.83301 -28.5 -11.5 -44.5
c-3.33301 -12 -7.16602 -19.167 -11.499 -21.5s-13.833 -3.5 -28.5 -3.5z" />
    <glyph glyph-name="threesuperior" unicode="&#xb3;" horiz-adv-x="360" 
d="M226 540c33.333 -6 61.1641 -18.834 83.4971 -38.501s33.5 -45.5 33.5 -77.5c0 -40.667 -16 -73 -48 -97s-74.333 -36 -127 -36c-36.667 0 -71.167 8.33301 -103.5 25s-48.5 42.334 -48.5 77.001c0 26.667 10 40 30 40c11.333 0 20 -1.83301 26 -5.5
s9.83301 -7.66699 11.5 -12s2.83398 -10.833 3.50098 -19.5c2.66699 -42 28.334 -63 77.001 -63c34 0 59.333 8 76 24s25 37.667 25 65c0 28 -9.83301 50.5 -29.5 67.5s-47.834 25.5 -84.501 25.5c-15.333 0 -25.833 1.16699 -31.5 3.5s-8.5 7.83301 -8.5 16.5
c0 16.667 13 25 39 25c32 1.33301 55.833 8.83301 71.5 22.5s23.5 34.5 23.5 62.5c0 21.333 -7.5 36.833 -22.5 46.5s-31.5 14.5 -49.5 14.5c-41.333 0 -62 -12.667 -62 -38c0 -4 0.5 -8.83301 1.5 -14.5s1.5 -10.167 1.5 -13.5c0 -21.333 -15.667 -32 -47 -32
c-7.33301 0 -14.166 4 -20.499 12s-9.5 17.667 -9.5 29c0 28.667 15 52.667 45 72s63.333 29 100 29c40 0 73.333 -9.83301 100 -29.5s40 -46.5 40 -80.5c0 -25.333 -9.16699 -46.5 -27.5 -63.5s-41.166 -29.167 -68.499 -36.5z" />
    <glyph glyph-name="acute" unicode="&#xb4;" horiz-adv-x="320" 
d="M97 591l98.001 56.999c32 18 53.667 27 65 27c9.33301 0 17.5 -6.16699 24.5 -18.5s10.5 -24.166 10.5 -35.499c0 -5.33301 -4.33301 -11.333 -13 -18s-18 -11.667 -28 -15l-114 -40c-28.667 -8.66699 -44.334 -13 -47.001 -13c-5.33301 0 -10.5 3.66699 -15.5 11
s-7.5 14.333 -7.5 21c0 6 9 14 27 24z" />
    <glyph glyph-name="mu" unicode="&#xb5;" horiz-adv-x="520" 
d="M72 -153l-0.00390625 497.999c0 15.333 -0.166992 26.666 -0.5 33.999s-2.16602 15.333 -5.49902 24s-8 14.667 -14 18c-2 1.33301 -5 3 -9 5l-9 4.5c-2 1 -3.83301 2.5 -5.5 4.5s-2.5 4.33301 -2.5 7c0 1.33301 0.333008 2.83301 1 4.5s1.33398 3 2.00098 4
s1.66699 2 3 3s2.5 1.83301 3.5 2.5s2.5 1.5 4.5 2.5s3.5 1.83301 4.5 2.5s2.66699 1.5 5 2.5s3.83301 1.5 4.5 1.5c21.333 10 43 15 65 15c13.333 0 21.333 -8.16699 24 -24.5s4 -53.166 4 -110.499v-165c0 -93.333 32.333 -140 97 -140
c21.333 0 43.666 4.83301 66.999 14.5s42.333 22.5 57 38.5c10 10.667 16.167 21.667 18.5 33s3.5 29.333 3.5 54v165c0 15.333 -0.166992 26.666 -0.5 33.999s-2.16602 15.333 -5.49902 24s-8 14.667 -14 18c-14 8 -21 15 -21 21c0 8.66699 7.66699 16.334 23 23.001
c21.333 10 43 15 65 15c13.333 0 21.333 -8.16699 24 -24.5s4 -53.166 4 -110.499v-223c0 -30 1.5 -49.167 4.5 -57.5s8.5 -13.833 16.5 -16.5c9.33301 -3.33301 15.833 -6 19.5 -8s6.83398 -4.5 9.50098 -7.5s4 -6.5 4 -10.5c0 -9.33301 -2 -15.333 -6 -18
s-10.667 -4 -20 -4h-70c-9.33301 0 -16 2.66699 -20 8s-6.33301 11.833 -7 19.5s-1 21.167 -1 40.5c-52 -55.333 -108.667 -83 -170 -83c-28 0 -54 7 -78 21c0 -41.333 1.66699 -77.166 5 -107.499s5 -47.5 5 -51.5c0 -32 -14.333 -48 -43 -48
c-15.333 0 -26.166 3.66699 -32.499 11s-9.5 19.666 -9.5 36.999z" />
    <glyph glyph-name="paragraph" unicode="&#xb6;" horiz-adv-x="720" 
d="M581 674l-0.00292969 -786.001v-15.5c0 -5.66699 -0.166992 -11.167 -0.5 -16.5s-1.16602 -10.333 -2.49902 -15s-3.16602 -8.83398 -5.49902 -12.501s-5.83301 -6.66699 -10.5 -9s-10.334 -3.5 -17.001 -3.5c-12 0 -20.833 3.16699 -26.5 9.5
s-8.83398 12.5 -9.50098 18.5s-1 15.667 -1 29v801h-66v-788v-12v-14c0 -2.66699 -0.333008 -7 -1 -13s-1.66699 -10.333 -3 -13s-3.33301 -5.66699 -6 -9s-6.16699 -5.66602 -10.5 -6.99902s-9.16602 -2 -14.499 -2c-11.333 0 -19.833 3.33301 -25.5 10
s-9.16699 13.5 -10.5 20.5s-2 16.5 -2 28.5v6v372c-32 2.66699 -63.5 7.83398 -94.5 15.501s-62.167 18.667 -93.5 33s-58.666 31.333 -81.999 51s-42.333 44.167 -57 73.5s-22 61.333 -22 96c0 140 94 210 282 210h349c25.333 0 38 -10 38 -30
c0 -8.66699 -2.66699 -15.167 -8 -19.5s-10.666 -6.83301 -15.999 -7.5s-13 -1 -23 -1h-61zM368.997 302.999l0.000976562 370.999h-30c-30.667 0 -57.834 -1.83301 -81.501 -5.5s-47 -10.667 -70 -21s-40.833 -26.166 -53.5 -47.499s-19 -47.666 -19 -78.999
c0 -61.333 23.833 -111.333 71.5 -150s108.5 -61.334 182.5 -68.001z" />
    <glyph glyph-name="periodcentered" unicode="&#xb7;" horiz-adv-x="300" 
d="M149 207c-15.333 0 -27.999 5.33301 -37.999 16s-15 23.667 -15 39c0 14.667 5.16699 27 15.5 37s22.833 15 37.5 15c15.333 0 28.166 -5.33301 38.499 -16s15.5 -23.667 15.5 -39c0 -14 -5.5 -26.167 -16.5 -36.5s-23.5 -15.5 -37.5 -15.5z" />
    <glyph glyph-name="cedilla" unicode="&#xb8;" horiz-adv-x="300" 
d="M140 0h45l-16 -46c12 2 25.667 3 41 3c21.333 0 39.166 -5.83301 53.499 -17.5s21.5 -27.5 21.5 -47.5c0 -26.667 -10.667 -48.667 -32 -66s-50.333 -26 -87 -26c-35.333 0 -66.333 6.16699 -93 18.5s-40 26.5 -40 42.5c0 4.66699 1.83301 8.66699 5.5 12
s7.83398 5 12.501 5c2 0 13.167 -6.33301 33.5 -19s40.833 -19 61.5 -19c15.333 0 30 4 44 12s21 21.333 21 40c0 21.333 -14.333 32 -43 32c-5.33301 0 -11.333 -0.666992 -18 -2s-11.334 -2 -14.001 -2c-3.33301 0 -6.66602 1.83301 -9.99902 5.5s-5 7.5 -5 11.5
c0 8 6.33301 29 19 63z" />
    <glyph glyph-name="onesuperior" unicode="&#xb9;" horiz-adv-x="360" 
d="M229 716l-0.00292969 -319.002c0 -20 2.33301 -33.167 7 -39.5s15.334 -10.166 32.001 -11.499c26.667 -2.66699 40 -10 40 -22c0 -10.667 -2 -17.334 -6 -20.001s-10.333 -4 -19 -4h-188c-18 0 -27 8 -27 24c0 11.333 14.667 18.333 44 21
c18 1.33301 29.833 5.83301 35.5 13.5s8.5 21.5 8.5 41.5v232c0 8.66699 -3.66699 15.834 -11 21.501s-15.666 8.5 -24.999 8.5h-42c-7.33301 0 -13.666 1.83301 -18.999 5.5s-8 8.5 -8 14.5c0 5.33301 4 10.333 12 15s15.333 7.33398 22 8.00098c31.333 2 62 12.667 92 32
c12 8.66699 22 13 30 13c14.667 0 22 -11.333 22 -34z" />
    <glyph glyph-name="ordmasculine" unicode="&#xba;" horiz-adv-x="400" 
d="M197 438c-44.667 0 -82.499 14.499 -113.499 43.499s-46.5 64.833 -46.5 107.5c0 41.333 16.333 76.333 49 105s71 43 115 43c45.333 0 83.666 -14.167 114.999 -42.5s47 -63.833 47 -106.5c0 -43.333 -16.167 -79.166 -48.5 -107.499s-71.5 -42.5 -117.5 -42.5z
M198.001 483.999c28 0 50.333 9.83105 67 29.498s25 44.834 25 75.501s-8.33301 55.334 -25 74.001s-38.667 28 -66 28c-28 0 -50 -9.83301 -66 -29.5s-24 -45.167 -24 -76.5c0 -30.667 8 -55.167 24 -73.5s37.667 -27.5 65 -27.5z" />
    <glyph glyph-name="guillemotright" unicode="&#xbb;" horiz-adv-x="340" 
d="M44 166l60 87.9971c14 20.667 14 41.334 0 62.001l-60 88c-12.667 18.667 -19 31.334 -19 38.001c0 5.33301 12.333 8 37 8c10.667 0 21 -7.33301 31 -22l74 -108c5.33301 -8 8 -19.667 8 -35s-2.66699 -27 -8 -35l-74 -108c-10 -14.667 -20.333 -22 -31 -22
c-24.667 0 -37 2.66699 -37 8c0 6.66699 6.33301 19.334 19 38.001zM184 165.997l60 87.9971c14 20.667 14 41.334 0 62.001l-60 88c-12.667 18.667 -19 31.334 -19 38.001c0 5.33301 12.333 8 37 8c10.667 0 21 -7.33301 31 -22l74 -108c5.33301 -8 8 -19.667 8 -35
s-2.66699 -27 -8 -35l-74 -108c-10 -14.667 -20.333 -22 -31 -22c-24.667 0 -37 2.66699 -37 8c0 6.66699 6.33301 19.334 19 38.001z" />
    <glyph glyph-name="onequarter" unicode="&#xbc;" horiz-adv-x="900" 
d="M742 112l-179.997 0.00195312c-24 0 -36 7.33301 -36 22c0 24.667 20.5 70.834 61.5 138.501s90.5 123.5 148.5 167.5c13.333 10 28 15 44 15c23.333 0 35 -13.667 35 -41v-248h50c9.33301 0 16.166 -1.66699 20.499 -5s6.5 -10 6.5 -20c0 -19.333 -7.66699 -29 -23 -29
h-54v-27c0 -16 1.16699 -26.333 3.5 -31s7.16602 -8 14.499 -10c24 -4.66699 36 -13.334 36 -26.001c0 -12 -10.333 -18 -31 -18h-123c-20.667 0 -31 6 -31 18c0 5.33301 3 10.166 9 14.499s11.333 6.83301 16 7.5c13.333 2 22.166 5.66699 26.499 11s6.5 14.666 6.5 27.999
v33zM742.003 166.002l-0.000976562 208c-67.333 -56 -114.666 -125.333 -141.999 -208h142zM229.002 716.002l-0.00292969 -319.002c0 -20 2.33301 -33.167 7 -39.5s15.334 -10.166 32.001 -11.499c26.667 -2.66699 40 -10 40 -22c0 -10.667 -2 -17.334 -6 -20.001
s-10.333 -4 -19 -4h-188c-18 0 -27 8 -27 24c0 11.333 14.667 18.333 44 21c18 1.33301 29.833 5.83301 35.5 13.5s8.5 21.5 8.5 41.5v232c0 8.66699 -3.66699 15.834 -11 21.501s-15.666 8.5 -24.999 8.5h-42c-7.33301 0 -13.666 1.83301 -18.999 5.5s-8 8.5 -8 14.5
c0 5.33301 4 10.333 12 15s15.333 7.33398 22 8.00098c31.333 2 62 12.667 92 32c12 8.66699 22 13 30 13c14.667 0 22 -11.333 22 -34zM685.999 717l-412.998 -697c-0.666992 -1.33301 -2.5 -4.33301 -5.5 -9s-4.83301 -7.66699 -5.5 -9s-2.33398 -3.5 -5.00098 -6.5
s-4.83398 -5 -6.50098 -6s-4.16699 -2 -7.5 -3s-7 -1.5 -11 -1.5c-17.333 0 -26 3 -26 9c0 8 3 18 9 30l414 697c12 19.333 25.667 29 41 29c18 0 27 -3.33301 27 -10c0 -6 -3.66699 -13.667 -11 -23z" />
    <glyph glyph-name="onehalf" unicode="&#xbd;" horiz-adv-x="900" 
d="M816 0l-235 0.000976562c-6 0 -10.5 0.166992 -13.5 0.5s-6 2.16602 -9 5.49902s-4.5 8 -4.5 14c0 11.333 13.833 34.5 41.5 69.5s65.5 73.833 113.5 116.5c57.333 52 86 93.333 86 124c0 22.667 -6.66699 41 -20 55s-32.666 21 -57.999 21
c-24.667 0 -44.334 -6 -59.001 -18s-22 -24 -22 -36c0 -5.33301 3.16699 -11.833 9.5 -19.5s9.5 -16.5 9.5 -26.5c0 -24 -13.333 -36 -40 -36c-14.667 0 -26.167 6.66699 -34.5 20s-12.5 27 -12.5 41c0 31.333 14.5 59 43.5 83s67.833 36 116.5 36
c45.333 0 80.666 -10.667 105.999 -32s38 -47.666 38 -78.999c0 -30.667 -9.5 -58 -28.5 -82s-44.833 -48.333 -77.5 -73c-55.333 -42 -96.333 -83.667 -123 -125h105c42.667 0 68.667 8.66699 78 26c10 18.667 19.667 28 29 28c13.333 0 20 -5.33301 20 -16
c0 -4.66699 -2.5 -13.834 -7.5 -27.501s-8.83301 -28.5 -11.5 -44.5c-3.33301 -12 -7.16602 -19.167 -11.499 -21.5s-13.833 -3.5 -28.5 -3.5zM229 716.001l-0.00292969 -319.002c0 -20 2.33301 -33.167 7 -39.5s15.334 -10.166 32.001 -11.499
c26.667 -2.66699 40 -10 40 -22c0 -10.667 -2 -17.334 -6 -20.001s-10.333 -4 -19 -4h-188c-18 0 -27 8 -27 24c0 11.333 14.667 18.333 44 21c18 1.33301 29.833 5.83301 35.5 13.5s8.5 21.5 8.5 41.5v232c0 8.66699 -3.66699 15.834 -11 21.501s-15.666 8.5 -24.999 8.5
h-42c-7.33301 0 -13.666 1.83301 -18.999 5.5s-8 8.5 -8 14.5c0 5.33301 4 10.333 12 15s15.333 7.33398 22 8.00098c31.333 2 62 12.667 92 32c12 8.66699 22 13 30 13c14.667 0 22 -11.333 22 -34zM685.997 716.999l-412.998 -697
c-0.666992 -1.33301 -2.5 -4.33301 -5.5 -9s-4.83301 -7.66699 -5.5 -9s-2.33398 -3.5 -5.00098 -6.5s-4.83398 -5 -6.50098 -6s-4.16699 -2 -7.5 -3s-7 -1.5 -11 -1.5c-17.333 0 -26 3 -26 9c0 8 3 18 9 30l414 697c12 19.333 25.667 29 41 29c18 0 27 -3.33301 27 -10
c0 -6 -3.66699 -13.667 -11 -23z" />
    <glyph glyph-name="threequarters" unicode="&#xbe;" horiz-adv-x="900" 
d="M742 112l-179.997 0.00195312c-24 0 -36 7.33301 -36 22c0 24.667 20.5 70.834 61.5 138.501s90.5 123.5 148.5 167.5c13.333 10 28 15 44 15c23.333 0 35 -13.667 35 -41v-248h50c9.33301 0 16.166 -1.66699 20.499 -5s6.5 -10 6.5 -20c0 -19.333 -7.66699 -29 -23 -29
h-54v-27c0 -16 1.16699 -26.333 3.5 -31s7.16602 -8 14.499 -10c24 -4.66699 36 -13.334 36 -26.001c0 -12 -10.333 -18 -31 -18h-123c-20.667 0 -31 6 -31 18c0 5.33301 3 10.166 9 14.499s11.333 6.83301 16 7.5c13.333 2 22.166 5.66699 26.499 11s6.5 14.666 6.5 27.999
v33zM742.003 166.002l-0.000976562 208c-67.333 -56 -114.666 -125.333 -141.999 -208h142zM226.002 540.002c33.333 -6 61.1641 -18.834 83.4971 -38.501s33.5 -45.5 33.5 -77.5c0 -40.667 -16 -73 -48 -97s-74.333 -36 -127 -36c-36.667 0 -71.167 8.33301 -103.5 25
s-48.5 42.334 -48.5 77.001c0 26.667 10 40 30 40c11.333 0 20 -1.83301 26 -5.5s9.83301 -7.66699 11.5 -12s2.83398 -10.833 3.50098 -19.5c2.66699 -42 28.334 -63 77.001 -63c34 0 59.333 8 76 24s25 37.667 25 65c0 28 -9.83301 50.5 -29.5 67.5
s-47.834 25.5 -84.501 25.5c-15.333 0 -25.833 1.16699 -31.5 3.5s-8.5 7.83301 -8.5 16.5c0 16.667 13 25 39 25c32 1.33301 55.833 8.83301 71.5 22.5s23.5 34.5 23.5 62.5c0 21.333 -7.5 36.833 -22.5 46.5s-31.5 14.5 -49.5 14.5c-41.333 0 -62 -12.667 -62 -38
c0 -4 0.5 -8.83301 1.5 -14.5s1.5 -10.167 1.5 -13.5c0 -21.333 -15.667 -32 -47 -32c-7.33301 0 -14.166 4 -20.499 12s-9.5 17.667 -9.5 29c0 28.667 15 52.667 45 72s63.333 29 100 29c40 0 73.333 -9.83301 100 -29.5s40 -46.5 40 -80.5
c0 -25.333 -9.16699 -46.5 -27.5 -63.5s-41.166 -29.167 -68.499 -36.5zM686 717.001l-412.998 -697c-0.666992 -1.33301 -2.5 -4.33301 -5.5 -9s-4.83301 -7.66699 -5.5 -9s-2.33398 -3.5 -5.00098 -6.5s-4.83398 -5 -6.50098 -6s-4.16699 -2 -7.5 -3s-7 -1.5 -11 -1.5
c-17.333 0 -26 3 -26 9c0 8 3 18 9 30l414 697c12 19.333 25.667 29 41 29c18 0 27 -3.33301 27 -10c0 -6 -3.66699 -13.667 -11 -23z" />
    <glyph glyph-name="questiondown" unicode="&#xbf;" horiz-adv-x="460" 
d="M275 480c16 0 29.001 -5.16699 39.001 -15.5s15 -23.5 15 -39.5c0 -14.667 -5.33301 -27 -16 -37s-23.334 -15 -38.001 -15c-15.333 0 -28 5.33301 -38 16s-15 24 -15 40c0 14 5.33301 26 16 36s23 15 37 15zM292.001 242l-0.00292969 -74.998
c0 -6 -0.166992 -10.667 -0.5 -14s-0.666016 -6.16602 -0.999023 -8.49902s-1.66602 -4.33301 -3.99902 -6s-4.16602 -2.83398 -5.49902 -3.50098s-4.5 -2.16699 -9.5 -4.5s-9.16699 -4.16602 -12.5 -5.49902c-42.667 -20 -72.667 -40.333 -90 -61
c-27.333 -30.667 -41 -64.667 -41 -102c0 -36 10 -65.667 30 -89s48 -35 84 -35c23.333 0 43.333 5.33301 60 16c11.333 7.33301 18.5 15 21.5 23s3.83301 18.333 2.5 31c0 0.666992 -0.333008 3.16699 -1 7.5s-0.666992 8 0 11s2.33398 6.16699 5.00098 9.5
c6 8.66699 16 13 30 13c10.667 0 19.167 -3.33301 25.5 -10s9.5 -15.334 9.5 -26.001c0 -30.667 -13.333 -56.334 -40 -77.001c-34 -26.667 -80 -40 -138 -40c-50 0 -90.667 14.667 -122 44s-47 69 -47 119c0 45.333 22 92.666 66 141.999
c19.333 22 58.666 46.667 117.999 74c10 4 15.667 8.33301 17 13c0.666992 2.66699 2.66699 22.667 6 60c0 26 6.66699 39 20 39c4 0 7.33301 -1 10 -3s4.5 -5.16699 5.5 -9.5s1.66699 -8 2 -11s0.333008 -7.16699 0 -12.5s-0.5 -8.33301 -0.5 -9z" />
    <glyph glyph-name="Agrave" unicode="&#xc0;" horiz-adv-x="720" 
d="M501 256l-325.001 -0.00195312l-16.5 -47.5c-8.33301 -23.667 -15.333 -45.167 -21 -64.5s-8.5 -34.333 -8.5 -45c0 -14 2.83301 -25.333 8.5 -34s11.667 -14.334 18 -17.001s12.333 -6 18 -10s8.5 -9.33301 8.5 -16c0 -5.33301 -1.5 -9.5 -4.5 -12.5
s-7.83301 -5.16699 -14.5 -6.5s-12.667 -2.16602 -18 -2.49902s-13 -0.5 -23 -0.5h-81c-10 0 -17.333 0.333008 -22 1s-9.16699 2.66699 -13.5 6s-6.5 8.66602 -6.5 15.999c0 8.66699 5.33301 16.667 16 24c15.333 10 25.666 22.667 30.999 38
c74 230 157.667 429.667 251 599c24.667 45.333 41.334 68 50.001 68c10.667 0 29.334 -22.667 56.001 -68c78 -133.333 162.667 -334.666 254 -603.999c3.33301 -9.33301 7.33301 -16.333 12 -21s12.334 -9.66699 23.001 -15c11.333 -5.33301 17 -12.666 17 -21.999
c0 -7.33301 -2.5 -12.666 -7.5 -15.999s-9.5 -5.16602 -13.5 -5.49902s-10.333 -0.5 -19 -0.5h-124c-24 0 -36 7.66699 -36 23c0 6.66699 2.66699 12.167 8 16.5s11.166 7.33301 17.499 9s12.166 4.66699 17.499 9s8 10.166 8 17.499c0 9.33301 -7.16699 35 -21.5 77
s-27.166 76.667 -38.499 104zM194.999 307.998h290.001c-56.667 148 -106.334 255.333 -149.001 322c-53.333 -100 -100.333 -207.333 -141 -322zM305 897.998l98.001 -56.999c18 -10 27 -18 27 -24c0 -6.66699 -2.5 -13.667 -7.5 -21s-10.167 -11 -15.5 -11
c-2.66699 0 -18.334 4.33301 -47.001 13l-114 40c-10 3.33301 -19.333 8.33301 -28 15s-13 12.667 -13 18c0 11.333 3.5 23.166 10.5 35.499s15.167 18.5 24.5 18.5c11.333 0 33 -9 65 -27z" />
    <glyph glyph-name="Aacute" unicode="&#xc1;" horiz-adv-x="720" 
d="M501 256l-325.001 -0.00195312l-16.5 -47.5c-8.33301 -23.667 -15.333 -45.167 -21 -64.5s-8.5 -34.333 -8.5 -45c0 -14 2.83301 -25.333 8.5 -34s11.667 -14.334 18 -17.001s12.333 -6 18 -10s8.5 -9.33301 8.5 -16c0 -5.33301 -1.5 -9.5 -4.5 -12.5
s-7.83301 -5.16699 -14.5 -6.5s-12.667 -2.16602 -18 -2.49902s-13 -0.5 -23 -0.5h-81c-10 0 -17.333 0.333008 -22 1s-9.16699 2.66699 -13.5 6s-6.5 8.66602 -6.5 15.999c0 8.66699 5.33301 16.667 16 24c15.333 10 25.666 22.667 30.999 38
c74 230 157.667 429.667 251 599c24.667 45.333 41.334 68 50.001 68c10.667 0 29.334 -22.667 56.001 -68c78 -133.333 162.667 -334.666 254 -603.999c3.33301 -9.33301 7.33301 -16.333 12 -21s12.334 -9.66699 23.001 -15c11.333 -5.33301 17 -12.666 17 -21.999
c0 -7.33301 -2.5 -12.666 -7.5 -15.999s-9.5 -5.16602 -13.5 -5.49902s-10.333 -0.5 -19 -0.5h-124c-24 0 -36 7.66699 -36 23c0 6.66699 2.66699 12.167 8 16.5s11.166 7.33301 17.499 9s12.166 4.66699 17.499 9s8 10.166 8 17.499c0 9.33301 -7.16699 35 -21.5 77
s-27.166 76.667 -38.499 104zM194.999 307.998h290.001c-56.667 148 -106.334 255.333 -149.001 322c-53.333 -100 -100.333 -207.333 -141 -322zM297 840.998l98.001 56.999c32 18 53.667 27 65 27c9.33301 0 17.5 -6.16699 24.5 -18.5s10.5 -24.166 10.5 -35.499
c0 -5.33301 -4.33301 -11.333 -13 -18s-18 -11.667 -28 -15l-114 -40c-28.667 -8.66699 -44.334 -13 -47.001 -13c-5.33301 0 -10.5 3.66699 -15.5 11s-7.5 14.333 -7.5 21c0 6 9 14 27 24z" />
    <glyph glyph-name="Acircumflex" unicode="&#xc2;" horiz-adv-x="720" 
d="M501 256l-325.001 -0.00195312l-16.5 -47.5c-8.33301 -23.667 -15.333 -45.167 -21 -64.5s-8.5 -34.333 -8.5 -45c0 -14 2.83301 -25.333 8.5 -34s11.667 -14.334 18 -17.001s12.333 -6 18 -10s8.5 -9.33301 8.5 -16c0 -5.33301 -1.5 -9.5 -4.5 -12.5
s-7.83301 -5.16699 -14.5 -6.5s-12.667 -2.16602 -18 -2.49902s-13 -0.5 -23 -0.5h-81c-10 0 -17.333 0.333008 -22 1s-9.16699 2.66699 -13.5 6s-6.5 8.66602 -6.5 15.999c0 8.66699 5.33301 16.667 16 24c15.333 10 25.666 22.667 30.999 38
c74 230 157.667 429.667 251 599c24.667 45.333 41.334 68 50.001 68c10.667 0 29.334 -22.667 56.001 -68c78 -133.333 162.667 -334.666 254 -603.999c3.33301 -9.33301 7.33301 -16.333 12 -21s12.334 -9.66699 23.001 -15c11.333 -5.33301 17 -12.666 17 -21.999
c0 -7.33301 -2.5 -12.666 -7.5 -15.999s-9.5 -5.16602 -13.5 -5.49902s-10.333 -0.5 -19 -0.5h-124c-24 0 -36 7.66699 -36 23c0 6.66699 2.66699 12.167 8 16.5s11.166 7.33301 17.499 9s12.166 4.66699 17.499 9s8 10.166 8 17.499c0 9.33301 -7.16699 35 -21.5 77
s-27.166 76.667 -38.499 104zM194.999 307.998h290.001c-56.667 148 -106.334 255.333 -149.001 322c-53.333 -100 -100.333 -207.333 -141 -322zM204 806.998l105.999 114c9.33301 6 21 9 35 9s25.667 -3 35 -9l106 -114c16 -16 24 -26.667 24 -32
c0 -6.66699 -9.33301 -10 -28 -10c-21.333 0 -37 5 -47 15l-73 74c-7.33301 7.33301 -13.166 11 -17.499 11s-9.83301 -3.66699 -16.5 -11l-73 -74c-10 -10 -25.667 -15 -47 -15c-18.667 0 -28 3.33301 -28 10c0 5.33301 8 16 24 32z" />
    <glyph glyph-name="Atilde" unicode="&#xc3;" horiz-adv-x="720" 
d="M501 256l-325.001 -0.00195312l-16.5 -47.5c-8.33301 -23.667 -15.333 -45.167 -21 -64.5s-8.5 -34.333 -8.5 -45c0 -14 2.83301 -25.333 8.5 -34s11.667 -14.334 18 -17.001s12.333 -6 18 -10s8.5 -9.33301 8.5 -16c0 -5.33301 -1.5 -9.5 -4.5 -12.5
s-7.83301 -5.16699 -14.5 -6.5s-12.667 -2.16602 -18 -2.49902s-13 -0.5 -23 -0.5h-81c-10 0 -17.333 0.333008 -22 1s-9.16699 2.66699 -13.5 6s-6.5 8.66602 -6.5 15.999c0 8.66699 5.33301 16.667 16 24c15.333 10 25.666 22.667 30.999 38
c74 230 157.667 429.667 251 599c24.667 45.333 41.334 68 50.001 68c10.667 0 29.334 -22.667 56.001 -68c78 -133.333 162.667 -334.666 254 -603.999c3.33301 -9.33301 7.33301 -16.333 12 -21s12.334 -9.66699 23.001 -15c11.333 -5.33301 17 -12.666 17 -21.999
c0 -7.33301 -2.5 -12.666 -7.5 -15.999s-9.5 -5.16602 -13.5 -5.49902s-10.333 -0.5 -19 -0.5h-124c-24 0 -36 7.66699 -36 23c0 6.66699 2.66699 12.167 8 16.5s11.166 7.33301 17.499 9s12.166 4.66699 17.499 9s8 10.166 8 17.499c0 9.33301 -7.16699 35 -21.5 77
s-27.166 76.667 -38.499 104zM194.999 307.998h290.001c-56.667 148 -106.334 255.333 -149.001 322c-53.333 -100 -100.333 -207.333 -141 -322zM358 822.998l-41.002 17c-13.333 6 -24 9 -32 9c-15.333 0 -27.666 -8 -36.999 -24
c-7.33301 -11.333 -14.666 -17 -21.999 -17c-12 0 -18 7.33301 -18 22c0 20.667 8.16699 39.667 24.5 57s34.5 26 54.5 26c14.667 0 34.167 -6 58.5 -18s41.5 -18 51.5 -18c14 0 24.667 4 32 12s13.333 16 18 24s10.667 12 18 12c12.667 0 19 -7 19 -21
c0 -24.667 -8 -46.167 -24 -64.5s-36 -27.5 -60 -27.5c-10 0 -24 3.66699 -42 11z" />
    <glyph glyph-name="Adieresis" unicode="&#xc4;" horiz-adv-x="720" 
d="M501 256l-325.001 -0.00195312l-16.5 -47.5c-8.33301 -23.667 -15.333 -45.167 -21 -64.5s-8.5 -34.333 -8.5 -45c0 -14 2.83301 -25.333 8.5 -34s11.667 -14.334 18 -17.001s12.333 -6 18 -10s8.5 -9.33301 8.5 -16c0 -5.33301 -1.5 -9.5 -4.5 -12.5
s-7.83301 -5.16699 -14.5 -6.5s-12.667 -2.16602 -18 -2.49902s-13 -0.5 -23 -0.5h-81c-10 0 -17.333 0.333008 -22 1s-9.16699 2.66699 -13.5 6s-6.5 8.66602 -6.5 15.999c0 8.66699 5.33301 16.667 16 24c15.333 10 25.666 22.667 30.999 38
c74 230 157.667 429.667 251 599c24.667 45.333 41.334 68 50.001 68c10.667 0 29.334 -22.667 56.001 -68c78 -133.333 162.667 -334.666 254 -603.999c3.33301 -9.33301 7.33301 -16.333 12 -21s12.334 -9.66699 23.001 -15c11.333 -5.33301 17 -12.666 17 -21.999
c0 -7.33301 -2.5 -12.666 -7.5 -15.999s-9.5 -5.16602 -13.5 -5.49902s-10.333 -0.5 -19 -0.5h-124c-24 0 -36 7.66699 -36 23c0 6.66699 2.66699 12.167 8 16.5s11.166 7.33301 17.499 9s12.166 4.66699 17.499 9s8 10.166 8 17.499c0 9.33301 -7.16699 35 -21.5 77
s-27.166 76.667 -38.499 104zM194.999 307.998h290.001c-56.667 148 -106.334 255.333 -149.001 322c-53.333 -100 -100.333 -207.333 -141 -322zM248 791.998c-14.667 0 -27.5 5.16699 -38.5 15.5s-16.5 22.5 -16.5 36.5c0 16 5.16699 29.667 15.5 41s23.5 17 39.5 17
s29 -5.33301 39 -16s15 -23.667 15 -39c0 -14 -5.5 -26.667 -16.5 -38s-23.5 -17 -37.5 -17zM453 791.998c-14.667 0 -27.5 5.16699 -38.5 15.5s-16.5 22.5 -16.5 36.5c0 16 5.16699 29.667 15.5 41s23.5 17 39.5 17s29 -5.33301 39 -16s15 -23.667 15 -39
c0 -14 -5.5 -26.667 -16.5 -38s-23.5 -17 -37.5 -17z" />
    <glyph glyph-name="Aring" unicode="&#xc5;" horiz-adv-x="720" 
d="M501 256l-325.001 -0.00195312l-16.5 -47.5c-8.33301 -23.667 -15.333 -45.167 -21 -64.5s-8.5 -34.333 -8.5 -45c0 -14 2.83301 -25.333 8.5 -34s11.667 -14.334 18 -17.001s12.333 -6 18 -10s8.5 -9.33301 8.5 -16c0 -5.33301 -1.5 -9.5 -4.5 -12.5
s-7.83301 -5.16699 -14.5 -6.5s-12.667 -2.16602 -18 -2.49902s-13 -0.5 -23 -0.5h-81c-10 0 -17.333 0.333008 -22 1s-9.16699 2.66699 -13.5 6s-6.5 8.66602 -6.5 15.999c0 8.66699 5.33301 16.667 16 24c15.333 10 25.666 22.667 30.999 38
c74 230 157.667 429.667 251 599c24.667 45.333 41.334 68 50.001 68c10.667 0 29.334 -22.667 56.001 -68c78 -133.333 162.667 -334.666 254 -603.999c3.33301 -9.33301 7.33301 -16.333 12 -21s12.334 -9.66699 23.001 -15c11.333 -5.33301 17 -12.666 17 -21.999
c0 -7.33301 -2.5 -12.666 -7.5 -15.999s-9.5 -5.16602 -13.5 -5.49902s-10.333 -0.5 -19 -0.5h-124c-24 0 -36 7.66699 -36 23c0 6.66699 2.66699 12.167 8 16.5s11.166 7.33301 17.499 9s12.166 4.66699 17.499 9s8 10.166 8 17.499c0 9.33301 -7.16699 35 -21.5 77
s-27.166 76.667 -38.499 104zM194.999 307.998h290.001c-56.667 148 -106.334 255.333 -149.001 322c-53.333 -100 -100.333 -207.333 -141 -322zM343 780.998c-26 0 -47.667 8.33301 -65 25s-26 38 -26 64c0 22.667 8.66699 42.834 26 60.501s37.666 26.5 60.999 26.5
c24.667 0 45.834 -8.33301 63.501 -25s26.5 -37.334 26.5 -62.001c0 -24 -8.33301 -44.833 -25 -62.5s-37 -26.5 -61 -26.5zM341 820.998c14 0 25.501 5 34.501 15s13.5 22.333 13.5 37c0 12.667 -5.33301 23.167 -16 31.5s-22.334 12.5 -35.001 12.5
s-23.5 -4.83301 -32.5 -14.5s-13.5 -20.834 -13.5 -33.501c0 -13.333 4.83301 -24.666 14.5 -33.999s21.167 -14 34.5 -14z" />
    <glyph glyph-name="AE" unicode="&#xc6;" horiz-adv-x="960" 
d="M443 368l-198.002 0.000976562c-70.667 -144 -106 -241 -106 -291c0 -14 8.16699 -24.333 24.5 -31s24.5 -15.334 24.5 -26.001c0 -14.667 -11.667 -21.334 -35 -20.001h-139c-16 2.66699 -24 10 -24 22c0 2.66699 0.166992 5 0.5 7s1.16602 3.83301 2.49902 5.5
s2.33301 3 3 4s2.16699 2.33301 4.5 4s3.83301 2.66699 4.5 3l6 3c3.33301 1.66699 5.33301 2.83398 6 3.50098c16 8.66699 26.667 20 32 34c92.667 235.333 194.667 430 306 584c20.667 28.667 37.834 46.167 51.501 52.5s36.5 9.5 68.5 9.5h395
c24.667 0 39.334 -16 44.001 -48c5.33301 -35.333 8 -55.666 8 -60.999c0 -10.667 -5.66699 -16 -17 -16c-7.33301 0 -13 2.66699 -17 8c-19.333 24 -40.833 40.833 -64.5 50.5s-60.5 14.5 -110.5 14.5h-106c-29.333 0 -49.5 -5.83301 -60.5 -17.5
s-15.5 -31.834 -13.5 -60.501v-182h174c24.667 0 42.5 1.16699 53.5 3.5s21.5 7.83301 31.5 16.5c8.66699 8.66699 16 13 22 13c9.33301 0 15 -3.83301 17 -11.5s3 -20.834 3 -39.501c0 -26.667 -1.16699 -44.167 -3.5 -52.5s-9.16602 -12.5 -20.499 -12.5
c-6 0 -13.333 4.33301 -22 13c-9.33301 8.66699 -18.333 13.834 -27 15.501s-24.667 2.5 -48 2.5h-180v-228c0 -36 3.83301 -59.667 11.5 -71s25.167 -17 52.5 -17h74c72 0 122.667 4.33301 152 13s54.333 22.667 75 42c18.667 16.667 31 25 37 25
c10.667 0 16 -5.66699 16 -17c0 -2.66699 -4.33301 -30.667 -13 -84c-2 -12.667 -5.83301 -21 -11.5 -25s-17.5 -6 -35.5 -6h-466c-23.333 0 -35 7.66699 -35 23c0 11.333 8 19.333 24 24c13.333 4.66699 21.5 10.5 24.5 17.5s4.5 20.833 4.5 41.5v262zM274.998 420.001
l168 -0.000976562v212v14.5c0 3 -0.333008 5.83301 -1 8.5s-1.66699 4.33398 -3 5.00098s-3.33301 1 -6 1c-8 0 -30.333 -27.5 -67 -82.5s-67 -107.833 -91 -158.5z" />
    <glyph glyph-name="Ccedilla" unicode="&#xc7;" horiz-adv-x="720" 
d="M685 621l-0.000976562 -71.999c0 -22.667 -8.33301 -34 -25 -34c-3.33301 0 -6.33301 0.833008 -9 2.5s-5 4.16699 -7 7.5s-3.66699 6.33301 -5 9l-5 10.5c-2 4.33301 -3.33301 7.16602 -4 8.49902c-24.667 48.667 -53.334 84.667 -86.001 108s-73 35 -121 35
c-61.333 0 -114.166 -16.667 -158.499 -50s-76.5 -74.166 -96.5 -122.499s-30 -100.166 -30 -155.499c0 -104 26.833 -184.333 80.5 -241s119.834 -85 198.501 -85c42 0 79.5 8 112.5 24s65.833 40.333 98.5 73c1.33301 1.33301 3.83301 4.16602 7.5 8.49902
s6.66699 7.5 9 9.5s5.5 4 9.5 6s8 3 12 3c6.66699 0 12 -2.33301 16 -7s6 -10.334 6 -17.001c0 -14.667 -12 -33 -36 -55s-45.333 -38.667 -64 -50c-55.333 -34.667 -117.666 -52 -186.999 -52h-1l-11 -31c12 2 25.667 3 41 3c21.333 0 39.166 -5.83301 53.499 -17.5
s21.5 -27.5 21.5 -47.5c0 -26.667 -10.667 -48.667 -32 -66s-50.333 -26 -87 -26c-35.333 0 -66.333 6.16699 -93 18.5s-40 26.5 -40 42.5c0 4.66699 1.83301 8.66699 5.5 12s7.83398 5 12.501 5c2 0 13.167 -6.33301 33.5 -19s40.833 -19 61.5 -19c15.333 0 30 4 44 12
s21 21.333 21 40c0 21.333 -14.333 32 -43 32c-5.33301 0 -11.333 -0.666992 -18 -2s-11.334 -2 -14.001 -2c-3.33301 0 -6.66602 1.83301 -9.99902 5.5s-5 7.5 -5 11.5c0 8 5 25 15 51c-90.667 10 -166.667 47.5 -228 112.5s-92 144.167 -92 237.5
c0 50.667 7.66699 99.667 23 147s38.166 90.833 68.499 130.5s71.333 71.5 123 95.5s110.5 36 176.5 36c40 0 73.667 -3.66699 101 -11s57.333 -19.333 90 -36c26.667 -14 44.5 -26.833 53.5 -38.5s13.5 -25.167 13.5 -40.5z" />
    <glyph glyph-name="Egrave" unicode="&#xc8;" 
d="M88 106l-0.00195312 527.999c0 14.667 -2 26.334 -6 35.001s-12.667 14 -26 16c-6.66699 2 -11.334 3.5 -14.001 4.5s-5.5 3.33301 -8.5 7s-4.5 8.16699 -4.5 13.5c0 14.667 12 22 36 22h435c24.667 0 39.334 -16 44.001 -48c5.33301 -35.333 8 -55.666 8 -60.999
c0 -10.667 -5.66699 -16 -17 -16c-7.33301 0 -13 2.66699 -17 8c-19.333 24 -40.833 40.833 -64.5 50.5s-60.5 14.5 -110.5 14.5h-91c-29.333 0 -49.5 -5.83301 -60.5 -17.5s-15.5 -31.834 -13.5 -60.501v-182h174c24.667 0 42.5 1.16699 53.5 3.5s21.5 7.83301 31.5 16.5
c8.66699 8.66699 16 13 22 13c9.33301 0 15 -3.83301 17 -11.5s3 -20.834 3 -39.501c0 -26.667 -1.16699 -44.167 -3.5 -52.5s-9.16602 -12.5 -20.499 -12.5c-6 0 -13.333 4.33301 -22 13c-9.33301 8.66699 -18.333 13.834 -27 15.501s-24.667 2.5 -48 2.5h-180v-228
c0 -36 3.83301 -59.667 11.5 -71s25.167 -17 52.5 -17h74c69.333 0 118.333 4.33301 147 13s53.334 22.667 74.001 42c18.667 16.667 31 25 37 25c10.667 0 16 -5.66699 16 -17c0 -2.66699 -4.33301 -30.667 -13 -84c-2 -12.667 -5.83301 -21 -11.5 -25s-17.5 -6 -35.5 -6
h-460c-27.333 0 -41 7.66699 -41 23c0 11.333 8 19.333 24 24s25.833 10.5 29.5 17.5s5.5 20.833 5.5 41.5zM264.998 897.999l98.001 -56.999c18 -10 27 -18 27 -24c0 -6.66699 -2.5 -13.667 -7.5 -21s-10.167 -11 -15.5 -11c-2.66699 0 -18.334 4.33301 -47.001 13l-114 40
c-10 3.33301 -19.333 8.33301 -28 15s-13 12.667 -13 18c0 11.333 3.5 23.166 10.5 35.499s15.167 18.5 24.5 18.5c11.333 0 33 -9 65 -27z" />
    <glyph glyph-name="Eacute" unicode="&#xc9;" 
d="M88 106l-0.00195312 527.999c0 14.667 -2 26.334 -6 35.001s-12.667 14 -26 16c-6.66699 2 -11.334 3.5 -14.001 4.5s-5.5 3.33301 -8.5 7s-4.5 8.16699 -4.5 13.5c0 14.667 12 22 36 22h435c24.667 0 39.334 -16 44.001 -48c5.33301 -35.333 8 -55.666 8 -60.999
c0 -10.667 -5.66699 -16 -17 -16c-7.33301 0 -13 2.66699 -17 8c-19.333 24 -40.833 40.833 -64.5 50.5s-60.5 14.5 -110.5 14.5h-91c-29.333 0 -49.5 -5.83301 -60.5 -17.5s-15.5 -31.834 -13.5 -60.501v-182h174c24.667 0 42.5 1.16699 53.5 3.5s21.5 7.83301 31.5 16.5
c8.66699 8.66699 16 13 22 13c9.33301 0 15 -3.83301 17 -11.5s3 -20.834 3 -39.501c0 -26.667 -1.16699 -44.167 -3.5 -52.5s-9.16602 -12.5 -20.499 -12.5c-6 0 -13.333 4.33301 -22 13c-9.33301 8.66699 -18.333 13.834 -27 15.501s-24.667 2.5 -48 2.5h-180v-228
c0 -36 3.83301 -59.667 11.5 -71s25.167 -17 52.5 -17h74c69.333 0 118.333 4.33301 147 13s53.334 22.667 74.001 42c18.667 16.667 31 25 37 25c10.667 0 16 -5.66699 16 -17c0 -2.66699 -4.33301 -30.667 -13 -84c-2 -12.667 -5.83301 -21 -11.5 -25s-17.5 -6 -35.5 -6
h-460c-27.333 0 -41 7.66699 -41 23c0 11.333 8 19.333 24 24s25.833 10.5 29.5 17.5s5.5 20.833 5.5 41.5zM236.998 840.999l98.001 56.999c32 18 53.667 27 65 27c9.33301 0 17.5 -6.16699 24.5 -18.5s10.5 -24.166 10.5 -35.499c0 -5.33301 -4.33301 -11.333 -13 -18
s-18 -11.667 -28 -15l-114 -40c-28.667 -8.66699 -44.334 -13 -47.001 -13c-5.33301 0 -10.5 3.66699 -15.5 11s-7.5 14.333 -7.5 21c0 6 9 14 27 24z" />
    <glyph glyph-name="Ecircumflex" unicode="&#xca;" 
d="M88 106l-0.00195312 527.999c0 14.667 -2 26.334 -6 35.001s-12.667 14 -26 16c-6.66699 2 -11.334 3.5 -14.001 4.5s-5.5 3.33301 -8.5 7s-4.5 8.16699 -4.5 13.5c0 14.667 12 22 36 22h435c24.667 0 39.334 -16 44.001 -48c5.33301 -35.333 8 -55.666 8 -60.999
c0 -10.667 -5.66699 -16 -17 -16c-7.33301 0 -13 2.66699 -17 8c-19.333 24 -40.833 40.833 -64.5 50.5s-60.5 14.5 -110.5 14.5h-91c-29.333 0 -49.5 -5.83301 -60.5 -17.5s-15.5 -31.834 -13.5 -60.501v-182h174c24.667 0 42.5 1.16699 53.5 3.5s21.5 7.83301 31.5 16.5
c8.66699 8.66699 16 13 22 13c9.33301 0 15 -3.83301 17 -11.5s3 -20.834 3 -39.501c0 -26.667 -1.16699 -44.167 -3.5 -52.5s-9.16602 -12.5 -20.499 -12.5c-6 0 -13.333 4.33301 -22 13c-9.33301 8.66699 -18.333 13.834 -27 15.501s-24.667 2.5 -48 2.5h-180v-228
c0 -36 3.83301 -59.667 11.5 -71s25.167 -17 52.5 -17h74c69.333 0 118.333 4.33301 147 13s53.334 22.667 74.001 42c18.667 16.667 31 25 37 25c10.667 0 16 -5.66699 16 -17c0 -2.66699 -4.33301 -30.667 -13 -84c-2 -12.667 -5.83301 -21 -11.5 -25s-17.5 -6 -35.5 -6
h-460c-27.333 0 -41 7.66699 -41 23c0 11.333 8 19.333 24 24s25.833 10.5 29.5 17.5s5.5 20.833 5.5 41.5zM158.998 816.999l105.998 114c9.33301 6 21 9 35 9c14.667 0 26.334 -3 35.001 -9l106 -114c16 -16 24 -26.667 24 -32c0 -6.66699 -9.33301 -10 -28 -10
c-21.333 0 -37 5 -47 15l-73 74c-7.33301 7.33301 -13.166 11 -17.499 11s-9.83301 -3.66699 -16.5 -11l-73 -74c-10 -10 -25.667 -15 -47 -15c-18.667 0 -28 3.33301 -28 10c0 5.33301 8 16 24 32z" />
    <glyph glyph-name="Edieresis" unicode="&#xcb;" 
d="M88 106l-0.00195312 527.999c0 14.667 -2 26.334 -6 35.001s-12.667 14 -26 16c-6.66699 2 -11.334 3.5 -14.001 4.5s-5.5 3.33301 -8.5 7s-4.5 8.16699 -4.5 13.5c0 14.667 12 22 36 22h435c24.667 0 39.334 -16 44.001 -48c5.33301 -35.333 8 -55.666 8 -60.999
c0 -10.667 -5.66699 -16 -17 -16c-7.33301 0 -13 2.66699 -17 8c-19.333 24 -40.833 40.833 -64.5 50.5s-60.5 14.5 -110.5 14.5h-91c-29.333 0 -49.5 -5.83301 -60.5 -17.5s-15.5 -31.834 -13.5 -60.501v-182h174c24.667 0 42.5 1.16699 53.5 3.5s21.5 7.83301 31.5 16.5
c8.66699 8.66699 16 13 22 13c9.33301 0 15 -3.83301 17 -11.5s3 -20.834 3 -39.501c0 -26.667 -1.16699 -44.167 -3.5 -52.5s-9.16602 -12.5 -20.499 -12.5c-6 0 -13.333 4.33301 -22 13c-9.33301 8.66699 -18.333 13.834 -27 15.501s-24.667 2.5 -48 2.5h-180v-228
c0 -36 3.83301 -59.667 11.5 -71s25.167 -17 52.5 -17h74c69.333 0 118.333 4.33301 147 13s53.334 22.667 74.001 42c18.667 16.667 31 25 37 25c10.667 0 16 -5.66699 16 -17c0 -2.66699 -4.33301 -30.667 -13 -84c-2 -12.667 -5.83301 -21 -11.5 -25s-17.5 -6 -35.5 -6
h-460c-27.333 0 -41 7.66699 -41 23c0 11.333 8 19.333 24 24s25.833 10.5 29.5 17.5s5.5 20.833 5.5 41.5zM197.998 791.999c-14.667 0 -27.5 5.16699 -38.5 15.5s-16.5 22.5 -16.5 36.5c0 16 5.16699 29.667 15.5 41s23.5 17 39.5 17s29 -5.33301 39 -16
s15 -23.667 15 -39c0 -14 -5.5 -26.667 -16.5 -38s-23.5 -17 -37.5 -17zM402.998 791.999c-14.667 0 -27.5 5.16699 -38.5 15.5s-16.5 22.5 -16.5 36.5c0 16 5.16699 29.667 15.5 41s23.5 17 39.5 17s29 -5.33301 39 -16s15 -23.667 15 -39c0 -14 -5.5 -26.667 -16.5 -38
s-23.5 -17 -37.5 -17z" />
    <glyph glyph-name="Igrave" unicode="&#xcc;" horiz-adv-x="260" 
d="M86 106l0.000976562 555.999c0 2.66699 -0.5 5 -1.5 7s-2.16699 3.5 -3.5 4.5s-3.33301 2.16699 -6 3.5s-4.83398 2.33301 -6.50098 3s-4.33398 1.5 -8.00098 2.5s-5.83398 1.5 -6.50098 1.5s-2 0.333008 -4 1l-4.5 1.5c-1 0.333008 -2.33301 0.833008 -4 1.5
s-2.83398 1.33398 -3.50098 2.00098s-1.66699 1.33398 -3 2.00098s-2.33301 1.5 -3 2.5s-1.5 2 -2.5 3s-1.66699 2.16699 -2 3.5l-1 4c-0.333008 1.33301 -0.5 3 -0.5 5c0 14.667 12 22 36 22h138c23.333 0 35 -7.33301 35 -22c0 -5.33301 -1.33301 -9.66602 -4 -12.999
s-5 -5.5 -7 -6.5s-6.33301 -2.83301 -13 -5.5c-4.66699 -1.33301 -8.5 -2.5 -11.5 -3.5s-5.66699 -2.33301 -8 -4s-4.33301 -3 -6 -4s-3.16699 -2.66699 -4.5 -5s-2.16602 -4 -2.49902 -5s-0.666016 -3.33301 -0.999023 -7s-0.666016 -6.33398 -0.999023 -8.00098
s-0.5 -5.16699 -0.5 -10.5v-12v-555c0 -2.66699 0.666992 -5.16699 2 -7.5s3.33301 -4.33301 6 -6s5 -2.83398 7 -3.50098l9 -3c4 -1.33301 6.66699 -2.33301 8 -3c15.333 -5.33301 24 -11 26 -17c0.666992 -2 1 -4.66699 1 -8c0 -15.333 -12 -23 -36 -23h-138
c-24 0 -36 7.66699 -36 23c0 11.333 8.66699 19.333 26 24c16.667 4.66699 26.667 10 30 16s5 17.667 5 35v8zM75.001 897.999l98.001 -56.999c18 -10 27 -18 27 -24c0 -6.66699 -2.5 -13.667 -7.5 -21s-10.167 -11 -15.5 -11c-2.66699 0 -18.334 4.33301 -47.001 13
l-114 40c-10 3.33301 -19.333 8.33301 -28 15s-13 12.667 -13 18c0 11.333 3.5 23.166 10.5 35.499s15.167 18.5 24.5 18.5c11.333 0 33 -9 65 -27z" />
    <glyph glyph-name="Iacute" unicode="&#xcd;" horiz-adv-x="260" 
d="M86 106l0.000976562 555.999c0 2.66699 -0.5 5 -1.5 7s-2.16699 3.5 -3.5 4.5s-3.33301 2.16699 -6 3.5s-4.83398 2.33301 -6.50098 3s-4.33398 1.5 -8.00098 2.5s-5.83398 1.5 -6.50098 1.5s-2 0.333008 -4 1l-4.5 1.5c-1 0.333008 -2.33301 0.833008 -4 1.5
s-2.83398 1.33398 -3.50098 2.00098s-1.66699 1.33398 -3 2.00098s-2.33301 1.5 -3 2.5s-1.5 2 -2.5 3s-1.66699 2.16699 -2 3.5l-1 4c-0.333008 1.33301 -0.5 3 -0.5 5c0 14.667 12 22 36 22h138c23.333 0 35 -7.33301 35 -22c0 -5.33301 -1.33301 -9.66602 -4 -12.999
s-5 -5.5 -7 -6.5s-6.33301 -2.83301 -13 -5.5c-4.66699 -1.33301 -8.5 -2.5 -11.5 -3.5s-5.66699 -2.33301 -8 -4s-4.33301 -3 -6 -4s-3.16699 -2.66699 -4.5 -5s-2.16602 -4 -2.49902 -5s-0.666016 -3.33301 -0.999023 -7s-0.666016 -6.33398 -0.999023 -8.00098
s-0.5 -5.16699 -0.5 -10.5v-12v-555c0 -2.66699 0.666992 -5.16699 2 -7.5s3.33301 -4.33301 6 -6s5 -2.83398 7 -3.50098l9 -3c4 -1.33301 6.66699 -2.33301 8 -3c15.333 -5.33301 24 -11 26 -17c0.666992 -2 1 -4.66699 1 -8c0 -15.333 -12 -23 -36 -23h-138
c-24 0 -36 7.66699 -36 23c0 11.333 8.66699 19.333 26 24c16.667 4.66699 26.667 10 30 16s5 17.667 5 35v8zM87.001 840.999l98.001 56.999c32 18 53.667 27 65 27c9.33301 0 17.5 -6.16699 24.5 -18.5s10.5 -24.166 10.5 -35.499c0 -5.33301 -4.33301 -11.333 -13 -18
s-18 -11.667 -28 -15l-114 -40c-28.667 -8.66699 -44.334 -13 -47.001 -13c-5.33301 0 -10.5 3.66699 -15.5 11s-7.5 14.333 -7.5 21c0 6 9 14 27 24z" />
    <glyph glyph-name="Icircumflex" unicode="&#xce;" horiz-adv-x="260" 
d="M86 106l0.000976562 555.999c0 2.66699 -0.5 5 -1.5 7s-2.16699 3.5 -3.5 4.5s-3.33301 2.16699 -6 3.5s-4.83398 2.33301 -6.50098 3s-4.33398 1.5 -8.00098 2.5s-5.83398 1.5 -6.50098 1.5s-2 0.333008 -4 1l-4.5 1.5c-1 0.333008 -2.33301 0.833008 -4 1.5
s-2.83398 1.33398 -3.50098 2.00098s-1.66699 1.33398 -3 2.00098s-2.33301 1.5 -3 2.5s-1.5 2 -2.5 3s-1.66699 2.16699 -2 3.5l-1 4c-0.333008 1.33301 -0.5 3 -0.5 5c0 14.667 12 22 36 22h138c23.333 0 35 -7.33301 35 -22c0 -5.33301 -1.33301 -9.66602 -4 -12.999
s-5 -5.5 -7 -6.5s-6.33301 -2.83301 -13 -5.5c-4.66699 -1.33301 -8.5 -2.5 -11.5 -3.5s-5.66699 -2.33301 -8 -4s-4.33301 -3 -6 -4s-3.16699 -2.66699 -4.5 -5s-2.16602 -4 -2.49902 -5s-0.666016 -3.33301 -0.999023 -7s-0.666016 -6.33398 -0.999023 -8.00098
s-0.5 -5.16699 -0.5 -10.5v-12v-555c0 -2.66699 0.666992 -5.16699 2 -7.5s3.33301 -4.33301 6 -6s5 -2.83398 7 -3.50098l9 -3c4 -1.33301 6.66699 -2.33301 8 -3c15.333 -5.33301 24 -11 26 -17c0.666992 -2 1 -4.66699 1 -8c0 -15.333 -12 -23 -36 -23h-138
c-24 0 -36 7.66699 -36 23c0 11.333 8.66699 19.333 26 24c16.667 4.66699 26.667 10 30 16s5 17.667 5 35v8zM-10.999 816.999l105.997 114c8.66699 6 20.334 9 35.001 9s26.334 -3 35.001 -9l106 -114c16 -16 24 -26.667 24 -32c0 -6.66699 -9.33301 -10 -28 -10
c-21.333 0 -37 5 -47 15l-73 74c-7.33301 7.33301 -13.166 11 -17.499 11s-9.83301 -3.66699 -16.5 -11l-73 -74c-10 -10 -25.667 -15 -47 -15c-18.667 0 -28 3.33301 -28 10c0 5.33301 8 16 24 32z" />
    <glyph glyph-name="Idieresis" unicode="&#xcf;" horiz-adv-x="260" 
d="M86 106l0.000976562 555.999c0 2.66699 -0.5 5 -1.5 7s-2.16699 3.5 -3.5 4.5s-3.33301 2.16699 -6 3.5s-4.83398 2.33301 -6.50098 3s-4.33398 1.5 -8.00098 2.5s-5.83398 1.5 -6.50098 1.5s-2 0.333008 -4 1l-4.5 1.5c-1 0.333008 -2.33301 0.833008 -4 1.5
s-2.83398 1.33398 -3.50098 2.00098s-1.66699 1.33398 -3 2.00098s-2.33301 1.5 -3 2.5s-1.5 2 -2.5 3s-1.66699 2.16699 -2 3.5l-1 4c-0.333008 1.33301 -0.5 3 -0.5 5c0 14.667 12 22 36 22h138c23.333 0 35 -7.33301 35 -22c0 -5.33301 -1.33301 -9.66602 -4 -12.999
s-5 -5.5 -7 -6.5s-6.33301 -2.83301 -13 -5.5c-4.66699 -1.33301 -8.5 -2.5 -11.5 -3.5s-5.66699 -2.33301 -8 -4s-4.33301 -3 -6 -4s-3.16699 -2.66699 -4.5 -5s-2.16602 -4 -2.49902 -5s-0.666016 -3.33301 -0.999023 -7s-0.666016 -6.33398 -0.999023 -8.00098
s-0.5 -5.16699 -0.5 -10.5v-12v-555c0 -2.66699 0.666992 -5.16699 2 -7.5s3.33301 -4.33301 6 -6s5 -2.83398 7 -3.50098l9 -3c4 -1.33301 6.66699 -2.33301 8 -3c15.333 -5.33301 24 -11 26 -17c0.666992 -2 1 -4.66699 1 -8c0 -15.333 -12 -23 -36 -23h-138
c-24 0 -36 7.66699 -36 23c0 11.333 8.66699 19.333 26 24c16.667 4.66699 26.667 10 30 16s5 17.667 5 35v8zM28.001 791.999c-14.667 0 -27.5 5.16699 -38.5 15.5s-16.5 22.5 -16.5 36.5c0 16 5.16699 29.667 15.5 41s23.5 17 39.5 17s29 -5.33301 39 -16
s15 -23.667 15 -39c0 -14 -5.5 -26.667 -16.5 -38s-23.5 -17 -37.5 -17zM233.001 791.999c-14.667 0 -27.5 5.16699 -38.5 15.5s-16.5 22.5 -16.5 36.5c0 16 5.16699 29.667 15.5 41s23.5 17 39.5 17s29 -5.33301 39 -16s15 -23.667 15 -39c0 -14 -5.5 -26.667 -16.5 -38
s-23.5 -17 -37.5 -17z" />
    <glyph glyph-name="Eth" unicode="&#xd0;" horiz-adv-x="740" 
d="M89 106l0.00390625 247.999h-51c-28.667 0 -43 10 -43 30c0 8.66699 2.66699 15.167 8 19.5s10.666 6.83301 15.999 7.5s13 1 23 1h47v250c0 2.66699 -0.5 5 -1.5 7s-2.16699 3.5 -3.5 4.5s-3.33301 2.16699 -6 3.5s-4.83398 2.33301 -6.50098 3
s-4.33398 1.5 -8.00098 2.5s-5.83398 1.5 -6.50098 1.5c-15.333 5.33301 -24 11 -26 17c-0.666992 2 -1 4.66699 -1 8c0 15.333 11.667 23 35 23h206c68 0 124.167 -4.33301 168.5 -13s87.5 -28.667 129.5 -60c92.667 -69.333 139 -167.666 139 -294.999
c0 -24.667 -2.66699 -51 -8 -79s-16.5 -59.5 -33.5 -94.5s-39 -66.167 -66 -93.5s-64.333 -50.333 -112 -69s-102.5 -28 -164.5 -28h-259c-24 0 -36 7.66699 -36 23c0 10.667 8.33301 18.667 25 24s26.667 10.833 30 16.5s5 17.167 5 34.5v8zM179.004 577.999
l0.000976562 -165.999h164c10 0 17.667 -0.333008 23 -1s10.666 -3.16699 15.999 -7.5s8 -10.833 8 -19.5c0 -20 -14.333 -30 -43 -30h-168v-178v-46c0 -7.33301 1.16699 -17.833 3.5 -31.5s5.33301 -22 9 -25s9.83398 -7.16699 18.501 -12.5s19.167 -8.33301 31.5 -9
s28.166 -1 47.499 -1c98 0 175.333 27.5 232 82.5s85 131.5 85 229.5c0 101.333 -27.333 179.666 -82 234.999s-137 83 -247 83c-44 0 -71.333 -6.33301 -82 -19s-16 -40.667 -16 -84z" />
    <glyph glyph-name="Ntilde" unicode="&#xd1;" horiz-adv-x="740" 
d="M105 119l0.00390625 491c0 16.667 -0.5 29 -1.5 37s-4.83301 16.5 -11.5 25.5s-17 14.833 -31 17.5c-0.666992 0 -2.33398 0.333008 -5.00098 1s-4.5 1.16699 -5.5 1.5s-2.66699 0.833008 -5 1.5s-4 1.33398 -5 2.00098s-2.33301 1.5 -4 2.5
s-2.83398 2.16699 -3.50098 3.5s-1.33398 3 -2.00098 5s-1 4 -1 6c0 12.667 9.66699 19 29 19h103c17.333 0 31 -6.33301 41 -19c138 -148.667 267.667 -323.667 389 -525v421c0 28.667 -1.33301 47.167 -4 55.5s-9.66699 14.166 -21 17.499
c-1.33301 0.666992 -4 1.5 -8 2.5l-8 2c-1.33301 0.333008 -3.5 1.16602 -6.5 2.49902s-5 2.5 -6 3.5l-4 4c-1.66699 1.66699 -2.66699 3.66699 -3 6s-0.5 4.83301 -0.5 7.5c0 14.667 9 22 27 22h123c19.333 0 29 -7.66699 29 -23c0 -3.33301 -0.666992 -6.33301 -2 -9
s-4 -5.16699 -8 -7.5s-7.16699 -3.83301 -9.5 -4.5s-7.16602 -2.33398 -14.499 -5.00098c-12.667 -4.66699 -20 -10.334 -22 -17.001s-3 -23.667 -3 -51v-577v-8.5v-10.5c0 -2.66699 -0.166992 -6 -0.5 -10s-1 -7.16699 -2 -9.5s-2.33301 -4.66602 -4 -6.99902
s-3.83398 -4.16602 -6.50098 -5.49902s-6 -2 -10 -2c-8.66699 0 -14.667 2.33301 -18 7s-8.66602 15.667 -15.999 33s-16.666 34.333 -27.999 51l-142 217c-34.667 52 -77.834 113.333 -129.501 184s-95.167 124 -130.5 160v-539c0 -10.667 0.5 -18.5 1.5 -23.5
s3.66699 -9.66699 8 -14s11.166 -7.83301 20.499 -10.5c6.66699 -1.33301 11 -2.33301 13 -3s5 -2 9 -4s6.66699 -4.5 8 -7.5s2 -7.16699 2 -12.5c0 -15.333 -8.66699 -23 -26 -23h-136c-17.333 0 -26 7.66699 -26 23c0 7.33301 2.66699 12.833 8 16.5
s14.666 7.16699 27.999 10.5c13.333 2.66699 21.833 8.33398 25.5 17.001s5.5 26 5.5 52zM383.004 823l-41.002 17c-13.333 6 -24 9 -32 9c-15.333 0 -27.666 -8 -36.999 -24c-7.33301 -11.333 -14.666 -17 -21.999 -17c-12 0 -18 7.33301 -18 22
c0 20.667 8.16699 39.667 24.5 57s34.5 26 54.5 26c14.667 0 34.167 -6 58.5 -18s41.5 -18 51.5 -18c14 0 24.667 4 32 12s13.333 16 18 24s10.667 12 18 12c12.667 0 19 -7 19 -21c0 -24.667 -8 -46.167 -24 -64.5s-36 -27.5 -60 -27.5c-10 0 -24 3.66699 -42 11z" />
    <glyph glyph-name="Ograve" unicode="&#xd2;" horiz-adv-x="800" 
d="M388 -15c-45.333 0 -88.6689 8.33105 -130.002 24.998s-78.666 40.334 -111.999 71.001s-59.833 70.334 -79.5 119.001s-29.5 102.667 -29.5 162c0 108.667 33 200 99 274s152.333 111 259 111c100.667 0 186.334 -35.167 257.001 -105.5s106 -163.166 106 -278.499
c0 -108.667 -34.667 -198.834 -104 -270.501s-158 -107.5 -266 -107.5zM392.997 36.998c76.667 0 139.667 31.001 189 93.001s74 138 74 228c0 99.333 -24 180.166 -72 242.499s-111 93.5 -189 93.5c-79.333 0 -141.833 -33.333 -187.5 -100s-68.5 -143.667 -68.5 -231
c0 -96 24 -174.333 72 -235s108.667 -91 182 -91zM324.997 897.999l98.001 -56.999c18 -10 27 -18 27 -24c0 -6.66699 -2.5 -13.667 -7.5 -21s-10.167 -11 -15.5 -11c-2.66699 0 -18.334 4.33301 -47.001 13l-114 40c-10 3.33301 -19.333 8.33301 -28 15s-13 12.667 -13 18
c0 11.333 3.5 23.166 10.5 35.499s15.167 18.5 24.5 18.5c11.333 0 33 -9 65 -27z" />
    <glyph glyph-name="Oacute" unicode="&#xd3;" horiz-adv-x="800" 
d="M388 -15c-45.333 0 -88.6689 8.33105 -130.002 24.998s-78.666 40.334 -111.999 71.001s-59.833 70.334 -79.5 119.001s-29.5 102.667 -29.5 162c0 108.667 33 200 99 274s152.333 111 259 111c100.667 0 186.334 -35.167 257.001 -105.5s106 -163.166 106 -278.499
c0 -108.667 -34.667 -198.834 -104 -270.501s-158 -107.5 -266 -107.5zM392.997 36.998c76.667 0 139.667 31.001 189 93.001s74 138 74 228c0 99.333 -24 180.166 -72 242.499s-111 93.5 -189 93.5c-79.333 0 -141.833 -33.333 -187.5 -100s-68.5 -143.667 -68.5 -231
c0 -96 24 -174.333 72 -235s108.667 -91 182 -91zM336.997 840.999l98.001 56.999c32 18 53.667 27 65 27c9.33301 0 17.5 -6.16699 24.5 -18.5s10.5 -24.166 10.5 -35.499c0 -5.33301 -4.33301 -11.333 -13 -18s-18 -11.667 -28 -15l-114 -40
c-28.667 -8.66699 -44.334 -13 -47.001 -13c-5.33301 0 -10.5 3.66699 -15.5 11s-7.5 14.333 -7.5 21c0 6 9 14 27 24z" />
    <glyph glyph-name="Ocircumflex" unicode="&#xd4;" horiz-adv-x="800" 
d="M388 -15c-45.333 0 -88.6689 8.33105 -130.002 24.998s-78.666 40.334 -111.999 71.001s-59.833 70.334 -79.5 119.001s-29.5 102.667 -29.5 162c0 108.667 33 200 99 274s152.333 111 259 111c100.667 0 186.334 -35.167 257.001 -105.5s106 -163.166 106 -278.499
c0 -108.667 -34.667 -198.834 -104 -270.501s-158 -107.5 -266 -107.5zM392.997 36.998c76.667 0 139.667 31.001 189 93.001s74 138 74 228c0 99.333 -24 180.166 -72 242.499s-111 93.5 -189 93.5c-79.333 0 -141.833 -33.333 -187.5 -100s-68.5 -143.667 -68.5 -231
c0 -96 24 -174.333 72 -235s108.667 -91 182 -91zM238.997 816.999l105.997 114c8.66699 6 20.334 9 35.001 9s26.334 -3 35.001 -9l106 -114c16 -16 24 -26.667 24 -32c0 -6.66699 -9.33301 -10 -28 -10c-21.333 0 -37 5 -47 15l-73 74
c-7.33301 7.33301 -13.166 11 -17.499 11s-9.83301 -3.66699 -16.5 -11l-73 -74c-10 -10 -25.667 -15 -47 -15c-18.667 0 -28 3.33301 -28 10c0 5.33301 8 16 24 32z" />
    <glyph glyph-name="Otilde" unicode="&#xd5;" horiz-adv-x="800" 
d="M388 -15c-45.333 0 -88.6689 8.33105 -130.002 24.998s-78.666 40.334 -111.999 71.001s-59.833 70.334 -79.5 119.001s-29.5 102.667 -29.5 162c0 108.667 33 200 99 274s152.333 111 259 111c100.667 0 186.334 -35.167 257.001 -105.5s106 -163.166 106 -278.499
c0 -108.667 -34.667 -198.834 -104 -270.501s-158 -107.5 -266 -107.5zM392.997 36.998c76.667 0 139.667 31.001 189 93.001s74 138 74 228c0 99.333 -24 180.166 -72 242.499s-111 93.5 -189 93.5c-79.333 0 -141.833 -33.333 -187.5 -100s-68.5 -143.667 -68.5 -231
c0 -96 24 -174.333 72 -235s108.667 -91 182 -91zM412.997 822.999l-41.002 17c-13.333 6 -24 9 -32 9c-15.333 0 -27.666 -8 -36.999 -24c-7.33301 -11.333 -14.666 -17 -21.999 -17c-12 0 -18 7.33301 -18 22c0 20.667 8.16699 39.667 24.5 57s34.5 26 54.5 26
c14.667 0 34.167 -6 58.5 -18s41.5 -18 51.5 -18c14 0 24.667 4 32 12s13.333 16 18 24s10.667 12 18 12c12.667 0 19 -7 19 -21c0 -24.667 -8 -46.167 -24 -64.5s-36 -27.5 -60 -27.5c-10 0 -24 3.66699 -42 11z" />
    <glyph glyph-name="Odieresis" unicode="&#xd6;" horiz-adv-x="800" 
d="M388 -15c-45.333 0 -88.6689 8.33105 -130.002 24.998s-78.666 40.334 -111.999 71.001s-59.833 70.334 -79.5 119.001s-29.5 102.667 -29.5 162c0 108.667 33 200 99 274s152.333 111 259 111c100.667 0 186.334 -35.167 257.001 -105.5s106 -163.166 106 -278.499
c0 -108.667 -34.667 -198.834 -104 -270.501s-158 -107.5 -266 -107.5zM392.997 36.998c76.667 0 139.667 31.001 189 93.001s74 138 74 228c0 99.333 -24 180.166 -72 242.499s-111 93.5 -189 93.5c-79.333 0 -141.833 -33.333 -187.5 -100s-68.5 -143.667 -68.5 -231
c0 -96 24 -174.333 72 -235s108.667 -91 182 -91zM297.997 791.999c-14.667 0 -27.5 5.16699 -38.5 15.5s-16.5 22.5 -16.5 36.5c0 16 5.16699 29.667 15.5 41s23.5 17 39.5 17s29 -5.33301 39 -16s15 -23.667 15 -39c0 -14 -5.5 -26.667 -16.5 -38s-23.5 -17 -37.5 -17z
M502.997 791.999c-14.667 0 -27.5 5.16699 -38.5 15.5s-16.5 22.5 -16.5 36.5c0 16 5.16699 29.667 15.5 41s23.5 17 39.5 17s29 -5.33301 39 -16s15 -23.667 15 -39c0 -14 -5.5 -26.667 -16.5 -38s-23.5 -17 -37.5 -17z" />
    <glyph glyph-name="multiply" unicode="&#xd7;" horiz-adv-x="660" 
d="M70 44l216 216l-216 215l44 45l217 -215l216 215l44 -45l-216 -215l216 -216l-45 -44l-215 215l-216 -215z" />
    <glyph glyph-name="Oslash" unicode="&#xd8;" horiz-adv-x="800" 
d="M55 55l60 61.0039c-52 67.333 -78 149.333 -78 246c0 108.667 33 200 99 274s152.333 111 259 111c96.667 0 178.667 -32 246 -96l63 64c11.333 11.333 21 17 29 17c6.66699 0 12.5 -2.33301 17.5 -7s7.5 -10.334 7.5 -17.001s-6 -16 -18 -28l-65 -66
c55.333 -67.333 83 -151 83 -251c0 -108.667 -34.667 -198.834 -104 -270.501s-158 -107.5 -266 -107.5c-94.667 0 -174.334 31.333 -239.001 94l-56 -56c-1.33301 -1.33301 -3.66602 -3.83301 -6.99902 -7.5s-5.83301 -6.33398 -7.5 -8.00098
s-4.16699 -3.33398 -7.5 -5.00098s-6.66602 -2.5 -9.99902 -2.5c-6.66699 -0 -12.334 2.33301 -17.001 7s-7 10.667 -7 18c0 8 6 18 18 30zM179 181.004l408 415c-46.667 65.333 -110.667 98 -192 98c-79.333 0 -141.833 -33.333 -187.5 -100s-68.5 -143.667 -68.5 -231
c0 -70 13.333 -130.667 40 -182zM614 552.004l-408 -415c46.667 -66.667 109 -100 187 -100c76.667 0 139.667 31 189 93s74 138 74 228c0 73.333 -14 138 -42 194z" />
    <glyph glyph-name="Ugrave" unicode="&#xd9;" horiz-adv-x="760" 
d="M65 732h130.999c24 0 36 -7.33301 36 -22c0 -5.33301 -1.33301 -9.66602 -4 -12.999s-5.33398 -5.5 -8.00098 -6.5s-7 -2.5 -13 -4.5c-12.667 -4 -21.167 -9 -25.5 -15s-7.16602 -15.667 -8.49902 -29c-8.66699 -106.667 -13 -220.667 -13 -342
c0 -85.333 19.833 -150.333 59.5 -195s93.167 -67 160.5 -67c36 0 67.5 3.5 94.5 10.5s52.667 19.5 77 37.5s43 45 56 81s19.5 80.333 19.5 133c0 143.333 -4.33301 253 -13 329c-2 20 -5.33301 34 -10 42s-13 13 -25 15c-24.667 4.66699 -37 13 -37 25
c0 12.667 9.66699 19.667 29 21h133c17.333 -1.33301 26 -9 26 -23c0 -2.66699 -0.5 -5 -1.5 -7l-2.5 -5c-0.666992 -1.33301 -2.16699 -2.66602 -4.5 -3.99902s-4 -2.16602 -5 -2.49902s-3 -1.33301 -6 -3s-4.83301 -2.5 -5.5 -2.5c-14 -5.33301 -23 -11.333 -27 -18
s-6 -18 -6 -34c0 -7.33301 2.16699 -52 6.5 -134s6.5 -148.333 6.5 -199c0 -59.333 -7.66699 -110 -23 -152s-37.333 -74.5 -66 -97.5s-60.667 -39.667 -96 -50s-75.333 -15.5 -120 -15.5c-104 0 -181.667 25.5 -233 76.5s-77 130.5 -77 238.5
c0 51.333 2.16699 122.166 6.5 212.499s6.5 136.5 6.5 138.5c0 2.66699 -0.166992 5 -0.5 7s-0.833008 4 -1.5 6l-1.5 4.5c-0.333008 1 -1.16602 2.16699 -2.49902 3.5l-3 3c-0.666992 0.666992 -2 1.66699 -4 3s-3.33301 2.16602 -4 2.49902s-2.5 1 -5.5 2
s-4.83301 1.83301 -5.5 2.5c-6.66699 2.66699 -11.167 4.5 -13.5 5.5s-5 3.16699 -8 6.5s-4.5 7.66602 -4.5 12.999c0 14.667 12 22 36 22zM324.999 898l98.001 -56.999c18 -10 27 -18 27 -24c0 -6.66699 -2.5 -13.667 -7.5 -21s-10.167 -11 -15.5 -11
c-2.66699 0 -18.334 4.33301 -47.001 13l-114 40c-10 3.33301 -19.333 8.33301 -28 15s-13 12.667 -13 18c0 11.333 3.5 23.166 10.5 35.499s15.167 18.5 24.5 18.5c11.333 0 33 -9 65 -27z" />
    <glyph glyph-name="Uacute" unicode="&#xda;" horiz-adv-x="760" 
d="M65 732h130.999c24 0 36 -7.33301 36 -22c0 -5.33301 -1.33301 -9.66602 -4 -12.999s-5.33398 -5.5 -8.00098 -6.5s-7 -2.5 -13 -4.5c-12.667 -4 -21.167 -9 -25.5 -15s-7.16602 -15.667 -8.49902 -29c-8.66699 -106.667 -13 -220.667 -13 -342
c0 -85.333 19.833 -150.333 59.5 -195s93.167 -67 160.5 -67c36 0 67.5 3.5 94.5 10.5s52.667 19.5 77 37.5s43 45 56 81s19.5 80.333 19.5 133c0 143.333 -4.33301 253 -13 329c-2 20 -5.33301 34 -10 42s-13 13 -25 15c-24.667 4.66699 -37 13 -37 25
c0 12.667 9.66699 19.667 29 21h133c17.333 -1.33301 26 -9 26 -23c0 -2.66699 -0.5 -5 -1.5 -7l-2.5 -5c-0.666992 -1.33301 -2.16699 -2.66602 -4.5 -3.99902s-4 -2.16602 -5 -2.49902s-3 -1.33301 -6 -3s-4.83301 -2.5 -5.5 -2.5c-14 -5.33301 -23 -11.333 -27 -18
s-6 -18 -6 -34c0 -7.33301 2.16699 -52 6.5 -134s6.5 -148.333 6.5 -199c0 -59.333 -7.66699 -110 -23 -152s-37.333 -74.5 -66 -97.5s-60.667 -39.667 -96 -50s-75.333 -15.5 -120 -15.5c-104 0 -181.667 25.5 -233 76.5s-77 130.5 -77 238.5
c0 51.333 2.16699 122.166 6.5 212.499s6.5 136.5 6.5 138.5c0 2.66699 -0.166992 5 -0.5 7s-0.833008 4 -1.5 6l-1.5 4.5c-0.333008 1 -1.16602 2.16699 -2.49902 3.5l-3 3c-0.666992 0.666992 -2 1.66699 -4 3s-3.33301 2.16602 -4 2.49902s-2.5 1 -5.5 2
s-4.83301 1.83301 -5.5 2.5c-6.66699 2.66699 -11.167 4.5 -13.5 5.5s-5 3.16699 -8 6.5s-4.5 7.66602 -4.5 12.999c0 14.667 12 22 36 22zM336.999 841l98.001 56.999c32 18 53.667 27 65 27c9.33301 0 17.5 -6.16699 24.5 -18.5s10.5 -24.166 10.5 -35.499
c0 -5.33301 -4.33301 -11.333 -13 -18s-18 -11.667 -28 -15l-114 -40c-28.667 -8.66699 -44.334 -13 -47.001 -13c-5.33301 0 -10.5 3.66699 -15.5 11s-7.5 14.333 -7.5 21c0 6 9 14 27 24z" />
    <glyph glyph-name="Ucircumflex" unicode="&#xdb;" horiz-adv-x="760" 
d="M65 732h130.999c24 0 36 -7.33301 36 -22c0 -5.33301 -1.33301 -9.66602 -4 -12.999s-5.33398 -5.5 -8.00098 -6.5s-7 -2.5 -13 -4.5c-12.667 -4 -21.167 -9 -25.5 -15s-7.16602 -15.667 -8.49902 -29c-8.66699 -106.667 -13 -220.667 -13 -342
c0 -85.333 19.833 -150.333 59.5 -195s93.167 -67 160.5 -67c36 0 67.5 3.5 94.5 10.5s52.667 19.5 77 37.5s43 45 56 81s19.5 80.333 19.5 133c0 143.333 -4.33301 253 -13 329c-2 20 -5.33301 34 -10 42s-13 13 -25 15c-24.667 4.66699 -37 13 -37 25
c0 12.667 9.66699 19.667 29 21h133c17.333 -1.33301 26 -9 26 -23c0 -2.66699 -0.5 -5 -1.5 -7l-2.5 -5c-0.666992 -1.33301 -2.16699 -2.66602 -4.5 -3.99902s-4 -2.16602 -5 -2.49902s-3 -1.33301 -6 -3s-4.83301 -2.5 -5.5 -2.5c-14 -5.33301 -23 -11.333 -27 -18
s-6 -18 -6 -34c0 -7.33301 2.16699 -52 6.5 -134s6.5 -148.333 6.5 -199c0 -59.333 -7.66699 -110 -23 -152s-37.333 -74.5 -66 -97.5s-60.667 -39.667 -96 -50s-75.333 -15.5 -120 -15.5c-104 0 -181.667 25.5 -233 76.5s-77 130.5 -77 238.5
c0 51.333 2.16699 122.166 6.5 212.499s6.5 136.5 6.5 138.5c0 2.66699 -0.166992 5 -0.5 7s-0.833008 4 -1.5 6l-1.5 4.5c-0.333008 1 -1.16602 2.16699 -2.49902 3.5l-3 3c-0.666992 0.666992 -2 1.66699 -4 3s-3.33301 2.16602 -4 2.49902s-2.5 1 -5.5 2
s-4.83301 1.83301 -5.5 2.5c-6.66699 2.66699 -11.167 4.5 -13.5 5.5s-5 3.16699 -8 6.5s-4.5 7.66602 -4.5 12.999c0 14.667 12 22 36 22zM243.999 817l105.999 114c9.33301 6 21 9 35 9s25.667 -3 35 -9l106 -114c16 -16 24 -26.667 24 -32
c0 -6.66699 -9.33301 -10 -28 -10c-21.333 0 -37 5 -47 15l-73 74c-7.33301 7.33301 -13.166 11 -17.499 11s-9.83301 -3.66699 -16.5 -11l-73 -74c-10 -10 -25.667 -15 -47 -15c-18.667 0 -28 3.33301 -28 10c0 5.33301 8 16 24 32z" />
    <glyph glyph-name="Udieresis" unicode="&#xdc;" horiz-adv-x="760" 
d="M65 732h130.999c24 0 36 -7.33301 36 -22c0 -5.33301 -1.33301 -9.66602 -4 -12.999s-5.33398 -5.5 -8.00098 -6.5s-7 -2.5 -13 -4.5c-12.667 -4 -21.167 -9 -25.5 -15s-7.16602 -15.667 -8.49902 -29c-8.66699 -106.667 -13 -220.667 -13 -342
c0 -85.333 19.833 -150.333 59.5 -195s93.167 -67 160.5 -67c36 0 67.5 3.5 94.5 10.5s52.667 19.5 77 37.5s43 45 56 81s19.5 80.333 19.5 133c0 143.333 -4.33301 253 -13 329c-2 20 -5.33301 34 -10 42s-13 13 -25 15c-24.667 4.66699 -37 13 -37 25
c0 12.667 9.66699 19.667 29 21h133c17.333 -1.33301 26 -9 26 -23c0 -2.66699 -0.5 -5 -1.5 -7l-2.5 -5c-0.666992 -1.33301 -2.16699 -2.66602 -4.5 -3.99902s-4 -2.16602 -5 -2.49902s-3 -1.33301 -6 -3s-4.83301 -2.5 -5.5 -2.5c-14 -5.33301 -23 -11.333 -27 -18
s-6 -18 -6 -34c0 -7.33301 2.16699 -52 6.5 -134s6.5 -148.333 6.5 -199c0 -59.333 -7.66699 -110 -23 -152s-37.333 -74.5 -66 -97.5s-60.667 -39.667 -96 -50s-75.333 -15.5 -120 -15.5c-104 0 -181.667 25.5 -233 76.5s-77 130.5 -77 238.5
c0 51.333 2.16699 122.166 6.5 212.499s6.5 136.5 6.5 138.5c0 2.66699 -0.166992 5 -0.5 7s-0.833008 4 -1.5 6l-1.5 4.5c-0.333008 1 -1.16602 2.16699 -2.49902 3.5l-3 3c-0.666992 0.666992 -2 1.66699 -4 3s-3.33301 2.16602 -4 2.49902s-2.5 1 -5.5 2
s-4.83301 1.83301 -5.5 2.5c-6.66699 2.66699 -11.167 4.5 -13.5 5.5s-5 3.16699 -8 6.5s-4.5 7.66602 -4.5 12.999c0 14.667 12 22 36 22zM287.999 792c-14.667 0 -27.5 5.16699 -38.5 15.5s-16.5 22.5 -16.5 36.5c0 16 5.16699 29.667 15.5 41s23.5 17 39.5 17
s29 -5.33301 39 -16s15 -23.667 15 -39c0 -14 -5.5 -26.667 -16.5 -38s-23.5 -17 -37.5 -17zM492.999 792c-14.667 0 -27.5 5.16699 -38.5 15.5s-16.5 22.5 -16.5 36.5c0 16 5.16699 29.667 15.5 41s23.5 17 39.5 17s29 -5.33301 39 -16s15 -23.667 15 -39
c0 -14 -5.5 -26.667 -16.5 -38s-23.5 -17 -37.5 -17z" />
    <glyph glyph-name="Yacute" unicode="&#xdd;" horiz-adv-x="700" 
d="M305 106l0.000976562 190.006c-88 101.333 -169 222.666 -243 363.999c-4 7.33301 -15.333 15.333 -34 24s-28 18.334 -28 29.001c0 12.667 10.333 19 31 19h148c22 0 33 -6.66699 33 -20c0 -8.66699 -8 -16.5 -24 -23.5s-24 -14.833 -24 -23.5
c0 -18.667 18.5 -58.334 55.5 -119.001s86.5 -125.334 148.5 -194.001c49.333 52 95.333 111.167 138 177.5s64 107.166 64 122.499c0 10 -2.83301 18 -8.5 24s-12 10 -19 12s-13.333 5.16699 -19 9.5s-8.5 10.166 -8.5 17.499c0 11.333 10.667 17 32 17h112
c26.667 0 40 -6 40 -18c0 -8.66699 -7.66699 -18.167 -23 -28.5s-25 -19.833 -29 -28.5c-60.667 -122 -144.667 -243 -252 -363v-188c0 -22 1 -36 3 -42s7.33301 -10.333 16 -13c11.333 -2.66699 19.333 -4.83398 24 -6.50098s8.66699 -4.16699 12 -7.5s5 -8 5 -14
c0 -15.333 -11.667 -23 -35 -23h-137c-24 0 -36 7.66699 -36 23c0 7.33301 2.16699 12.666 6.5 15.999s12.166 6.66602 23.499 9.99902c12 4 19.667 9.33301 23 16s5 20.334 5 41.001zM322.001 841.006l98.001 56.999c32 18 53.667 27 65 27
c9.33301 0 17.5 -6.16699 24.5 -18.5s10.5 -24.166 10.5 -35.499c0 -5.33301 -4.33301 -11.333 -13 -18s-18 -11.667 -28 -15l-114 -40c-28.667 -8.66699 -44.334 -13 -47.001 -13c-5.33301 0 -10.5 3.66699 -15.5 11s-7.5 14.333 -7.5 21c0 6 9 14 27 24z" />
    <glyph glyph-name="Thorn" unicode="&#xde;" horiz-adv-x="620" 
d="M176 443v-215c41.333 0.666992 79.5 3.5 114.5 8.5s69 13 102 24s59 27.667 78 50s28.5 48.833 28.5 79.5c0 35.333 -9.16699 62.833 -27.5 82.5s-41.5 32.5 -69.5 38.5s-64.667 9 -110 9c-43.333 0 -73.333 -4.33301 -90 -13c-11.333 -6 -18.5 -13.833 -21.5 -23.5
s-4.5 -23.167 -4.5 -40.5zM86 106l0.00195312 545.993c-0.666992 10 -3.16699 16.833 -7.5 20.5s-12.5 7.5 -24.5 11.5c-0.666992 0 -2 0.333008 -4 1l-4.5 1.5c-1 0.333008 -2.33301 0.833008 -4 1.5s-2.83398 1.33398 -3.50098 2.00098s-1.66699 1.33398 -3 2.00098
s-2.33301 1.5 -3 2.5s-1.5 2 -2.5 3s-1.66699 2.16699 -2 3.5l-1 4c-0.333008 1.33301 -0.5 3 -0.5 5c0 14.667 12 22 36 22h138c23.333 0 35 -7.33301 35 -22c0 -5.33301 -1.33301 -9.66602 -4 -12.999s-5 -5.5 -7 -6.5s-6.33301 -2.83301 -13 -5.5
c-15.333 -6 -24.833 -11.667 -28.5 -17s-5.83398 -14.666 -6.50098 -27.999v-68h149c36 0 68.333 -2.16699 97 -6.5s57.5 -12 86.5 -23s51.667 -28.667 68 -53s24.5 -54.166 24.5 -89.499c0 -34 -8.5 -64 -25.5 -90s-39 -47.167 -66 -63.5s-59.667 -29.833 -98 -40.5
s-76.333 -18.167 -114 -22.5s-78.167 -7.16602 -121.5 -8.49902v-91c0 -10.667 2.16699 -18.167 6.5 -22.5s12.833 -8.83301 25.5 -13.5c15.333 -5.33301 24 -11 26 -17c0.666992 -2 1 -4.66699 1 -8c0 -15.333 -12 -23 -36 -23h-138c-24 0 -36 7.66699 -36 23
c0 11.333 8.66699 19.333 26 24c16.667 4.66699 26.667 10.334 30 17.001s5 20.667 5 42z" />
    <glyph glyph-name="germandbls" unicode="&#xdf;" horiz-adv-x="520" 
d="M69 123l0.000976562 377.999c0 81.333 16 144.333 48 189s86 67 162 67c51.333 0 94.333 -13.5 129 -40.5s52 -65.833 52 -116.5c0 -43.333 -10.167 -82.5 -30.5 -117.5s-51.833 -60.833 -94.5 -77.5c48 -5.33301 89.167 -25.166 123.5 -59.499
s51.5 -82.166 51.5 -143.499c0 -62 -17 -113.667 -51 -155s-78.667 -62 -134 -62c-42 0 -76.667 13.167 -104 39.5s-41 63.5 -41 111.5c0 22 5 40.667 15 56s24.333 23 43 23c24.667 0 36.667 -13.333 36 -40c0.666992 -12 -4 -25.167 -14 -39.5s-15 -26.166 -15 -35.499
c0 -22.667 8.66699 -39.834 26 -51.501s35.333 -17.5 54 -17.5c34 0 60.833 14 80.5 42s29.5 69.667 29.5 125c0 51.333 -15 92.833 -45 124.5s-70 47.5 -120 47.5c-11.333 0 -23.333 -0.833008 -36 -2.5s-21.334 -2.5 -26.001 -2.5c-22 0 -33 11.667 -33 35
c0 20 14.667 30 44 30c5.33301 0 12.666 -0.833008 21.999 -2.5s16.333 -2.5 21 -2.5c30.667 0 58.834 13.5 84.501 40.5s38.5 66.833 38.5 119.5c0 84 -39.667 126 -119 126c-43.333 0 -74.5 -16.333 -93.5 -49s-28.5 -81.667 -28.5 -147v-469c0 -18.667 -2 -31 -6 -37
s-13.667 -9 -29 -9h-55c-26 0 -39 7.66699 -39 23c0 10 9 17.333 27 22c12 3.33301 19.5 9.66602 22.5 18.999s4.5 29 4.5 59z" />
    <glyph glyph-name="agrave" unicode="&#xe0;" horiz-adv-x="500" 
d="M429 284l0.000976562 -161.002c0 -29.333 2.16699 -49.166 6.5 -59.499s13.166 -17.166 26.499 -20.499c14 -4 21 -11 21 -21c0 -7.33301 -2.66699 -12.666 -8 -15.999s-10 -5.16602 -14 -5.49902s-10 -0.5 -18 -0.5h-44c-12 0 -20.667 2.33301 -26 7s-8.5 10 -9.5 16
s-1.5 16.333 -1.5 31v25c-40 -62.667 -95.667 -94 -167 -94c-46.667 0 -86.667 12.5 -120 37.5s-50 60.167 -50 105.5c0 20 4.66699 40.333 14 61s23.833 40.667 43.5 60s47.5 35.166 83.5 47.499s77.333 18.5 124 18.5c26.667 0 48 -1.66699 64 -5
c-2.66699 36.667 -17.5 66.167 -44.5 88.5s-58.833 33.5 -95.5 33.5c-26.667 0 -48.334 -3.83301 -65.001 -11.5s-30 -15.334 -40 -23.001s-19.667 -11.5 -29 -11.5c-18.667 0 -28 8.33301 -28 25c0 14.667 13.333 29 40 43c36.667 17.333 76 26 118 26
c68.667 0 122.334 -17 161.001 -51s58 -82.333 58 -145zM354.001 184.998v80.999c-12.667 2.66699 -29 4 -49 4c-30 0 -59.333 -3.83301 -88 -11.5s-54.5 -22.5 -77.5 -44.5s-34.5 -49 -34.5 -81c0 -26 9.16699 -47.833 27.5 -65.5s41.833 -26.5 70.5 -26.5
c48 0 85.167 13.333 111.5 40s39.5 61.334 39.5 104.001zM185.001 647.997l98.001 -56.999c18 -10 27 -18 27 -24c0 -6.66699 -2.5 -13.667 -7.5 -21s-10.167 -11 -15.5 -11c-2.66699 0 -18.334 4.33301 -47.001 13l-114 40c-10 3.33301 -19.333 8.33301 -28 15
s-13 12.667 -13 18c0 11.333 3.5 23.166 10.5 35.499s15.167 18.5 24.5 18.5c11.333 0 33 -9 65 -27z" />
    <glyph glyph-name="aacute" unicode="&#xe1;" horiz-adv-x="500" 
d="M429 284l0.000976562 -161.002c0 -29.333 2.16699 -49.166 6.5 -59.499s13.166 -17.166 26.499 -20.499c14 -4 21 -11 21 -21c0 -7.33301 -2.66699 -12.666 -8 -15.999s-10 -5.16602 -14 -5.49902s-10 -0.5 -18 -0.5h-44c-12 0 -20.667 2.33301 -26 7s-8.5 10 -9.5 16
s-1.5 16.333 -1.5 31v25c-40 -62.667 -95.667 -94 -167 -94c-46.667 0 -86.667 12.5 -120 37.5s-50 60.167 -50 105.5c0 20 4.66699 40.333 14 61s23.833 40.667 43.5 60s47.5 35.166 83.5 47.499s77.333 18.5 124 18.5c26.667 0 48 -1.66699 64 -5
c-2.66699 36.667 -17.5 66.167 -44.5 88.5s-58.833 33.5 -95.5 33.5c-26.667 0 -48.334 -3.83301 -65.001 -11.5s-30 -15.334 -40 -23.001s-19.667 -11.5 -29 -11.5c-18.667 0 -28 8.33301 -28 25c0 14.667 13.333 29 40 43c36.667 17.333 76 26 118 26
c68.667 0 122.334 -17 161.001 -51s58 -82.333 58 -145zM354.001 184.998v80.999c-12.667 2.66699 -29 4 -49 4c-30 0 -59.333 -3.83301 -88 -11.5s-54.5 -22.5 -77.5 -44.5s-34.5 -49 -34.5 -81c0 -26 9.16699 -47.833 27.5 -65.5s41.833 -26.5 70.5 -26.5
c48 0 85.167 13.333 111.5 40s39.5 61.334 39.5 104.001zM187.001 590.997l98.001 56.999c32 18 53.667 27 65 27c9.33301 0 17.5 -6.16699 24.5 -18.5s10.5 -24.166 10.5 -35.499c0 -5.33301 -4.33301 -11.333 -13 -18s-18 -11.667 -28 -15l-114 -40
c-28.667 -8.66699 -44.334 -13 -47.001 -13c-5.33301 0 -10.5 3.66699 -15.5 11s-7.5 14.333 -7.5 21c0 6 9 14 27 24z" />
    <glyph glyph-name="acircumflex" unicode="&#xe2;" horiz-adv-x="500" 
d="M429 284l0.000976562 -161.002c0 -29.333 2.16699 -49.166 6.5 -59.499s13.166 -17.166 26.499 -20.499c14 -4 21 -11 21 -21c0 -7.33301 -2.66699 -12.666 -8 -15.999s-10 -5.16602 -14 -5.49902s-10 -0.5 -18 -0.5h-44c-12 0 -20.667 2.33301 -26 7s-8.5 10 -9.5 16
s-1.5 16.333 -1.5 31v25c-40 -62.667 -95.667 -94 -167 -94c-46.667 0 -86.667 12.5 -120 37.5s-50 60.167 -50 105.5c0 20 4.66699 40.333 14 61s23.833 40.667 43.5 60s47.5 35.166 83.5 47.499s77.333 18.5 124 18.5c26.667 0 48 -1.66699 64 -5
c-2.66699 36.667 -17.5 66.167 -44.5 88.5s-58.833 33.5 -95.5 33.5c-26.667 0 -48.334 -3.83301 -65.001 -11.5s-30 -15.334 -40 -23.001s-19.667 -11.5 -29 -11.5c-18.667 0 -28 8.33301 -28 25c0 14.667 13.333 29 40 43c36.667 17.333 76 26 118 26
c68.667 0 122.334 -17 161.001 -51s58 -82.333 58 -145zM354.001 184.998v80.999c-12.667 2.66699 -29 4 -49 4c-30 0 -59.333 -3.83301 -88 -11.5s-54.5 -22.5 -77.5 -44.5s-34.5 -49 -34.5 -81c0 -26 9.16699 -47.833 27.5 -65.5s41.833 -26.5 70.5 -26.5
c48 0 85.167 13.333 111.5 40s39.5 61.334 39.5 104.001zM89.001 566.997l105.997 114c8.66699 6 20.334 9 35.001 9s26.334 -3 35.001 -9l106 -114c16 -16 24 -26.667 24 -32c0 -6.66699 -9.33301 -10 -28 -10c-21.333 0 -37 5 -47 15l-73 74
c-7.33301 7.33301 -13.166 11 -17.499 11s-9.83301 -3.66699 -16.5 -11l-73 -74c-10 -10 -25.667 -15 -47 -15c-18.667 0 -28 3.33301 -28 10c0 5.33301 8 16 24 32z" />
    <glyph glyph-name="atilde" unicode="&#xe3;" horiz-adv-x="500" 
d="M429 284l0.000976562 -161.002c0 -29.333 2.16699 -49.166 6.5 -59.499s13.166 -17.166 26.499 -20.499c14 -4 21 -11 21 -21c0 -7.33301 -2.66699 -12.666 -8 -15.999s-10 -5.16602 -14 -5.49902s-10 -0.5 -18 -0.5h-44c-12 0 -20.667 2.33301 -26 7s-8.5 10 -9.5 16
s-1.5 16.333 -1.5 31v25c-40 -62.667 -95.667 -94 -167 -94c-46.667 0 -86.667 12.5 -120 37.5s-50 60.167 -50 105.5c0 20 4.66699 40.333 14 61s23.833 40.667 43.5 60s47.5 35.166 83.5 47.499s77.333 18.5 124 18.5c26.667 0 48 -1.66699 64 -5
c-2.66699 36.667 -17.5 66.167 -44.5 88.5s-58.833 33.5 -95.5 33.5c-26.667 0 -48.334 -3.83301 -65.001 -11.5s-30 -15.334 -40 -23.001s-19.667 -11.5 -29 -11.5c-18.667 0 -28 8.33301 -28 25c0 14.667 13.333 29 40 43c36.667 17.333 76 26 118 26
c68.667 0 122.334 -17 161.001 -51s58 -82.333 58 -145zM354.001 184.998v80.999c-12.667 2.66699 -29 4 -49 4c-30 0 -59.333 -3.83301 -88 -11.5s-54.5 -22.5 -77.5 -44.5s-34.5 -49 -34.5 -81c0 -26 9.16699 -47.833 27.5 -65.5s41.833 -26.5 70.5 -26.5
c48 0 85.167 13.333 111.5 40s39.5 61.334 39.5 104.001zM248.001 572.997l-41.002 17c-13.333 6 -24 9 -32 9c-15.333 0 -27.666 -8 -36.999 -24c-7.33301 -11.333 -14.666 -17 -21.999 -17c-12 0 -18 7.33301 -18 22c0 20.667 8.16699 39.667 24.5 57s34.5 26 54.5 26
c14.667 0 34.167 -6 58.5 -18s41.5 -18 51.5 -18c14 0 24.667 4 32 12s13.333 16 18 24s10.667 12 18 12c12.667 0 19 -7 19 -21c0 -24.667 -8 -46.167 -24 -64.5s-36 -27.5 -60 -27.5c-10 0 -24 3.66699 -42 11z" />
    <glyph glyph-name="adieresis" unicode="&#xe4;" horiz-adv-x="500" 
d="M429 284l0.000976562 -161.002c0 -29.333 2.16699 -49.166 6.5 -59.499s13.166 -17.166 26.499 -20.499c14 -4 21 -11 21 -21c0 -7.33301 -2.66699 -12.666 -8 -15.999s-10 -5.16602 -14 -5.49902s-10 -0.5 -18 -0.5h-44c-12 0 -20.667 2.33301 -26 7s-8.5 10 -9.5 16
s-1.5 16.333 -1.5 31v25c-40 -62.667 -95.667 -94 -167 -94c-46.667 0 -86.667 12.5 -120 37.5s-50 60.167 -50 105.5c0 20 4.66699 40.333 14 61s23.833 40.667 43.5 60s47.5 35.166 83.5 47.499s77.333 18.5 124 18.5c26.667 0 48 -1.66699 64 -5
c-2.66699 36.667 -17.5 66.167 -44.5 88.5s-58.833 33.5 -95.5 33.5c-26.667 0 -48.334 -3.83301 -65.001 -11.5s-30 -15.334 -40 -23.001s-19.667 -11.5 -29 -11.5c-18.667 0 -28 8.33301 -28 25c0 14.667 13.333 29 40 43c36.667 17.333 76 26 118 26
c68.667 0 122.334 -17 161.001 -51s58 -82.333 58 -145zM354.001 184.998v80.999c-12.667 2.66699 -29 4 -49 4c-30 0 -59.333 -3.83301 -88 -11.5s-54.5 -22.5 -77.5 -44.5s-34.5 -49 -34.5 -81c0 -26 9.16699 -47.833 27.5 -65.5s41.833 -26.5 70.5 -26.5
c48 0 85.167 13.333 111.5 40s39.5 61.334 39.5 104.001zM133.001 541.997c-14.667 0 -27.5 5.16699 -38.5 15.5s-16.5 22.5 -16.5 36.5c0 16 5.16699 29.667 15.5 41s23.5 17 39.5 17s29 -5.33301 39 -16s15 -23.667 15 -39c0 -14 -5.5 -26.667 -16.5 -38
s-23.5 -17 -37.5 -17zM338.001 541.997c-14.667 0 -27.5 5.16699 -38.5 15.5s-16.5 22.5 -16.5 36.5c0 16 5.16699 29.667 15.5 41s23.5 17 39.5 17s29 -5.33301 39 -16s15 -23.667 15 -39c0 -14 -5.5 -26.667 -16.5 -38s-23.5 -17 -37.5 -17z" />
    <glyph glyph-name="aring" unicode="&#xe5;" horiz-adv-x="500" 
d="M429 284l0.000976562 -161.002c0 -29.333 2.16699 -49.166 6.5 -59.499s13.166 -17.166 26.499 -20.499c14 -4 21 -11 21 -21c0 -7.33301 -2.66699 -12.666 -8 -15.999s-10 -5.16602 -14 -5.49902s-10 -0.5 -18 -0.5h-44c-12 0 -20.667 2.33301 -26 7s-8.5 10 -9.5 16
s-1.5 16.333 -1.5 31v25c-40 -62.667 -95.667 -94 -167 -94c-46.667 0 -86.667 12.5 -120 37.5s-50 60.167 -50 105.5c0 20 4.66699 40.333 14 61s23.833 40.667 43.5 60s47.5 35.166 83.5 47.499s77.333 18.5 124 18.5c26.667 0 48 -1.66699 64 -5
c-2.66699 36.667 -17.5 66.167 -44.5 88.5s-58.833 33.5 -95.5 33.5c-26.667 0 -48.334 -3.83301 -65.001 -11.5s-30 -15.334 -40 -23.001s-19.667 -11.5 -29 -11.5c-18.667 0 -28 8.33301 -28 25c0 14.667 13.333 29 40 43c36.667 17.333 76 26 118 26
c68.667 0 122.334 -17 161.001 -51s58 -82.333 58 -145zM354.001 184.998v80.999c-12.667 2.66699 -29 4 -49 4c-30 0 -59.333 -3.83301 -88 -11.5s-54.5 -22.5 -77.5 -44.5s-34.5 -49 -34.5 -81c0 -26 9.16699 -47.833 27.5 -65.5s41.833 -26.5 70.5 -26.5
c48 0 85.167 13.333 111.5 40s39.5 61.334 39.5 104.001zM228.001 535.997c-26 0 -47.6689 8.33496 -65.002 25.002s-26 38 -26 64c0 23.333 8.83301 43.666 26.5 60.999s37.834 26 60.501 26c24.667 0 45.834 -8.33301 63.501 -25s26.5 -37.334 26.5 -62.001
c0 -24 -8.33301 -44.833 -25 -62.5s-37 -26.5 -61 -26.5zM225.999 575.999c14 0 25.501 5 34.501 15s13.5 22.333 13.5 37c0 12.667 -5.33301 23.167 -16 31.5s-22.334 12.5 -35.001 12.5s-23.5 -4.83301 -32.5 -14.5s-13.5 -20.834 -13.5 -33.501
c0 -13.333 4.83301 -24.666 14.5 -33.999s21.167 -14 34.5 -14z" />
    <glyph glyph-name="ae" unicode="&#xe6;" horiz-adv-x="800" 
d="M724 30c-48.667 -30 -97.333 -45.0039 -146 -45.0039c-84.667 0 -150.667 36.667 -198 110c-21.333 -33.333 -49 -60 -83 -80s-70 -30 -108 -30c-44 0 -82.833 13.333 -116.5 40s-50.5 61.334 -50.5 104.001c0 31.333 7.5 58.333 22.5 81s34.667 39.834 59 51.501
s49.166 20.167 74.499 25.5s51.333 8 78 8c33.333 0 66.333 -5 99 -15c0 50.667 -13.5 88.5 -40.5 113.5s-61.167 37.5 -102.5 37.5c-28 0 -54.833 -7.33301 -80.5 -22s-43.167 -22 -52.5 -22c-6 0 -11.333 2.16699 -16 6.5s-7 9.5 -7 15.5c0 23.333 18 41 54 53
s69.333 18 100 18c41.333 0 80.5 -8 117.5 -24s63.833 -40.333 80.5 -73c24 30.667 54.333 54.5 91 71.5s75 25.5 115 25.5c46.667 0 86.834 -11.667 120.501 -35s50.5 -56.666 50.5 -99.999c0 -41.333 -16 -77.5 -48 -108.5s-79 -46.5 -141 -46.5
c-63.333 0 -120 10 -170 30c0 -56.667 15.333 -100.667 46 -132s68 -47 112 -47c26.667 0 51.167 3.83301 73.5 11.5s39.333 15.834 51 24.501l32.5 24.5c10 7.66699 17.333 11.5 22 11.5c5.33301 0 10 -1.83301 14 -5.5s6 -8.16699 6 -13.5c0 -18.667 -19.667 -40 -59 -64z
M426.001 264.996c44.667 -18.667 92 -27.998 142 -27.998c45.333 0 79.5 10.667 102.5 32s34.5 45.666 34.5 72.999c0 31.333 -10.667 54.166 -32 68.499s-46 21.5 -74 21.5c-48.667 0 -89.667 -19 -123 -57s-50 -74.667 -50 -110zM355.001 189.998l0.000976562 45
c-32 8 -63.667 12 -95 12c-16.667 0 -33.5 -1.66699 -50.5 -5s-33.833 -8.83301 -50.5 -16.5s-30.334 -19 -41.001 -34s-16 -32.833 -16 -53.5c0 -29.333 9.5 -52.833 28.5 -70.5s43.167 -26.5 72.5 -26.5c42 0 77.833 13.333 107.5 40s44.5 63 44.5 109z" />
    <glyph glyph-name="ccedilla" unicode="&#xe7;" horiz-adv-x="460" 
d="M265 -14l-11.002 -32.002c12 2 25.667 3 41 3c21.333 0 39.166 -5.83301 53.499 -17.5s21.5 -27.5 21.5 -47.5c0 -26.667 -10.667 -48.667 -32 -66s-50.333 -26 -87 -26c-35.333 0 -66.333 6.16699 -93 18.5s-40 26.5 -40 42.5c0 4.66699 1.83301 8.66699 5.5 12
s7.83398 5 12.501 5c2 0 13.167 -6.33301 33.5 -19s40.833 -19 61.5 -19c15.333 0 30 4 44 12s21 21.333 21 40c0 21.333 -14.333 32 -43 32c-4.66699 0 -10.334 -0.666992 -17.001 -2s-11.667 -2 -15 -2s-6.66602 1.83301 -9.99902 5.5s-5 7.5 -5 11.5c0 8 5 25 15 51
c-59.333 6.66699 -106.166 31.5 -140.499 74.5s-51.5 96.167 -51.5 159.5c0 71.333 22.833 132.166 68.5 182.499s103.834 75.5 174.501 75.5c40 0 75 -9.83301 105 -29.5s45 -41.167 45 -64.5c0 -9.33301 -3.33301 -18.166 -10 -26.499s-14.667 -12.5 -24 -12.5
c-12.667 0 -23.334 4.33301 -32.001 13s-15.667 18.334 -21 29.001s-15.166 20.334 -29.499 29.001s-32.5 13 -54.5 13c-42 0 -76.167 -21.5 -102.5 -64.5s-39.5 -90.167 -39.5 -141.5c0 -50 14 -92.833 42 -128.5s65.333 -53.5 112 -53.5c52 0 93.333 18.333 124 55
c12 15.333 22.667 23 32 23c11.333 0 17 -6 17 -18c0 -25.333 -20 -51 -60 -77s-77 -39.333 -111 -40z" />
    <glyph glyph-name="egrave" unicode="&#xe8;" horiz-adv-x="500" 
d="M113 174c7.33301 -40 26.668 -72 58.001 -96s67.333 -36 108 -36c25.333 0 48.5 4.33301 69.5 13s37 18.334 48 29.001s21.5 20.334 31.5 29.001s17.667 13 23 13s9.83301 -1.83301 13.5 -5.5s5.5 -7.83398 5.5 -12.501c0 -12.667 -6.83301 -26.167 -20.5 -40.5
s-27.834 -26.5 -42.501 -36.5c-45.333 -30.667 -93.333 -46 -144 -46c-66.667 0 -122.667 21.5 -168 64.5s-68 97.5 -68 163.5c0 74 25.667 137 77 189s114 78 188 78c48.667 0 88.167 -12.833 118.5 -38.5s45.5 -55.167 45.5 -88.5c0 -60.667 -40 -106.334 -120 -137.001
c-44 -17.333 -118.333 -31.333 -223 -42zM107.002 217c17.333 1.33301 31.333 2.66797 42 4.00098s26.5 3.66602 47.5 6.99902s38.5 7 52.5 11s29.667 9.66699 47 17s31.333 15.333 42 24s19.667 19.5 27 32.5s11 27.167 11 42.5c0 25.333 -8.33301 44.333 -25 57
s-38 19 -64 19c-58.667 0 -103.5 -20.667 -134.5 -62s-46.167 -92 -45.5 -152zM215.002 648.002l98.001 -56.999c18 -10 27 -18 27 -24c0 -6.66699 -2.5 -13.667 -7.5 -21s-10.167 -11 -15.5 -11c-2.66699 0 -18.334 4.33301 -47.001 13l-114 40
c-10 3.33301 -19.333 8.33301 -28 15s-13 12.667 -13 18c0 11.333 3.5 23.166 10.5 35.499s15.167 18.5 24.5 18.5c11.333 0 33 -9 65 -27z" />
    <glyph glyph-name="eacute" unicode="&#xe9;" horiz-adv-x="500" 
d="M113 174c7.33301 -40 26.668 -72 58.001 -96s67.333 -36 108 -36c25.333 0 48.5 4.33301 69.5 13s37 18.334 48 29.001s21.5 20.334 31.5 29.001s17.667 13 23 13s9.83301 -1.83301 13.5 -5.5s5.5 -7.83398 5.5 -12.501c0 -12.667 -6.83301 -26.167 -20.5 -40.5
s-27.834 -26.5 -42.501 -36.5c-45.333 -30.667 -93.333 -46 -144 -46c-66.667 0 -122.667 21.5 -168 64.5s-68 97.5 -68 163.5c0 74 25.667 137 77 189s114 78 188 78c48.667 0 88.167 -12.833 118.5 -38.5s45.5 -55.167 45.5 -88.5c0 -60.667 -40 -106.334 -120 -137.001
c-44 -17.333 -118.333 -31.333 -223 -42zM107.002 217c17.333 1.33301 31.333 2.66797 42 4.00098s26.5 3.66602 47.5 6.99902s38.5 7 52.5 11s29.667 9.66699 47 17s31.333 15.333 42 24s19.667 19.5 27 32.5s11 27.167 11 42.5c0 25.333 -8.33301 44.333 -25 57
s-38 19 -64 19c-58.667 0 -103.5 -20.667 -134.5 -62s-46.167 -92 -45.5 -152zM187.002 591.002l98.001 56.999c32 18 53.667 27 65 27c9.33301 0 17.5 -6.16699 24.5 -18.5s10.5 -24.166 10.5 -35.499c0 -5.33301 -4.33301 -11.333 -13 -18s-18 -11.667 -28 -15l-114 -40
c-28.667 -8.66699 -44.334 -13 -47.001 -13c-5.33301 0 -10.5 3.66699 -15.5 11s-7.5 14.333 -7.5 21c0 6 9 14 27 24z" />
    <glyph glyph-name="ecircumflex" unicode="&#xea;" horiz-adv-x="500" 
d="M113 174c7.33301 -40 26.668 -72 58.001 -96s67.333 -36 108 -36c25.333 0 48.5 4.33301 69.5 13s37 18.334 48 29.001s21.5 20.334 31.5 29.001s17.667 13 23 13s9.83301 -1.83301 13.5 -5.5s5.5 -7.83398 5.5 -12.501c0 -12.667 -6.83301 -26.167 -20.5 -40.5
s-27.834 -26.5 -42.501 -36.5c-45.333 -30.667 -93.333 -46 -144 -46c-66.667 0 -122.667 21.5 -168 64.5s-68 97.5 -68 163.5c0 74 25.667 137 77 189s114 78 188 78c48.667 0 88.167 -12.833 118.5 -38.5s45.5 -55.167 45.5 -88.5c0 -60.667 -40 -106.334 -120 -137.001
c-44 -17.333 -118.333 -31.333 -223 -42zM107.002 217c17.333 1.33301 31.333 2.66797 42 4.00098s26.5 3.66602 47.5 6.99902s38.5 7 52.5 11s29.667 9.66699 47 17s31.333 15.333 42 24s19.667 19.5 27 32.5s11 27.167 11 42.5c0 25.333 -8.33301 44.333 -25 57
s-38 19 -64 19c-58.667 0 -103.5 -20.667 -134.5 -62s-46.167 -92 -45.5 -152zM119.002 567.002l105.997 114c8.66699 6 20.334 9 35.001 9s26.334 -3 35.001 -9l106 -114c16 -16 24 -26.667 24 -32c0 -6.66699 -9.33301 -10 -28 -10c-21.333 0 -37 5 -47 15l-73 74
c-7.33301 7.33301 -13.166 11 -17.499 11s-9.83301 -3.66699 -16.5 -11l-73 -74c-10 -10 -25.667 -15 -47 -15c-18.667 0 -28 3.33301 -28 10c0 5.33301 8 16 24 32z" />
    <glyph glyph-name="edieresis" unicode="&#xeb;" horiz-adv-x="500" 
d="M113 174c7.33301 -40 26.668 -72 58.001 -96s67.333 -36 108 -36c25.333 0 48.5 4.33301 69.5 13s37 18.334 48 29.001s21.5 20.334 31.5 29.001s17.667 13 23 13s9.83301 -1.83301 13.5 -5.5s5.5 -7.83398 5.5 -12.501c0 -12.667 -6.83301 -26.167 -20.5 -40.5
s-27.834 -26.5 -42.501 -36.5c-45.333 -30.667 -93.333 -46 -144 -46c-66.667 0 -122.667 21.5 -168 64.5s-68 97.5 -68 163.5c0 74 25.667 137 77 189s114 78 188 78c48.667 0 88.167 -12.833 118.5 -38.5s45.5 -55.167 45.5 -88.5c0 -60.667 -40 -106.334 -120 -137.001
c-44 -17.333 -118.333 -31.333 -223 -42zM107.002 217c17.333 1.33301 31.333 2.66797 42 4.00098s26.5 3.66602 47.5 6.99902s38.5 7 52.5 11s29.667 9.66699 47 17s31.333 15.333 42 24s19.667 19.5 27 32.5s11 27.167 11 42.5c0 25.333 -8.33301 44.333 -25 57
s-38 19 -64 19c-58.667 0 -103.5 -20.667 -134.5 -62s-46.167 -92 -45.5 -152zM148.002 542.002c-14.667 0 -27.5 5.16699 -38.5 15.5s-16.5 22.5 -16.5 36.5c0 16 5.16699 29.667 15.5 41s23.5 17 39.5 17s29 -5.33301 39 -16s15 -23.667 15 -39
c0 -14 -5.5 -26.667 -16.5 -38s-23.5 -17 -37.5 -17zM353.002 542.002c-14.667 0 -27.5 5.16699 -38.5 15.5s-16.5 22.5 -16.5 36.5c0 16 5.16699 29.667 15.5 41s23.5 17 39.5 17s29 -5.33301 39 -16s15 -23.667 15 -39c0 -14 -5.5 -26.667 -16.5 -38s-23.5 -17 -37.5 -17z
" />
    <glyph glyph-name="igrave" unicode="&#xec;" horiz-adv-x="240" 
d="M89 108l0.00195312 212.001c0 18 -0.5 31 -1.5 39s-4.16699 16 -9.5 24s-14 13 -26 15c-18 3.33301 -27 9.66602 -27 18.999c0 6.66699 3.66699 12.834 11 18.501s24.666 14.834 51.999 27.501c24.667 11.333 40 17 46 17c6.66699 0 11.667 -1.33301 15 -4
s6.66602 -13.834 9.99902 -33.501s5 -48.834 5 -87.501v-232c0 -30 1.33301 -49.167 4 -57.5s9.66699 -14.833 21 -19.5c9.33301 -3.33301 16 -6.5 20 -9.5s6 -7.83301 6 -14.5c0 -14.667 -11 -22 -33 -22h-113c-22.667 -0 -34 7.33301 -34 22
c0 10.667 6.33301 17.667 19 21c16 4 25.833 10.167 29.5 18.5s5.5 23.833 5.5 46.5zM85.002 648.001l98.001 -56.999c18 -10 27 -18 27 -24c0 -6.66699 -2.5 -13.667 -7.5 -21s-10.167 -11 -15.5 -11c-2.66699 0 -18.334 4.33301 -47.001 13l-114 40
c-10 3.33301 -19.333 8.33301 -28 15s-13 12.667 -13 18c0 11.333 3.5 23.166 10.5 35.499s15.167 18.5 24.5 18.5c11.333 0 33 -9 65 -27z" />
    <glyph glyph-name="iacute" unicode="&#xed;" horiz-adv-x="240" 
d="M89 108l0.00195312 212.001c0 18 -0.5 31 -1.5 39s-4.16699 16 -9.5 24s-14 13 -26 15c-18 3.33301 -27 9.66602 -27 18.999c0 6.66699 3.66699 12.834 11 18.501s24.666 14.834 51.999 27.501c24.667 11.333 40 17 46 17c6.66699 0 11.667 -1.33301 15 -4
s6.66602 -13.834 9.99902 -33.501s5 -48.834 5 -87.501v-232c0 -30 1.33301 -49.167 4 -57.5s9.66699 -14.833 21 -19.5c9.33301 -3.33301 16 -6.5 20 -9.5s6 -7.83301 6 -14.5c0 -14.667 -11 -22 -33 -22h-113c-22.667 -0 -34 7.33301 -34 22
c0 10.667 6.33301 17.667 19 21c16 4 25.833 10.167 29.5 18.5s5.5 23.833 5.5 46.5zM57.002 591.001l98.001 56.999c32 18 53.667 27 65 27c9.33301 0 17.5 -6.16699 24.5 -18.5s10.5 -24.166 10.5 -35.499c0 -5.33301 -4.33301 -11.333 -13 -18s-18 -11.667 -28 -15
l-114 -40c-28.667 -8.66699 -44.334 -13 -47.001 -13c-5.33301 0 -10.5 3.66699 -15.5 11s-7.5 14.333 -7.5 21c0 6 9 14 27 24z" />
    <glyph glyph-name="icircumflex" unicode="&#xee;" horiz-adv-x="240" 
d="M89 108l0.00195312 212.001c0 18 -0.5 31 -1.5 39s-4.16699 16 -9.5 24s-14 13 -26 15c-18 3.33301 -27 9.66602 -27 18.999c0 6.66699 3.66699 12.834 11 18.501s24.666 14.834 51.999 27.501c24.667 11.333 40 17 46 17c6.66699 0 11.667 -1.33301 15 -4
s6.66602 -13.834 9.99902 -33.501s5 -48.834 5 -87.501v-232c0 -30 1.33301 -49.167 4 -57.5s9.66699 -14.833 21 -19.5c9.33301 -3.33301 16 -6.5 20 -9.5s6 -7.83301 6 -14.5c0 -14.667 -11 -22 -33 -22h-113c-22.667 -0 -34 7.33301 -34 22
c0 10.667 6.33301 17.667 19 21c16 4 25.833 10.167 29.5 18.5s5.5 23.833 5.5 46.5zM-20.998 567.001l105.998 114c9.33301 6 21 9 35 9c14.667 0 26.334 -3 35.001 -9l106 -114c16 -16 24 -26.667 24 -32c0 -6.66699 -9.33301 -10 -28 -10c-21.333 0 -37 5 -47 15l-73 74
c-7.33301 7.33301 -13.166 11 -17.499 11s-9.83301 -3.66699 -16.5 -11l-73 -74c-10 -10 -25.667 -15 -47 -15c-18.667 0 -28 3.33301 -28 10c0 5.33301 8 16 24 32z" />
    <glyph glyph-name="idieresis" unicode="&#xef;" horiz-adv-x="240" 
d="M89 108l0.00195312 212.001c0 18 -0.5 31 -1.5 39s-4.16699 16 -9.5 24s-14 13 -26 15c-18 3.33301 -27 9.66602 -27 18.999c0 6.66699 3.66699 12.834 11 18.501s24.666 14.834 51.999 27.501c24.667 11.333 40 17 46 17c6.66699 0 11.667 -1.33301 15 -4
s6.66602 -13.834 9.99902 -33.501s5 -48.834 5 -87.501v-232c0 -30 1.33301 -49.167 4 -57.5s9.66699 -14.833 21 -19.5c9.33301 -3.33301 16 -6.5 20 -9.5s6 -7.83301 6 -14.5c0 -14.667 -11 -22 -33 -22h-113c-22.667 -0 -34 7.33301 -34 22
c0 10.667 6.33301 17.667 19 21c16 4 25.833 10.167 29.5 18.5s5.5 23.833 5.5 46.5zM18.002 542.001c-14.667 0 -27.5 5.16699 -38.5 15.5s-16.5 22.5 -16.5 36.5c0 16 5.16699 29.667 15.5 41s23.5 17 39.5 17s29 -5.33301 39 -16s15 -23.667 15 -39
c0 -14 -5.5 -26.667 -16.5 -38s-23.5 -17 -37.5 -17zM223.002 542.001c-14.667 0 -27.5 5.16699 -38.5 15.5s-16.5 22.5 -16.5 36.5c0 16 5.16699 29.667 15.5 41s23.5 17 39.5 17s29 -5.33301 39 -16s15 -23.667 15 -39c0 -14 -5.5 -26.667 -16.5 -38s-23.5 -17 -37.5 -17z
" />
    <glyph glyph-name="eth" unicode="&#xf0;" horiz-adv-x="570" 
d="M111 225c0 -48.667 15.001 -92.6689 45.001 -132.002s69.667 -59 119 -59c34 0 63.667 7.5 89 22.5s44.166 33.833 56.499 56.5s21.166 44.334 26.499 65.001s8 40 8 58c0 62.667 -16.167 110.834 -48.5 144.501s-76.166 50.5 -131.499 50.5
c-52.667 0 -93.167 -21.5 -121.5 -64.5s-42.5 -90.167 -42.5 -141.5zM340.001 615.998l-163.998 -81.001c-20.667 -12 -37.667 -13.333 -51 -4c-8 5.33301 -10 12.833 -6 22.5s12.333 17.834 25 24.501l149 72c-48 30 -105.667 47 -173 51
c-30.667 2.66699 -48.334 6 -53.001 10s-7 10 -7 18c0 8.66699 3.16699 14.334 9.5 17.001s16.833 4 31.5 4c100.667 0 186 -23 256 -69l137 67c14.667 7.33301 28 6 40 -4c14 -10.667 9 -23.667 -15 -39l-116 -58c90.667 -77.333 136 -181.333 136 -312
c0 -66 -8.83301 -124.5 -26.5 -175.5s-46.834 -92.833 -87.501 -125.5s-90.667 -49 -150 -49c-73.333 0 -132.333 23.667 -177 71s-67 107.333 -67 180c0 66 21.333 123.167 64 171.5s101 72.5 175 72.5c83.333 0 143.333 -25 180 -75
c-9.33301 89.333 -46 159.666 -110 210.999z" />
    <glyph glyph-name="ntilde" unicode="&#xf1;" horiz-adv-x="560" 
d="M79 123l0.00292969 201.999c0 24.667 -1.33301 41.834 -4 51.501s-8.33398 15.834 -17.001 18.501c-20.667 7.33301 -31.667 13.333 -33 18c-0.666992 1.33301 -1 2.66602 -1 3.99902c0 8.66699 8.33301 19.667 25 33c26.667 20 43.667 30 51 30c12 0 21 -7 27 -21
s11 -36 15 -66c46 58 104.333 87 175 87c52.667 0 95.667 -18 129 -54c27.333 -30.667 41 -77 41 -139v-164c0 -27.333 1.16699 -45.833 3.5 -55.5s7.16602 -15.834 14.499 -18.501c13.333 -4.66699 22.166 -8.66699 26.499 -12s6.5 -8 6.5 -14
c0 -7.33301 -2.66699 -13 -8 -17s-11.333 -6 -18 -6h-109c-2 0 -4.83301 -0.166992 -8.5 -0.5s-6.5 -0.5 -8.5 -0.5s-4.5 0.333008 -7.5 1s-5.33301 1.83398 -7 3.50098s-3 4.16699 -4 7.5s-1.5 7.33301 -1.5 12c0 7.33301 5.33301 14 16 20l10 5c8 4 13.333 11 16 21
s4 28 4 54v183c0 38 -10 67.333 -30 88s-48.667 31 -86 31c-42 0 -78.667 -14 -110 -42c-14 -12.667 -22.833 -26 -26.5 -40s-5.5 -32.333 -5.5 -55v-165c0 -29.333 1.16699 -48.333 3.5 -57s8.83301 -15 19.5 -19c11.333 -4 19.166 -7.5 23.499 -10.5s6.5 -7.5 6.5 -13.5
c0 -15.333 -8.66699 -23 -26 -23h-117c-25.333 0 -38 7.66699 -38 23c0 5.33301 1.83301 9.5 5.5 12.5s10.834 6.5 21.501 10.5s17.667 10.5 21 19.5s5 28.167 5 57.5zM283.003 572.999l-41.002 17c-13.333 6 -24 9 -32 9c-15.333 0 -27.666 -8 -36.999 -24
c-7.33301 -11.333 -14.666 -17 -21.999 -17c-12 0 -18 7.33301 -18 22c0 20.667 8.16699 39.667 24.5 57s34.5 26 54.5 26c14.667 0 34.167 -6 58.5 -18s41.5 -18 51.5 -18c14 0 24.667 4 32 12s13.333 16 18 24s10.667 12 18 12c12.667 0 19 -7 19 -21
c0 -24.667 -8 -46.167 -24 -64.5s-36 -27.5 -60 -27.5c-10 0 -24 3.66699 -42 11z" />
    <glyph glyph-name="ograve" unicode="&#xf2;" horiz-adv-x="560" 
d="M281 480c68 0 126.333 -23.833 175 -71.5s73 -105.167 73 -172.5c0 -71.333 -24.333 -131 -73 -179s-108.667 -72 -180 -72c-68 0 -125.833 24.167 -173.5 72.5s-71.5 106.5 -71.5 174.5c0 67.333 24.833 125.5 74.5 174.5s108.167 73.5 175.5 73.5zM279 431
c-54.667 0 -96.333 -19.833 -125 -59.5s-43 -87.5 -43 -143.5c0 -54.667 14.5 -100.667 43.5 -138s69.833 -56 122.5 -56c46 0 86.167 18.333 120.5 55s51.5 86 51.5 148c0 54.667 -15 100.667 -45 138s-71.667 56 -125 56zM245.001 648l98.001 -56.999
c18 -10 27 -18 27 -24c0 -6.66699 -2.5 -13.667 -7.5 -21s-10.167 -11 -15.5 -11c-2.66699 0 -18.334 4.33301 -47.001 13l-114 40c-10 3.33301 -19.333 8.33301 -28 15s-13 12.667 -13 18c0 11.333 3.5 23.166 10.5 35.499s15.167 18.5 24.5 18.5c11.333 0 33 -9 65 -27z
" />
    <glyph glyph-name="oacute" unicode="&#xf3;" horiz-adv-x="560" 
d="M281 480c68 0 126.333 -23.833 175 -71.5s73 -105.167 73 -172.5c0 -71.333 -24.333 -131 -73 -179s-108.667 -72 -180 -72c-68 0 -125.833 24.167 -173.5 72.5s-71.5 106.5 -71.5 174.5c0 67.333 24.833 125.5 74.5 174.5s108.167 73.5 175.5 73.5zM279 431
c-54.667 0 -96.333 -19.833 -125 -59.5s-43 -87.5 -43 -143.5c0 -54.667 14.5 -100.667 43.5 -138s69.833 -56 122.5 -56c46 0 86.167 18.333 120.5 55s51.5 86 51.5 148c0 54.667 -15 100.667 -45 138s-71.667 56 -125 56zM217.001 591l98.001 56.999
c32 18 53.667 27 65 27c9.33301 0 17.5 -6.16699 24.5 -18.5s10.5 -24.166 10.5 -35.499c0 -5.33301 -4.33301 -11.333 -13 -18s-18 -11.667 -28 -15l-114 -40c-28.667 -8.66699 -44.334 -13 -47.001 -13c-5.33301 0 -10.5 3.66699 -15.5 11s-7.5 14.333 -7.5 21
c0 6 9 14 27 24z" />
    <glyph glyph-name="ocircumflex" unicode="&#xf4;" horiz-adv-x="560" 
d="M281 480c68 0 126.333 -23.833 175 -71.5s73 -105.167 73 -172.5c0 -71.333 -24.333 -131 -73 -179s-108.667 -72 -180 -72c-68 0 -125.833 24.167 -173.5 72.5s-71.5 106.5 -71.5 174.5c0 67.333 24.833 125.5 74.5 174.5s108.167 73.5 175.5 73.5zM279 431
c-54.667 0 -96.333 -19.833 -125 -59.5s-43 -87.5 -43 -143.5c0 -54.667 14.5 -100.667 43.5 -138s69.833 -56 122.5 -56c46 0 86.167 18.333 120.5 55s51.5 86 51.5 148c0 54.667 -15 100.667 -45 138s-71.667 56 -125 56zM119.001 567l105.997 114
c8.66699 6 20.334 9 35.001 9s26.334 -3 35.001 -9l106 -114c16 -16 24 -26.667 24 -32c0 -6.66699 -9.33301 -10 -28 -10c-21.333 0 -37 5 -47 15l-73 74c-7.33301 7.33301 -13.166 11 -17.499 11s-9.83301 -3.66699 -16.5 -11l-73 -74c-10 -10 -25.667 -15 -47 -15
c-18.667 0 -28 3.33301 -28 10c0 5.33301 8 16 24 32z" />
    <glyph glyph-name="otilde" unicode="&#xf5;" horiz-adv-x="560" 
d="M281 480c68 0 126.333 -23.833 175 -71.5s73 -105.167 73 -172.5c0 -71.333 -24.333 -131 -73 -179s-108.667 -72 -180 -72c-68 0 -125.833 24.167 -173.5 72.5s-71.5 106.5 -71.5 174.5c0 67.333 24.833 125.5 74.5 174.5s108.167 73.5 175.5 73.5zM279 431
c-54.667 0 -96.333 -19.833 -125 -59.5s-43 -87.5 -43 -143.5c0 -54.667 14.5 -100.667 43.5 -138s69.833 -56 122.5 -56c46 0 86.167 18.333 120.5 55s51.5 86 51.5 148c0 54.667 -15 100.667 -45 138s-71.667 56 -125 56zM293.001 573l-41.002 17c-13.333 6 -24 9 -32 9
c-15.333 0 -27.666 -8 -36.999 -24c-7.33301 -11.333 -14.666 -17 -21.999 -17c-12 0 -18 7.33301 -18 22c0 20.667 8.16699 39.667 24.5 57s34.5 26 54.5 26c14.667 0 34.167 -6 58.5 -18s41.5 -18 51.5 -18c14 0 24.667 4 32 12s13.333 16 18 24s10.667 12 18 12
c12.667 0 19 -7 19 -21c0 -24.667 -8 -46.167 -24 -64.5s-36 -27.5 -60 -27.5c-10 0 -24 3.66699 -42 11z" />
    <glyph glyph-name="odieresis" unicode="&#xf6;" horiz-adv-x="560" 
d="M281 480c68 0 126.333 -23.833 175 -71.5s73 -105.167 73 -172.5c0 -71.333 -24.333 -131 -73 -179s-108.667 -72 -180 -72c-68 0 -125.833 24.167 -173.5 72.5s-71.5 106.5 -71.5 174.5c0 67.333 24.833 125.5 74.5 174.5s108.167 73.5 175.5 73.5zM279 431
c-54.667 0 -96.333 -19.833 -125 -59.5s-43 -87.5 -43 -143.5c0 -54.667 14.5 -100.667 43.5 -138s69.833 -56 122.5 -56c46 0 86.167 18.333 120.5 55s51.5 86 51.5 148c0 54.667 -15 100.667 -45 138s-71.667 56 -125 56zM178.001 542c-14.667 0 -27.5 5.16699 -38.5 15.5
s-16.5 22.5 -16.5 36.5c0 16 5.16699 29.667 15.5 41s23.5 17 39.5 17s29 -5.33301 39 -16s15 -23.667 15 -39c0 -14 -5.5 -26.667 -16.5 -38s-23.5 -17 -37.5 -17zM383.001 542c-14.667 0 -27.5 5.16699 -38.5 15.5s-16.5 22.5 -16.5 36.5c0 16 5.16699 29.667 15.5 41
s23.5 17 39.5 17s29 -5.33301 39 -16s15 -23.667 15 -39c0 -14 -5.5 -26.667 -16.5 -38s-23.5 -17 -37.5 -17z" />
    <glyph glyph-name="divide" unicode="&#xf7;" horiz-adv-x="660" 
d="M70 229v63h520v-63h-520zM331 370c-15.333 0 -27.999 5.33301 -37.999 16s-15 23.667 -15 39c0 14.667 5.16699 27 15.5 37s22.833 15 37.5 15c15.333 0 28.166 -5.33301 38.499 -16s15.5 -23.667 15.5 -39c0 -14 -5.5 -26.167 -16.5 -36.5s-23.5 -15.5 -37.5 -15.5z
M331.001 44c-15.333 0 -27.999 5.33301 -37.999 16s-15 23.667 -15 39c0 14.667 5.16699 27 15.5 37s22.833 15 37.5 15c15.333 0 28.166 -5.33301 38.499 -16s15.5 -23.667 15.5 -39c0 -14 -5.5 -26.167 -16.5 -36.5s-23.5 -15.5 -37.5 -15.5z" />
    <glyph glyph-name="oslash" unicode="&#xf8;" horiz-adv-x="560" 
d="M114 49l-22.001 -22.999c-2 -1.33301 -4.83301 -4 -8.5 -8s-6.66699 -7.16699 -9 -9.5s-5.33301 -4.5 -9 -6.5s-7.5 -3 -11.5 -3c-5.33301 0 -9.66602 2 -12.999 6s-5 8.66699 -5 14c0 3.33301 1 6.83301 3 10.5s4 6.5 6 8.5s5.16699 5 9.5 9s6.83301 6.33301 7.5 7
l24 23c-36 49.333 -54 99.666 -54 150.999c0 70 24.333 129.5 73 178.5s108 73.5 178 73.5c60.667 0 113 -19 157 -57l43 44c9.33301 9.33301 16.666 14 21.999 14s10.5 -1.83301 15.5 -5.5s7.5 -7.83398 7.5 -12.501c0 -6.66699 -6 -16 -18 -28l-41 -40
c38.667 -46 58 -99.667 58 -161c0 -67.333 -23.667 -125.666 -71 -174.999s-104.666 -74 -171.999 -74c-62 0 -118.667 21.333 -170 64zM420.999 348.001l-265 -260.001c34.667 -36.667 76 -55 124 -55c52.667 0 93.667 20.833 123 62.5s44 90.167 44 145.5
c0 36.667 -8.66699 72.334 -26 107.001zM134.999 124l263.001 258c-34.667 33.333 -73.334 50 -116.001 50c-55.333 0 -97.5 -20.167 -126.5 -60.5s-43.5 -89.166 -43.5 -146.499c0 -32.667 7.66699 -66.334 23 -101.001z" />
    <glyph glyph-name="ugrave" unicode="&#xf9;" horiz-adv-x="520" 
d="M381 180l-0.00390625 164.998c0 15.333 -0.166992 26.666 -0.5 33.999s-2.16602 15.333 -5.49902 24s-8 14.667 -14 18c-14 8 -21 15 -21 21c0 8.66699 7.66699 16.334 23 23.001c21.333 10 43 15 65 15c13.333 0 21.333 -8.16699 24 -24.5s4 -53.166 4 -110.499v-223
c0 -30 1.5 -49.167 4.5 -57.5s8.5 -13.833 16.5 -16.5c9.33301 -3.33301 15.833 -6 19.5 -8s6.83398 -4.5 9.50098 -7.5s4 -6.5 4 -10.5c0 -9.33301 -2 -15.333 -6 -18s-10.667 -4 -20 -4h-70c-9.33301 0 -16 2.66699 -20 8s-6.33301 11.833 -7 19.5s-1 21.167 -1 40.5
c-52 -55.333 -108.667 -83 -170 -83c-11.333 0 -22.666 1 -33.999 3s-24.5 6.83301 -39.5 14.5s-28 18 -39 31s-20.5 31.833 -28.5 56.5s-12 53.334 -12 86.001v169c0 15.333 -0.166992 26.666 -0.5 33.999s-2.16602 15.333 -5.49902 24s-8 14.667 -14 18
c-2 1.33301 -5 3 -9 5l-9 4.5c-2 1 -3.83301 2.5 -5.5 4.5s-2.5 4.33301 -2.5 7c0 1.33301 0.333008 2.83301 1 4.5s1.33398 3 2.00098 4s1.66699 2 3 3s2.5 1.83301 3.5 2.5s2.5 1.5 4.5 2.5s3.5 1.83301 4.5 2.5s2.66699 1.5 5 2.5s3.83301 1.5 4.5 1.5
c21.333 10 43 15 65 15c13.333 0 21.333 -8.16699 24 -24.5s4 -53.166 4 -110.499v-165c0 -93.333 32.333 -140 97 -140c21.333 0 43.666 4.83301 66.999 14.5s42.333 22.5 57 38.5c10 10.667 16.167 21.667 18.5 33s3.5 29.333 3.5 54zM204.996 647.998l98.001 -56.999
c18 -10 27 -18 27 -24c0 -6.66699 -2.5 -13.667 -7.5 -21s-10.167 -11 -15.5 -11c-2.66699 0 -18.334 4.33301 -47.001 13l-114 40c-10 3.33301 -19.333 8.33301 -28 15s-13 12.667 -13 18c0 11.333 3.5 23.166 10.5 35.499s15.167 18.5 24.5 18.5c11.333 0 33 -9 65 -27z
" />
    <glyph glyph-name="uacute" unicode="&#xfa;" horiz-adv-x="520" 
d="M381 180l-0.00390625 164.998c0 15.333 -0.166992 26.666 -0.5 33.999s-2.16602 15.333 -5.49902 24s-8 14.667 -14 18c-14 8 -21 15 -21 21c0 8.66699 7.66699 16.334 23 23.001c21.333 10 43 15 65 15c13.333 0 21.333 -8.16699 24 -24.5s4 -53.166 4 -110.499v-223
c0 -30 1.5 -49.167 4.5 -57.5s8.5 -13.833 16.5 -16.5c9.33301 -3.33301 15.833 -6 19.5 -8s6.83398 -4.5 9.50098 -7.5s4 -6.5 4 -10.5c0 -9.33301 -2 -15.333 -6 -18s-10.667 -4 -20 -4h-70c-9.33301 0 -16 2.66699 -20 8s-6.33301 11.833 -7 19.5s-1 21.167 -1 40.5
c-52 -55.333 -108.667 -83 -170 -83c-11.333 0 -22.666 1 -33.999 3s-24.5 6.83301 -39.5 14.5s-28 18 -39 31s-20.5 31.833 -28.5 56.5s-12 53.334 -12 86.001v169c0 15.333 -0.166992 26.666 -0.5 33.999s-2.16602 15.333 -5.49902 24s-8 14.667 -14 18
c-2 1.33301 -5 3 -9 5l-9 4.5c-2 1 -3.83301 2.5 -5.5 4.5s-2.5 4.33301 -2.5 7c0 1.33301 0.333008 2.83301 1 4.5s1.33398 3 2.00098 4s1.66699 2 3 3s2.5 1.83301 3.5 2.5s2.5 1.5 4.5 2.5s3.5 1.83301 4.5 2.5s2.66699 1.5 5 2.5s3.83301 1.5 4.5 1.5
c21.333 10 43 15 65 15c13.333 0 21.333 -8.16699 24 -24.5s4 -53.166 4 -110.499v-165c0 -93.333 32.333 -140 97 -140c21.333 0 43.666 4.83301 66.999 14.5s42.333 22.5 57 38.5c10 10.667 16.167 21.667 18.5 33s3.5 29.333 3.5 54zM196.996 590.998l98.001 56.999
c32 18 53.667 27 65 27c9.33301 0 17.5 -6.16699 24.5 -18.5s10.5 -24.166 10.5 -35.499c0 -5.33301 -4.33301 -11.333 -13 -18s-18 -11.667 -28 -15l-114 -40c-28.667 -8.66699 -44.334 -13 -47.001 -13c-5.33301 0 -10.5 3.66699 -15.5 11s-7.5 14.333 -7.5 21
c0 6 9 14 27 24z" />
    <glyph glyph-name="ucircumflex" unicode="&#xfb;" horiz-adv-x="520" 
d="M381 180l-0.00390625 164.998c0 15.333 -0.166992 26.666 -0.5 33.999s-2.16602 15.333 -5.49902 24s-8 14.667 -14 18c-14 8 -21 15 -21 21c0 8.66699 7.66699 16.334 23 23.001c21.333 10 43 15 65 15c13.333 0 21.333 -8.16699 24 -24.5s4 -53.166 4 -110.499v-223
c0 -30 1.5 -49.167 4.5 -57.5s8.5 -13.833 16.5 -16.5c9.33301 -3.33301 15.833 -6 19.5 -8s6.83398 -4.5 9.50098 -7.5s4 -6.5 4 -10.5c0 -9.33301 -2 -15.333 -6 -18s-10.667 -4 -20 -4h-70c-9.33301 0 -16 2.66699 -20 8s-6.33301 11.833 -7 19.5s-1 21.167 -1 40.5
c-52 -55.333 -108.667 -83 -170 -83c-11.333 0 -22.666 1 -33.999 3s-24.5 6.83301 -39.5 14.5s-28 18 -39 31s-20.5 31.833 -28.5 56.5s-12 53.334 -12 86.001v169c0 15.333 -0.166992 26.666 -0.5 33.999s-2.16602 15.333 -5.49902 24s-8 14.667 -14 18
c-2 1.33301 -5 3 -9 5l-9 4.5c-2 1 -3.83301 2.5 -5.5 4.5s-2.5 4.33301 -2.5 7c0 1.33301 0.333008 2.83301 1 4.5s1.33398 3 2.00098 4s1.66699 2 3 3s2.5 1.83301 3.5 2.5s2.5 1.5 4.5 2.5s3.5 1.83301 4.5 2.5s2.66699 1.5 5 2.5s3.83301 1.5 4.5 1.5
c21.333 10 43 15 65 15c13.333 0 21.333 -8.16699 24 -24.5s4 -53.166 4 -110.499v-165c0 -93.333 32.333 -140 97 -140c21.333 0 43.666 4.83301 66.999 14.5s42.333 22.5 57 38.5c10 10.667 16.167 21.667 18.5 33s3.5 29.333 3.5 54zM98.9961 566.998l105.998 114
c9.33301 6 21 9 35 9c14.667 0 26.334 -3 35.001 -9l106 -114c16 -16 24 -26.667 24 -32c0 -6.66699 -9.33301 -10 -28 -10c-21.333 0 -37 5 -47 15l-73 74c-7.33301 7.33301 -13.166 11 -17.499 11s-9.83301 -3.66699 -16.5 -11l-73 -74c-10 -10 -25.667 -15 -47 -15
c-18.667 0 -28 3.33301 -28 10c0 5.33301 8 16 24 32z" />
    <glyph glyph-name="udieresis" unicode="&#xfc;" horiz-adv-x="520" 
d="M381 180l-0.00390625 164.998c0 15.333 -0.166992 26.666 -0.5 33.999s-2.16602 15.333 -5.49902 24s-8 14.667 -14 18c-14 8 -21 15 -21 21c0 8.66699 7.66699 16.334 23 23.001c21.333 10 43 15 65 15c13.333 0 21.333 -8.16699 24 -24.5s4 -53.166 4 -110.499v-223
c0 -30 1.5 -49.167 4.5 -57.5s8.5 -13.833 16.5 -16.5c9.33301 -3.33301 15.833 -6 19.5 -8s6.83398 -4.5 9.50098 -7.5s4 -6.5 4 -10.5c0 -9.33301 -2 -15.333 -6 -18s-10.667 -4 -20 -4h-70c-9.33301 0 -16 2.66699 -20 8s-6.33301 11.833 -7 19.5s-1 21.167 -1 40.5
c-52 -55.333 -108.667 -83 -170 -83c-11.333 0 -22.666 1 -33.999 3s-24.5 6.83301 -39.5 14.5s-28 18 -39 31s-20.5 31.833 -28.5 56.5s-12 53.334 -12 86.001v169c0 15.333 -0.166992 26.666 -0.5 33.999s-2.16602 15.333 -5.49902 24s-8 14.667 -14 18
c-2 1.33301 -5 3 -9 5l-9 4.5c-2 1 -3.83301 2.5 -5.5 4.5s-2.5 4.33301 -2.5 7c0 1.33301 0.333008 2.83301 1 4.5s1.33398 3 2.00098 4s1.66699 2 3 3s2.5 1.83301 3.5 2.5s2.5 1.5 4.5 2.5s3.5 1.83301 4.5 2.5s2.66699 1.5 5 2.5s3.83301 1.5 4.5 1.5
c21.333 10 43 15 65 15c13.333 0 21.333 -8.16699 24 -24.5s4 -53.166 4 -110.499v-165c0 -93.333 32.333 -140 97 -140c21.333 0 43.666 4.83301 66.999 14.5s42.333 22.5 57 38.5c10 10.667 16.167 21.667 18.5 33s3.5 29.333 3.5 54zM147.996 541.998
c-14.667 0 -27.5 5.16699 -38.5 15.5s-16.5 22.5 -16.5 36.5c0 16 5.16699 29.667 15.5 41s23.5 17 39.5 17s29 -5.33301 39 -16s15 -23.667 15 -39c0 -14 -5.5 -26.667 -16.5 -38s-23.5 -17 -37.5 -17zM352.996 541.998c-14.667 0 -27.5 5.16699 -38.5 15.5
s-16.5 22.5 -16.5 36.5c0 16 5.16699 29.667 15.5 41s23.5 17 39.5 17s29 -5.33301 39 -16s15 -23.667 15 -39c0 -14 -5.5 -26.667 -16.5 -38s-23.5 -17 -37.5 -17z" />
    </font>
</defs>
</svg>
