<?xml version="1.0" standalone="no"?>
<!DOCTYPE svg PUBLIC "-//W3C//DTD SVG 1.1//EN" "http://www.w3.org/Graphics/SVG/1.1/DTD/svg11.dtd" >
<svg>
<metadata>
Created by FontForge 20090914 at Mon Oct 14 21:47:25 2013
 By www-data
&#194;&#169; 1989, 1990, 2001, 2002 Adobe Systems Incorporated. All rights reserved.
</metadata>
<defs>
<font id="SouvenirStd-Medium" horiz-adv-x="640" >
  <font-face 
    font-family="ITC Souvenir Std Medium"
    font-weight="500"
    font-stretch="normal"
    units-per-em="1000"
    panose-1="2 8 7 3 5 5 10 2 2 4"
    ascent="762"
    descent="-238"
    x-height="478"
    cap-height="731.999"
    bbox="-167 -225 1018 966.001"
    underline-thickness="50"
    underline-position="-50"
    unicode-range="U+0020-U+FB02"
  />
<missing-glyph horiz-adv-x="500" 
d="M0 0v700h500v-700h-500zM250 395l170 255h-340zM280 350l170 -255v510zM80 50h340l-170 255zM50 605v-510l170 255z" />
    <glyph glyph-name="f_i" unicode="fi" horiz-adv-x="590" 
d="M92 100v313.999h-34c-25.333 0 -38 10.667 -38 32s12.667 32 38 32h35v44c0 84.667 20.667 147.167 62 187.5s99 60.5 173 60.5c62.667 0 112.667 -13.5 150 -40.5s56 -64.167 56 -111.5c0 -19.333 -7 -34.833 -21 -46.5s-32.333 -17.5 -55 -17.5
c-22 0 -40.5 6.33301 -55.5 19s-22.5 27.667 -22.5 45c0 4.66699 1 11.167 3 19.5s3 14.5 3 18.5c0 11.333 -6.83301 20.833 -20.5 28.5s-30.834 11.5 -51.501 11.5c-32.667 0 -56.5 -8.33301 -71.5 -25s-22.5 -43.667 -22.5 -81v-112h271
c12.667 0 21.834 -3.66699 27.501 -11s8.5 -19.666 8.5 -36.999v-331c0 -14.667 2.5 -25.834 7.5 -33.501s10.333 -12.167 16 -13.5s11 -4 16 -8s7.5 -10 7.5 -18c0 -17.333 -12.333 -26 -37 -26h-150c-24.667 0 -37 8.66699 -37 26c0 8 2.5 14 7.5 18s10.333 6.66699 16 8
s11 5.83301 16 13.5s7.5 18.834 7.5 33.501v249c0 26 -3.83301 43.5 -11.5 52.5s-21.5 13.5 -41.5 13.5h-122v-314c0 -14.667 2.5 -25.834 7.5 -33.501s10.333 -12.167 16 -13.5s11 -4 16 -8s7.5 -10 7.5 -18c0 -18 -12.333 -27 -37 -27h-150c-24.667 0 -37 9 -37 27
c0 8 2.5 14 7.5 18s10.333 6.66699 16 8s11 5.83301 16 13.5s7.5 18.834 7.5 33.501z" />
    <glyph glyph-name="f_l" unicode="fl" horiz-adv-x="610" 
d="M92 100l0.00195312 314h-34c-25.333 0 -38 10.667 -38 32s12.667 32 38 32h35v36c0 92.667 15.667 158.5 47 197.5s82.666 58.5 153.999 58.5c53.333 0 97.333 -9.33301 132 -28c17.333 6.66699 31.666 11.667 42.999 15c15.333 3.33301 28.666 5 39.999 5
c14.667 0 24.334 -5 29.001 -15s7 -27 7 -51v-596c0 -14.667 2.5 -25.834 7.5 -33.501s10.333 -12.167 16 -13.5s11 -4 16 -8s7.5 -10 7.5 -18c0 -18 -12.333 -27 -37 -27h-150c-24.667 0 -37 9 -37 27c0 8 2.5 14 7.5 18s10.333 6.66699 16 8s11 5.83301 16 13.5
s7.5 18.834 7.5 33.501v508c0 24.667 -10 45.5 -30 62.5s-45.667 25.5 -77 25.5c-28.667 0 -50.5 -8.66699 -65.5 -26s-22.5 -47 -22.5 -89v-103h67c25.333 0 38 -10.667 38 -32s-12.667 -32 -38 -32h-65v-314c0 -14.667 2.5 -25.834 7.5 -33.501s10.333 -12.167 16 -13.5
s11 -4 16 -8s7.5 -10 7.5 -18c0 -18 -12.333 -27 -37 -27h-150c-24.667 0 -37 9 -37 27c0 8 2.5 14 7.5 18s10.333 6.66699 16 8s11 5.83301 16 13.5s7.5 18.834 7.5 33.501z" />
    <glyph glyph-name=".notdef" horiz-adv-x="500" 
d="M0 0v700h500v-700h-500zM250 395l170 255h-340zM280 350l170 -255v510zM80 50h340l-170 255zM50 605v-510l170 255z" />
    <glyph glyph-name="space" unicode=" " horiz-adv-x="320" 
 />
    <glyph glyph-name="exclam" unicode="!" horiz-adv-x="330" 
d="M130 249l-45 402c-3.33301 24.667 -5 39 -5 43c0 22 9 38.167 27 48.5s37.333 15.5 58 15.5s40 -5.16699 58 -15.5s27 -26.5 27 -48.5c0 -4 -1.66699 -18.333 -5 -43l-45 -402c-2.66699 -22.667 -6.16699 -37.834 -10.5 -45.501s-12.5 -11.5 -24.5 -11.5
s-20.167 3.83301 -24.5 11.5s-7.83301 22.834 -10.5 45.501zM165 -10c-21.333 0 -40 6.5 -56 19.5s-24 29.833 -24 50.5c0 20 8 36.667 24 50s34.667 20 56 20s40 -6.66699 56 -20s24 -30 24 -50c0 -20.667 -8 -37.5 -24 -50.5s-34.667 -19.5 -56 -19.5z" />
    <glyph glyph-name="quotedbl" unicode="&#x22;" horiz-adv-x="333" 
d="M63 463l-18 204c0 2 -0.166992 5.66699 -0.5 11s-0.5 9.66602 -0.5 12.999c0 38 13.667 57 41 57s41 -19 41 -57c0 -3.33301 -0.166992 -7.66602 -0.5 -12.999s-0.5 -9 -0.5 -11l-18 -204c-2 -20.667 -9.33301 -31 -22 -31s-20 10.333 -22 31zM226 463l-18 204
c0 2 -0.166992 5.66699 -0.5 11s-0.5 9.66602 -0.5 12.999c0 38 13.667 57 41 57s41 -19 41 -57c0 -3.33301 -0.166992 -7.66602 -0.5 -12.999s-0.5 -9 -0.5 -11l-18 -204c-2 -20.667 -9.33301 -31 -22 -31s-20 10.333 -22 31z" />
    <glyph glyph-name="numbersign" unicode="#" 
d="M361 328l14 96h-87l-14 -96h87zM461 424l-14 -96h113v-72h-123l-36 -256h-86l36 256h-87l-36 -256h-86l36 256h-124v72h134l14 96h-124v72h134l34 236h86l-34 -236h87l34 236h86l-34 -236h115v-72h-125z" />
    <glyph glyph-name="dollar" unicode="$" 
d="M351 685l0.00195312 -246l48 -19.5c8.66699 -3.66699 23.167 -10.334 43.5 -20.001s34.833 -17.667 43.5 -24s20 -15.666 34 -27.999s24 -24.5 30 -36.5s11.5 -26.333 16.5 -43s7.5 -34.667 7.5 -54c0 -34 -7.66699 -65.167 -23 -93.5s-34.666 -50.833 -57.999 -67.5
s-47.5 -29.5 -72.5 -38.5s-48.167 -13.167 -69.5 -12.5v-75c0 -14 -2 -23.5 -6 -28.5s-11.333 -7.5 -22 -7.5s-18 2.5 -22 7.5s-6 14.5 -6 28.5v73c-56 -0 -108 17.333 -156 52s-72 73.334 -72 116.001c0 12.667 4.5 22.167 13.5 28.5s20.167 9.5 33.5 9.5
c12.667 0 22.167 -2.83301 28.5 -8.5s11.833 -14.834 16.5 -27.501c15.333 -44 30.666 -72.833 45.999 -86.5s45.333 -22.167 90 -25.5v276c-30 10 -55.833 20.333 -77.5 31s-43.334 24.167 -65.001 40.5s-38.334 36.5 -50.001 60.5s-17.5 51 -17.5 81
c0 54 21.167 99.167 63.5 135.5s91.166 55.5 146.499 57.5v70c0 14 2 23.5 6 28.5s11.333 7.5 22 7.5s18 -2.5 22 -7.5s6 -14.5 6 -28.5v-70c44 -2.66699 85.5 -15.834 124.5 -39.501s58.5 -55.167 58.5 -94.5c0 -14 -4.66699 -25.833 -14 -35.5s-21 -14.5 -35 -14.5
c-17.333 0 -29.166 3.66699 -35.499 11s-9.66602 16.833 -9.99902 28.5s-1.33301 23.334 -3 35.001s-9.33398 22.667 -23.001 33s-34.5 17.5 -62.5 21.5zM295.002 462v219.999c-29.333 -1.33301 -54.333 -11.5 -75 -30.5s-31 -43.167 -31 -72.5
c0 -30 9.33301 -53.667 28 -71s44.667 -32.666 78 -45.999zM351.002 308.999v-251.001c33.333 2 61.166 14 83.499 36s33.5 50 33.5 84c0 33.333 -10.167 59.333 -30.5 78s-49.166 36.334 -86.499 53.001z" />
    <glyph glyph-name="percent" unicode="%" horiz-adv-x="880" 
d="M242 706c-20 0 -34.833 -9.83301 -44.5 -29.5s-14.5 -54.167 -14.5 -103.5s4.83301 -83.833 14.5 -103.5s24.5 -29.5 44.5 -29.5s34.833 9.83301 44.5 29.5s14.5 54.167 14.5 103.5s-4.83301 83.833 -14.5 103.5s-24.5 29.5 -44.5 29.5zM242 748
c54 0 97.167 -16.333 129.5 -49s48.166 -74.667 47.499 -126c0.666992 -51.333 -15.166 -93.333 -47.499 -126s-75.5 -49 -129.5 -49s-97.167 16.333 -129.5 49s-48.166 74.667 -47.499 126c-0.666992 51.333 15.166 93.333 47.499 126s75.5 49 129.5 49zM667 712l-391 -698
c-8.66699 -14.667 -15.334 -23.334 -20.001 -26.001c-6 -2.66699 -15.667 -4 -29 -4c-18 0 -27 3 -27 9c0 0.666992 4.33301 9.66699 13 27l391 698c8.66699 14.667 15.334 23.334 20.001 26.001c6 2.66699 15.667 4 29 4c18 0 27 -3 27 -9
c0 -0.666992 -4.33301 -9.66699 -13 -27zM637 300c-20 0 -34.833 -9.83301 -44.5 -29.5s-14.5 -54.167 -14.5 -103.5s4.83301 -83.833 14.5 -103.5s24.5 -29.5 44.5 -29.5s34.833 9.83301 44.5 29.5s14.5 54.167 14.5 103.5s-4.83301 83.833 -14.5 103.5
s-24.5 29.5 -44.5 29.5zM637 342c54 0 97.167 -16.333 129.5 -49s48.166 -74.667 47.499 -126c0.666992 -51.333 -15.166 -93.333 -47.499 -126s-75.5 -49 -129.5 -49s-97.167 16.333 -129.5 49s-48.166 74.667 -47.499 126c-0.666992 51.333 15.166 93.333 47.499 126
s75.5 49 129.5 49z" />
    <glyph glyph-name="ampersand" unicode="&#x26;" horiz-adv-x="820" 
d="M356 404l177.002 -214c48.667 57.333 73 103 73 137c0 10 -3.33301 18.333 -10 25s-13.834 11 -21.501 13s-14.834 5.5 -21.501 10.5s-10 11.167 -10 18.5c0 18.667 14 28 42 28h153c28 0 42 -9.33301 42 -28c0 -9.33301 -2.33301 -16 -7 -20s-10.334 -6.5 -17.001 -7.5
s-15.167 -5 -25.5 -12s-19.833 -17.833 -28.5 -32.5c-38 -59.333 -79.333 -119.333 -124 -180c46.667 -48 98.334 -72 155.001 -72c8.66699 0 19.834 1.5 33.501 4.5s23.5 4.5 29.5 4.5s11.333 -2.33301 16 -7s7 -10 7 -16c0 -20 -16.667 -36.333 -50 -49s-66 -19 -98 -19
c-36.667 0 -69.834 6.16699 -99.501 18.5s-60.5 31.5 -92.5 57.5c-68 -53.333 -141.333 -80 -220 -80c-63.333 0 -119.333 17.333 -168 52s-73 82.334 -73 143.001c0 89.333 57 162.333 171 219c-45.333 59.333 -68 114 -68 164c0 59.333 22.167 105.166 66.5 137.499
s97.5 48.5 159.5 48.5c52.667 0 98.5 -12.833 137.5 -38.5s58.5 -63.167 58.5 -112.5c0 -72 -62.333 -136.333 -187 -193zM427.002 110l-196 234c-59.333 -38 -89 -84 -89 -138c0 -44 13.667 -79.333 41 -106s63.333 -40 108 -40c42 0 87.333 16.667 136 50zM245.002 603
c0 -38 22.667 -85.667 68 -143c81.333 42.667 122 86.667 122 132c0 64 -33 96 -99 96c-23.333 0 -44.333 -7.83301 -63 -23.5s-28 -36.167 -28 -61.5z" />
    <glyph glyph-name="quotesingle" unicode="'" horiz-adv-x="222" 
d="M89 463l-18 204c0 2 -0.166992 5.66699 -0.5 11s-0.5 9.66602 -0.5 12.999c0 38 13.667 57 41 57s41 -19 41 -57c0 -3.33301 -0.166992 -7.66602 -0.5 -12.999s-0.5 -9 -0.5 -11l-18 -204c-2 -20.667 -9.33301 -31 -22 -31s-20 10.333 -22 31z" />
    <glyph glyph-name="parenleft" unicode="(" horiz-adv-x="290" 
d="M240 -192c-16.667 0 -36.498 14.002 -59.498 42.002s-45 63.667 -66 107s-38.667 94.5 -53 153.5s-21.5 116.167 -21.5 171.5c0 56.667 7.83301 114.5 23.5 173.5s34.667 109.167 57 150.5s45 75.333 68 102s42.167 40 57.5 40c23.333 0 35 -7.33301 35 -22
c0 -6.66699 -5.83301 -23.5 -17.5 -50.5l-38 -91c-13.667 -33.667 -26.334 -77.834 -38.001 -132.501s-17.5 -109.334 -17.5 -164.001c0 -62 5.66699 -121.833 17 -179.5s23.666 -103.167 36.999 -136.5l37 -90c11.333 -26.667 17 -43.667 17 -51
c0 -15.333 -12.667 -23 -38 -23z" />
    <glyph glyph-name="parenright" unicode=")" horiz-adv-x="290" 
d="M50 -192c-25.333 0 -37.998 7.66504 -37.998 22.998c0 7.33301 5.66699 24.333 17 51l37 90c13.333 33.333 25.666 78.833 36.999 136.5s17 117.5 17 179.5c0 54.667 -5.83301 109.334 -17.5 164.001s-24.334 98.834 -38.001 132.501l-38 91
c-11.667 27 -17.5 43.833 -17.5 50.5c0 14.667 11.667 22 35 22c15.333 0 34.5 -13.333 57.5 -40s45.667 -60.667 68 -102s41.333 -91.5 57 -150.5s23.5 -116.833 23.5 -173.5c0 -55.333 -7.16699 -112.5 -21.5 -171.5s-32 -110.167 -53 -153.5s-43 -79 -66 -107
s-42.833 -42 -59.5 -42z" />
    <glyph glyph-name="asterisk" unicode="*" horiz-adv-x="380" 
d="M228 453c0 -11.333 -3.5 -20.666 -10.5 -27.999s-16.167 -11 -27.5 -11s-20.5 3.66699 -27.5 11s-10.5 16.666 -10.5 27.999c0 8 5.66699 25.333 17 52s17 44 17 52c0 6 -1.66699 9 -5 9c-1.33301 0 -2.83301 -0.166992 -4.5 -0.5s-3.33398 -1 -5.00098 -2
s-3.16699 -2 -4.5 -3s-3 -2.5 -5 -4.5l-5 -5c-1.33301 -1.33301 -3.16602 -3.33301 -5.49902 -6s-4.16602 -4.83398 -5.49902 -6.50098s-3.33301 -4 -6 -7s-4.66699 -5.16699 -6 -6.5c-24.667 -28.667 -44.334 -43 -59.001 -43c-10 0 -18.667 3.5 -26 10.5
s-11 15.5 -11 25.5c0 14.667 7 25.667 21 33s29.333 11.333 46 12s32 2.33398 46 5.00098s21 7.33398 21 14.001s-7 11.334 -21 14.001s-29.333 4.33398 -46 5.00098s-32 4.66699 -46 12s-21 18.333 -21 33c0 10 3.66699 18.5 11 25.5s16 10.5 26 10.5
c14.667 0 34.334 -14.333 59.001 -43c2.66699 -2.66699 6.16699 -6.66699 10.5 -12l10 -12.5c2.33301 -3 5.16602 -6.16699 8.49902 -9.5s6.33301 -5.66602 9 -6.99902s5 -2 7 -2c3.33301 0 5 3 5 9c0 8 -5.66699 25.333 -17 52s-17 44 -17 52
c0 11.333 3.66699 20.666 11 27.999s17.666 11 30.999 11c11.333 0 20.5 -3.66699 27.5 -11s10.5 -16.666 10.5 -27.999c0 -8 -5.66699 -25.333 -17 -52s-17 -44 -17 -52c0 -6 1.66699 -9 5 -9c7.33301 0 20.333 12 39 36c26.667 33.333 48.334 50 65.001 50
c10 0 18.667 -3.5 26 -10.5s11 -15.5 11 -25.5c0 -14.667 -7 -25.667 -21 -33s-29.333 -11.333 -46 -12s-32 -2.33398 -46 -5.00098s-21 -7.33398 -21 -14.001s7 -11.334 21 -14.001s29.333 -4.33398 46 -5.00098s32 -4.66699 46 -12s21 -18.333 21 -33
c0 -10 -3.66699 -18.5 -11 -25.5s-16 -10.5 -26 -10.5c-12 0 -25 7.16699 -39 21.5s-27 28.5 -39 42.5s-21.333 20.667 -28 20c-3.33301 0 -5 -3 -5 -9c0 -8 5.66699 -25.333 17 -52s17 -44 17 -52z" />
    <glyph glyph-name="plus" unicode="+" horiz-adv-x="600" 
d="M539 284v-90h-194v-194h-90v194h-194v90h194v194h90v-194h194z" />
    <glyph glyph-name="comma" unicode="," horiz-adv-x="320" 
d="M244 29c0 -43.333 -16.166 -84.501 -48.499 -123.501s-57.166 -58.5 -74.499 -58.5c-4.66699 0 -9.33398 1.83301 -14.001 5.5s-7 7.83398 -7 12.501c0 3.33301 5.66699 10.5 17 21.5s23 26.333 35 46s19 42.167 21 67.5c-6.66699 -1.33301 -11.334 -2.33301 -14.001 -3
c-2 0 -4.66699 -0.166992 -8 -0.5s-5.66602 -0.5 -6.99902 -0.5c-19.333 0 -35.5 6.16699 -48.5 18.5s-19.5 28.5 -19.5 48.5s8.16699 36.167 24.5 48.5s35.166 18.5 56.499 18.5c28 0 49.5 -9.66699 64.5 -29s22.5 -43.333 22.5 -72z" />
    <glyph glyph-name="hyphen" unicode="-" horiz-adv-x="320" 
d="M271 191h-222c-19.333 0 -29 16 -29 48s9.66699 48 29 48h222c19.333 0 29 -16 29 -48s-9.66699 -48 -29 -48z" />
    <glyph glyph-name="period" unicode="." horiz-adv-x="320" 
d="M160 -10c-21.333 0 -40 6.5 -56 19.5s-24 29.833 -24 50.5c0 20 8 36.667 24 50s34.667 20 56 20s40 -6.66699 56 -20s24 -30 24 -50c0 -20.667 -8 -37.5 -24 -50.5s-34.667 -19.5 -56 -19.5z" />
    <glyph glyph-name="slash" unicode="/" horiz-adv-x="490" 
d="M61 -16h-57c-13.333 0 -20 4.33301 -20 13c0 4 3.66699 12 11 24l397 687c7.33301 14.667 13.666 25 18.999 31s11.666 9 18.999 9h56c13.333 0 20 -4.33301 20 -13c0 -4.66699 -3.33301 -12.667 -10 -24l-397 -687c-7.33301 -14.667 -13.666 -25 -18.999 -31
s-11.666 -9 -18.999 -9z" />
    <glyph glyph-name="zero" unicode="0" 
d="M37 366c0 106 25.667 196.167 77 270.5s120 111.5 206 111.5s154.667 -37.167 206 -111.5s77 -164.5 77 -270.5s-25.667 -196.167 -77 -270.5s-120 -111.5 -206 -111.5s-154.667 37.167 -206 111.5s-77 164.5 -77 270.5zM191 366c0 -104 11.167 -183.667 33.5 -239
s54.166 -83 95.499 -83s73.166 27.667 95.499 83s33.5 135 33.5 239s-11.167 183.667 -33.5 239s-54.166 83 -95.499 83s-73.166 -27.667 -95.499 -83s-33.5 -135 -33.5 -239z" />
    <glyph glyph-name="one" unicode="1" 
d="M391 701l0.000976562 -551.002c0 -33.333 4.5 -55.5 13.5 -66.5s26.167 -17.5 51.5 -19.5c40.667 -2.66699 61 -14 61 -34s-16 -30 -48 -30h-310c-34 0 -51 10 -51 30c0 18 21.667 29 65 33c30 2.66699 49.167 9.33398 57.5 20.001s12.5 32.667 12.5 66v398
c0 32.667 -4.5 53.5 -13.5 62.5s-30.833 13.167 -65.5 12.5h-33c-29.333 0 -44 9.33301 -44 28c0 16 17.333 26.667 52 32c34.667 4.66699 66.667 13.334 96 26.001s53.166 24.167 71.499 34.5s32.833 15.5 43.5 15.5c16.667 0 27.667 -5 33 -15s8 -24 8 -42z" />
    <glyph glyph-name="two" unicode="2" 
d="M222 104l202.994 -0.000976562c24 0 45 5.66699 63 17s33 22.5 45 33.5s23 16.5 33 16.5c5.33301 0 10.333 -2.5 15 -7.5s7 -10.5 7 -16.5c0 -4 -1.33301 -9.33301 -4 -16s-6.5 -17.667 -11.5 -33s-9.83301 -33.333 -14.5 -54
c-3.33301 -16.667 -8.66602 -28.167 -15.999 -34.5s-18.666 -9.5 -33.999 -9.5h-413c-16.667 0 -28 2.33301 -34 7s-9 13 -9 25c0 26 12.833 57 38.5 93s56.834 72.333 93.501 109l110 111.5c36.667 37.667 67.834 76.667 93.501 117s38.5 76.833 38.5 109.5
c0 34.667 -10.667 62.667 -32 84s-48.333 32 -81 32c-29.333 0 -57.666 -10.333 -84.999 -31s-41 -46 -41 -76c0 -12 4.33301 -24.667 13 -38s13 -24.666 13 -33.999c0 -15.333 -6.66699 -26.833 -20 -34.5s-28 -11.5 -44 -11.5c-24.667 0 -44.167 8 -58.5 24
s-21.5 36.667 -21.5 62c0 54 25.5 100.667 76.5 140s114.5 59 190.5 59c78.667 0 139 -18.333 181 -55s63 -82 63 -136c0 -33.333 -8.5 -66 -25.5 -98s-39.667 -62 -68 -90s-57.666 -55 -87.999 -81s-62.333 -55.5 -96 -88.5s-60.5 -64.833 -80.5 -95.5z" />
    <glyph glyph-name="three" unicode="3" 
d="M294 688c-23.333 0 -43.6621 -6.00098 -60.9951 -18.001s-26 -28.667 -26 -50c0 -5.33301 1.16699 -13.833 3.5 -25.5s3.16602 -20.834 2.49902 -27.501c-0.666992 -12.667 -7.16699 -22.167 -19.5 -28.5s-25.5 -9.5 -39.5 -9.5c-21.333 0 -38.833 4.83301 -52.5 14.5
s-20.5 24.834 -20.5 45.501c0 44 23.333 81.5 70 112.5s104 46.5 172 46.5c63.333 0 118.333 -16.167 165 -48.5s70 -77.833 70 -136.5c0 -42.667 -14.333 -77.667 -43 -105s-66.334 -46.333 -113.001 -57v-2c50 -8.66699 93.167 -30.167 129.5 -64.5
s54.5 -75.5 54.5 -123.5c0 -73.333 -27.833 -129.5 -83.5 -168.5s-122.834 -58.5 -201.501 -58.5c-24.667 0 -50.834 2.83301 -78.501 8.5s-55 14.167 -82 25.5s-49.333 27.666 -67 48.999s-26.5 45.666 -26.5 72.999c0 20.667 6 36.5 18 47.5s28.333 16.5 49 16.5
c20 0 34.5 -3.66699 43.5 -11s14.167 -20.666 15.5 -39.999c6 -72.667 44.333 -109 115 -109c47.333 0 83.166 14.833 107.499 44.5s36.5 68.834 36.5 117.501c0 57.333 -16.833 97.333 -50.5 120s-82.167 34 -145.5 34c-32.667 0 -49 10 -49 30c0 11.333 4 18.833 12 22.5
s24 6.16699 48 7.5c54.667 2.66699 94.5 15.334 119.5 38.001s37.5 59.334 37.5 110.001c0 35.333 -9.66699 64.166 -29 86.499s-46.333 33.5 -81 33.5z" />
    <glyph glyph-name="four" unicode="4" 
d="M485 192l-0.00292969 -95c0 -14.667 3.33301 -25.334 10 -32.001s14.167 -10.334 22.5 -11.001s15.833 -3 22.5 -7s10 -11 10 -21c0 -9.33301 -3.33301 -16 -10 -20s-19 -6 -37 -6h-184c-18 0 -30.333 2 -37 6s-10 10.667 -10 20c0 10 3.33301 17 10 21
s14.167 6.33301 22.5 7s15.833 4.33398 22.5 11.001s10 17.334 10 32.001v95h-252c-19.333 0 -33.166 2.5 -41.499 7.5s-12.5 13.833 -12.5 26.5c0 55.333 36.833 142.666 110.5 261.999s142.834 202 207.501 248c18 14.667 41.333 22 70 22
c24.667 0 41.834 -6.16699 51.501 -18.5s14.5 -31.166 14.5 -56.499v-423h76c31.333 0 47 -11.333 47 -34c0 -13.333 -3.5 -22.333 -10.5 -27s-17.5 -7 -31.5 -7h-81zM336.997 260l-0.000976562 375.999h-2c-105.333 -129.333 -178.666 -254.666 -219.999 -375.999h222z" />
    <glyph glyph-name="five" unicode="5" 
d="M193 633l-14.0029 -207.997c44.667 22.667 95.334 34 152.001 34c72 0 132.833 -19 182.5 -57s74.5 -92.333 74.5 -163c0 -82.667 -28 -145.834 -84 -189.501s-131.333 -65.5 -226 -65.5c-67.333 0 -122 15.167 -164 45.5s-63 64.5 -63 102.5
c0 18.667 5.66699 33.667 17 45s26.333 17 45 17c17.333 0 32.333 -4 45 -12s19 -20 19 -36c0 -3.33301 -0.333008 -8.33301 -1 -15s-1 -11.334 -1 -14.001c0 -24.667 9.83301 -43 29.5 -55s43.167 -18 70.5 -18c52.667 0 92.334 16.833 119.001 50.5s40 77.5 40 131.5
c0 49.333 -12.333 90.5 -37 123.5s-60.667 49.5 -108 49.5c-21.333 0 -41.166 -3.5 -59.499 -10.5s-32.5 -14.667 -42.5 -23s-20.333 -16 -31 -23s-19.667 -10.5 -27 -10.5c-10 0 -17.333 2.66699 -22 8s-7 11.666 -7 18.999v23l26 366
c12.667 -0.666992 30.334 -2.16699 53.001 -4.5s36 -3.83301 40 -4.5c37.333 -4.66699 74.333 -7 111 -7c26.667 0 61.667 3 105 9s69.666 9 78.999 9c16.667 0 25 -8 25 -24c0 -62.667 -89.667 -94 -269 -94c-14 0 -29.667 0.166992 -47 0.5s-27.333 0.5 -30 0.5z" />
    <glyph glyph-name="six" unicode="6" 
d="M206 395c58.667 40 112.333 59.999 161 59.999c71.333 0 127.833 -20.833 169.5 -62.5s62.5 -93.834 62.5 -156.501c0 -75.333 -26.167 -136.166 -78.5 -182.499s-116.5 -69.5 -192.5 -69.5c-93.333 0 -164.5 28.333 -213.5 85s-73.5 132.334 -73.5 227.001
c0 129.333 42.333 237 127 323s190.334 129 317.001 129c39.333 0 59 -9.33301 59 -28c0 -17.333 -19 -28 -57 -32c-78.667 -7.33301 -143.334 -38 -194.001 -92s-79.667 -121 -87 -201zM333.999 390.999c-44 0 -77.1641 -14.833 -99.4971 -44.5s-33.5 -69.167 -33.5 -118.5
c0 -29.333 3.16699 -56.833 9.5 -82.5s19.166 -49 38.499 -70s44 -31.5 74 -31.5s54.667 10.5 74 31.5s32.166 44.333 38.499 70s9.5 53.167 9.5 82.5c0 42 -8.83301 79.667 -26.5 113s-45.834 50 -84.501 50z" />
    <glyph glyph-name="seven" unicode="7" 
d="M280 -16h-74.001c-12.667 0 -23.167 2.83301 -31.5 8.5s-12.5 12.5 -12.5 20.5c0 5.33301 4 18 12 38c14.667 36 37.834 86.667 69.501 152l113.5 230l97 195h-254c-19.333 0 -34.333 -2.66699 -45 -8s-17.5 -12 -20.5 -20s-5.33301 -15.833 -7 -23.5
s-5 -14.167 -10 -19.5s-12.833 -8 -23.5 -8c-16.667 0 -25 11 -25 33c0 47.333 1.33301 81.5 4 102.5s6.66699 34.167 12 39.5s14 8 26 8h420c26.667 0 40 -6 40 -18c0 -8 -5.83301 -26.667 -17.5 -56l-41 -100c-15.667 -37.333 -26.5 -65.333 -32.5 -84l-129 -410
c-10.667 -34.667 -20.667 -56.667 -30 -66s-23 -14 -41 -14z" />
    <glyph glyph-name="eight" unicode="8" 
d="M67 543c0 54 23.5 101.669 70.5 143.002s113.833 62 200.5 62c76 0 135.5 -16.667 178.5 -50s64.5 -70 64.5 -110c0 -68 -48.667 -125 -146 -171c111.333 -51.333 167 -121.666 167 -210.999c0 -66.667 -28 -120.334 -84 -161.001s-127 -61 -213 -61
c-42.667 0 -83.5 6.16699 -122.5 18.5s-73 33.666 -102 63.999s-43.5 67.5 -43.5 111.5c0 42.667 16.333 80.167 49 112.5s72 57.166 118 74.499c-91.333 46 -137 105.333 -137 178zM393 267.002l-128 64.002c-72 -40 -108 -89 -108 -147
c0 -42.667 14.833 -76.667 44.5 -102s65.167 -38 106.5 -38c38 0 73.167 10.667 105.5 32s48.5 50.666 48.5 87.999c0 41.333 -23 75.666 -69 102.999zM371 445.004c20.667 16 35.668 28.168 45.001 36.501s19.166 21.166 29.499 38.499s15.5 35.666 15.5 54.999
c0 34 -12.667 61.333 -38 82s-55.666 31 -90.999 31c-32.667 0 -61.667 -10.167 -87 -30.5s-38 -46.166 -38 -77.499c0 -14 3.5 -27.167 10.5 -39.5s14.833 -22.5 23.5 -30.5s21.167 -16.333 37.5 -25s29.166 -15 38.499 -19s23 -9.33301 41 -16c6 -2 10.333 -3.66699 13 -5
z" />
    <glyph glyph-name="nine" unicode="9" 
d="M434 337c-58.667 -40 -112.333 -59.999 -161 -59.999c-71.333 0 -127.833 20.833 -169.5 62.5s-62.5 93.834 -62.5 156.501c0 75.333 26.167 136.166 78.5 182.499s116.5 69.5 192.5 69.5c93.333 0 164.5 -28.333 213.5 -85s73.5 -132.334 73.5 -227.001
c0 -128 -42 -235.333 -126 -322s-186.333 -130 -307 -130c-26.667 0 -45 1.83301 -55 5.5s-15 11.167 -15 22.5c0 10 4.16699 17.333 12.5 22s23.166 8 44.499 10c78.667 7.33301 143.334 38 194.001 92s79.667 121 87 201zM306.001 341.001
c44 0 77.1641 14.833 99.4971 44.5s33.5 69.167 33.5 118.5c0 29.333 -3.16699 56.833 -9.5 82.5s-19.166 49 -38.499 70s-44 31.5 -74 31.5s-54.667 -10.5 -74 -31.5s-32.166 -44.333 -38.499 -70s-9.5 -53.167 -9.5 -82.5c0 -42 8.83301 -79.667 26.5 -113
s45.834 -50 84.501 -50z" />
    <glyph glyph-name="colon" unicode=":" horiz-adv-x="320" 
d="M160 -10c-21.333 0 -40 6.5 -56 19.5s-24 29.833 -24 50.5c0 20 8 36.667 24 50s34.667 20 56 20s40 -6.66699 56 -20s24 -30 24 -50c0 -20.667 -8 -37.5 -24 -50.5s-34.667 -19.5 -56 -19.5zM160 289c-21.333 0 -40 6.5 -56 19.5s-24 29.833 -24 50.5
c0 20 8 36.667 24 50s34.667 20 56 20s40 -6.66699 56 -20s24 -30 24 -50c0 -20.667 -8 -37.5 -24 -50.5s-34.667 -19.5 -56 -19.5z" />
    <glyph glyph-name="semicolon" unicode=";" horiz-adv-x="320" 
d="M244 29c0 -43.333 -16.168 -84.501 -48.501 -123.501s-57.166 -58.5 -74.499 -58.5c-4.66699 0 -9.33398 1.83301 -14.001 5.5s-7 7.83398 -7 12.501c0 3.33301 5.66699 10.5 17 21.5s23 26.333 35 46s19 42.167 21 67.5c-6.66699 -1.33301 -11.334 -2.33301 -14.001 -3
c-2 0 -4.66699 -0.166992 -8 -0.5s-5.66602 -0.5 -6.99902 -0.5c-19.333 0 -35.5 6.16699 -48.5 18.5s-19.5 28.5 -19.5 48.5s7.83301 36.167 23.5 48.5s34.834 18.5 57.501 18.5c28 0 49.5 -9.66699 64.5 -29s22.5 -43.333 22.5 -72zM159.999 288.999
c-21.333 0 -40 6.5 -56 19.5s-24 29.833 -24 50.5c0 20 8 36.667 24 50s34.667 20 56 20s40 -6.66699 56 -20s24 -30 24 -50c0 -20.667 -8 -37.5 -24 -50.5s-34.667 -19.5 -56 -19.5z" />
    <glyph glyph-name="less" unicode="&#x3c;" horiz-adv-x="600" 
d="M539 78v-86l-478 209v77l478 208v-87l-359 -160z" />
    <glyph glyph-name="equal" unicode="=" horiz-adv-x="600" 
d="M539 364v-90h-478v90h478zM539 204v-90h-478v90h478z" />
    <glyph glyph-name="greater" unicode="&#x3e;" horiz-adv-x="600" 
d="M61 -8v86l359 161l-359 160v87l478 -208v-77z" />
    <glyph glyph-name="question" unicode="?" horiz-adv-x="500" 
d="M164 248l0.00195312 109c0 9.33301 5.66699 18 17 26s25.333 16.167 42 24.5s33.167 18.5 49.5 30.5s30.166 30 41.499 54s17 52.667 17 86c0 36 -8.83301 66 -26.5 90s-43.834 36 -78.501 36c-22 0 -41 -5.66699 -57 -17s-24 -28.333 -24 -51
c0 -3.33301 0.666992 -8.33301 2 -15s2 -12.334 2 -17.001c0 -8.66699 -5.5 -17.834 -16.5 -27.501s-26.5 -14.5 -46.5 -14.5c-17.333 0 -31.5 4.83301 -42.5 14.5s-16.5 22.834 -16.5 39.501c0 44 21.833 78.667 65.5 104s94.5 38 152.5 38c70 0 125.5 -18.333 166.5 -55
s61.5 -80.667 61.5 -132c0 -31.333 -4.16699 -59.5 -12.5 -84.5s-19.333 -45.333 -33 -61s-28.667 -29.5 -45 -41.5s-32.833 -21.667 -49.5 -29l-45.5 -20.5c-13.667 -6.33301 -24.667 -13 -33 -20s-12.5 -14.5 -12.5 -22.5c0 -41.333 -2.33301 -68 -7 -80s-15 -18 -31 -18
s-26.667 4.33301 -32 13s-8 22.334 -8 41.001zM209.002 -10c-21.333 0 -40 6.5 -56 19.5s-24 29.833 -24 50.5c0 20 8 36.667 24 50s34.667 20 56 20s40 -6.66699 56 -20s24 -30 24 -50c0 -20.667 -8 -37.5 -24 -50.5s-34.667 -19.5 -56 -19.5z" />
    <glyph glyph-name="at" unicode="@" horiz-adv-x="800" 
d="M511 438c0 41.333 -13.3311 61.999 -39.998 61.999c-28.667 0 -58.334 -19.167 -89.001 -57.5s-46 -81.166 -46 -128.499c0 -58.667 18.333 -88 55 -88c31.333 0 59.166 25 83.499 75s36.5 95.667 36.5 137zM532.002 525.999l5.99805 20.001h90l-64 -273
c-2 -10 -3 -18.667 -3 -26c0 -19.333 13 -29 39 -29c30.667 0 57.334 21.833 80.001 65.5s34 89.167 34 136.5c0 67.333 -27 128.166 -81 182.499s-125.333 81.5 -214 81.5c-36 0 -71 -7 -105 -21s-65 -34.167 -93 -60.5s-50.5 -61.5 -67.5 -105.5s-25.5 -93 -25.5 -147
c0 -84.667 29.167 -156.167 87.5 -214.5s129.833 -87.5 214.5 -87.5c44 0 81.667 4.33301 113 13s66.333 22 105 40l13 -56c-74 -40.667 -150.667 -61 -230 -61c-68 0 -129.5 11.833 -184.5 35.5s-98.5 54 -130.5 91s-56.333 76.167 -73 117.5s-25 82 -25 122
c0 115.333 39.167 210.5 117.5 285.5s172.833 112.5 283.5 112.5c102 0 188 -31.333 258 -94s105 -140.334 105 -233.001c0 -69.333 -18.333 -130.166 -55 -182.499s-86.667 -78.5 -150 -78.5c-33.333 0 -57 6.33301 -71 19s-22 27 -24 43h-2
c-33.333 -41.333 -75 -62 -125 -62c-32 0 -58.5 12.167 -79.5 36.5s-31.5 57.5 -31.5 99.5c0 28.667 4.5 58.167 13.5 88.5s22 59 39 86s39.833 49 68.5 66s60.334 25.5 95.001 25.5c34 0 58 -12 72 -36z" />
    <glyph glyph-name="A" unicode="A" horiz-adv-x="730" 
d="M480 246l-293.995 0.000976562c-8 -19.333 -17.333 -48.166 -28 -86.499s-16 -62.833 -16 -73.5c0 -6 2.66699 -11 8 -15s11.166 -7 17.499 -9s12.166 -5.83301 17.499 -11.5s8 -13.167 8 -22.5c0 -18.667 -11 -28 -33 -28h-136c-18 0 -27 9.33301 -27 28
c0 10 2.5 17.833 7.5 23.5s10.667 9.33398 17 11.001s13.166 5.5 20.499 11.5s12.666 14.667 15.999 26c36.667 122.667 78.667 240.667 126 354s88.666 199.333 123.999 258c8 14 16.167 23.5 24.5 28.5s20.833 7.5 37.5 7.5c18 0 30.167 -1.33301 36.5 -4
s11.5 -7.33398 15.5 -14.001c36 -63.333 69.5 -132 100.5 -206s64.667 -162.5 101 -265.5s56.166 -158.5 59.499 -166.5c4 -10 13.5 -18.667 28.5 -26s22.5 -19.333 22.5 -36c0 -20 -11.333 -30 -34 -30h-188c-19.333 0 -29 9.33301 -29 28c0 9.33301 2.33301 17 7 23
s10 10 16 12s11.333 4.66699 16 8s7 7.66602 7 12.999c0 6 -1.66699 14.667 -5 26s-9.66602 31.166 -18.999 59.499zM210.005 318.001h243l-123 300z" />
    <glyph glyph-name="B" unicode="B" horiz-adv-x="710" 
d="M80 100l-0.000976562 531.999c0 12 -3 21.167 -9 27.5s-12.333 10.166 -19 11.499s-13 4.5 -19 9.5s-9 12.167 -9 21.5c0 20 15.333 30 46 30h350c76.667 0 133.834 -14.167 171.501 -42.5s56.5 -66.166 56.5 -113.499c0 -94.667 -58.667 -156.667 -176 -186v-2
c62.667 -1.33301 115.167 -18.166 157.5 -50.499s63.5 -74.166 63.5 -125.499c0 -71.333 -25.5 -124.5 -76.5 -159.5s-116.5 -52.5 -196.5 -52.5h-350c-30.667 0 -46 10 -46 30c0 9.33301 3 16.5 9 21.5s12.333 8.16699 19 9.5s13 5.16602 19 11.499s9 15.5 9 27.5z
M227.999 588.999l-0.000976562 -198.999l45 10.5c10 2.33301 25.667 6.66602 47 12.999s38.333 12.333 51 18s27.334 13.5 44.001 23.5s29.667 20.333 39 31s17.333 23.834 24 39.501s10 32.5 10 50.5c0 58.667 -51.333 88 -154 88c-46.667 0 -76 -4.33301 -88 -13
s-18 -29.334 -18 -62.001zM227.998 328v-184.997c0 -30.667 5.5 -50.834 16.5 -60.501s36.833 -14.5 77.5 -14.5c68 0 120.167 11.667 156.5 35s54.5 57.666 54.5 102.999s-16 81.666 -48 108.999s-63.667 42.333 -95 45z" />
    <glyph glyph-name="C" unicode="C" horiz-adv-x="740" 
d="M32 348c0 112.667 40.3301 207.5 120.997 284.5s177 115.5 289 115.5c58 0 114.167 -11.833 168.5 -35.5s82.833 -43.834 85.5 -60.501c6.66699 -40 10 -76.333 10 -109c0 -22 -10 -33 -30 -33c-3.33301 0 -6.16602 0.5 -8.49902 1.5s-4.66602 2.5 -6.99902 4.5
s-4.16602 3.83301 -5.49902 5.5s-2.83301 4.33398 -4.5 8.00098s-3 6.5 -4 8.5s-2.33301 5.33301 -4 10l-3.5 10c-14 33.333 -37.667 62 -71 86s-76.333 36 -129 36c-80.667 0 -142 -29 -184 -87s-63 -133 -63 -225c0 -87.333 21.333 -160.166 64 -218.499
s105.334 -87.5 188.001 -87.5c34 0 65.667 6.33301 95 19s51.833 26.5 67.5 41.5l44.5 41.5c14 12.667 25 19 33 19c8.66699 0 16 -2.66699 22 -8s9 -11 9 -17c0 -34.667 -30.333 -72.334 -91 -113.001s-131.334 -61 -212.001 -61c-105.333 0 -195 34.167 -269 102.5
s-111 155.5 -111 261.5z" />
    <glyph glyph-name="D" unicode="D" horiz-adv-x="780" 
d="M80 100v532.002c0 12 -3 21.167 -9 27.5s-12.333 10.166 -19 11.499s-13 4.5 -19 9.5s-9 12.167 -9 21.5c0 20 15.333 30 46 30h206c162.667 0 282.834 -32.167 360.501 -96.5s116.5 -153.833 116.5 -268.5c0 -113.333 -35.333 -202.833 -106 -268.5
s-170.334 -98.5 -299.001 -98.5h-278c-30.667 0 -46 10 -46 30c0 9.33301 3 16.5 9 21.5s12.333 8.16699 19 9.5s13 5.16602 19 11.499s9 15.5 9 27.5zM228 572.002v-412c0 -41.333 4.5 -67 13.5 -77s31.833 -15 68.5 -15c89.333 0 158.833 27.333 208.5 82
s74.5 126.667 74.5 216c0 91.333 -24.667 163.833 -74 217.5s-119 80.5 -209 80.5c-36.667 0 -59.5 -5 -68.5 -15s-13.5 -35.667 -13.5 -77z" />
    <glyph glyph-name="E" unicode="E" horiz-adv-x="630" 
d="M549 0l-479.004 0.00195312c-30.667 0 -46 10 -46 30c0 9.33301 3 16.5 9 21.5s12.333 8.16699 19 9.5s13 5.16602 19 11.499s9 15.5 9 27.5v532c0 12 -3 21.167 -9 27.5s-12.333 10.166 -19 11.499s-13 4.5 -19 9.5s-9 12.167 -9 21.5c0 20 15.333 30 46 30h459
c24 0 39.833 -6.33301 47.5 -19s11.5 -41.334 11.5 -86.001c0 -19.333 -5.66699 -29 -17 -29c-6.66699 0 -12.334 1.83301 -17.001 5.5s-11.667 9.5 -21 17.5s-19.666 15.333 -30.999 22c-15.333 9.33301 -34.166 15.166 -56.499 17.499s-55.833 3.5 -100.5 3.5
c-54 0 -87 -3.5 -99 -10.5s-18 -26.833 -18 -59.5v-164h174c22 0 40.333 5.66699 55 17s25.334 17 32.001 17c10.667 0 17.834 -5 21.501 -15s5.5 -26.333 5.5 -49c0 -30.667 -1.33301 -50.667 -4 -60s-10 -14 -22 -14c-6.66699 0 -12.5 1.83301 -17.5 5.5
s-9.33301 7.83398 -13 12.501s-10.5 8.83398 -20.5 12.501s-22.667 5.5 -38 5.5h-173v-179c0 -52.667 3.5 -85 10.5 -97s24.833 -18 53.5 -18c76 0 134.5 3.33301 175.5 10s67.167 18.667 78.5 36c16.667 24.667 32.334 37 47.001 37c19.333 0 29 -10.667 29 -32
c0 -44.667 -5.5 -75.667 -16.5 -93s-29.833 -26 -56.5 -26z" />
    <glyph glyph-name="F" unicode="F" horiz-adv-x="590" 
d="M238 0l-168.003 0.000976562c-30.667 0 -46 10 -46 30c0 9.33301 3 16.5 9 21.5s12.333 8.16699 19 9.5s13 5.16602 19 11.499s9 15.5 9 27.5v532c0 12 -3 21.167 -9 27.5s-12.333 10.166 -19 11.499s-13 4.5 -19 9.5s-9 12.167 -9 21.5c0 20 15.333 30 46 30h478
c11.333 0 20.833 -13.167 28.5 -39.5s11.5 -48.166 11.5 -65.499c0 -30 -10 -45 -30 -45c-6 0 -11 1.66699 -15 5s-8.83301 9.16602 -14.5 17.499s-8.83398 13.166 -9.50098 14.499c-11.333 14.667 -27.166 25.5 -47.499 32.5s-37.666 10.833 -51.999 11.5
s-39.166 1 -74.499 1c-54 0 -87 -4.33301 -99 -13s-18 -32.667 -18 -72v-169h174c22 0 40.333 5.66699 55 17s25.334 17 32.001 17c18.667 0 28 -19 28 -57c0 -33.333 -1.5 -55.166 -4.5 -65.499s-10.5 -15.5 -22.5 -15.5c-6 0 -11.833 3 -17.5 9s-14 12 -25 18
s-26.5 9 -46.5 9h-173v-242c0 -12 3 -21.167 9 -27.5s12.333 -10.166 19 -11.499s13 -4.5 19 -9.5s9 -12.167 9 -21.5c0 -20 -15.333 -30 -46 -30z" />
    <glyph glyph-name="G" unicode="G" horiz-adv-x="770" 
d="M495 378h189.003c21.333 0 37 -2 47 -6s15 -12.333 15 -25c0 -2 -1.83301 -22.333 -5.5 -61s-5.5 -60 -5.5 -64c0 -21.333 2.16699 -45.333 6.5 -72s6.5 -41.667 6.5 -45c0 -8.66699 -8.66699 -19.667 -26 -33s-39.833 -26.666 -67.5 -39.999
s-61.834 -24.666 -102.501 -33.999s-81.667 -14 -123 -14c-111.333 0 -205.333 34 -282 102s-115 158.667 -115 272c0 114 40.5 207.5 121.5 280.5s176.833 109.5 287.5 109.5c24 0 51 -2.33301 81 -7s59.333 -11.334 88 -20.001s52.667 -20.5 72 -35.5s29 -31.5 29 -49.5
v-83c0 -22 -10 -33 -30 -33c-12.667 0 -23.334 10 -32.001 30c-19.333 44.667 -45 77.5 -77 98.5s-73.333 31.5 -124 31.5c-54 0 -101 -16.667 -141 -50s-69.167 -74 -87.5 -122s-27.5 -98 -27.5 -150s9 -100.833 27 -146.5s46.333 -83.667 85 -114s84 -45.5 136 -45.5
c104.667 0 157 49.333 157 148v60c0 19.333 -5.5 32.5 -16.5 39.5s-30.167 10.5 -57.5 10.5c-30.667 0 -51.834 2.66699 -63.501 8s-17.5 14.666 -17.5 27.999c0 21.333 17.667 32 53 32z" />
    <glyph glyph-name="H" unicode="H" horiz-adv-x="810" 
d="M727 632v-532c0 -12 2.83301 -21.167 8.5 -27.5s12.167 -10.166 19.5 -11.499s13.833 -4.5 19.5 -9.5s8.5 -12.167 8.5 -21.5c0 -20 -15.333 -30 -46 -30h-168c-30.667 0 -46 10 -46 30c0 9.33301 2.83301 16.5 8.5 21.5s12.167 8.16699 19.5 9.5
s13.833 5.16602 19.5 11.499s8.5 15.5 8.5 27.5v264h-348v-264c0 -12 2.83301 -21.167 8.5 -27.5s12.167 -10.166 19.5 -11.499s13.833 -4.5 19.5 -9.5s8.5 -12.167 8.5 -21.5c0 -20 -15.333 -30 -46 -30h-168c-30.667 0 -46 10 -46 30c0 9.33301 2.83301 16.5 8.5 21.5
s12.167 8.16699 19.5 9.5s13.833 5.16602 19.5 11.499s8.5 15.5 8.5 27.5v532c0 12 -2.83301 21.167 -8.5 27.5s-12.167 10.166 -19.5 11.499s-13.833 4.5 -19.5 9.5s-8.5 12.167 -8.5 21.5c0 20 15.333 30 46 30h168c30.667 0 46 -10 46 -30
c0 -9.33301 -2.83301 -16.5 -8.5 -21.5s-12.167 -8.16699 -19.5 -9.5s-13.833 -5.16602 -19.5 -11.499s-8.5 -15.5 -8.5 -27.5v-200h348v200c0 12 -2.83301 21.167 -8.5 27.5s-12.167 10.166 -19.5 11.499s-13.833 4.5 -19.5 9.5s-8.5 12.167 -8.5 21.5
c0 20 15.333 30 46 30h168c30.667 0 46 -10 46 -30c0 -9.33301 -2.83301 -16.5 -8.5 -21.5s-12.167 -8.16699 -19.5 -9.5s-13.833 -5.16602 -19.5 -11.499s-8.5 -15.5 -8.5 -27.5z" />
    <glyph glyph-name="I" unicode="I" horiz-adv-x="310" 
d="M229 632v-532c0 -12 2.83301 -21.167 8.5 -27.5s12.167 -10.166 19.5 -11.499s13.833 -4.5 19.5 -9.5s8.5 -12.167 8.5 -21.5c0 -20 -15.333 -30 -46 -30h-168c-30.667 0 -46 10 -46 30c0 9.33301 2.83301 16.5 8.5 21.5s12.167 8.16699 19.5 9.5
s13.833 5.16602 19.5 11.499s8.5 15.5 8.5 27.5v532c0 12 -2.83301 21.167 -8.5 27.5s-12.167 10.166 -19.5 11.499s-13.833 4.5 -19.5 9.5s-8.5 12.167 -8.5 21.5c0 20 15.333 30 46 30h168c30.667 0 46 -10 46 -30c0 -9.33301 -2.83301 -16.5 -8.5 -21.5
s-12.167 -8.16699 -19.5 -9.5s-13.833 -5.16602 -19.5 -11.499s-8.5 -15.5 -8.5 -27.5z" />
    <glyph glyph-name="J" unicode="J" horiz-adv-x="520" 
d="M296 732l168 -0.000976562c30.667 0 46 -10 46 -30c0 -9.33301 -3 -16.5 -9 -21.5s-12.333 -8.16699 -19 -9.5s-13 -5.16602 -19 -11.499s-9 -15.5 -9 -27.5v-418c0 -82.667 -19.833 -141.334 -59.5 -176.001s-100.167 -52 -181.5 -52c-66 0 -117.833 15.667 -155.5 47
s-56.5 72 -56.5 122c0 36 12.333 66.5 37 91.5s55 37.5 91 37.5c46.667 0 70 -17.333 70 -52c0 -12 -4.83301 -21.333 -14.5 -28s-20.5 -11 -32.5 -13s-22.833 -7.66699 -32.5 -17s-14.5 -22.666 -14.5 -39.999c0 -24 9.33301 -43.333 28 -58s41.667 -22 69 -22
c33.333 0 59 10.5 77 31.5s27 57.167 27 108.5v434c0 12 -3.5 21.167 -10.5 27.5s-14.833 10.333 -23.5 12s-16.5 5.16699 -23.5 10.5s-10.5 13.333 -10.5 24c0 10 4 17.5 12 22.5s23.333 7.5 46 7.5z" />
    <glyph glyph-name="K" unicode="K" horiz-adv-x="740" 
d="M80 100l0.000976562 531.999c0 12 -3 21.167 -9 27.5s-12.333 10.166 -19 11.499s-13 4.5 -19 9.5s-9 12.167 -9 21.5c0 20 15.333 30 46 30h168c30.667 0 46 -10 46 -30c0 -9.33301 -3 -16.5 -9 -21.5s-12.333 -8.16699 -19 -9.5s-13 -5.16602 -19 -11.499
s-9 -15.5 -9 -27.5v-284c50.667 42 109 97.167 175 165.5s99 112.5 99 132.5c0 8 -2.66699 14.5 -8 19.5s-11 8.5 -17 10.5s-11.667 5.16699 -17 9.5s-8 9.83301 -8 16.5c0 20 13.333 30 40 30h169c24 0 36 -10 36 -30c0 -10.667 -4 -18.667 -12 -24
s-19 -11.666 -33 -18.999s-25.333 -16 -34 -26c-21.333 -24.667 -53.5 -59 -96.5 -103s-71.833 -74.333 -86.5 -91c98 -103.333 177.667 -214 239 -332c8 -15.333 16.167 -27.333 24.5 -36s15.166 -14 20.499 -16s9.83301 -4.83301 13.5 -8.5s5.5 -9.16699 5.5 -16.5
c0 -20 -13.333 -30 -40 -30h-186c-28 0 -42 10 -42 30c0 10.667 7.33301 19.667 22 27s22 14.333 22 21c0 18 -25.167 62.667 -75.5 134s-86.5 114 -108.5 128l-102 -84v-156c0 -12 3 -21.167 9 -27.5s12.333 -10.166 19 -11.499s13 -4.5 19 -9.5s9 -12.167 9 -21.5
c0 -20 -15.333 -30 -46 -30h-168c-30.667 0 -46 10 -46 30c0 9.33301 3 16.5 9 21.5s12.333 8.16699 19 9.5s13 5.16602 19 11.499s9 15.5 9 27.5z" />
    <glyph glyph-name="L" unicode="L" horiz-adv-x="600" 
d="M80 100l-0.00195312 532.004c0 12 -3 21.167 -9 27.5s-12.333 10.166 -19 11.499s-13 4.5 -19 9.5s-9 12.167 -9 21.5c0 20 15.333 30 46 30h168c30.667 0 46 -10 46 -30c0 -9.33301 -3 -16.5 -9 -21.5s-12.333 -8.16699 -19 -9.5s-13 -5.16602 -19 -11.499
s-9 -15.5 -9 -27.5v-516c0 -14 2.16699 -24 6.5 -30s14.833 -10.5 31.5 -13.5s43.334 -4.5 80.001 -4.5c39.333 0 72.833 3.16699 100.5 9.5s47.834 14.166 60.501 23.499s23 18.666 31 27.999s15.5 17.166 22.5 23.499s14.833 9.5 23.5 9.5c14.667 0 22 -13 22 -39
c0 -28 -7 -55.5 -21 -82.5s-33.667 -40.5 -59 -40.5h-456c-30.667 0 -46 10 -46 30c0 9.33301 3 16.5 9 21.5s12.333 8.16699 19 9.5s13 5.16602 19 11.499s9 15.5 9 27.5z" />
    <glyph glyph-name="M" unicode="M" horiz-adv-x="890" 
d="M64 732l196.002 0.00195312c10.667 0 19.5 -5 26.5 -15s14.833 -26.333 23.5 -49c55.333 -126.667 104.666 -253.334 147.999 -380.001l167 403c8 19.333 14.833 31 20.5 35s18.167 6 37.5 6h152c23.333 0 35 -11 35 -33c0 -10 -3.5 -17.333 -10.5 -22
s-14.833 -7.33398 -23.5 -8.00098s-16.5 -4.66699 -23.5 -12s-10.5 -18.333 -10.5 -33v-524c0 -12 3 -21.167 9 -27.5s12.333 -10.166 19 -11.499s13 -4.5 19 -9.5s9 -12.167 9 -21.5c0 -20 -15.333 -30 -46 -30h-162c-30.667 0 -46 10 -46 30c0 9.33301 3 16.5 9 21.5
s12.333 8.16699 19 9.5s13 5.16602 19 11.499s9 15.5 9 27.5v484h-2l-50.5 -128.5l-38.5 -92.5l-47 -106l-52 -117c-8 -18 -15.167 -30.833 -21.5 -38.5s-13.833 -11.5 -22.5 -11.5c-7.33301 0 -15.833 5.33301 -25.5 16s-18.5 25.334 -26.5 44.001
c-92 200 -152 344.667 -180 434h-2l-10 -478c0 -12.667 3.83301 -22.5 11.5 -29.5s16.167 -11.333 25.5 -13s17.833 -5.33398 25.5 -11.001s11.5 -13.834 11.5 -24.501c0 -18.667 -16 -28 -48 -28h-154c-22.667 0 -34 10.333 -34 31c0 8.66699 3.33301 15.334 10 20.001
s14 7.83398 22 9.50098s15.667 6.83398 23 15.501s11.666 20.667 12.999 36c14.667 180 22 353.333 22 520c0 11.333 -4 19.666 -12 24.999s-17 8.33301 -27 9s-19 3.66699 -27 9s-12 13.666 -12 24.999c0 10 3 17.833 9 23.5s13.667 8.5 23 8.5z" />
    <glyph glyph-name="N" unicode="N" horiz-adv-x="750" 
d="M198 0l-124.004 0.000976562c-18.667 0 -31.667 2.5 -39 7.5s-11 12.5 -11 22.5c0 9.33301 4 16.5 12 21.5s17 8.16699 27 9.5s19 5.16602 27 11.499s12 15.5 12 27.5v532c0 12 -4 21.167 -12 27.5s-17 10.166 -27 11.499s-19 4.5 -27 9.5s-12 12.167 -12 21.5
c0 20 11.333 30 34 30h148c24.667 0 58.334 -26.833 101.001 -80.5s139 -190.167 289 -409.5h2v390c0 12 -3.16699 21.167 -9.5 27.5s-13.166 10.166 -20.499 11.499s-14.166 4.5 -20.499 9.5s-9.5 12.167 -9.5 21.5c0 20 15.333 30 46 30h102c30.667 0 46 -10 46 -30
c0 -9.33301 -3.16699 -16.5 -9.5 -21.5s-13.166 -8.16699 -20.499 -9.5s-14.166 -5.16602 -20.499 -11.499s-9.5 -15.5 -9.5 -27.5v-578c0 -26.667 -2.33301 -44 -7 -52s-17.334 -12 -38.001 -12c-12 0 -21 1 -27 3s-11.667 7 -17 15l-404 570h-3v-478
c0 -12 3.5 -21.167 10.5 -27.5s14.833 -10.166 23.5 -11.499s16.5 -4.5 23.5 -9.5s10.5 -12.167 10.5 -21.5c0 -20 -15.333 -30 -46 -30z" />
    <glyph glyph-name="O" unicode="O" horiz-adv-x="830" 
d="M798 366c0 -109.333 -35.5 -200.333 -106.5 -273s-163.167 -109 -276.5 -109s-205.5 36.333 -276.5 109s-106.5 163.667 -106.5 273s35.5 200.333 106.5 273s163.167 109 276.5 109s205.5 -36.333 276.5 -109s106.5 -163.667 106.5 -273zM638 366
c0 91.333 -20 166.5 -60 225.5s-94.333 88.5 -163 88.5s-123 -29.5 -163 -88.5s-60 -134.167 -60 -225.5s20 -166.5 60 -225.5s94.333 -88.5 163 -88.5s123 29.5 163 88.5s60 134.167 60 225.5z" />
    <glyph glyph-name="P" unicode="P" horiz-adv-x="650" 
d="M228 282l-0.000976562 -182c0 -12 3.5 -21.167 10.5 -27.5s14.5 -10.166 22.5 -11.499s15.5 -4.5 22.5 -9.5s10.5 -12.167 10.5 -21.5c0 -20 -15.333 -30 -46 -30h-178c-30.667 0 -46 10 -46 30c0 9.33301 3 16.5 9 21.5s12.333 8.16699 19 9.5s13 5.16602 19 11.499
s9 15.5 9 27.5v532c0 12 -3 21.167 -9 27.5s-12.333 10.166 -19 11.499s-13 4.5 -19 9.5s-9 12.167 -9 21.5c0 20 15.333 30 46 30h278c97.333 0 171.5 -17.667 222.5 -53s76.5 -81.666 76.5 -138.999s-20.167 -106 -60.5 -146s-91.166 -68.667 -152.499 -86
s-130 -26 -206 -26zM227.999 600v-254c73.333 0 134.833 17.167 184.5 51.5s74.5 78.5 74.5 132.5c0 43.333 -13.833 76.5 -41.5 99.5s-68.5 34.5 -122.5 34.5c-36 0 -60.833 -4.16699 -74.5 -12.5s-20.5 -25.5 -20.5 -51.5z" />
    <glyph glyph-name="Q" unicode="Q" horiz-adv-x="830" 
d="M798 366c0 -87.333 -23.335 -163.833 -70.002 -229.5s-109.667 -110.5 -189 -134.5c38.667 -30.667 80 -46 124 -46c8.66699 0 22.334 1.16699 41.001 3.5s32.334 3.5 41.001 3.5c12.667 0 23.167 -4.5 31.5 -13.5s12.5 -19.833 12.5 -32.5
c0 -20.667 -10.167 -35 -30.5 -43s-42.833 -12 -67.5 -12c-46.667 0 -91.167 11.333 -133.5 34s-77.5 53 -105.5 91c-6.66699 -1.33301 -12.667 -2 -18 -2c-4 -0.666992 -10.333 -1 -19 -1c-113.333 0 -205.5 36.333 -276.5 109s-106.5 163.667 -106.5 273
s35.5 200.333 106.5 273s163.167 109 276.5 109s205.5 -36.333 276.5 -109s106.5 -163.667 106.5 -273zM637.998 366c0 91.333 -20.001 166.502 -60.001 225.502s-94.333 88.5 -163 88.5s-123 -29.5 -163 -88.5s-60 -134.167 -60 -225.5s20 -166.5 60 -225.5
s94 -88.5 162 -88.5c-16 34 -24 68 -24 102c0 36 11 54 33 54c13.333 0 22.333 -3.83301 27 -11.5s6.83398 -17.334 6.50098 -29.001s1.5 -27.334 5.5 -47.001s11.333 -38.167 22 -55.5c48.667 18.667 86.5 55 113.5 109s40.5 118 40.5 192z" />
    <glyph glyph-name="R" unicode="R" horiz-adv-x="710" 
d="M238 0h-168c-30.667 0 -46 10 -46 30c0 9.33301 3 16.5 9 21.5s12.333 8.16699 19 9.5s13 5.16602 19 11.499s9 15.5 9 27.5v532c0 12 -3 21.167 -9 27.5s-12.333 10.166 -19 11.499s-13 4.5 -19 9.5s-9 12.167 -9 21.5c0 20 15.333 30 46 30h334
c167.333 0 251 -60.667 251 -182c0 -38.667 -15.167 -72.667 -45.5 -102s-66.833 -51.333 -109.5 -66v-2c49.333 -67.333 98.666 -159 147.999 -275c4.66699 -11.333 11.334 -20.666 20.001 -27.999s16.5 -12.333 23.5 -15s13.167 -7 18.5 -13s8 -13.667 8 -23
c0 -17.333 -9.33301 -26 -28 -26h-224c-16 0 -24 9.33301 -24 28c0 12.667 7.66699 22 23 28s23 15.333 23 28c0 36 -43.333 121.333 -130 256l-130 -24v-216c0 -12 3 -21.167 9 -27.5s12.333 -10.166 19 -11.499s13 -4.5 19 -9.5s9 -12.167 9 -21.5
c0 -20 -15.333 -30 -46 -30zM228 600l0.000976562 -215.998c21.333 2.66699 39.166 5.16699 53.499 7.5s33.333 6.16602 57 11.499s43.334 11.666 59.001 18.999s31.667 16.333 48 27s28.666 24 36.999 40s12.5 33.667 12.5 53c0 41.333 -13.5 72 -40.5 92
s-70.833 30 -131.5 30c-63.333 0 -95 -21.333 -95 -64z" />
    <glyph glyph-name="S" unicode="S" 
d="M50 520c0 69.333 26.4971 124.665 79.4971 165.998s115.833 62 188.5 62c45.333 0 87.5 -5 126.5 -15s67.667 -20.5 86 -31.5s28.833 -20.167 31.5 -27.5c4 -13.333 6 -42.666 6 -87.999c0 -22.667 -9.33301 -34 -28 -34c-11.333 0 -20.333 4.33301 -27 13
s-13 19.334 -19 32.001s-14.167 25.334 -24.5 38.001s-28.166 23.334 -53.499 32.001s-57.333 13 -96 13s-69.334 -11 -92.001 -33s-34 -48.333 -34 -79c0 -26 7.83301 -47.167 23.5 -63.5s36.167 -28.5 61.5 -36.5s53.333 -14.833 84 -20.5s61.334 -12.667 92.001 -21
s58.667 -19.166 84 -32.499s45.833 -33.333 61.5 -60s23.5 -59.667 23.5 -99c0 -72 -28.5 -131.833 -85.5 -179.5s-130.833 -71.5 -221.5 -71.5c-80 0 -149.167 18.5 -207.5 55.5s-87.5 78.167 -87.5 123.5c0 12 3.83301 22.667 11.5 32s17.5 14 29.5 14
c12.667 0 23.667 -3.83301 33 -11.5s16.833 -17.334 22.5 -29.001s13.334 -24.334 23.001 -38.001s20.667 -26.334 33 -38.001s30.333 -21.334 54 -29.001s51.5 -11.5 83.5 -11.5c52.667 0 94.834 12.5 126.501 37.5s47.5 57.167 47.5 96.5c0 24.667 -8 45.334 -24 62.001
s-36.833 29.167 -62.5 37.5s-54 16 -85 23s-62 15 -93 24s-59.333 20.167 -85 33.5s-46.5 33 -62.5 59s-24 57.667 -24 95z" />
    <glyph glyph-name="T" unicode="T" horiz-adv-x="660" 
d="M404 631l0.00390625 -531c0 -12 3.16699 -21.167 9.5 -27.5s13.5 -10.166 21.5 -11.499s15.167 -4.5 21.5 -9.5s9.5 -12.167 9.5 -21.5c0 -20 -15.333 -30 -46 -30h-180c-30.667 0 -46 10 -46 30c0 9.33301 3.16699 16.5 9.5 21.5s13.5 8.16699 21.5 9.5
s15.167 5.16602 21.5 11.499s9.5 15.5 9.5 27.5v531c0 12.667 -3.33301 21.334 -10 26.001s-19.334 7 -38.001 7c-27.333 0 -51.5 -4.33301 -72.5 -13s-36.333 -18.334 -46 -29.001s-20 -20.334 -31 -29.001s-21.167 -13 -30.5 -13c-16.667 0 -25 10 -25 30
c0 17.333 6 49 18 95c2.66699 10.667 6.66699 17.834 12 21.501s13.666 5.5 24.999 5.5h544c11.333 0 19.666 -1.83301 24.999 -5.5s9.33301 -10.834 12 -21.501c12 -46 18 -77.667 18 -95c0 -20 -8.33301 -30 -25 -30c-9.33301 0 -19.5 4.33301 -30.5 13
s-21.333 18.334 -31 29.001s-25 20.334 -46 29.001s-45.167 13 -72.5 13c-18.667 0 -31.334 -2.33301 -38.001 -7s-10 -13.334 -10 -26.001z" />
    <glyph glyph-name="U" unicode="U" horiz-adv-x="760" 
d="M70 732l180.003 0.00488281c12 0 21.5 -2.83301 28.5 -8.5s10.5 -12.834 10.5 -21.501c0 -15.333 -9 -26.333 -27 -33s-28 -13.667 -30 -21c-3.33301 -14 -8.5 -63.333 -15.5 -148s-10.5 -153.334 -10.5 -206.001c0 -86 16.833 -147.833 50.5 -185.5
s84.834 -56.5 153.501 -56.5c132 0 198 74.667 198 224c0 47.333 -2.16699 112.5 -6.5 195.5s-8.83301 135.5 -13.5 157.5c-2 10 -7 18.5 -15 25.5s-15.833 12 -23.5 15s-14.667 7.16699 -21 12.5s-9.5 12 -9.5 20c0 20 9 30 27 30h152c22 0 33 -9.33301 33 -28
c0 -8.66699 -4.5 -15.167 -13.5 -19.5s-18.167 -10.333 -27.5 -18s-14 -19.834 -14 -36.501c0 -4 1.66699 -24.333 5 -61s6.66602 -79.834 9.99902 -129.501s5 -92.834 5 -129.501c0 -217.333 -108.333 -326 -325 -326c-96.667 0 -173.334 25.5 -230.001 76.5
s-85 120.167 -85 207.5c0 30.667 3.83301 92.5 11.5 185.5s12.5 154.833 14.5 185.5c0.666992 9.33301 -1.83301 17 -7.5 23s-11.834 10 -18.501 12s-12.834 5.33301 -18.501 10s-8.5 10.667 -8.5 18c0 20 13.667 30 41 30z" />
    <glyph glyph-name="V" unicode="V" horiz-adv-x="720" 
d="M553 732l130 -0.00683594c29.333 0 44 -9.33301 44 -28c0 -10 -2 -17.5 -6 -22.5s-8.66699 -8.5 -14 -10.5s-11.666 -7.66699 -18.999 -17s-13.333 -22.333 -18 -39c0 -1.33301 -3.5 -14.666 -10.5 -39.999l-21.5 -77c-7.33301 -26 -18 -59.833 -32 -101.5
s-28.333 -81.5 -43 -119.5s-32.5 -79 -53.5 -123s-42.833 -84 -65.5 -120c-20.667 -33.333 -48.334 -50 -83.001 -50c-20 0 -35.667 2.66699 -47 8s-22 15.333 -32 30c-46.667 68 -92.667 162.667 -138 284s-76 220 -92 296c-4 18.667 -9.5 33.5 -16.5 44.5
s-13.667 18 -20 21s-11.833 7.5 -16.5 13.5s-7 13.667 -7 23c0 18.667 14.667 28 44 28h182c28 0 42 -9.33301 42 -28c0 -8.66699 -2.66699 -15.667 -8 -21s-11.333 -9.16602 -18 -11.499s-12.667 -7.66602 -18 -15.999s-8 -19.5 -8 -33.5
c0 -41.333 24.167 -124.833 72.5 -250.5s87.5 -212.167 117.5 -259.5c48 84 90.333 177 127 279s55 180.667 55 236c0 14.667 -3.5 25.334 -10.5 32.001s-14.833 10.334 -23.5 11.001s-16.5 3.83398 -23.5 9.50098s-10.5 14.834 -10.5 27.501
c0 7.33301 3.83301 13.333 11.5 18s17.5 7 29.5 7z" />
    <glyph glyph-name="W" unicode="W" horiz-adv-x="970" 
d="M479 404l-2.00098 0.00292969c-18 -82 -33.667 -143.833 -47 -185.5s-32 -88.5 -56 -140.5c-19.333 -40.667 -34.333 -66.5 -45 -77.5s-29 -16.5 -55 -16.5c-14.667 0 -26.667 2.5 -36 7.5s-18.666 15.833 -27.999 32.5c-32.667 58.667 -64.5 148.167 -95.5 268.5
s-55.833 235.5 -74.5 345.5c-1.33301 9.33301 -9.16602 19.333 -23.499 30s-21.5 22.667 -21.5 36c0 9.33301 2.66699 16.333 8 21s15 7 29 7h186c21.333 0 32 -9.33301 32 -28c0 -9.33301 -2.5 -16.666 -7.5 -21.999s-10.667 -9 -17 -11s-12 -6 -17 -12
s-7.5 -14.333 -7.5 -25c0 -88.667 37.667 -259.334 113 -512.001h2c31.333 80.667 58.833 166 82.5 256s35.5 156 35.5 198c0 27.333 -3 48.666 -9 63.999s-12.667 24.5 -20 27.5s-14 7.33301 -20 13s-9 14.167 -9 25.5c0 9.33301 2.83301 16 8.5 20s16.167 6 31.5 6h168
c14.667 0 24.667 -2.5 30 -7.5s8 -12.167 8 -21.5c0 -8.66699 -2.66699 -15.5 -8 -20.5s-11.333 -8.5 -18 -10.5s-12.667 -6.5 -18 -13.5s-8 -16.833 -8 -29.5c0 -50 22.833 -144.333 68.5 -283s69.5 -213.334 71.5 -224.001h2c32.667 80 63 170.5 91 271.5
s42 176.833 42 227.5c0 14 -3.83301 25 -11.5 33s-16.334 13.167 -26.001 15.5s-18.334 6 -26.001 11s-11.5 12.167 -11.5 21.5c0 20 10 30 30 30h138c24.667 0 37 -9 37 -27c0 -12.667 -6.83301 -23.834 -20.5 -33.501s-22.167 -20.5 -25.5 -32.5
c-6 -23.333 -18.5 -79.5 -37.5 -168.5s-38.5 -166.5 -58.5 -232.5s-45.667 -132.667 -77 -200c-16 -36 -42 -54 -78 -54s-62 17.333 -78 52c-57.333 124 -97.666 246.667 -120.999 368z" />
    <glyph glyph-name="X" unicode="X" horiz-adv-x="730" 
d="M36 732l216.001 0.00195312c24 0 36 -10 36 -30c0 -11.333 -6.66699 -20.166 -20 -26.499s-20 -11.5 -20 -15.5c0 -6.66699 6.66699 -19.667 20 -39s33.666 -46.833 60.999 -82.5s46.666 -61.5 57.999 -77.5c88.667 102 133 164.667 133 188c0 8 -2.66699 14.333 -8 19
s-11.333 7.66699 -18 9s-12.667 4 -18 8s-8 9.66699 -8 17c0 11.333 1.83301 19.166 5.5 23.499s10.5 6.5 20.5 6.5h160c13.333 0 22.333 -2.16699 27 -6.5s7 -12.833 7 -25.5c0 -9.33301 -8.5 -19.5 -25.5 -30.5s-26.5 -17.5 -28.5 -19.5l-200 -248
c93.333 -108.667 167.333 -207.334 222 -296.001c7.33301 -12 21.333 -24.5 42 -37.5s31 -26.5 31 -40.5c0 -18.667 -10.333 -28 -31 -28h-214c-12.667 0 -21.5 2.16699 -26.5 6.5s-7.5 12.166 -7.5 23.499c0 12 6.66699 21 20 27s20 13 20 21c0 15.333 -21 50 -63 104
s-75.667 94.667 -101 122c-36 -42.667 -68.667 -86.334 -98 -131.001s-44 -75.667 -44 -93c0 -4.66699 2.5 -8.66699 7.5 -12s10.5 -5.83301 16.5 -7.5s11.5 -5.16699 16.5 -10.5s7.5 -12.666 7.5 -21.999c0 -18.667 -12 -28 -36 -28h-164c-20 -0 -30 9.33301 -30 28
c0 8 2.5 14.333 7.5 19s11.167 8.5 18.5 11.5s17.5 9.66699 30.5 20s25.833 24.166 38.5 41.499l179 247c-71.333 86.667 -138.666 178.334 -201.999 275.001c-6.66699 10 -19.667 19 -39 27s-29 19 -29 33c0 20 10 30 30 30z" />
    <glyph glyph-name="Y" unicode="Y" horiz-adv-x="720" 
d="M459 0l-167.999 0.000976562c-30.667 0 -46 10 -46 30c0 9.33301 2.83301 16.5 8.5 21.5s12.167 8.16699 19.5 9.5s13.833 5.16602 19.5 11.499s8.5 15.5 8.5 27.5v188c-32 33.333 -64 72.5 -96 117.5s-57.833 83.667 -77.5 116l-74.5 126.5
c-2.66699 5.33301 -13.334 12.666 -32.001 21.999s-28 21 -28 35c0 18 8.66699 27 26 27h222c21.333 0 32 -10 32 -30c0 -13.333 -7.66699 -23.333 -23 -30s-23 -12 -23 -16c0 -14 17.667 -49.833 53 -107.5s77 -118.5 125 -182.5c111.333 154.667 167 246.667 167 276
c0 8 -3 14.667 -9 20s-12.5 9 -19.5 11s-13.5 5.5 -19.5 10.5s-9 11.833 -9 20.5c0 18.667 12 28 36 28h150c16.667 0 25 -9 25 -27c0 -8.66699 -2.83301 -15.167 -8.5 -19.5l-24 -18.5c-10.333 -8 -19.5 -19.333 -27.5 -34c-14.667 -27.333 -32.5 -57.333 -53.5 -90
l-52 -79l-61 -86.5c-27 -37.667 -43.833 -61.5 -50.5 -71.5v-206c0 -12 2.83301 -21.167 8.5 -27.5s12.167 -10.166 19.5 -11.499s13.833 -4.5 19.5 -9.5s8.5 -12.167 8.5 -21.5c0 -20 -15.333 -30 -46 -30z" />
    <glyph glyph-name="Z" unicode="Z" horiz-adv-x="600" 
d="M212 68l129.002 -0.000976562c34.667 0 64.334 3 89.001 9s43.167 13.333 55.5 22s22.666 17.5 30.999 26.5s16.166 16.5 23.499 22.5s15.666 9 24.999 9c16.667 0 25 -9 25 -27c0 -26.667 -3.66699 -55 -11 -85s-18.333 -45 -33 -45h-466
c-21.333 0 -37 4.16699 -47 12.5s-14.333 20.833 -13 37.5c-0.666992 26 31.166 85.5 95.499 178.5l193 271.5c64.333 88 96.5 138.667 96.5 152c0 8 -7.33301 12 -22 12c-89.333 1.33301 -150.666 -1.16699 -183.999 -7.5s-59.666 -21.166 -78.999 -44.499
c-15.333 -19.333 -29 -29 -41 -29c-8.66699 0 -15.667 2.66699 -21 8s-8 12.333 -8 21c0 31.333 4.66699 59.166 14 83.499s22.666 36.5 39.999 36.5h427c12 0 23 -3.33301 33 -10s15 -14.667 15 -24c0 -26.667 -20.167 -73.167 -60.5 -139.5
s-84.5 -131.666 -132.5 -195.999l-132.5 -182c-40.333 -57 -60.5 -90.833 -60.5 -101.5c0 -7.33301 6.33301 -11 19 -11z" />
    <glyph glyph-name="bracketleft" unicode="[" horiz-adv-x="280" 
d="M68 -142v841.994c0 12.667 2 21.167 6 25.5s11.667 6.5 23 6.5h121c33.333 0 50 -10 50 -30c0 -13.333 -11 -23.666 -33 -30.999c-20.667 -7.33301 -34.334 -14.666 -41.001 -21.999s-10 -17.666 -10 -30.999v-680c0 -13.333 3.33301 -23.666 10 -30.999
s20.334 -14.666 41.001 -21.999c22 -7.33301 33 -17.666 33 -30.999c0 -20 -16.667 -30 -50 -30h-121c-11.333 0 -19 2.16699 -23 6.5s-6 13.5 -6 27.5z" />
    <glyph glyph-name="backslash" unicode="\" horiz-adv-x="278" 
d="M-59 748l59 0.000976562c10 0 18.333 -7 25 -21l326 -722c2 -4.66699 3 -9 3 -13c0.666992 -3.33301 -0.5 -5.5 -3.5 -6.5s-7.5 -1.5 -13.5 -1.5h-59c-10 0 -18.333 7 -25 21l-326 722c-2 5.33301 -3 9.66602 -3 12.999c-0.666992 3.33301 0.5 5.5 3.5 6.5
s7.5 1.5 13.5 1.5z" />
    <glyph glyph-name="bracketright" unicode="]" horiz-adv-x="280" 
d="M212 698v-841.994c0 -12.667 -2 -21.167 -6 -25.5s-11.667 -6.5 -23 -6.5h-121c-33.333 0 -50 10 -50 30c0 13.333 11 23.666 33 30.999c20.667 7.33301 34.334 14.666 41.001 21.999s10 17.666 10 30.999v680c0 13.333 -3.33301 23.666 -10 30.999
s-20.334 14.666 -41.001 21.999c-22 7.33301 -33 17.666 -33 30.999c0 20 16.667 30 50 30h121c11.333 0 19 -2.16699 23 -6.5s6 -13.5 6 -27.5z" />
    <glyph glyph-name="asciicircum" unicode="^" horiz-adv-x="600" 
d="M178 367h-94l180 365h72l180 -365h-95l-121 257z" />
    <glyph glyph-name="underscore" unicode="_" horiz-adv-x="500" 
d="M500 -125h-500v50h500v-50z" />
    <glyph glyph-name="grave" unicode="`" horiz-adv-x="259" 
d="M133 554l-119.998 95l-8 5.5c-3.33301 2.33301 -5.83301 4.33301 -7.5 6s-3.83398 3.66699 -6.50098 6s-4.66699 4.66602 -6 6.99902s-2.5 5 -3.5 8s-1.5 6.16699 -1.5 9.5c0 18 9.66699 27 29 27h56c13.333 0 23.666 -2.66699 30.999 -8s16 -16.666 26 -33.999l52 -91
c10 -16 15 -27 15 -33c0 -12 -6.33301 -18 -19 -18c-6.66699 0 -19 6.66699 -37 20z" />
    <glyph glyph-name="a" unicode="a" horiz-adv-x="550" 
d="M484 0l-78.002 -0.00390625c-19.333 0 -31.833 4.33301 -37.5 13s-7.83398 22.334 -6.50098 41.001h-4c-13.333 -20.667 -34.333 -36.5 -63 -47.5s-60.334 -16.5 -95.001 -16.5c-54.667 0 -97.667 14.333 -129 43s-47 63.667 -47 105
c0 42.667 17.833 78.834 53.5 108.501s77.334 50.334 125.001 62.001s97.5 17.5 149.5 17.5c0 30 -8.66699 54.5 -26 73.5s-42 28.5 -74 28.5c-27.333 0 -54.166 -9.66699 -80.499 -29s-49.5 -29 -69.5 -29c-12.667 0 -23.167 3.5 -31.5 10.5s-12.5 16.833 -12.5 29.5
c0 22.667 19.333 41.334 58 56.001s81.667 22 129 22c70.667 0 127.834 -14.167 171.501 -42.5s65.5 -72.833 65.5 -133.5v-215c0 -11.333 2.66699 -20.5 8 -27.5s11 -11.5 17 -13.5s11.667 -5.16699 17 -9.5s8 -9.5 8 -15.5c0 -11.333 -3.16699 -19.333 -9.5 -24
s-19.166 -7 -38.499 -7zM351.998 155.996l0.000976562 116c-55.333 0 -100.833 -13.667 -136.5 -41s-53.5 -58 -53.5 -92c0 -24 8.66699 -45.5 26 -64.5s38.666 -28.5 63.999 -28.5c30 0 53.833 11.5 71.5 34.5s27.167 48.167 28.5 75.5z" />
    <glyph glyph-name="b" unicode="b" horiz-adv-x="580" 
d="M64 186l-0.00292969 445.997c0 11.333 -2.66699 20.333 -8 27s-11.333 11.334 -18 14.001s-12.667 6.16699 -18 10.5s-8 9.83301 -8 16.5c0 12 8 20 24 24c2.66699 0.666992 12.834 4.33398 30.501 11.001s35.334 12.834 53.001 18.501s30.5 8.5 38.5 8.5
c14.667 0 24.334 -5 29.001 -15s7 -27 7 -51v-269c42.667 40.667 92 61 148 61c67.333 0 119.833 -21.833 157.5 -65.5s56.5 -99.834 56.5 -168.501c0 -79.333 -25.833 -143.166 -77.5 -191.499s-118.5 -72.5 -200.5 -72.5c-68 0 -120.667 16.333 -158 49
s-56 81.667 -56 147zM193.997 289.997v-75c0 -110 33.667 -165 101 -165c38 0 68 14.833 90 44.5s33 74.167 33 133.5c0 61.333 -10.5 109.333 -31.5 144s-47.833 52 -80.5 52c-28 0 -53.667 -10.833 -77 -32.5s-35 -55.5 -35 -101.5z" />
    <glyph glyph-name="c" unicode="c" horiz-adv-x="500" 
d="M24 232c0 74 24.665 135.168 73.998 183.501s111.333 72.5 186 72.5c47.333 0 90 -10.5 128 -31.5s57 -45.167 57 -72.5c0 -14 -5.66699 -25.5 -17 -34.5s-26.666 -13.5 -45.999 -13.5c-12.667 0 -23.667 5.16699 -33 15.5s-16.666 21.5 -21.999 33.5
s-14 23.167 -26 33.5s-27 15.5 -45 15.5c-34.667 0 -63 -18.667 -85 -56s-33 -86.333 -33 -147c0 -50.667 13.5 -91.5 40.5 -122.5s59.833 -46.5 98.5 -46.5c21.333 0 41.166 4 59.499 12s32.333 16.833 42 26.5s19.5 18.5 29.5 26.5s18.333 12 25 12
c7.33301 0 13.333 -2.33301 18 -7s7 -10.334 7 -17.001c0 -24.667 -21.167 -51.667 -63.5 -81s-91.166 -44 -146.499 -44c-71.333 0 -130.5 22.5 -177.5 67.5s-70.5 103.167 -70.5 174.5z" />
    <glyph glyph-name="d" unicode="d" horiz-adv-x="580" 
d="M520 0l-73.999 -0.000976562c-4.66699 0 -8.83398 0.333008 -12.501 1s-6.83398 1.16699 -9.50098 1.5s-5.16699 1.5 -7.5 3.5s-4.33301 3.33301 -6 4s-3 2.66699 -4 6s-1.83301 5.33301 -2.5 6s-1.33398 3.33398 -2.00098 8.00098s-1.16699 7.5 -1.5 8.5
s-0.666016 4.5 -0.999023 10.5s-0.5 9.33301 -0.5 10c-38 -46 -91.667 -69 -161 -69c-71.333 0 -124.833 22.5 -160.5 67.5s-53.5 101.833 -53.5 170.5c0 72.667 22.833 134.167 68.5 184.5s104.5 75.5 176.5 75.5c41.333 0 81.666 -13.333 120.999 -40v184
c0 14 -4.66699 24.5 -14 31.5s-18.666 13.167 -27.999 18.5s-14 12.666 -14 21.999c0 12.667 8 22 24 28c12 4.66699 33 10.834 63 18.501s51 11.5 63 11.5c14 0 23.5 -2.33301 28.5 -7s7.5 -14.334 7.5 -29.001v-629c0 -11.333 2.5 -20.666 7.5 -27.999
s10.5 -12.333 16.5 -15s11.5 -6 16.5 -10s7.5 -8.33301 7.5 -13c0 -11.333 -3.16699 -19.333 -9.5 -24s-19.166 -7 -38.499 -7zM390.001 151.999l0.000976562 176.002c0 30 -10 53.5 -30 70.5s-45 25.5 -75 25.5c-36.667 0 -66.334 -15.333 -89.001 -46
s-34 -76.334 -34 -137.001s11.333 -106.334 34 -137.001s52.334 -46 89.001 -46c27.333 0 51.666 9.5 72.999 28.5s32 40.833 32 65.5z" />
    <glyph glyph-name="e" unicode="e" horiz-adv-x="530" 
d="M24 227c0.666992 79.333 25.501 142.666 74.501 189.999s119.167 71 210.5 71c30.667 0 60 -4.33301 88 -13s52.5 -24 73.5 -46s31.5 -48.667 31.5 -80s-11.833 -58.333 -35.5 -81s-55 -39.5 -94 -50.5s-73.833 -18.833 -104.5 -23.5s-63.334 -8 -98.001 -10
c6 -36.667 22 -66.167 48 -88.5s56.667 -33.5 92 -33.5c52 2.66699 98.667 22.667 140 60l6 6c3.33301 3.33301 5.66602 5.5 6.99902 6.5s3.5 2.33301 6.5 4s5.83301 2.83398 8.5 3.50098s5.66699 1 9 1c15.333 0 23 -7.66699 23 -23c0 -27.333 -24.167 -55.833 -72.5 -85.5
s-101.166 -44.5 -158.499 -44.5c-70.667 0 -130.667 22 -180 66s-74.333 101 -75 171zM300.001 434c-45.333 0 -79.999 -19.167 -103.999 -57.5s-35.333 -84.5 -34 -138.5c19.333 2 38 4.83301 56 8.5s40.167 9.66699 66.5 18s47.5 21 63.5 38s24 37.167 24 60.5
c0 22.667 -6.33301 40.167 -19 52.5s-30.334 18.5 -53.001 18.5z" />
    <glyph glyph-name="f" unicode="f" horiz-adv-x="330" 
d="M222 414l0.00292969 -314c0 -14.667 2.5 -25.834 7.5 -33.501s10.333 -12.167 16 -13.5s11 -4 16 -8s7.5 -10 7.5 -18c0 -18 -12.333 -27 -37 -27h-150c-24.667 0 -37 9 -37 27c0 8 2.5 14 7.5 18s10.333 6.66699 16 8s11 5.83301 16 13.5s7.5 18.834 7.5 33.501v314h-34
c-25.333 0 -38 10.667 -38 32s12.667 32 38 32h35c0 28.667 0.666992 54 2 76s5.16602 47.333 11.499 76s15.166 52.5 26.499 71.5s28.166 35.167 50.499 48.5s48.833 20 79.5 20c21.333 0 41.333 -5.5 60 -16.5s28 -26.167 28 -45.5c0 -14.667 -4.5 -27 -13.5 -37
s-20.5 -15 -34.5 -15c-10 0 -20.333 4.66699 -31 14s-19 14 -25 14c-18 0 -27 -34.333 -27 -103v-103h67c25.333 0 38 -10.667 38 -32s-12.667 -32 -38 -32h-65z" />
    <glyph glyph-name="g" unicode="g" horiz-adv-x="560" 
d="M496 412h-39.999c41.333 -42.667 62 -94 62 -154c0 -39.333 -8.33301 -75.166 -25 -107.499s-40.667 -57.5 -72 -75.5c31.333 -9.33301 57.666 -24.166 78.999 -44.499s32 -43.833 32 -70.5c0 -48 -23 -86 -69 -114s-112 -42 -198 -42
c-75.333 0 -132.333 7.83301 -171 23.5s-58 37.167 -58 64.5c0 23.333 11.167 42.5 33.5 57.5s44.833 22.5 67.5 22.5c22 0 33 -6 33 -18c0 -2.66699 -1.66699 -7.5 -5 -14.5s-5 -12.833 -5 -17.5c0 -29.333 36.333 -44 109 -44c47.333 0 82 7.16699 104 21.5
s33 32.5 33 54.5c0 35.333 -23.667 63.666 -71 84.999c-20.667 -7.33301 -43 -11 -67 -11c-72 0 -130.667 19.833 -176 59.5s-68 93.167 -68 160.5c0 77.333 23.333 136.666 70 177.999s109.667 62 189 62c22.667 0 56.667 -1.66699 102 -5s79.333 -5 102 -5
c25.333 0 42 -2.66699 50 -8s12 -13.333 12 -24c0 -12 -3.83301 -20.333 -11.5 -25s-21.5 -7.66699 -41.5 -9zM380.001 260c0 53.333 -10.167 94.666 -30.5 123.999s-46.5 44 -78.5 44s-58.167 -14.667 -78.5 -44s-30.5 -70.666 -30.5 -123.999
s10.167 -94.666 30.5 -123.999s46.5 -44 78.5 -44s58.167 14.667 78.5 44s30.5 70.666 30.5 123.999z" />
    <glyph glyph-name="h" unicode="h" horiz-adv-x="590" 
d="M199 696l-0.000976562 -262c46 36 97.667 54 155 54c62 0 107.667 -15.833 137 -47.5s44 -81.167 44 -148.5v-192c0 -14.667 2.5 -25.834 7.5 -33.501s10.333 -12.167 16 -13.5s11 -4 16 -8s7.5 -10 7.5 -18c0 -18 -12.333 -27 -37 -27h-150c-24.667 0 -37 9 -37 27
c0 8 2.5 14 7.5 18s10.333 6.66699 16 8s11 5.83301 16 13.5s7.5 18.834 7.5 33.501v184c0 21.333 -0.833008 38.5 -2.5 51.5s-5.66699 26.167 -12 39.5s-16.666 23.166 -30.999 29.499s-33.166 9.5 -56.499 9.5c-31.333 0 -56.5 -11 -75.5 -33s-28.5 -47 -28.5 -75v-206
c0 -14.667 2.5 -25.834 7.5 -33.501s10.333 -12.167 16 -13.5s11 -4 16 -8s7.5 -10 7.5 -18c0 -18 -12.333 -27 -37 -27h-150c-24.667 0 -37 9 -37 27c0 8 2.5 14 7.5 18s10.333 6.66699 16 8s11 5.83301 16 13.5s7.5 18.834 7.5 33.501v532
c0 11.333 -2.83301 20.333 -8.5 27s-11.834 11.334 -18.501 14.001s-12.834 6.16699 -18.501 10.5s-8.5 9.83301 -8.5 16.5c0 3.33301 1 6.33301 3 9s3.83301 4.66699 5.5 6s4.66699 3 9 5s7.16602 3.33301 8.49902 4c13.333 7.33301 33.833 15.5 61.5 24.5
s47.834 13.5 60.501 13.5c14.667 0 24.334 -5 29.001 -15s7 -27 7 -51z" />
    <glyph glyph-name="i" unicode="i" horiz-adv-x="270" 
d="M217 0l-150.001 -0.00292969c-24.667 0 -37 8.66699 -37 26c0 8 2.5 14 7.5 18s10.333 6.66699 16 8s11 5.83301 16 13.5s7.5 18.834 7.5 33.501v259c0 11.333 -2.83301 20.333 -8.5 27s-11.834 11.334 -18.501 14.001s-12.834 6.16699 -18.501 10.5
s-8.5 9.83301 -8.5 16.5c0 12 8.66699 20 26 24c2.66699 0.666992 12.834 4.33398 30.501 11.001s35.334 12.834 53.001 18.501s30.5 8.5 38.5 8.5c14.667 0 24.334 -5.33301 29.001 -16s7 -30.667 7 -60v-313c0 -14.667 2.5 -25.834 7.5 -33.501s10.333 -12.167 16 -13.5
s11 -4 16 -8s7.5 -10 7.5 -18c0 -17.333 -12.333 -26 -37 -26zM130.999 673.997c24 0 43.167 -6.33301 57.5 -19s21.5 -29.667 21.5 -51c0 -22 -7.5 -39.167 -22.5 -51.5s-35.167 -18.5 -60.5 -18.5c-23.333 0 -42.333 6.33301 -57 19s-22 29.667 -22 51s7.5 38.333 22.5 51
s35.167 19 60.5 19z" />
    <glyph glyph-name="j" unicode="j" horiz-adv-x="270" 
d="M219 412v-363.002c0 -76 -13.833 -135.833 -41.5 -179.5s-69.5 -65.5 -125.5 -65.5c-22 0 -42.833 4.66699 -62.5 14s-29.5 23.666 -29.5 42.999c0 14 5 25.333 15 34s22 13 36 13c12.667 0 25.5 -4.33301 38.5 -13s20.167 -13 21.5 -13c7.33301 0 12.166 8 14.499 24
s3.5 43.667 3.5 83v369c0 11.333 -2.83301 20.333 -8.5 27s-11.834 11.334 -18.501 14.001s-12.834 6.16699 -18.501 10.5s-8.5 9.83301 -8.5 16.5c0 12 8.66699 20 26 24c2.66699 0.666992 12.834 4.33398 30.501 11.001s35.334 12.834 53.001 18.501s30.5 8.5 38.5 8.5
c14.667 0 24.334 -5.33301 29.001 -16s7 -30.667 7 -60zM143 673.998c24 0 43.167 -6.33301 57.5 -19s21.5 -29.667 21.5 -51c0 -22 -7.5 -39.167 -22.5 -51.5s-35.167 -18.5 -60.5 -18.5c-23.333 0 -42.333 6.33301 -57 19s-22 29.667 -22 51s7.5 38.333 22.5 51
s35.167 19 60.5 19z" />
    <glyph glyph-name="k" unicode="k" horiz-adv-x="560" 
d="M209 0l-150 -0.000976562c-24.667 0 -37 9 -37 27c0 8 2.5 14 7.5 18s10.333 6.66699 16 8s11 5.83301 16 13.5s7.5 18.834 7.5 33.501v532c0 11.333 -2.83301 20.333 -8.5 27s-11.834 11.334 -18.501 14.001s-12.834 6.16699 -18.501 10.5s-8.5 9.83301 -8.5 16.5
c0 3.33301 1 6.33301 3 9s3.83301 4.66699 5.5 6s4.66699 3 9 5s7.16602 3.33301 8.49902 4c13.333 7.33301 33.833 15.5 61.5 24.5s47.834 13.5 60.501 13.5c14.667 0 24.334 -5 29.001 -15s7 -27 7 -51v-438c24 12 57.167 36.167 99.5 72.5s63.5 62.5 63.5 78.5
c0 6 -4.16699 10.667 -12.5 14s-16.666 7 -24.999 11s-12.5 10.667 -12.5 20c0 16 8.66699 24 26 24h142c25.333 0 38 -8 38 -24c0 -8 -2.5 -14.167 -7.5 -18.5s-13.5 -9.83301 -25.5 -16.5s-23 -14.667 -33 -24c-60 -58.667 -94.667 -94.334 -104 -107.001
c63.333 -63.333 118 -134.666 164 -213.999c4.66699 -8 14.5 -15.833 29.5 -23.5s22.5 -16.5 22.5 -26.5c0 -16 -10.333 -24 -31 -24h-171c-10.667 0 -18.667 2.66699 -24 8s-8 12 -8 20s4.66699 14.5 14 19.5s14 9.16699 14 12.5c0 8 -11.5 29.333 -34.5 64
s-45.5 66 -67.5 94l-57 -40v-78c0 -14.667 2.5 -25.834 7.5 -33.501s10.333 -12.167 16 -13.5s11 -4 16 -8s7.5 -10 7.5 -18c0 -18 -12.333 -27 -37 -27z" />
    <glyph glyph-name="l" unicode="l" horiz-adv-x="270" 
d="M215 0l-149.999 -0.00195312c-24.667 0 -37 9 -37 27c0 8 2.5 14 7.5 18s10.333 6.66699 16 8s11 5.83301 16 13.5s7.5 18.834 7.5 33.501v532c0 12 -2.83301 21.333 -8.5 28s-11.834 10.834 -18.501 12.501s-12.834 5.16699 -18.501 10.5s-8.5 13 -8.5 23
c0 9.33301 19.167 21 57.5 35s68.5 21 90.5 21c12.667 0 21.834 -4.66699 27.501 -14s8.5 -26.666 8.5 -51.999v-596c0 -14.667 2.5 -25.834 7.5 -33.501s10.333 -12.167 16 -13.5s11 -4 16 -8s7.5 -10 7.5 -18c0 -18 -12.333 -27 -37 -27z" />
    <glyph glyph-name="m" unicode="m" horiz-adv-x="880" 
d="M839 0l-150 -0.000976562c-24.667 0 -37 9 -37 27c0 8 2.5 14 7.5 18s10.333 6.66699 16 8s11 5.83301 16 13.5s7.5 18.834 7.5 33.501v224c0 60 -26 90 -78 90c-30 0 -54.833 -9 -74.5 -27s-29.5 -37.667 -29.5 -59v-228c0 -14.667 2.5 -25.834 7.5 -33.501
s10.333 -12.167 16 -13.5s11 -4 16 -8s7.5 -10 7.5 -18c0 -18 -12.333 -27 -37 -27h-150c-24.667 0 -37 9 -37 27c0 8 2.5 14 7.5 18s10.333 6.66699 16 8s11 5.83301 16 13.5s7.5 18.834 7.5 33.501v224c0 60 -26 90 -78 90c-30 0 -54.833 -9 -74.5 -27
s-29.5 -37.667 -29.5 -59v-228c0 -14.667 2.5 -25.834 7.5 -33.501s10.333 -12.167 16 -13.5s11 -4 16 -8s7.5 -10 7.5 -18c0 -18 -12.333 -27 -37 -27h-150c-24.667 0 -37 9 -37 27c0 8 2.5 14 7.5 18s10.333 6.66699 16 8s11 5.83301 16 13.5s7.5 18.834 7.5 33.501v244
c0 17.333 -2.83301 30.5 -8.5 39.5s-11.667 14.167 -18 15.5s-12.333 4.33301 -18 9s-8.5 12 -8.5 22c0 16.667 17.167 30.5 51.5 41.5s60.5 16.5 78.5 16.5c14.667 0 24 -5.33301 28 -16s6.66699 -32 8 -64h2c17.333 26 40.333 45.833 69 59.5s59 20.5 91 20.5
c66.667 0 112.667 -26.667 138 -80c39.333 53.333 97.333 80 174 80c45.333 0 84.5 -13.167 117.5 -39.5s49.5 -66.166 49.5 -119.499v-229c0 -14.667 2.5 -25.834 7.5 -33.501s10.333 -12.167 16 -13.5s11 -4 16 -8s7.5 -10 7.5 -18c0 -18 -12.333 -27 -37 -27z" />
    <glyph glyph-name="n" unicode="n" horiz-adv-x="590" 
d="M404 100l-0.000976562 184.001c0 21.333 -0.833008 38.5 -2.5 51.5s-5.5 26.167 -11.5 39.5s-15.667 23.166 -29 29.499s-30.666 9.5 -51.999 9.5c-31.333 0 -56.5 -11 -75.5 -33s-28.5 -47 -28.5 -75v-206c0 -14.667 2.5 -25.834 7.5 -33.501s10.333 -12.167 16 -13.5
s11 -4 16 -8s7.5 -10 7.5 -18c0 -18 -12.333 -27 -37 -27h-150c-24.667 0 -37 9 -37 27c0 8 2.5 14 7.5 18s10.333 6.66699 16 8s11 5.83301 16 13.5s7.5 18.834 7.5 33.501v244c0 17.333 -2.83301 30.5 -8.5 39.5s-11.667 14.167 -18 15.5s-12.333 4.33301 -18 9
s-8.5 12 -8.5 22c0 16.667 17.167 30.5 51.5 41.5s60.5 16.5 78.5 16.5c14.667 0 24 -5.33301 28 -16s6.66699 -32 8 -64c46 53.333 101 80 165 80c62 0 107.667 -15.833 137 -47.5s44 -81.167 44 -148.5v-192c0 -14.667 2.5 -25.834 7.5 -33.501s10.333 -12.167 16 -13.5
s11 -4 16 -8s7.5 -10 7.5 -18c0 -18 -12.333 -27 -37 -27h-150c-24.667 0 -37 9 -37 27c0 8 2.5 14 7.5 18s10.333 6.66699 16 8s11 5.83301 16 13.5s7.5 18.834 7.5 33.501z" />
    <glyph glyph-name="o" unicode="o" horiz-adv-x="590" 
d="M566 239c0 -72.667 -26.167 -132.334 -78.5 -179.001s-116.5 -70 -192.5 -70s-140.167 23.333 -192.5 70s-78.5 106.334 -78.5 179.001s26.167 132.334 78.5 179.001s116.5 70 192.5 70s140.167 -23.333 192.5 -70s78.5 -106.334 78.5 -179.001zM162 239
c0 -60.667 12.333 -107.334 37 -140.001s56.667 -49 96 -49s71.333 16.333 96 49s37 79.334 37 140.001s-12.333 107.334 -37 140.001s-56.667 49 -96 49s-71.333 -16.333 -96 -49s-37 -79.334 -37 -140.001z" />
    <glyph glyph-name="p" unicode="p" horiz-adv-x="610" 
d="M211 277v-365c0 -14.667 3 -25.834 9 -33.501s12.5 -12 19.5 -13s13.5 -3.66699 19.5 -8s9 -10.833 9 -19.5c0 -17.333 -15.667 -26 -47 -26h-150c-24.667 0 -37 9 -37 27c0 8 2.5 14 7.5 18s10.333 6.66699 16 8s11 5.83301 16 13.5s7.5 18.834 7.5 33.501v432
c0 17.333 -3 30.5 -9 39.5s-12.833 14.167 -20.5 15.5s-14.5 4.33301 -20.5 9s-9 12 -9 22c0 16.667 18 30.5 54 41.5s63.333 16.5 82 16.5c16 0 26.5 -5 31.5 -15s9.16699 -30.333 12.5 -61c34.667 50.667 88.667 76 162 76c66.667 0 120.334 -24 161.001 -72
s61 -106 61 -174c0 -71.333 -22.333 -131.166 -67 -179.499s-102.334 -72.5 -173.001 -72.5c-27.333 0 -52.333 3.5 -75 10.5s-34 18.833 -34 35.5c0 17.333 8.33301 26 25 26c1.33301 0 9.5 -0.666992 24.5 -2s27.5 -2 37.5 -2c42 0 73.167 18.667 93.5 56
s30.5 79 30.5 125c0 46.667 -10 89.167 -30 127.5s-51.333 57.5 -94 57.5c-36.667 0 -64.667 -14.333 -84 -43s-29 -63.334 -29 -104.001z" />
    <glyph glyph-name="q" unicode="q" horiz-adv-x="570" 
d="M530 -188h-150c-12.667 0 -23.5 2.16699 -32.5 6.5s-13.5 9.5 -13.5 15.5c0 9.33301 3 16.333 9 21s12.333 7.66699 19 9s13 6 19 14s9 19.333 9 34v132h-2c-32.667 -36 -80.667 -54 -144 -54c-64 0 -116.667 23.5 -158 70.5s-62 102.833 -62 167.5
c0 71.333 23.667 132.5 71 183.5s105 76.5 173 76.5c49.333 0 103.333 -15.333 162 -46c10 12.667 22.5 23.334 37.5 32.001s26.5 13 34.5 13s13 -3 15 -9s3 -19 3 -39v-527c0 -14.667 2.5 -25.834 7.5 -33.501s10.333 -12.167 16 -13.5s11 -4 16 -8s7.5 -10 7.5 -18
c0 -18 -12.333 -27 -37 -27zM390 154l0.000976562 173.999c0 30 -9.66699 53.5 -29 70.5s-43.333 25.5 -72 25.5c-30 0 -55 -11.333 -75 -34s-33.667 -47.5 -41 -74.5s-11 -54.5 -11 -82.5c0 -58 11.667 -101.667 35 -131s52.666 -44 87.999 -44
c28 0 52.5 8.83301 73.5 26.5s31.5 40.834 31.5 69.501z" />
    <glyph glyph-name="r" unicode="r" horiz-adv-x="400" 
d="M230 0l-150 0.00292969c-24.667 0 -37 9 -37 27c0 8 2.5 14 7.5 18s10.333 6.66699 16 8s11 5.83301 16 13.5s7.5 18.834 7.5 33.501v202c0 26 -3.5 46 -10.5 60s-14.667 22.167 -23 24.5s-16 5.66602 -23 9.99902s-10.5 11.166 -10.5 20.499c0 6.66699 2 12.667 6 18
s7.83301 9.16602 11.5 11.499s10.667 5.83301 21 10.5s16.833 7.66699 19.5 9c30.667 14.667 53.667 22 69 22c28.667 0 46.667 -39 54 -117h2c13.333 31.333 31.833 58.666 55.5 81.999s49.5 35 77.5 35c20 0 36.167 -6.66699 48.5 -20s18.5 -30 18.5 -50
c0 -15.333 -3.83301 -28.5 -11.5 -39.5s-19.5 -16.5 -35.5 -16.5c-4.66699 0 -14 2.66699 -28 8s-24.667 8 -32 8c-20.667 0 -39 -14.667 -55 -44s-24 -62.666 -24 -99.999v-134c0 -14.667 2.5 -25.834 7.5 -33.501s10.333 -12.167 16 -13.5s11 -4 16 -8s7.5 -10 7.5 -18
c0 -18 -12.333 -27 -37 -27z" />
    <glyph glyph-name="s" unicode="s" horiz-adv-x="450" 
d="M41 328c0 52 20.668 91.6689 62.001 119.002s89.333 41 144 41c49.333 0 89.333 -7.83301 120 -23.5s46 -32.167 46 -49.5c0 -30 -1.33301 -48.833 -4 -56.5s-8.66699 -11.5 -18 -11.5s-18.333 4.16699 -27 12.5s-16.5 17.666 -23.5 27.999s-18.667 19.666 -35 27.999
s-35.833 12.5 -58.5 12.5c-29.333 0 -50 -6.83301 -62 -20.5s-18 -28.834 -18 -45.501s9.16699 -30 27.5 -40s40.833 -17.833 67.5 -23.5s53.167 -12.334 79.5 -20.001s48.666 -21.167 66.999 -40.5s27.5 -44.666 27.5 -75.999c0 -52.667 -20 -94.5 -60 -125.5
s-93 -46.5 -159 -46.5c-51.333 0 -96.333 12.833 -135 38.5s-58 48.5 -58 68.5c0 12.667 3.66699 24.334 11 35.001s17 16 29 16c10.667 0 20.834 -5.16699 30.501 -15.5s18.167 -21.5 25.5 -33.5s19.166 -23.167 35.499 -33.5s35.833 -15.5 58.5 -15.5
c26 0 47.833 6.66699 65.5 20s26.5 30.333 26.5 51c0 19.333 -9.16699 34.333 -27.5 45s-40.333 18.667 -66 24s-51.5 11.666 -77.5 18.999s-48.167 20.833 -66.5 40.5s-27.5 45.834 -27.5 78.501z" />
    <glyph glyph-name="t" unicode="t" horiz-adv-x="340" 
d="M212 478h81.999c25.333 0 38 -10.667 38 -32s-12.667 -32 -38 -32h-82v-290c0 -23.333 4.66699 -39.166 14 -47.499s27 -12.5 53 -12.5c22.667 0 38 -2 46 -6s12 -11.667 12 -23c0 -23.333 -11.667 -35 -35 -35h-142c-32 0 -53 4.16699 -63 12.5s-15 25.833 -15 52.5v349
h-41c-14.667 0 -24.667 2.16699 -30 6.5s-8 12.833 -8 25.5c0 11.333 4.33301 19.166 13 23.499s23 7.16602 43 8.49902c26 2.66699 46.5 13.334 61.5 32.001s24.333 38.5 28 59.5s8.33398 40 14.001 57s13.5 25.5 23.5 25.5s16.833 -2.83301 20.5 -8.5
s5.5 -16.167 5.5 -31.5v-134z" />
    <glyph glyph-name="u" unicode="u" horiz-adv-x="570" 
d="M528 0l-75.998 0.000976562c-23.333 0 -38.333 4.16699 -45 12.5s-11.667 25.166 -15 50.499c-46.667 -48.667 -102 -73 -166 -73c-55.333 0 -96.5 15.333 -123.5 46s-40.5 70.334 -40.5 119.001v205c0 16 -2.33301 28.167 -7 36.5s-10 13.333 -16 15
s-11.333 4.5 -16 8.5s-7 10 -7 18c0 13.333 18.5 25 55.5 35s63.5 15 79.5 15c13.333 0 23.5 -5.16699 30.5 -15.5s10.5 -29.833 10.5 -58.5v-237c0 -44 5.83301 -73.833 17.5 -89.5s32.5 -23.5 62.5 -23.5c29.333 0 55.333 8.66699 78 26s34 39.333 34 66v204
c0 16 -2.33301 28.167 -7 36.5s-10 13.333 -16 15s-11.333 4.5 -16 8.5s-7 10 -7 18c0 13.333 18.5 25 55.5 35s63.5 15 79.5 15c13.333 0 23.5 -5.16699 30.5 -15.5s10.5 -29.833 10.5 -58.5v-317c0 -12.667 2.66699 -22.834 8 -30.501s11.166 -12.667 17.499 -15
s12.166 -5.5 17.499 -9.5s8 -9 8 -15c0 -18 -12.333 -27 -37 -27z" />
    <glyph glyph-name="v" unicode="v" horiz-adv-x="500" 
d="M378 478l110 -0.00195312c14.667 0 22 -7.66699 22 -23c0 -8.66699 -4.33301 -18.667 -13 -30s-15.667 -27 -21 -47c-38 -140.667 -90 -264 -156 -370c-4.66699 -8 -10.834 -13 -18.501 -15s-21.834 -3 -42.501 -3c-33.333 0 -59.666 15.333 -78.999 46
c-34.667 54.667 -62 109 -82 163s-40 121.667 -60 203c-2 7.33301 -9.16699 15.666 -21.5 24.999s-18.5 19.666 -18.5 30.999c0 13.333 11.333 20 34 20h166c20 0 30 -7.33301 30 -22c0 -10.667 -8.33301 -20.167 -25 -28.5s-25 -18.166 -25 -29.499
c0 -35.333 12.833 -85.666 38.5 -150.999s50.834 -119 75.501 -161c27.333 44 51.5 95.5 72.5 154.5s31.5 106.5 31.5 142.5c0 16.667 -8.33301 30.334 -25 41.001s-25 21.334 -25 32.001c0 14.667 10.667 22 32 22z" />
    <glyph glyph-name="w" unicode="w" horiz-adv-x="760" 
d="M26 478l152 -0.000976562c9.33301 0 17 -2.16699 23 -6.5s9 -10.166 9 -17.499c0 -6.66699 -3.33301 -12 -10 -16s-13.334 -9 -20.001 -15s-10 -14.333 -10 -25c0 -22.667 10.5 -71 31.5 -145s40.5 -129 58.5 -165c50.667 89.333 76 186 76 290
c0 14.667 -2.33301 26.167 -7 34.5s-10 13.5 -16 15.5s-11.333 5.16699 -16 9.5s-7 10.5 -7 18.5c0 14.667 10 22 30 22h157c15.333 0 23 -8 23 -24c0 -7.33301 -6 -14.833 -18 -22.5s-18 -17.5 -18 -29.5c0 -62 28.667 -166.667 86 -314c27.333 36 50.5 84.333 69.5 145
s28.5 111 28.5 151c0 17.333 -8.66699 31.666 -26 42.999s-26 21 -26 29c0 14.667 10 22 30 22h119c18 0 27 -7.33301 27 -22c0 -6 -6.33301 -15.167 -19 -27.5s-21 -29.166 -25 -50.499c-6.66699 -36.667 -26.667 -100.334 -60 -191.001s-60 -149 -80 -175
c-11.333 -14.667 -34.666 -22 -69.999 -22c-30 0 -53.5 13.833 -70.5 41.5s-39.833 83.834 -68.5 168.501h-2c-30 -80 -55.167 -135 -75.5 -165s-45.166 -45 -74.499 -45c-17.333 0 -31.333 2 -42 6s-20.334 13.333 -29.001 28c-50 84 -90.667 207 -122 369
c-2 10.667 -5.16699 19.334 -9.5 26.001s-8.33301 11 -12 13s-7 4.66699 -10 8s-4.5 7.66602 -4.5 12.999c0 16.667 9.33301 25 28 25z" />
    <glyph glyph-name="x" unicode="x" horiz-adv-x="530" 
d="M363 478l108 0.000976562c16 0 24 -7.66699 24 -23c0 -6.66699 -1.16699 -11.667 -3.5 -15s-5.33301 -5.83301 -9 -7.5s-9.83398 -6 -18.501 -13s-17.667 -16.167 -27 -27.5l-110 -134c78 -90.667 122.667 -144 134 -160c7.33301 -10 15.5 -18.5 24.5 -25.5
s16.333 -12 22 -15s10.667 -7.16699 15 -12.5s6.5 -12.333 6.5 -21c0 -6.66699 -2.5 -12.334 -7.5 -17.001s-11.833 -7 -20.5 -7h-174c-21.333 0 -32 8 -32 24c0 8 5 16.167 15 24.5s15 14.5 15 18.5c0 8 -12.333 26 -37 54s-45.334 50.333 -62.001 67
c-50.667 -52 -76 -89 -76 -111c0 -12 8.83301 -21.333 26.5 -28s26.5 -15.667 26.5 -27c0 -14.667 -9.33301 -22 -28 -22h-140c-13.333 0 -22.333 1.5 -27 4.5s-7 9.5 -7 19.5c0 7.33301 2.5 12.5 7.5 15.5s14.667 10.167 29 21.5s29.833 27.666 46.5 48.999l103 122
c-54.667 68.667 -94.667 120.667 -120 156c-6 8 -14.667 15.333 -26 22s-20.166 13.167 -26.499 19.5s-9.5 14.5 -9.5 24.5c0 16 8.33301 24 25 24h162c25.333 0 38 -8.66699 38 -26c0 -6 -5.16699 -12.167 -15.5 -18.5s-15.5 -10.166 -15.5 -11.499
c0 -6.66699 11.333 -23.5 34 -50.5s42.334 -49.5 59.001 -67.5c43.333 53.333 65 87.333 65 102c0 6 -6.33301 13.167 -19 21.5s-19 17.833 -19 28.5c0 14.667 14.667 22 44 22z" />
    <glyph glyph-name="y" unicode="y" horiz-adv-x="510" 
d="M29 478l147.001 -0.00292969c20.667 0 31 -8.66699 31 -26c0 -6.66699 -2.83301 -12.167 -8.5 -16.5s-11.5 -10.666 -17.5 -18.999s-9 -21.166 -9 -38.499c0 -32 4.5 -70.333 13.5 -115s23.167 -86.334 42.5 -125.001s40.666 -58 63.999 -58c19.333 0 37 21.5 53 64.5
s27.5 86.833 34.5 131.5s10.5 79.334 10.5 104.001c0 13.333 -4.66699 24.333 -14 33s-18.666 16.167 -27.999 22.5s-14 13.833 -14 22.5c0 13.333 7.33301 20 22 20h130c18.667 0 28 -7 28 -21c0 -8 -3.5 -14.667 -10.5 -20s-14.667 -13.666 -23 -24.999
s-13.833 -27.333 -16.5 -48c-8.66699 -68.667 -22.834 -135.667 -42.501 -201s-44 -125 -73 -179s-63.667 -97.5 -104 -130.5s-82.833 -49.5 -127.5 -49.5c-20.667 0 -40.667 4.5 -60 13.5s-29 21.833 -29 38.5c0 32 20 48 60 48c10 0 23.167 -2.66699 39.5 -8
s27.5 -8 33.5 -8c18.667 0 42.167 14 70.5 42s49.166 58.333 62.499 91c-18 -6 -30.667 -9 -38 -9c-22 0 -42.667 4.5 -62 13.5s-35.666 19.833 -48.999 32.5s-25.666 29.667 -36.999 51s-20.5 40.833 -27.5 58.5s-13.667 40 -20 67s-10.833 48 -13.5 63
s-5.83398 34.833 -9.50098 59.5s-6.16699 40 -7.5 46c-2 11.333 -7.83301 20.5 -17.5 27.5s-14.5 14.5 -14.5 22.5c0 16.667 10.333 25 31 25z" />
    <glyph glyph-name="z" unicode="z" horiz-adv-x="460" 
d="M177 60l113 0.00195312c18.667 0 35 2.83301 49 8.5s24.5 12.667 31.5 21s13.333 16.666 19 24.999s11.167 15.333 16.5 21s11.333 8.5 18 8.5c13.333 0 20 -8.66699 20 -26c0 -32.667 -6.16699 -60.5 -18.5 -83.5s-29.5 -34.5 -51.5 -34.5h-289c-24 0 -41 3 -51 9
s-15 16 -15 30c0 17.333 15.667 45 47 83l240 296h-110c-25.333 0 -46.5 -3.5 -63.5 -10.5s-28.5 -14.667 -34.5 -23s-12.333 -16 -19 -23s-13.667 -10.5 -21 -10.5c-12 0 -18 13 -18 39c0 22.667 5 43 15 61s23.667 27 41 27h287c40.667 0 61 -15.333 61 -46
c0 -4 -0.666992 -8.5 -2 -13.5s-3 -9.33301 -5 -13s-4.83301 -8.33398 -8.5 -14.001l-8.5 -13c-2 -3 -5.33301 -7.5 -10 -13.5s-7.66699 -10 -9 -12z" />
    <glyph glyph-name="braceleft" unicode="{" horiz-adv-x="290" 
d="M198 138v-185.996c0 -33.333 1.66699 -55 5 -65s11 -15 23 -15c26.667 0 40 -10.333 40 -31c0 -12 -2.33301 -20.5 -7 -25.5s-14.334 -7.5 -29.001 -7.5h-76c-28.667 0 -47.834 6.16699 -57.501 18.5s-14.5 35.166 -14.5 68.499v259c0 36.667 -5.16699 64.167 -15.5 82.5
s-30.5 32.166 -60.5 41.499c30 9.33301 50.167 23.166 60.5 41.499s15.5 45.833 15.5 82.5v259c0 33.333 4.83301 56.166 14.5 68.499s28.834 18.5 57.501 18.5h76c14.667 0 24.334 -2.5 29.001 -7.5s7 -13.5 7 -25.5c0 -20.667 -13.333 -31 -40 -31
c-12 0 -19.667 -5 -23 -15s-5 -31.667 -5 -65v-186c0 -42 -5.33301 -73.5 -16 -94.5s-32.334 -35.833 -65.001 -44.5v-2c32.667 -8.66699 54.334 -23.5 65.001 -44.5s16 -52.5 16 -94.5z" />
    <glyph glyph-name="bar" unicode="|" horiz-adv-x="222" 
d="M66 0v762h90v-762h-90z" />
    <glyph glyph-name="braceright" unicode="}" horiz-adv-x="290" 
d="M92 -48v185.996c0 42 5.33301 73.5 16 94.5s32.334 35.833 65.001 44.5v2c-32.667 8.66699 -54.334 23.5 -65.001 44.5s-16 52.5 -16 94.5v186c0 33.333 -1.66699 55 -5 65s-11 15 -23 15c-26.667 0 -40 10.333 -40 31c0 12 2.33301 20.5 7 25.5s14.334 7.5 29.001 7.5
h76c28.667 0 47.834 -6.16699 57.501 -18.5s14.5 -35.166 14.5 -68.499v-259c0 -36.667 5.16699 -64.167 15.5 -82.5s30.5 -32.166 60.5 -41.499c-30 -9.33301 -50.167 -23.166 -60.5 -41.499s-15.5 -45.833 -15.5 -82.5v-259c0 -33.333 -4.83301 -56.166 -14.5 -68.499
s-28.834 -18.5 -57.501 -18.5h-76c-14.667 0 -24.334 2.5 -29.001 7.5s-7 13.5 -7 25.5c0 20.667 13.333 31 40 31c12 0 19.667 5 23 15s5 31.667 5 65z" />
    <glyph glyph-name="asciitilde" unicode="~" horiz-adv-x="600" 
d="M495 321l42 -74c-18 -26.667 -36.833 -47.667 -56.5 -63s-44.5 -23 -74.5 -23c-26 0 -63 10.667 -111 32c-49.333 21.333 -83.333 32 -102 32c-18 0 -33.667 -5.83301 -47 -17.5s-27 -28.5 -41 -50.5l-42 74c18 26.667 36.833 47.667 56.5 63s44.5 23 74.5 23
c26 0 63 -10.667 111 -32c49.333 -21.333 83.333 -32 102 -32c18 0 33.667 5.83301 47 17.5s27 28.5 41 50.5z" />
    <glyph glyph-name="uni00A0" unicode="&#xa0;" horiz-adv-x="320" 
 />
    <glyph glyph-name="exclamdown" unicode="&#xa1;" horiz-adv-x="330" 
d="M200 313l45 -402c3.33301 -25.333 5 -39.666 5 -42.999c0 -22 -9 -38.167 -27 -48.5s-37.333 -15.5 -58 -15.5s-40 5.16699 -58 15.5s-27 26.5 -27 48.5c0 3.33301 1.66699 17.666 5 42.999l45 402c2.66699 22.667 6.16699 37.834 10.5 45.501s12.5 11.5 24.5 11.5
s20.167 -3.83301 24.5 -11.5s7.83301 -22.834 10.5 -45.501zM165 572c21.333 0 40 -6.5 56 -19.5s24 -29.833 24 -50.5c0 -20 -8 -36.667 -24 -50s-34.667 -20 -56 -20s-40 6.66699 -56 20s-24 30 -24 50c0 20.667 8 37.5 24 50.5s34.667 19.5 56 19.5z" />
    <glyph glyph-name="cent" unicode="&#xa2;" 
d="M320 227v336.001c-26 -8 -47.167 -28.333 -63.5 -61s-24.5 -73.667 -24.5 -123c0 -78.667 29.333 -129.334 88 -152.001zM376 563.001v-345.997c24 1.33301 45.667 8.16602 65 20.499s34.833 24.166 46.5 35.499s21.167 17 28.5 17c6.66699 0 12.5 -2.33301 17.5 -7
s7.5 -10.334 7.5 -17.001c0 -20.667 -16.167 -44 -48.5 -70s-71.166 -42.333 -116.499 -49v-91c0 -14 -2 -23.5 -6 -28.5s-11.333 -7.5 -22 -7.5s-18 2.5 -22 7.5s-6 14.5 -6 28.5v90c-64.667 3.33301 -117.834 26.5 -159.501 69.5s-62.5 97.833 -62.5 164.5
c0 67.333 20.833 123.833 62.5 169.5s94.834 71.5 159.501 77.5v105c0 14 2 23.5 6 28.5s11.333 7.5 22 7.5s18 -2.5 22 -7.5s6 -14.5 6 -28.5v-105c36.667 -3.33301 71.5 -13.5 104.5 -30.5s49.5 -39.5 49.5 -67.5c0 -14 -4.83301 -25.5 -14.5 -34.5
s-21.167 -13.5 -34.5 -13.5c-18.667 0 -37.334 12.333 -56.001 37s-35 39.667 -49 45z" />
    <glyph glyph-name="sterling" unicode="&#xa3;" 
d="M293 404l137.001 -0.000976562c25.333 0 38 -11.667 38 -35c0 -12 -2.83301 -20.833 -8.5 -26.5s-15.5 -8.5 -29.5 -8.5h-117c3.33301 -33.333 5 -51.666 5 -54.999c0 -63.333 -22.667 -115.333 -68 -156l2 -3c17.333 6.66699 40.333 10 69 10
c12 0 36.667 -5.66699 74 -17s63.333 -17 78 -17c18.667 0 37.667 7.5 57 22.5s31.333 22.5 36 22.5c20 0 30 -11.667 30 -35c0 -26 -14.833 -52.833 -44.5 -80.5s-63.834 -41.5 -102.501 -41.5c-22.667 0 -58.834 8 -108.501 24s-87.167 24 -112.5 24
c-22 0 -48 -7.83301 -78 -23.5s-48 -23.5 -54 -23.5c-8 0 -14.833 2.83301 -20.5 8.5s-8.5 12.834 -8.5 21.501c0 9.33301 6.83301 20.333 20.5 33s28.667 25.667 45 39s31.333 33.166 45 59.499s20.5 55.833 20.5 88.5c0 22 -5 55 -15 99h-85
c-14 0 -23.833 2.83301 -29.5 8.5s-8.5 14.5 -8.5 26.5c0 23.333 12.667 35 38 35h61c-18 39.333 -27 79.333 -27 120c0 66.667 23.5 120.667 70.5 162s103.5 62 169.5 62c54.667 0 101.667 -15.333 141 -46s59 -73.334 59 -128.001c0 -20.667 -5.33301 -36.834 -16 -48.501
s-25.667 -17.5 -45 -17.5c-12 0 -23.5 3.5 -34.5 10.5s-16.5 16.5 -16.5 28.5c0 4.66699 1.33301 11.834 4 21.501s4 16.834 4 21.501c0 28 -10 51 -30 69s-43.667 27 -71 27c-33.333 0 -60.166 -12.5 -80.499 -37.5s-30.5 -54.833 -30.5 -89.5
c0 -22 12.333 -73.667 37 -155z" />
    <glyph glyph-name="currency" unicode="&#xa4;" 
d="M56 153l57.001 58c-34 38 -51 89.667 -51 155c0 64.667 17 116 51 154l-57 58l53 53l59 -59c39.333 34 90 51 152 51c63.333 0 114 -17 152 -51l59 59l53 -53l-57 -58c34 -38 51 -89.333 51 -154c0 -65.333 -17 -117 -51 -155l57 -58l-53 -53l-59 59
c-39.333 -34 -90 -51 -152 -51c-60.667 0 -111.334 17 -152.001 51l-59 -59zM154.001 366c0 -47.333 16.167 -87.5 48.5 -120.5s71.5 -49.5 117.5 -49.5s85.167 16.5 117.5 49.5s48.5 73.167 48.5 120.5c0 46.667 -16.167 86.5 -48.5 119.5s-71.5 49.5 -117.5 49.5
s-85.167 -16.5 -117.5 -49.5s-48.5 -72.833 -48.5 -119.5z" />
    <glyph glyph-name="yen" unicode="&#xa5;" 
d="M390 311l160.998 -0.00195312c24 0 36 -11.667 36 -35s-12 -35 -36 -35h-168v-141c0 -12.667 2.33301 -22.334 7 -29.001s9.83398 -10.667 15.501 -12s10.834 -4.16602 15.501 -8.49902s7 -11.166 7 -20.499c0 -20 -12.667 -30 -38 -30h-136c-24.667 0 -37 10 -37 30
c0 9.33301 2.33301 16.333 7 21s10 7.66699 16 9s11.333 5.33301 16 12s7 16 7 28v141h-173c-24 0 -36 11.667 -36 35s12 35 36 35h164l-38 71h-126c-24 0 -36 11.667 -36 35s12 35 36 35h88l-106 196c-2.66699 4.66699 -11.834 11.834 -27.501 21.501
s-23.5 21.5 -23.5 35.5c0 18 11.333 27 34 27h159c21.333 0 32 -9 32 -27c0 -12 -6.16699 -21.833 -18.5 -29.5s-18.5 -15.167 -18.5 -22.5c0 -31.333 48.333 -127.333 145 -288l31.5 54l30.5 51.5l26 45l23.5 42.5c5.66699 10.667 11.334 22 17.001 34s9.66699 22 12 30
s3.5 15 3.5 21c0 12 -6.83301 22.5 -20.5 31.5s-20.5 19.5 -20.5 31.5c0 17.333 12 26 36 26h97c19.333 0 29 -9 29 -27c0 -8.66699 -2 -15.334 -6 -20.001s-10.5 -11.167 -19.5 -19.5s-17.167 -19.166 -24.5 -32.499l-101 -181h83c24 0 36 -11.667 36 -35s-12 -35 -36 -35
h-122z" />
    <glyph glyph-name="brokenbar" unicode="&#xa6;" horiz-adv-x="222" 
d="M66 0v286h90v-286h-90zM66 476v286h90v-286h-90z" />
    <glyph glyph-name="section" unicode="&#xa7;" horiz-adv-x="560" 
d="M261 -146c34.667 0 66.3379 11.167 95.0049 33.5s43 50.5 43 84.5c0 26.667 -9.33301 49 -28 67s-41.834 31.333 -69.501 40l-90.5 29.5c-32.667 11 -62.834 22.333 -90.501 34s-50.834 29.834 -69.501 54.501s-28 54.667 -28 90c0 53.333 30.333 104 91 152
c-18.667 20.667 -32.334 39.667 -41.001 57s-13 38 -13 62c0 58 23 104.167 69 138.5s98.667 51.5 158 51.5c39.333 0 79.833 -6.5 121.5 -19.5s65.834 -25.5 72.501 -37.5c4 -6.66699 9.16699 -24.834 15.5 -54.501s9.5 -49.167 9.5 -58.5c0 -8.66699 -2.66699 -16 -8 -22
s-12.333 -9 -21 -9c-10 0 -20.333 7.33301 -31 22s-20.834 30.834 -30.501 48.501s-25.334 33.834 -47.001 48.501s-47.5 22 -77.5 22s-57.667 -8.5 -83 -25.5s-38 -40.167 -38 -69.5c0 -20.667 6.66699 -38.167 20 -52.5s30.833 -25.833 52.5 -34.5
s45.667 -16.834 72 -24.501s52.5 -16 78.5 -25s49.833 -19.667 71.5 -32s39.167 -29.5 52.5 -51.5s20 -47.667 20 -77c0 -52 -25.333 -105.667 -76 -161c18.667 -21.333 32.667 -41.333 42 -60s14 -40.334 14 -65.001c0 -66 -26 -119.167 -78 -159.5s-112 -60.5 -180 -60.5
c-27.333 0 -54.166 3.5 -80.499 10.5s-44 12.833 -53 17.5l-39.5 21c-10.667 6 -20.834 29.167 -30.501 69.5s-14.5 68.833 -14.5 85.5c0 8.66699 2.5 16.167 7.5 22.5s12.167 9.5 21.5 9.5c11.333 0 22.5 -9 33.5 -27s21 -37.667 30 -59s24.5 -41 46.5 -59s49 -27 81 -27z
M166.004 405c-24.667 -26 -37.001 -51.999 -37.001 -77.999c0 -30.667 14.833 -54 44.5 -70s70.167 -30.5 121.5 -43.5s89.333 -27.167 114 -42.5c21.333 34 32 60.333 32 79c0 19.333 -4.83301 35.333 -14.5 48s-24.167 23.167 -43.5 31.5s-39.333 15.5 -60 21.5l-76.5 23
c-30.333 9.33301 -57.166 19.666 -80.499 30.999z" />
    <glyph glyph-name="dieresis" unicode="&#xa8;" horiz-adv-x="259" 
d="M102 613c0 -21.333 -7.5 -37.666 -22.5 -48.999s-33.167 -17 -54.5 -17s-39.5 5.66699 -54.5 17s-22.5 27.666 -22.5 48.999s7.5 37.666 22.5 48.999s33.167 17 54.5 17s39.5 -5.66699 54.5 -17s22.5 -27.666 22.5 -48.999zM311 613
c0 -21.333 -7.5 -37.666 -22.5 -48.999s-33.167 -17 -54.5 -17s-39.5 5.66699 -54.5 17s-22.5 27.666 -22.5 48.999s7.5 37.666 22.5 48.999s33.167 17 54.5 17s39.5 -5.66699 54.5 -17s22.5 -27.666 22.5 -48.999z" />
    <glyph glyph-name="copyright" unicode="&#xa9;" horiz-adv-x="800" 
d="M28 366c0 106.667 35.833 197 107.5 271s159.834 111 264.501 111s192.834 -37 264.501 -111s107.5 -164.333 107.5 -271s-35.833 -197 -107.5 -271s-159.834 -111 -264.501 -111s-192.834 37 -264.501 111s-107.5 164.333 -107.5 271zM692 366
c0 88 -27.833 163.333 -83.5 226s-125.167 94 -208.5 94s-152.833 -31.333 -208.5 -94s-83.5 -138 -83.5 -226s27.833 -163.333 83.5 -226s125.167 -94 208.5 -94s152.833 31.333 208.5 94s83.5 138 83.5 226zM557 284l25.0029 -0.00195312l-17 -91
c-1.33301 -7.33301 -18.666 -15.666 -51.999 -24.999s-63.666 -14 -90.999 -14c-72 0 -129 18.833 -171 56.5s-63 93.167 -63 166.5c0 24 4.5 48.167 13.5 72.5s22.667 47.5 41 69.5s43.666 40 75.999 54s69.166 21 110.499 21c32 0 62.667 -5 92 -15s44 -20 44 -30v-80h-26
c-14 60.667 -51 91 -111 91c-42.667 0 -75.667 -16.5 -99 -49.5s-35 -75.833 -35 -128.5c0 -60.667 11.167 -108.167 33.5 -142.5s57.166 -51.5 104.499 -51.5c31.333 0 56.666 8.33301 75.999 25s35.666 40.334 48.999 71.001z" />
    <glyph glyph-name="ordfeminine" unicode="&#xaa;" horiz-adv-x="330" 
d="M299 455l-49.998 0.000976562c-12.667 0 -20.834 2.5 -24.501 7.5s-5.16699 13.167 -4.5 24.5h-3c-18 -24.667 -52 -37 -102 -37c-31.333 0 -58.333 7.83301 -81 23.5s-34 37.167 -34 64.5c0 22.667 8.66699 42.167 26 58.5s38.666 28.166 63.999 35.499
s48.166 12.333 68.499 15s37.5 4 51.5 4c1.33301 17.333 -3.66699 31.833 -15 43.5s-26.666 17.5 -45.999 17.5c-18 0 -35.5 -5.83301 -52.5 -17.5s-32.167 -17.5 -45.5 -17.5c-19.333 0 -29 8 -29 24c0 16.667 14.333 28.667 43 36s55 11 79 11
c46 0 83.333 -8.66699 112 -26s43 -44 43 -80v-129c0 -11.333 5.33301 -19.5 16 -24.5s16 -9.83301 16 -14.5c0 -7.33301 -2.16699 -12.333 -6.5 -15s-12.833 -4 -25.5 -4zM212.002 549.001l0.000976562 69c-27.333 -0.666992 -54.5 -7.83398 -81.5 -21.501
s-40.5 -33.167 -40.5 -58.5c0 -14 5.66699 -26.667 17 -38s25.333 -17 42 -17c19.333 0 34.666 6.83301 45.999 20.5s17 28.834 17 45.501z" />
    <glyph glyph-name="guillemotleft" unicode="&#xab;" horiz-adv-x="360" 
d="M125 97l-78 101.002c-15.333 20 -23 34 -23 42c0 6.66699 7.66699 20 23 40l78 101c10 13.333 17.167 21.833 21.5 25.5s9.5 5.5 15.5 5.5c12 0 18 -6.33301 18 -19c0 -5.33301 -4 -17.333 -12 -36l-48 -104c-3.33301 -6.66699 -5 -11.334 -5 -14.001
s1.66699 -7.33398 5 -14.001l48 -104c8 -18.667 12 -30.667 12 -36c0 -12.667 -6 -19 -18 -19c-6 0 -11.167 1.83301 -15.5 5.5s-11.5 12.167 -21.5 25.5zM281 97.002l-78 101.002c-15.333 20 -23 34 -23 42c0 6.66699 7.66699 20 23 40l78 101
c10 13.333 17.167 21.833 21.5 25.5s9.5 5.5 15.5 5.5c12 0 18 -6.33301 18 -19c0 -5.33301 -4 -17.333 -12 -36l-48 -104c-3.33301 -6.66699 -5 -11.334 -5 -14.001s1.66699 -7.33398 5 -14.001l48 -104c8 -18.667 12 -30.667 12 -36c0 -12.667 -6 -19 -18 -19
c-6 0 -11.167 1.83301 -15.5 5.5s-11.5 12.167 -21.5 25.5z" />
    <glyph glyph-name="logicalnot" unicode="&#xac;" horiz-adv-x="600" 
d="M449 114v160h-388v90h478v-250h-90z" />
    <glyph glyph-name="uni00AD" unicode="&#xad;" horiz-adv-x="320" 
d="M271 191h-222c-19.333 0 -29 16 -29 48s9.66699 48 29 48h222c19.333 0 29 -16 29 -48s-9.66699 -48 -29 -48z" />
    <glyph glyph-name="registered" unicode="&#xae;" horiz-adv-x="800" 
d="M222 554l0.00195312 21.998h203c35.333 0 65 -8.83301 89 -26.5s36 -43.167 36 -76.5c0 -26.667 -7.5 -50.5 -22.5 -71.5s-33.833 -35.833 -56.5 -44.5l59 -85c28.667 -43.333 52.667 -73.333 72 -90v-12h-84c-10.667 0 -21.334 7.33301 -32.001 22
s-25.334 38.5 -44.001 71.5s-35 59.833 -49 80.5h-35v-117c0 -14 2.66699 -22.833 8 -26.5s19.333 -6.5 42 -8.5v-22h-186v22c22.667 2.66699 36.334 6.33398 41.001 11.001s7 17.334 7 38.001v263c0 21.333 -2.33301 34.5 -7 39.5s-18.334 8.5 -41.001 10.5z
M358.002 543.998v-168h32c46.667 0 70 29.667 70 89c0 52.667 -23.333 79 -70 79h-32zM28.002 365.998c0 106.667 35.833 197 107.5 271s159.834 111 264.501 111s192.834 -37 264.501 -111s107.5 -164.333 107.5 -271s-35.833 -197 -107.5 -271
s-159.834 -111 -264.501 -111s-192.834 37 -264.501 111s-107.5 164.333 -107.5 271zM692.002 365.998c0 88 -27.833 163.333 -83.5 226s-125.167 94 -208.5 94s-152.833 -31.333 -208.5 -94s-83.5 -138 -83.5 -226s27.833 -163.333 83.5 -226s125.167 -94 208.5 -94
s152.833 31.333 208.5 94s83.5 138 83.5 226z" />
    <glyph glyph-name="macron" unicode="&#xaf;" horiz-adv-x="259" 
d="M236 576h-213c-13.333 0 -23.166 2.66699 -29.499 8s-9.5 15 -9.5 29s3.16699 23.667 9.5 29s16.166 8 29.499 8h213c13.333 0 23.166 -2.66699 29.499 -8s9.5 -15 9.5 -29s-3.16699 -23.667 -9.5 -29s-16.166 -8 -29.499 -8z" />
    <glyph glyph-name="degree" unicode="&#xb0;" horiz-adv-x="400" 
d="M200 698c-25.333 0 -46.5 -8.6709 -63.5 -26.0039s-25.5 -39.666 -25.5 -66.999s8.5 -49.666 25.5 -66.999s38.167 -26 63.5 -26c26 0 47.333 8.83301 64 26.5s25 39.834 25 66.501s-8.33301 48.834 -25 66.501s-38 26.5 -64 26.5zM57 604.996
c0 40 13.833 73.833 41.5 101.5s61.5 41.5 101.5 41.5s73.833 -13.833 101.5 -41.5s41.5 -61.5 41.5 -101.5s-13.833 -73.833 -41.5 -101.5s-61.5 -41.5 -101.5 -41.5s-73.833 13.833 -101.5 41.5s-41.5 61.5 -41.5 101.5z" />
    <glyph glyph-name="plusminus" unicode="&#xb1;" horiz-adv-x="600" 
d="M254 345v133h90v-133h195v-90h-195v-133h-90v133h-193v90h193zM61 0v90h478v-90h-478z" />
    <glyph glyph-name="twosuperior" unicode="&#xb2;" horiz-adv-x="384" 
d="M131 362l132.007 -0.00195312c20.667 0 39.667 6.5 57 19.5s28.666 19.5 33.999 19.5c3.33301 0 6.66602 -1.66699 9.99902 -5s5 -6.66602 5 -9.99902c0 -2 -0.833008 -5 -2.5 -9l-8 -20c-3.66699 -9.33301 -6.83398 -20.333 -9.50098 -33
c-3.33301 -17.333 -14 -26 -32 -26h-269c-10.667 0 -18 1.33301 -22 4s-6 7.66699 -6 15c0 19.333 12.667 43.5 38 72.5s53.166 56.333 83.499 82s58.166 54.5 83.499 86.5s38 60 38 84c0 20 -6.83301 36.333 -20.5 49s-31.167 19 -52.5 19
c-18.667 0 -37.167 -6.16699 -55.5 -18.5s-27.5 -26.833 -27.5 -43.5c0 -7.33301 3 -15 9 -23s9 -14.667 9 -20c0 -9.33301 -4.33301 -16.333 -13 -21s-18.334 -7 -29.001 -7c-16 0 -28.667 4.83301 -38 14.5s-14 22.167 -14 37.5c0 32 16.667 59.833 50 83.5
s74.666 35.5 123.999 35.5c50.667 0 89.667 -11 117 -33s41 -49.333 41 -82c0 -24.667 -8.83301 -49.334 -26.5 -74.001s-38 -45.667 -61 -63s-49 -38.666 -78 -63.999s-51.167 -48.666 -66.5 -69.999z" />
    <glyph glyph-name="threesuperior" unicode="&#xb3;" horiz-adv-x="384" 
d="M362 423c0 -44 -18.167 -77.668 -54.5 -101.001s-80.166 -35 -131.499 -35c-16 0 -33 1.66699 -51 5s-35.833 8.5 -53.5 15.5s-32.167 16.833 -43.5 29.5s-17 27.334 -17 44.001c0 25.333 14.333 38 43 38c12.667 0 21.834 -2.16699 27.501 -6.5
s8.83398 -12.166 9.50098 -23.499c5.33301 -44 30.666 -66 75.999 -66c31.333 0 55 9 71 27s24 41.333 24 70c0 35.333 -11 59.666 -33 72.999s-54 20 -96 20c-20.667 0 -31 6.33301 -31 19c0 3.33301 0.666992 6.16602 2 8.49902s2.83301 4 4.5 5s4.16699 2 7.5 3
s6 1.5 8 1.5s5.16699 0.166992 9.5 0.5s6.83301 0.5 7.5 0.5c36.667 3.33301 63 11.333 79 24s24 34.334 24 65.001c0 21.333 -6.5 38.666 -19.5 51.999s-30.833 20 -53.5 20c-14.667 0 -27.667 -3.5 -39 -10.5s-17 -17.167 -17 -30.5c0 -3.33301 0.666992 -8.5 2 -15.5
s1.66602 -12.5 0.999023 -16.5c0 -7.33301 -4 -12.833 -12 -16.5s-16.667 -5.5 -26 -5.5c-31.333 0 -47 12 -47 36c0 26 15.167 48.333 45.5 67s67.5 28 111.5 28c40 0 75 -9.66699 105 -29s45 -46.666 45 -81.999c0 -26 -9.33301 -47.167 -28 -63.5
s-42.334 -27.833 -71.001 -34.5v-2c32.667 -4.66699 61 -17.5 85 -38.5s36 -46.167 36 -75.5z" />
    <glyph glyph-name="acute" unicode="&#xb4;" horiz-adv-x="259" 
d="M246 649l-120 -95c-18.667 -13.333 -31 -20 -37 -20c-12.667 0 -19 6 -19 18c0 6 5 17 15 33l52 91c10 17.333 18.667 28.666 26 33.999s17.666 8 30.999 8h56c19.333 0 29 -9 29 -27c0 -4 -0.5 -7.66699 -1.5 -11s-3 -6.5 -6 -9.5s-5.5 -5.33301 -7.5 -7
s-5.16699 -4.16699 -9.5 -7.5s-7.16602 -5.66602 -8.49902 -6.99902z" />
    <glyph glyph-name="mu" unicode="&#xb5;" horiz-adv-x="570" 
d="M384 156l0.00195312 204.002c0 16 -2.33301 28.167 -7 36.5s-10 13.333 -16 15s-11.333 4.5 -16 8.5s-7 10 -7 18c0 13.333 18.5 25 55.5 35s63.5 15 79.5 15c13.333 0 23.5 -5.16699 30.5 -15.5s10.5 -29.833 10.5 -58.5v-317c0 -12.667 2.66699 -22.834 8 -30.501
s11.166 -12.667 17.499 -15s12.166 -5.5 17.499 -9.5s8 -9 8 -15c0 -18 -12.333 -27 -37 -27h-76c-23.333 0 -38.333 4.16699 -45 12.5s-11.667 25.166 -15 50.499c-46.667 -48.667 -102 -73 -166 -73c-12.667 0 -24 1 -34 3v-126c0 -24 -4.83301 -40.5 -14.5 -49.5
s-26.5 -13.5 -50.5 -13.5s-40.833 4.5 -50.5 13.5s-14.5 25.5 -14.5 49.5v493c0 16 -2.33301 28.167 -7 36.5s-10 13.333 -16 15s-11.333 4.5 -16 8.5s-7 10 -7 18c0 13.333 18.5 25 55.5 35s63.5 15 79.5 15c13.333 0 23.5 -5.16699 30.5 -15.5s10.5 -29.833 10.5 -58.5
v-237c0 -44 5.83301 -73.833 17.5 -89.5s32.5 -23.5 62.5 -23.5c29.333 0 55.333 8.66699 78 26s34 39.333 34 66z" />
    <glyph glyph-name="paragraph" unicode="&#xb6;" horiz-adv-x="600" 
d="M257 732l213.999 -0.000976562c20 0 32.833 -4.16699 38.5 -12.5s8.5 -25.833 8.5 -52.5v-805c0 -33.333 -15.333 -50 -46 -50s-46 16.667 -46 50v746c0 13.333 -1.66699 22.333 -5 27s-9.66602 7 -18.999 7s-15.666 -2.33301 -18.999 -7s-5 -13.667 -5 -27v-746
c0 -33.333 -15.333 -50 -46 -50s-46 16.667 -46 50v404c-22 -22.667 -47.333 -34 -76 -34c-46.667 0 -85 22.667 -115 68s-45 100.333 -45 165c0 80.667 19.667 145.334 59 194.001s88.666 73 147.999 73z" />
    <glyph glyph-name="periodcentered" unicode="&#xb7;" horiz-adv-x="320" 
d="M89 239c0 19.333 7 36 21 50s30.667 21 50 21s36 -7 50 -21s21 -30.667 21 -50s-7 -36 -21 -50s-30.667 -21 -50 -21s-36 7 -50 21s-21 30.667 -21 50z" />
    <glyph glyph-name="cedilla" unicode="&#xb8;" horiz-adv-x="259" 
d="M170 0l-24.002 -56.002h16c27.333 0 49.5 -6.66699 66.5 -20s25.5 -33 25.5 -59c0 -56.667 -39.667 -85 -119 -85c-30 0 -53 5.33301 -69 16s-24 22 -24 34c0 6 1.83301 11.167 5.5 15.5s8.5 6.5 14.5 6.5c10.667 0 22.5 -3.33301 35.5 -10s23.5 -10 31.5 -10
c10.667 0 20.834 3.33301 30.501 10s14.5 15.334 14.5 26.001c0 18.667 -11.667 28 -35 28c-10.667 0 -21.167 -0.833008 -31.5 -2.5s-16.166 -2.5 -17.499 -2.5c-7.33301 0 -11 3.66699 -11 11c0 6.66699 1.66699 14.334 5 23.001l34 75h52z" />
    <glyph glyph-name="onesuperior" unicode="&#xb9;" horiz-adv-x="384" 
d="M244 719l-0.000976562 -330.998c0 -20 2.83301 -33.333 8.5 -40s16.834 -10.667 33.501 -12c26.667 -0.666992 40 -7.33398 40 -20.001c0 -12 -10.333 -18 -31 -18h-202c-22 0 -33 6 -33 18c0 10.667 14 17.334 42 20.001c19.333 1.33301 31.833 5.16602 37.5 11.499
s8.5 19.5 8.5 39.5v239c0 20 -3 32.667 -9 38s-20 7.66602 -42 6.99902h-22c-18.667 0 -28 5.66699 -28 17c0 10 11 16.333 33 19c29.333 4 58 12.667 86 26s45.333 20 52 20c10.667 0 17.667 -2.83301 21 -8.5s5 -14.167 5 -25.5z" />
    <glyph glyph-name="ordmasculine" unicode="&#xba;" horiz-adv-x="354" 
d="M0 598c0 44 17 80 51 108s76 42 126 42c49.333 0 91.166 -14 125.499 -42s51.5 -64 51.5 -108c0 -43.333 -17.167 -78.833 -51.5 -106.5s-76.166 -41.5 -125.499 -41.5c-50 0 -92 13.833 -126 41.5s-51 63.167 -51 106.5zM90 598c0 -30.667 6.66699 -57 20 -79
s35.666 -33 66.999 -33s53.666 11 66.999 33s20 48.333 20 79s-6.66699 57.334 -20 80.001s-35.666 34 -66.999 34s-53.666 -11.333 -66.999 -34s-20 -49.334 -20 -80.001z" />
    <glyph glyph-name="guillemotright" unicode="&#xbb;" horiz-adv-x="360" 
d="M313 198l-78 -101.002c-10 -13.333 -17.167 -21.833 -21.5 -25.5s-9.5 -5.5 -15.5 -5.5c-12 0 -18 6.33301 -18 19c0 5.33301 4 17.333 12 36l48 104c3.33301 6.66699 5 11.334 5 14.001s-1.66699 7.33398 -5 14.001l-48 104c-8 18.667 -12 30.667 -12 36
c0 12.667 6 19 18 19c6 0 11.167 -1.83301 15.5 -5.5s11.5 -12.167 21.5 -25.5l78 -101c15.333 -20 23 -33.333 23 -40c0 -8 -7.66699 -22 -23 -42zM157 197.998l-78 -101.002c-10 -13.333 -17.167 -21.833 -21.5 -25.5s-9.5 -5.5 -15.5 -5.5c-12 0 -18 6.33301 -18 19
c0 5.33301 4 17.333 12 36l48 104c3.33301 6.66699 5 11.334 5 14.001s-1.66699 7.33398 -5 14.001l-48 104c-8 18.667 -12 30.667 -12 36c0 12.667 6 19 18 19c6 0 11.167 -1.83301 15.5 -5.5s11.5 -12.167 21.5 -25.5l78 -101c15.333 -20 23 -33.333 23 -40
c0 -8 -7.66699 -22 -23 -42z" />
    <glyph glyph-name="onequarter" unicode="&#xbc;" horiz-adv-x="960" 
d="M824 115l-0.000976562 -57c0 -16.667 8.66699 -26 26 -28c10.667 -0.666992 16 -5.33398 16 -14.001c0 -10.667 -10.333 -16 -31 -16h-119c-20.667 0 -31 5.33301 -31 16c0 8.66699 5.33301 13.334 16 14.001c18 2 27 11.333 27 28v57h-164
c-14.667 0 -24.167 1.66699 -28.5 5s-6.5 8.66602 -6.5 15.999c0 32.667 23.667 84.834 71 156.501s92 121.5 134 149.5c12.667 8 28.334 12 47.001 12s30.5 -3.16699 35.5 -9.5s7.5 -18.5 7.5 -36.5v-253h49c7.33301 0 12.833 -0.166992 16.5 -0.5s7 -2 10 -5
s4.5 -7.5 4.5 -13.5c0 -14 -9.33301 -21 -28 -21h-52zM727.999 155v227c-68.667 -75.333 -117 -151 -145 -227h145zM244.999 2l435 740c2.66699 4 13.667 6 33 6c18.667 0 28.334 -2.66699 29.001 -8c0 -4 -1.33301 -7.33301 -4 -10l-436 -742
c-2 -2.66699 -12.667 -4 -32 -4c-18.667 0 -28.334 2.66699 -29.001 8c0 4 1.33301 7.33301 4 10zM243.999 719l-0.000976562 -330.998c0 -20 2.83301 -33.333 8.5 -40s16.834 -10.667 33.501 -12c26.667 -0.666992 40 -7.33398 40 -20.001c0 -12 -10.333 -18 -31 -18h-202
c-22 0 -33 6 -33 18c0 10.667 14 17.334 42 20.001c19.333 1.33301 31.833 5.16602 37.5 11.499s8.5 19.5 8.5 39.5v239c0 20 -3 32.667 -9 38s-20 7.66602 -42 6.99902h-22c-18.667 0 -28 5.66699 -28 17c0 10 11 16.333 33 19c29.333 4 58 12.667 86 26s45.333 20 52 20
c10.667 0 17.667 -2.83301 21 -8.5s5 -14.167 5 -25.5z" />
    <glyph glyph-name="onehalf" unicode="&#xbd;" horiz-adv-x="960" 
d="M663 64l132.007 -0.00195312c20.667 0 39.667 6.5 57 19.5s28.666 19.5 33.999 19.5c3.33301 0 6.66602 -1.66699 9.99902 -5s5 -6.66602 5 -9.99902c0 -2 -0.833008 -5 -2.5 -9l-8 -20c-3.66699 -9.33301 -6.83398 -20.333 -9.50098 -33
c-3.33301 -17.333 -14 -26 -32 -26h-269c-10.667 0 -18 1.33301 -22 4s-6 7.66699 -6 15c0 19.333 12.667 43.5 38 72.5s53.166 56.333 83.499 82s58.166 54.5 83.499 86.5s38 60 38 84c0 20 -6.83301 36.333 -20.5 49s-31.167 19 -52.5 19
c-18.667 0 -37.167 -6.16699 -55.5 -18.5s-27.5 -26.833 -27.5 -43.5c0 -7.33301 3 -15 9 -23s9 -14.667 9 -20c0 -9.33301 -4.33301 -16.333 -13 -21s-18.334 -7 -29.001 -7c-16 0 -28.667 4.83301 -38 14.5s-14 22.167 -14 37.5c0 32 16.667 59.833 50 83.5
s74.666 35.5 123.999 35.5c50.667 0 89.667 -11 117 -33s41 -49.333 41 -82c0 -24.667 -8.83301 -49.334 -26.5 -74.001s-38 -45.667 -61 -63s-49 -38.666 -78 -63.999s-51.167 -48.666 -66.5 -69.999zM244.007 718.998v-330.999c0 -19.333 2.16699 -32.5 6.5 -39.5
s16.166 -11.167 35.499 -12.5c21.333 -1.33301 33.666 -4.66602 36.999 -9.99902c2 -2.66699 3 -6 3 -10c0 -12 -10.333 -18 -31 -18h-202c-22 0 -33 6 -33 18c0 11.333 14.333 18 43 20c20.667 1.33301 33.334 5.16602 38.001 11.499s7 19.5 7 39.5v239
c0 20 -3 32.667 -9 38s-20 7.66602 -42 6.99902h-22c-18.667 0 -28 5.66699 -28 17c0 2 0.333008 4 1 6s1.83398 3.5 3.50098 4.5s3 2 4 3s3 1.83301 6 2.5s5 1 6 1s3.16699 0.333008 6.5 1l6 1c29.333 4 58 12.667 86 26s45.333 20 52 20c10.667 0 17.667 -2.83301 21 -8.5
s5 -14.167 5 -25.5zM219.007 1.99902l435 740c2.66699 4 13.667 6 33 6c18.667 0 28.334 -2.66699 29.001 -8c0 -4 -1.33301 -7.33301 -4 -10l-436 -742c-2 -2.66699 -12.667 -4 -32 -4c-18.667 0 -28.334 2.66699 -29.001 8c0 4 1.33301 7.33301 4 10z" />
    <glyph glyph-name="threequarters" unicode="&#xbe;" horiz-adv-x="960" 
d="M824 115l-0.000976562 -57c0 -16.667 8.66699 -26 26 -28c10.667 -0.666992 16 -5.33398 16 -14.001c0 -10.667 -10.333 -16 -31 -16h-119c-20.667 0 -31 5.33301 -31 16c0 8.66699 5.33301 13.334 16 14.001c18 2 27 11.333 27 28v57h-164
c-14.667 0 -24.167 1.66699 -28.5 5s-6.5 8.66602 -6.5 15.999c0 32.667 23.667 84.834 71 156.501s92 121.5 134 149.5c12.667 8 28.334 12 47.001 12s30.5 -3.16699 35.5 -9.5s7.5 -18.5 7.5 -36.5v-253h49c7.33301 0 12.833 -0.166992 16.5 -0.5s7 -2 10 -5
s4.5 -7.5 4.5 -13.5c0 -14 -9.33301 -21 -28 -21h-52zM727.999 155v227c-68.667 -75.333 -117 -151 -145 -227h145zM361.999 423c0 -44 -18.167 -77.668 -54.5 -101.001s-80.166 -35 -131.499 -35c-16 0 -33 1.66699 -51 5s-35.833 8.5 -53.5 15.5
s-32.167 16.833 -43.5 29.5s-17 27.334 -17 44.001c0 25.333 14.333 38 43 38c12.667 0 21.834 -2.16699 27.501 -6.5s8.83398 -12.166 9.50098 -23.499c5.33301 -44 30.666 -66 75.999 -66c31.333 0 55 9 71 27s24 41.333 24 70c0 35.333 -11 59.666 -33 72.999
s-54 20 -96 20c-20.667 0 -31 6.33301 -31 19c0 3.33301 0.666992 6.16602 2 8.49902s2.83301 4 4.5 5s4.16699 2 7.5 3s6 1.5 8 1.5s5.16699 0.166992 9.5 0.5s6.83301 0.5 7.5 0.5c36.667 3.33301 63 11.333 79 24s24 34.334 24 65.001c0 21.333 -6.5 38.666 -19.5 51.999
s-30.833 20 -53.5 20c-14.667 0 -27.667 -3.5 -39 -10.5s-17 -17.167 -17 -30.5c0 -3.33301 0.666992 -8.5 2 -15.5s1.66602 -12.5 0.999023 -16.5c0 -7.33301 -4 -12.833 -12 -16.5s-16.667 -5.5 -26 -5.5c-31.333 0 -47 12 -47 36c0 26 15.167 48.333 45.5 67
s67.5 28 111.5 28c40 0 75 -9.66699 105 -29s45 -46.666 45 -81.999c0 -26 -9.33301 -47.167 -28 -63.5s-42.334 -27.833 -71.001 -34.5v-2c32.667 -4.66699 61 -17.5 85 -38.5s36 -46.167 36 -75.5zM244.999 1.99902l435 740c2.66699 4 13.667 6 33 6
c18.667 0 28.334 -2.66699 29.001 -8c0 -4 -1.33301 -7.33301 -4 -10l-436 -742c-2 -2.66699 -12.667 -4 -32 -4c-18.667 0 -28.334 2.66699 -29.001 8c0 4 1.33301 7.33301 4 10z" />
    <glyph glyph-name="questiondown" unicode="&#xbf;" horiz-adv-x="500" 
d="M336 314l-0.00195312 -109c0 -9.33301 -5.66699 -18 -17 -26s-25.166 -16.167 -41.499 -24.5s-32.833 -18.5 -49.5 -30.5s-30.667 -30 -42 -54s-17 -52.667 -17 -86c0 -36 8.83301 -66 26.5 -90s43.834 -36 78.501 -36c22 0 41 5.66699 57 17s24 28.333 24 51
c0 3.33301 -0.666992 8.33301 -2 15s-2 12.334 -2 17.001c0 8.66699 5.5 17.834 16.5 27.501s26.5 14.5 46.5 14.5c17.333 0 31.5 -4.83301 42.5 -14.5s16.5 -22.834 16.5 -39.501c0 -44 -21.833 -78.667 -65.5 -104s-94.5 -38 -152.5 -38c-70 0 -125.5 18.333 -166.5 55
s-61.5 80.667 -61.5 132c0 31.333 4.16699 59.5 12.5 84.5s19.333 45.333 33 61s28.667 29.5 45 41.5s32.833 21.667 49.5 29l45.5 20.5c13.667 6.33301 24.667 13 33 20s12.5 14.5 12.5 22.5c0 41.333 2.33301 68 7 80s15 18 31 18s26.667 -4.33301 32 -13
s8 -22.334 8 -41.001zM290.998 572c21.333 0 40 -6.5 56 -19.5s24 -29.833 24 -50.5c0 -20 -8 -36.667 -24 -50s-34.667 -20 -56 -20s-40 6.66699 -56 20s-24 30 -24 50c0 20.667 8 37.5 24 50.5s34.667 19.5 56 19.5z" />
    <glyph glyph-name="Agrave" unicode="&#xc0;" horiz-adv-x="730" 
d="M480 246l-293.995 0.000976562c-8 -19.333 -17.333 -48.166 -28 -86.499s-16 -62.833 -16 -73.5c0 -6 2.66699 -11 8 -15s11.166 -7 17.499 -9s12.166 -5.83301 17.499 -11.5s8 -13.167 8 -22.5c0 -18.667 -11 -28 -33 -28h-136c-18 0 -27 9.33301 -27 28
c0 10 2.5 17.833 7.5 23.5s10.667 9.33398 17 11.001s13.166 5.5 20.499 11.5s12.666 14.667 15.999 26c36.667 122.667 78.667 240.667 126 354s88.666 199.333 123.999 258c8 14 16.167 23.5 24.5 28.5s20.833 7.5 37.5 7.5c18 0 30.167 -1.33301 36.5 -4
s11.5 -7.33398 15.5 -14.001c36 -63.333 69.5 -132 100.5 -206s64.667 -162.5 101 -265.5s56.166 -158.5 59.499 -166.5c4 -10 13.5 -18.667 28.5 -26s22.5 -19.333 22.5 -36c0 -20 -11.333 -30 -34 -30h-188c-19.333 0 -29 9.33301 -29 28c0 9.33301 2.33301 17 7 23
s10 10 16 12s11.333 4.66699 16 8s7 7.66602 7 12.999c0 6 -1.66699 14.667 -5 26s-9.66602 31.166 -18.999 59.499zM210.005 318.001h243l-123 300zM360.005 791.001l-119.998 95l-8 5.5c-3.33301 2.33301 -5.83301 4.33301 -7.5 6s-3.83398 3.66699 -6.50098 6
s-4.66699 4.66602 -6 6.99902s-2.5 5 -3.5 8s-1.5 6.16699 -1.5 9.5c0 18 9.66699 27 29 27h56c13.333 0 23.666 -2.66699 30.999 -8s16 -16.666 26 -33.999l52 -91c10 -16 15 -27 15 -33c0 -12 -6.33301 -18 -19 -18c-6.66699 0 -19 6.66699 -37 20z" />
    <glyph glyph-name="Aacute" unicode="&#xc1;" horiz-adv-x="730" 
d="M480 246l-293.995 0.000976562c-8 -19.333 -17.333 -48.166 -28 -86.499s-16 -62.833 -16 -73.5c0 -6 2.66699 -11 8 -15s11.166 -7 17.499 -9s12.166 -5.83301 17.499 -11.5s8 -13.167 8 -22.5c0 -18.667 -11 -28 -33 -28h-136c-18 0 -27 9.33301 -27 28
c0 10 2.5 17.833 7.5 23.5s10.667 9.33398 17 11.001s13.166 5.5 20.499 11.5s12.666 14.667 15.999 26c36.667 122.667 78.667 240.667 126 354s88.666 199.333 123.999 258c8 14 16.167 23.5 24.5 28.5s20.833 7.5 37.5 7.5c18 0 30.167 -1.33301 36.5 -4
s11.5 -7.33398 15.5 -14.001c36 -63.333 69.5 -132 100.5 -206s64.667 -162.5 101 -265.5s56.166 -158.5 59.499 -166.5c4 -10 13.5 -18.667 28.5 -26s22.5 -19.333 22.5 -36c0 -20 -11.333 -30 -34 -30h-188c-19.333 0 -29 9.33301 -29 28c0 9.33301 2.33301 17 7 23
s10 10 16 12s11.333 4.66699 16 8s7 7.66602 7 12.999c0 6 -1.66699 14.667 -5 26s-9.66602 31.166 -18.999 59.499zM210.005 318.001h243l-123 300zM473.005 886.001l-120 -95c-18 -13.333 -30.333 -20 -37 -20c-12.667 0 -19 6 -19 18c0 6 5 17 15 33l52 91
c10 17.333 18.667 28.666 26 33.999s17.666 8 30.999 8h56c19.333 0 29 -9 29 -27c0 -4 -0.5 -7.66699 -1.5 -11s-3 -6.5 -6 -9.5s-5.5 -5.33301 -7.5 -7s-5.16699 -4.16699 -9.5 -7.5s-7.16602 -5.66602 -8.49902 -6.99902z" />
    <glyph glyph-name="Acircumflex" unicode="&#xc2;" horiz-adv-x="730" 
d="M480 246l-293.995 0.000976562c-8 -19.333 -17.333 -48.166 -28 -86.499s-16 -62.833 -16 -73.5c0 -6 2.66699 -11 8 -15s11.166 -7 17.499 -9s12.166 -5.83301 17.499 -11.5s8 -13.167 8 -22.5c0 -18.667 -11 -28 -33 -28h-136c-18 0 -27 9.33301 -27 28
c0 10 2.5 17.833 7.5 23.5s10.667 9.33398 17 11.001s13.166 5.5 20.499 11.5s12.666 14.667 15.999 26c36.667 122.667 78.667 240.667 126 354s88.666 199.333 123.999 258c8 14 16.167 23.5 24.5 28.5s20.833 7.5 37.5 7.5c18 0 30.167 -1.33301 36.5 -4
s11.5 -7.33398 15.5 -14.001c36 -63.333 69.5 -132 100.5 -206s64.667 -162.5 101 -265.5s56.166 -158.5 59.499 -166.5c4 -10 13.5 -18.667 28.5 -26s22.5 -19.333 22.5 -36c0 -20 -11.333 -30 -34 -30h-188c-19.333 0 -29 9.33301 -29 28c0 9.33301 2.33301 17 7 23
s10 10 16 12s11.333 4.66699 16 8s7 7.66602 7 12.999c0 6 -1.66699 14.667 -5 26s-9.66602 31.166 -18.999 59.499zM210.005 318.001h243l-123 300zM356.005 861.001l-118.999 -74.998c-20 -10 -32 -15 -36 -15c-4.66699 0 -8.83398 1.83301 -12.501 5.5
s-5.5 7.5 -5.5 11.5c0 7.33301 7 18.666 21 33.999l94 97c24.667 26.667 43.667 40 57 40c4 0 8.16699 -0.833008 12.5 -2.5s8.83301 -4.33398 13.5 -8.00098s8.33398 -6.66699 11.001 -9l12 -11c5.33301 -5 8.33301 -7.83301 9 -8.5l94 -96c14.667 -16 22 -28 22 -36
c0 -4 -1.83301 -7.83301 -5.5 -11.5s-7.83398 -5.5 -12.501 -5.5c-6 0 -18 5 -36 15z" />
    <glyph glyph-name="Atilde" unicode="&#xc3;" horiz-adv-x="730" 
d="M480 246l-293.995 0.000976562c-8 -19.333 -17.333 -48.166 -28 -86.499s-16 -62.833 -16 -73.5c0 -6 2.66699 -11 8 -15s11.166 -7 17.499 -9s12.166 -5.83301 17.499 -11.5s8 -13.167 8 -22.5c0 -18.667 -11 -28 -33 -28h-136c-18 0 -27 9.33301 -27 28
c0 10 2.5 17.833 7.5 23.5s10.667 9.33398 17 11.001s13.166 5.5 20.499 11.5s12.666 14.667 15.999 26c36.667 122.667 78.667 240.667 126 354s88.666 199.333 123.999 258c8 14 16.167 23.5 24.5 28.5s20.833 7.5 37.5 7.5c18 0 30.167 -1.33301 36.5 -4
s11.5 -7.33398 15.5 -14.001c36 -63.333 69.5 -132 100.5 -206s64.667 -162.5 101 -265.5s56.166 -158.5 59.499 -166.5c4 -10 13.5 -18.667 28.5 -26s22.5 -19.333 22.5 -36c0 -20 -11.333 -30 -34 -30h-188c-19.333 0 -29 9.33301 -29 28c0 9.33301 2.33301 17 7 23
s10 10 16 12s11.333 4.66699 16 8s7 7.66602 7 12.999c0 6 -1.66699 14.667 -5 26s-9.66602 31.166 -18.999 59.499zM210.005 318.001h243l-123 300zM260.005 840.001c-10.667 0 -19.8311 -4.33301 -27.498 -13s-14.334 -17.5 -20.001 -26.5s-11.5 -13.5 -17.5 -13.5
c-10.667 0 -16 6.66699 -16 20c0 27.333 13.333 52 40 74s54 33 82 33c23.333 0 50.666 -9 81.999 -27s53.333 -27 66 -27c14.667 0 28.667 7.33301 42 22s22 22 26 22c11.333 0 17 -6.66699 17 -20c0 -22 -12.833 -43.833 -38.5 -65.5s-54.834 -32.5 -87.501 -32.5
c-22.667 0 -49.667 9 -81 27s-53.666 27 -66.999 27z" />
    <glyph glyph-name="Adieresis" unicode="&#xc4;" horiz-adv-x="730" 
d="M480 246l-293.995 0.000976562c-8 -19.333 -17.333 -48.166 -28 -86.499s-16 -62.833 -16 -73.5c0 -6 2.66699 -11 8 -15s11.166 -7 17.499 -9s12.166 -5.83301 17.499 -11.5s8 -13.167 8 -22.5c0 -18.667 -11 -28 -33 -28h-136c-18 0 -27 9.33301 -27 28
c0 10 2.5 17.833 7.5 23.5s10.667 9.33398 17 11.001s13.166 5.5 20.499 11.5s12.666 14.667 15.999 26c36.667 122.667 78.667 240.667 126 354s88.666 199.333 123.999 258c8 14 16.167 23.5 24.5 28.5s20.833 7.5 37.5 7.5c18 0 30.167 -1.33301 36.5 -4
s11.5 -7.33398 15.5 -14.001c36 -63.333 69.5 -132 100.5 -206s64.667 -162.5 101 -265.5s56.166 -158.5 59.499 -166.5c4 -10 13.5 -18.667 28.5 -26s22.5 -19.333 22.5 -36c0 -20 -11.333 -30 -34 -30h-188c-19.333 0 -29 9.33301 -29 28c0 9.33301 2.33301 17 7 23
s10 10 16 12s11.333 4.66699 16 8s7 7.66602 7 12.999c0 6 -1.66699 14.667 -5 26s-9.66602 31.166 -18.999 59.499zM210.005 318.001h243l-123 300zM329.005 850.001c0 -21.333 -7.5 -37.666 -22.5 -48.999s-33.167 -17 -54.5 -17s-39.5 5.66699 -54.5 17
s-22.5 27.666 -22.5 48.999s7.5 37.666 22.5 48.999s33.167 17 54.5 17s39.5 -5.66699 54.5 -17s22.5 -27.666 22.5 -48.999zM538.005 850.001c0 -21.333 -7.5 -37.666 -22.5 -48.999s-33.167 -17 -54.5 -17s-39.5 5.66699 -54.5 17s-22.5 27.666 -22.5 48.999
s7.5 37.666 22.5 48.999s33.167 17 54.5 17s39.5 -5.66699 54.5 -17s22.5 -27.666 22.5 -48.999z" />
    <glyph glyph-name="Aring" unicode="&#xc5;" horiz-adv-x="730" 
d="M480 246l-293.995 0.000976562c-8 -19.333 -17.333 -48.166 -28 -86.499s-16 -62.833 -16 -73.5c0 -6 2.66699 -11 8 -15s11.166 -7 17.499 -9s12.166 -5.83301 17.499 -11.5s8 -13.167 8 -22.5c0 -18.667 -11 -28 -33 -28h-136c-18 0 -27 9.33301 -27 28
c0 10 2.5 17.833 7.5 23.5s10.667 9.33398 17 11.001s13.166 5.5 20.499 11.5s12.666 14.667 15.999 26c36.667 122.667 78.667 240.667 126 354s88.666 199.333 123.999 258c8 14 16.167 23.5 24.5 28.5s20.833 7.5 37.5 7.5c18 0 30.167 -1.33301 36.5 -4
s11.5 -7.33398 15.5 -14.001c36 -63.333 69.5 -132 100.5 -206s64.667 -162.5 101 -265.5s56.166 -158.5 59.499 -166.5c4 -10 13.5 -18.667 28.5 -26s22.5 -19.333 22.5 -36c0 -20 -11.333 -30 -34 -30h-188c-19.333 0 -29 9.33301 -29 28c0 9.33301 2.33301 17 7 23
s10 10 16 12s11.333 4.66699 16 8s7 7.66602 7 12.999c0 6 -1.66699 14.667 -5 26s-9.66602 31.166 -18.999 59.499zM210.005 318.001h243l-123 300zM357.005 758.001c-28.667 0 -53.167 10.167 -73.5 30.5s-30.5 44.833 -30.5 73.5s10.333 53.167 31 73.5s45 30.5 73 30.5
s52.333 -10.167 73 -30.5s31 -44.833 31 -73.5s-10.167 -53.167 -30.5 -73.5s-44.833 -30.5 -73.5 -30.5zM357.005 802.001c16.667 0 30.834 5.83301 42.501 17.5s17.5 25.834 17.5 42.501s-5.83301 30.834 -17.5 42.501s-25.834 17.5 -42.501 17.5
s-30.834 -5.83301 -42.501 -17.5s-17.5 -25.834 -17.5 -42.501s5.83301 -30.834 17.5 -42.501s25.834 -17.5 42.501 -17.5z" />
    <glyph glyph-name="AE" unicode="&#xc6;" horiz-adv-x="980" 
d="M448 100l-0.00488281 146.001c-148 0 -236 -1.66699 -264 -5c-3.33301 -10.667 -9.66602 -27 -18.999 -49s-17 -41.833 -23 -59.5s-9 -31.834 -9 -42.501c0 -12 6.5 -23.333 19.5 -34s19.5 -21.667 19.5 -33c0 -15.333 -11.667 -23 -35 -23h-127
c-16 -0 -24 9.33301 -24 28c0 10.667 7.66699 22 23 34s26 25.333 32 40c100 252.667 208.667 449 326 589c14.667 17.333 26 28.5 34 33.5s18.333 7.5 31 7.5h447c24 0 39.833 -6.33301 47.5 -19s11.5 -41.334 11.5 -86.001c0 -19.333 -5.66699 -29 -17 -29
c-6.66699 0 -12.334 1.83301 -17.001 5.5s-11.667 9.5 -21 17.5s-19.666 15.333 -30.999 22c-24 14 -73 21 -147 21c-54 0 -87.333 -3.66699 -100 -11s-19 -27 -19 -59v-164h166c22 0 40.333 5.66699 55 17s25.334 17 32.001 17c10.667 0 17.834 -5 21.501 -15
s5.5 -26.333 5.5 -49c0 -30.667 -1.33301 -50.667 -4 -60s-10 -14 -22 -14c-6.66699 0 -12.5 1.83301 -17.5 5.5s-9.33301 7.83398 -13 12.501s-10.5 8.83398 -20.5 12.501s-22.667 5.5 -38 5.5h-165v-179c0 -52.667 3.83301 -85 11.5 -97s25.834 -18 54.501 -18
c142 0 223.333 15.333 244 46c16.667 24.667 32.334 37 47.001 37c19.333 0 29 -10.667 29 -32c0 -44.667 -5.5 -75.667 -16.5 -93s-29.833 -26 -56.5 -26h-461c-30.667 0 -46 10 -46 30c0 9.33301 3 16.5 9 21.5s12.333 8.16699 19 9.5s13 5.16602 19 11.499s9 15.5 9 27.5
zM215.995 314.001h232.001v286c0 38.667 -2.66699 58 -8 58c-2.66699 0 -4.66699 -0.5 -6 -1.5s-3.5 -3.33301 -6.5 -7s-5.5 -6.5 -7.5 -8.5c-24.667 -25.333 -57.334 -69.333 -98.001 -132s-76 -127.667 -106 -195z" />
    <glyph glyph-name="Ccedilla" unicode="&#xc7;" horiz-adv-x="740" 
d="M451 -14l-18.0029 -42.0029h16c27.333 0 49.5 -6.66699 66.5 -20s25.5 -33 25.5 -59c0 -56.667 -39.667 -85 -119 -85c-30 0 -53 5.33301 -69 16s-24 22 -24 34c0 6 1.83301 11.167 5.5 15.5s8.5 6.5 14.5 6.5c10.667 0 22.5 -3.33301 35.5 -10s23.5 -10 31.5 -10
c10.667 0 20.834 3.33301 30.501 10s14.5 15.334 14.5 26.001c0 18.667 -11.667 28 -35 28c-10.667 0 -21.167 -0.833008 -31.5 -2.5s-16.166 -2.5 -17.499 -2.5c-7.33301 0 -11 3.66699 -11 11c0 6.66699 1.66699 14.334 5 23.001l27 59
c-102.667 3.33301 -189.334 39 -260.001 107s-106 153.667 -106 257c0 112.667 40.333 207.5 121 284.5s177 115.5 289 115.5c58 0 114.167 -11.833 168.5 -35.5s82.833 -43.834 85.5 -60.501c6.66699 -40 10 -76.333 10 -109c0 -22 -10 -33 -30 -33
c-4 0 -7.66699 0.833008 -11 2.5s-6.33301 4.5 -9 8.5s-4.66699 7.33301 -6 10s-3.16602 7.16699 -5.49902 13.5s-4.16602 10.833 -5.49902 13.5c-13.333 33.333 -36.833 62 -70.5 86s-76.834 36 -129.501 36c-80.667 0 -142 -29 -184 -87s-63 -133 -63 -225
c0 -87.333 21.333 -160.166 64 -218.499s105.334 -87.5 188.001 -87.5c34 0 65.667 6.33301 95 19s51.833 26.5 67.5 41.5l44.5 41.5c14 12.667 25 19 33 19c8.66699 0 16 -2.66699 22 -8s9 -11 9 -17c0 -31.333 -26 -66.166 -78 -104.499s-114 -60.833 -186 -67.5z" />
    <glyph glyph-name="Egrave" unicode="&#xc8;" horiz-adv-x="630" 
d="M549 0l-479.004 0.00195312c-30.667 0 -46 10 -46 30c0 9.33301 3 16.5 9 21.5s12.333 8.16699 19 9.5s13 5.16602 19 11.499s9 15.5 9 27.5v532c0 12 -3 21.167 -9 27.5s-12.333 10.166 -19 11.499s-13 4.5 -19 9.5s-9 12.167 -9 21.5c0 20 15.333 30 46 30h459
c24 0 39.833 -6.33301 47.5 -19s11.5 -41.334 11.5 -86.001c0 -19.333 -5.66699 -29 -17 -29c-6.66699 0 -12.334 1.83301 -17.001 5.5s-11.667 9.5 -21 17.5s-19.666 15.333 -30.999 22c-15.333 9.33301 -34.166 15.166 -56.499 17.499s-55.833 3.5 -100.5 3.5
c-54 0 -87 -3.5 -99 -10.5s-18 -26.833 -18 -59.5v-164h174c22 0 40.333 5.66699 55 17s25.334 17 32.001 17c10.667 0 17.834 -5 21.501 -15s5.5 -26.333 5.5 -49c0 -30.667 -1.33301 -50.667 -4 -60s-10 -14 -22 -14c-6.66699 0 -12.5 1.83301 -17.5 5.5
s-9.33301 7.83398 -13 12.501s-10.5 8.83398 -20.5 12.501s-22.667 5.5 -38 5.5h-173v-179c0 -52.667 3.5 -85 10.5 -97s24.833 -18 53.5 -18c76 0 134.5 3.33301 175.5 10s67.167 18.667 78.5 36c16.667 24.667 32.334 37 47.001 37c19.333 0 29 -10.667 29 -32
c0 -44.667 -5.5 -75.667 -16.5 -93s-29.833 -26 -56.5 -26zM314.996 791.002l-119.998 95l-8 5.5c-3.33301 2.33301 -5.83301 4.33301 -7.5 6s-3.83398 3.66699 -6.50098 6s-4.66699 4.66602 -6 6.99902s-2.5 5 -3.5 8s-1.5 6.16699 -1.5 9.5c0 18 9.66699 27 29 27h56
c13.333 0 23.666 -2.66699 30.999 -8s16 -16.666 26 -33.999l52 -91c10 -16 15 -27 15 -33c0 -12 -6.33301 -18 -19 -18c-6.66699 0 -19 6.66699 -37 20z" />
    <glyph glyph-name="Eacute" unicode="&#xc9;" horiz-adv-x="630" 
d="M549 0l-479.004 0.00195312c-30.667 0 -46 10 -46 30c0 9.33301 3 16.5 9 21.5s12.333 8.16699 19 9.5s13 5.16602 19 11.499s9 15.5 9 27.5v532c0 12 -3 21.167 -9 27.5s-12.333 10.166 -19 11.499s-13 4.5 -19 9.5s-9 12.167 -9 21.5c0 20 15.333 30 46 30h459
c24 0 39.833 -6.33301 47.5 -19s11.5 -41.334 11.5 -86.001c0 -19.333 -5.66699 -29 -17 -29c-6.66699 0 -12.334 1.83301 -17.001 5.5s-11.667 9.5 -21 17.5s-19.666 15.333 -30.999 22c-15.333 9.33301 -34.166 15.166 -56.499 17.499s-55.833 3.5 -100.5 3.5
c-54 0 -87 -3.5 -99 -10.5s-18 -26.833 -18 -59.5v-164h174c22 0 40.333 5.66699 55 17s25.334 17 32.001 17c10.667 0 17.834 -5 21.501 -15s5.5 -26.333 5.5 -49c0 -30.667 -1.33301 -50.667 -4 -60s-10 -14 -22 -14c-6.66699 0 -12.5 1.83301 -17.5 5.5
s-9.33301 7.83398 -13 12.501s-10.5 8.83398 -20.5 12.501s-22.667 5.5 -38 5.5h-173v-179c0 -52.667 3.5 -85 10.5 -97s24.833 -18 53.5 -18c76 0 134.5 3.33301 175.5 10s67.167 18.667 78.5 36c16.667 24.667 32.334 37 47.001 37c19.333 0 29 -10.667 29 -32
c0 -44.667 -5.5 -75.667 -16.5 -93s-29.833 -26 -56.5 -26zM431.996 886.002l-120 -95c-18 -13.333 -30.333 -20 -37 -20c-12.667 0 -19 6 -19 18c0 6 5 17 15 33l52 91c10 17.333 18.667 28.666 26 33.999s17.666 8 30.999 8h56c19.333 0 29 -9 29 -27
c0 -4 -0.5 -7.66699 -1.5 -11s-3 -6.5 -6 -9.5s-5.5 -5.33301 -7.5 -7s-5.16699 -4.16699 -9.5 -7.5s-7.16602 -5.66602 -8.49902 -6.99902z" />
    <glyph glyph-name="Ecircumflex" unicode="&#xca;" horiz-adv-x="630" 
d="M549 0l-479.004 0.00195312c-30.667 0 -46 10 -46 30c0 9.33301 3 16.5 9 21.5s12.333 8.16699 19 9.5s13 5.16602 19 11.499s9 15.5 9 27.5v532c0 12 -3 21.167 -9 27.5s-12.333 10.166 -19 11.499s-13 4.5 -19 9.5s-9 12.167 -9 21.5c0 20 15.333 30 46 30h459
c24 0 39.833 -6.33301 47.5 -19s11.5 -41.334 11.5 -86.001c0 -19.333 -5.66699 -29 -17 -29c-6.66699 0 -12.334 1.83301 -17.001 5.5s-11.667 9.5 -21 17.5s-19.666 15.333 -30.999 22c-15.333 9.33301 -34.166 15.166 -56.499 17.499s-55.833 3.5 -100.5 3.5
c-54 0 -87 -3.5 -99 -10.5s-18 -26.833 -18 -59.5v-164h174c22 0 40.333 5.66699 55 17s25.334 17 32.001 17c10.667 0 17.834 -5 21.501 -15s5.5 -26.333 5.5 -49c0 -30.667 -1.33301 -50.667 -4 -60s-10 -14 -22 -14c-6.66699 0 -12.5 1.83301 -17.5 5.5
s-9.33301 7.83398 -13 12.501s-10.5 8.83398 -20.5 12.501s-22.667 5.5 -38 5.5h-173v-179c0 -52.667 3.5 -85 10.5 -97s24.833 -18 53.5 -18c76 0 134.5 3.33301 175.5 10s67.167 18.667 78.5 36c16.667 24.667 32.334 37 47.001 37c19.333 0 29 -10.667 29 -32
c0 -44.667 -5.5 -75.667 -16.5 -93s-29.833 -26 -56.5 -26zM314.996 861.002l-119.001 -74.998c-20 -10 -32 -15 -36 -15s-8 1.83301 -12 5.5s-6 7.5 -6 11.5c0 7.33301 7 18.666 21 33.999l94 97c24.667 26.667 43.667 40 57 40c4 0 8.16699 -0.833008 12.5 -2.5
s8.83301 -4.33398 13.5 -8.00098s8.33398 -6.66699 11.001 -9l12 -11c5.33301 -5 8.33301 -7.83301 9 -8.5l94 -96c14.667 -16 22 -28 22 -36c0 -4 -2 -7.83301 -6 -11.5s-8 -5.5 -12 -5.5c-6 0 -18 5 -36 15z" />
    <glyph glyph-name="Edieresis" unicode="&#xcb;" horiz-adv-x="630" 
d="M549 0l-479.004 0.00195312c-30.667 0 -46 10 -46 30c0 9.33301 3 16.5 9 21.5s12.333 8.16699 19 9.5s13 5.16602 19 11.499s9 15.5 9 27.5v532c0 12 -3 21.167 -9 27.5s-12.333 10.166 -19 11.499s-13 4.5 -19 9.5s-9 12.167 -9 21.5c0 20 15.333 30 46 30h459
c24 0 39.833 -6.33301 47.5 -19s11.5 -41.334 11.5 -86.001c0 -19.333 -5.66699 -29 -17 -29c-6.66699 0 -12.334 1.83301 -17.001 5.5s-11.667 9.5 -21 17.5s-19.666 15.333 -30.999 22c-15.333 9.33301 -34.166 15.166 -56.499 17.499s-55.833 3.5 -100.5 3.5
c-54 0 -87 -3.5 -99 -10.5s-18 -26.833 -18 -59.5v-164h174c22 0 40.333 5.66699 55 17s25.334 17 32.001 17c10.667 0 17.834 -5 21.501 -15s5.5 -26.333 5.5 -49c0 -30.667 -1.33301 -50.667 -4 -60s-10 -14 -22 -14c-6.66699 0 -12.5 1.83301 -17.5 5.5
s-9.33301 7.83398 -13 12.501s-10.5 8.83398 -20.5 12.501s-22.667 5.5 -38 5.5h-173v-179c0 -52.667 3.5 -85 10.5 -97s24.833 -18 53.5 -18c76 0 134.5 3.33301 175.5 10s67.167 18.667 78.5 36c16.667 24.667 32.334 37 47.001 37c19.333 0 29 -10.667 29 -32
c0 -44.667 -5.5 -75.667 -16.5 -93s-29.833 -26 -56.5 -26zM287.996 850.002c0 -21.333 -7.5 -37.666 -22.5 -48.999s-33.167 -17 -54.5 -17s-39.5 5.66699 -54.5 17s-22.5 27.666 -22.5 48.999s7.5 37.666 22.5 48.999s33.167 17 54.5 17s39.5 -5.66699 54.5 -17
s22.5 -27.666 22.5 -48.999zM496.996 850.002c0 -21.333 -7.5 -37.666 -22.5 -48.999s-33.167 -17 -54.5 -17s-39.5 5.66699 -54.5 17s-22.5 27.666 -22.5 48.999s7.5 37.666 22.5 48.999s33.167 17 54.5 17s39.5 -5.66699 54.5 -17s22.5 -27.666 22.5 -48.999z" />
    <glyph glyph-name="Igrave" unicode="&#xcc;" horiz-adv-x="310" 
d="M229 632v-532c0 -12 2.83301 -21.167 8.5 -27.5s12.167 -10.166 19.5 -11.499s13.833 -4.5 19.5 -9.5s8.5 -12.167 8.5 -21.5c0 -20 -15.333 -30 -46 -30h-168c-30.667 0 -46 10 -46 30c0 9.33301 2.83301 16.5 8.5 21.5s12.167 8.16699 19.5 9.5
s13.833 5.16602 19.5 11.499s8.5 15.5 8.5 27.5v532c0 12 -2.83301 21.167 -8.5 27.5s-12.167 10.166 -19.5 11.499s-13.833 4.5 -19.5 9.5s-8.5 12.167 -8.5 21.5c0 20 15.333 30 46 30h168c30.667 0 46 -10 46 -30c0 -9.33301 -2.83301 -16.5 -8.5 -21.5
s-12.167 -8.16699 -19.5 -9.5s-13.833 -5.16602 -19.5 -11.499s-8.5 -15.5 -8.5 -27.5zM150 791l-119.998 95l-8 5.5c-3.33301 2.33301 -5.83301 4.33301 -7.5 6s-3.83398 3.66699 -6.50098 6s-4.66699 4.66602 -6 6.99902s-2.5 5 -3.5 8s-1.5 6.16699 -1.5 9.5
c0 18 9.66699 27 29 27h56c13.333 0 23.666 -2.66699 30.999 -8s16 -16.666 26 -33.999l52 -91c10 -16 15 -27 15 -33c0 -12 -6.33301 -18 -19 -18c-6 0 -18.333 6.66699 -37 20z" />
    <glyph glyph-name="Iacute" unicode="&#xcd;" horiz-adv-x="310" 
d="M229 632v-532c0 -12 2.83301 -21.167 8.5 -27.5s12.167 -10.166 19.5 -11.499s13.833 -4.5 19.5 -9.5s8.5 -12.167 8.5 -21.5c0 -20 -15.333 -30 -46 -30h-168c-30.667 0 -46 10 -46 30c0 9.33301 2.83301 16.5 8.5 21.5s12.167 8.16699 19.5 9.5
s13.833 5.16602 19.5 11.499s8.5 15.5 8.5 27.5v532c0 12 -2.83301 21.167 -8.5 27.5s-12.167 10.166 -19.5 11.499s-13.833 4.5 -19.5 9.5s-8.5 12.167 -8.5 21.5c0 20 15.333 30 46 30h168c30.667 0 46 -10 46 -30c0 -9.33301 -2.83301 -16.5 -8.5 -21.5
s-12.167 -8.16699 -19.5 -9.5s-13.833 -5.16602 -19.5 -11.499s-8.5 -15.5 -8.5 -27.5zM263 886l-120 -95c-18 -13.333 -30.333 -20 -37 -20c-12.667 0 -19 6 -19 18c0 6 5 17 15 33l52 91c10 17.333 18.667 28.666 26 33.999s17.666 8 30.999 8h56c19.333 0 29 -9 29 -27
c0 -4 -0.5 -7.66699 -1.5 -11s-3 -6.5 -6 -9.5s-5.5 -5.33301 -7.5 -7s-5.16699 -4.16699 -9.5 -7.5s-7.16602 -5.66602 -8.49902 -6.99902z" />
    <glyph glyph-name="Icircumflex" unicode="&#xce;" horiz-adv-x="310" 
d="M229 632v-532c0 -12 2.83301 -21.167 8.5 -27.5s12.167 -10.166 19.5 -11.499s13.833 -4.5 19.5 -9.5s8.5 -12.167 8.5 -21.5c0 -20 -15.333 -30 -46 -30h-168c-30.667 0 -46 10 -46 30c0 9.33301 2.83301 16.5 8.5 21.5s12.167 8.16699 19.5 9.5
s13.833 5.16602 19.5 11.499s8.5 15.5 8.5 27.5v532c0 12 -2.83301 21.167 -8.5 27.5s-12.167 10.166 -19.5 11.499s-13.833 4.5 -19.5 9.5s-8.5 12.167 -8.5 21.5c0 20 15.333 30 46 30h168c30.667 0 46 -10 46 -30c0 -9.33301 -2.83301 -16.5 -8.5 -21.5
s-12.167 -8.16699 -19.5 -9.5s-13.833 -5.16602 -19.5 -11.499s-8.5 -15.5 -8.5 -27.5zM146 861l-118.999 -74.998c-20 -10 -32 -15 -36 -15c-4.66699 0 -8.83398 1.83301 -12.501 5.5s-5.5 7.5 -5.5 11.5c0 7.33301 7 18.666 21 33.999l94 97
c24.667 26.667 43.667 40 57 40c4 0 8.16699 -0.833008 12.5 -2.5s8.83301 -4.33398 13.5 -8.00098s8.33398 -6.66699 11.001 -9l12 -11c5.33301 -5 8.33301 -7.83301 9 -8.5l94 -96c14.667 -16 22 -28 22 -36c0 -4 -1.83301 -7.83301 -5.5 -11.5
s-7.83398 -5.5 -12.501 -5.5c-6 0 -18 5 -36 15z" />
    <glyph glyph-name="Idieresis" unicode="&#xcf;" horiz-adv-x="310" 
d="M229 632v-532c0 -12 2.83301 -21.167 8.5 -27.5s12.167 -10.166 19.5 -11.499s13.833 -4.5 19.5 -9.5s8.5 -12.167 8.5 -21.5c0 -20 -15.333 -30 -46 -30h-168c-30.667 0 -46 10 -46 30c0 9.33301 2.83301 16.5 8.5 21.5s12.167 8.16699 19.5 9.5
s13.833 5.16602 19.5 11.499s8.5 15.5 8.5 27.5v532c0 12 -2.83301 21.167 -8.5 27.5s-12.167 10.166 -19.5 11.499s-13.833 4.5 -19.5 9.5s-8.5 12.167 -8.5 21.5c0 20 15.333 30 46 30h168c30.667 0 46 -10 46 -30c0 -9.33301 -2.83301 -16.5 -8.5 -21.5
s-12.167 -8.16699 -19.5 -9.5s-13.833 -5.16602 -19.5 -11.499s-8.5 -15.5 -8.5 -27.5zM119 850c0 -21.333 -7.5 -37.666 -22.5 -48.999s-33.167 -17 -54.5 -17s-39.5 5.66699 -54.5 17s-22.5 27.666 -22.5 48.999s7.5 37.666 22.5 48.999s33.167 17 54.5 17
s39.5 -5.66699 54.5 -17s22.5 -27.666 22.5 -48.999zM328 850c0 -21.333 -7.5 -37.666 -22.5 -48.999s-33.167 -17 -54.5 -17s-39.5 5.66699 -54.5 17s-22.5 27.666 -22.5 48.999s7.5 37.666 22.5 48.999s33.167 17 54.5 17s39.5 -5.66699 54.5 -17
s22.5 -27.666 22.5 -48.999z" />
    <glyph glyph-name="Eth" unicode="&#xd0;" horiz-adv-x="780" 
d="M30 432l50 0.00195312v200c0 12 -3 21.167 -9 27.5s-12.333 10.166 -19 11.499s-13 4.5 -19 9.5s-9 12.167 -9 21.5c0 20 15.333 30 46 30h206c162.667 0 282.834 -32.167 360.501 -96.5s116.5 -153.833 116.5 -268.5c0 -113.333 -35.333 -202.833 -106 -268.5
s-170.334 -98.5 -299.001 -98.5h-278c-30.667 0 -46 10 -46 30c0 9.33301 3 16.5 9 21.5s12.333 8.16699 19 9.5s13 5.16602 19 11.499s9 15.5 9 27.5v264h-50c-18.667 0 -28 11.333 -28 34s9.33301 34 28 34zM228 432.002h178c18.667 0 28 -11.333 28 -34
s-9.33301 -34 -28 -34h-178v-204c0 -41.333 4.5 -67 13.5 -77s31.833 -15 68.5 -15c89.333 0 158.833 27.333 208.5 82s74.5 126.667 74.5 216c0 91.333 -24.667 163.833 -74 217.5s-119 80.5 -209 80.5c-36.667 0 -59.5 -5 -68.5 -15s-13.5 -35.667 -13.5 -77v-140z" />
    <glyph glyph-name="Ntilde" unicode="&#xd1;" horiz-adv-x="750" 
d="M198 0l-124.004 0.000976562c-18.667 0 -31.667 2.5 -39 7.5s-11 12.5 -11 22.5c0 9.33301 4 16.5 12 21.5s17 8.16699 27 9.5s19 5.16602 27 11.499s12 15.5 12 27.5v532c0 12 -4 21.167 -12 27.5s-17 10.166 -27 11.499s-19 4.5 -27 9.5s-12 12.167 -12 21.5
c0 20 11.333 30 34 30h148c24.667 0 58.334 -26.833 101.001 -80.5s139 -190.167 289 -409.5h2v390c0 12 -3.16699 21.167 -9.5 27.5s-13.166 10.166 -20.499 11.499s-14.166 4.5 -20.499 9.5s-9.5 12.167 -9.5 21.5c0 20 15.333 30 46 30h102c30.667 0 46 -10 46 -30
c0 -9.33301 -3.16699 -16.5 -9.5 -21.5s-13.166 -8.16699 -20.499 -9.5s-14.166 -5.16602 -20.499 -11.499s-9.5 -15.5 -9.5 -27.5v-578c0 -26.667 -2.33301 -44 -7 -52s-17.334 -12 -38.001 -12c-12 0 -21 1 -27 3s-11.667 7 -17 15l-404 570h-3v-478
c0 -12 3.5 -21.167 10.5 -27.5s14.833 -10.166 23.5 -11.499s16.5 -4.5 23.5 -9.5s10.5 -12.167 10.5 -21.5c0 -20 -15.333 -30 -46 -30zM278.996 840.001c-10.667 0 -19.8311 -4.33301 -27.498 -13s-14.334 -17.5 -20.001 -26.5s-11.5 -13.5 -17.5 -13.5
c-10.667 0 -16 6.66699 -16 20c0 27.333 13.333 52 40 74s54 33 82 33c22.667 0 49.667 -9 81 -27s53.666 -27 66.999 -27c14.667 0 28.667 7.33301 42 22s22 22 26 22c11.333 0 17 -6.66699 17 -20c0 -22 -12.833 -43.833 -38.5 -65.5s-54.834 -32.5 -87.501 -32.5
c-23.333 0 -50.666 9 -81.999 27s-53.333 27 -66 27z" />
    <glyph glyph-name="Ograve" unicode="&#xd2;" horiz-adv-x="830" 
d="M798 366c0 -109.333 -35.5 -200.333 -106.5 -273s-163.167 -109 -276.5 -109s-205.5 36.333 -276.5 109s-106.5 163.667 -106.5 273s35.5 200.333 106.5 273s163.167 109 276.5 109s205.5 -36.333 276.5 -109s106.5 -163.667 106.5 -273zM638 366
c0 91.333 -20 166.5 -60 225.5s-94.333 88.5 -163 88.5s-123 -29.5 -163 -88.5s-60 -134.167 -60 -225.5s20 -166.5 60 -225.5s94.333 -88.5 163 -88.5s123 29.5 163 88.5s60 134.167 60 225.5zM419 791l-119.998 95l-8 5.5c-3.33301 2.33301 -5.83301 4.33301 -7.5 6
s-3.83398 3.66699 -6.50098 6s-4.66699 4.66602 -6 6.99902s-2.5 5 -3.5 8s-1.5 6.16699 -1.5 9.5c0 18 9.66699 27 29 27h56c13.333 0 23.666 -2.66699 30.999 -8s16 -16.666 26 -33.999l52 -91c10 -16 15 -27 15 -33c0 -12 -6.33301 -18 -19 -18
c-6 0 -18.333 6.66699 -37 20z" />
    <glyph glyph-name="Oacute" unicode="&#xd3;" horiz-adv-x="830" 
d="M798 366c0 -109.333 -35.5 -200.333 -106.5 -273s-163.167 -109 -276.5 -109s-205.5 36.333 -276.5 109s-106.5 163.667 -106.5 273s35.5 200.333 106.5 273s163.167 109 276.5 109s205.5 -36.333 276.5 -109s106.5 -163.667 106.5 -273zM638 366
c0 91.333 -20 166.5 -60 225.5s-94.333 88.5 -163 88.5s-123 -29.5 -163 -88.5s-60 -134.167 -60 -225.5s20 -166.5 60 -225.5s94.333 -88.5 163 -88.5s123 29.5 163 88.5s60 134.167 60 225.5zM532 886l-120 -95c-18.667 -13.333 -31 -20 -37 -20c-12.667 0 -19 6 -19 18
c0 6 5 17 15 33l52 91c10 17.333 18.667 28.666 26 33.999s17.666 8 30.999 8h56c19.333 0 29 -9 29 -27c0 -4 -0.5 -7.66699 -1.5 -11s-3 -6.5 -6 -9.5s-5.5 -5.33301 -7.5 -7s-5.16699 -4.16699 -9.5 -7.5s-7.16602 -5.66602 -8.49902 -6.99902z" />
    <glyph glyph-name="Ocircumflex" unicode="&#xd4;" horiz-adv-x="830" 
d="M798 366c0 -109.333 -35.5 -200.333 -106.5 -273s-163.167 -109 -276.5 -109s-205.5 36.333 -276.5 109s-106.5 163.667 -106.5 273s35.5 200.333 106.5 273s163.167 109 276.5 109s205.5 -36.333 276.5 -109s106.5 -163.667 106.5 -273zM638 366
c0 91.333 -20 166.5 -60 225.5s-94.333 88.5 -163 88.5s-123 -29.5 -163 -88.5s-60 -134.167 -60 -225.5s20 -166.5 60 -225.5s94.333 -88.5 163 -88.5s123 29.5 163 88.5s60 134.167 60 225.5zM415 861l-119.001 -74.998c-20 -10 -32 -15 -36 -15s-8 1.83301 -12 5.5
s-6 7.5 -6 11.5c0 7.33301 7 18.666 21 33.999l94 97c24.667 26.667 43.667 40 57 40c4 0 8.16699 -0.833008 12.5 -2.5s8.83301 -4.33398 13.5 -8.00098s8.33398 -6.66699 11.001 -9l12 -11c5.33301 -5 8.33301 -7.83301 9 -8.5l94 -96c14.667 -16 22 -28 22 -36
c0 -4 -2 -7.83301 -6 -11.5s-8 -5.5 -12 -5.5c-6 0 -18 5 -36 15z" />
    <glyph glyph-name="Otilde" unicode="&#xd5;" horiz-adv-x="830" 
d="M798 366c0 -109.333 -35.5 -200.333 -106.5 -273s-163.167 -109 -276.5 -109s-205.5 36.333 -276.5 109s-106.5 163.667 -106.5 273s35.5 200.333 106.5 273s163.167 109 276.5 109s205.5 -36.333 276.5 -109s106.5 -163.667 106.5 -273zM638 366
c0 91.333 -20 166.5 -60 225.5s-94.333 88.5 -163 88.5s-123 -29.5 -163 -88.5s-60 -134.167 -60 -225.5s20 -166.5 60 -225.5s94.333 -88.5 163 -88.5s123 29.5 163 88.5s60 134.167 60 225.5zM319 840c-10.667 0 -19.8311 -4.33301 -27.498 -13
s-14.334 -17.5 -20.001 -26.5s-11.5 -13.5 -17.5 -13.5c-10.667 0 -16 6.66699 -16 20c0 27.333 13.333 52 40 74s54 33 82 33c22.667 0 49.667 -9 81 -27s53.666 -27 66.999 -27c14.667 0 28.667 7.33301 42 22s22 22 26 22c11.333 0 17 -6.66699 17 -20
c0 -22 -12.833 -43.833 -38.5 -65.5s-54.834 -32.5 -87.501 -32.5c-23.333 0 -50.666 9 -81.999 27s-53.333 27 -66 27z" />
    <glyph glyph-name="Odieresis" unicode="&#xd6;" horiz-adv-x="830" 
d="M798 366c0 -109.333 -35.5 -200.333 -106.5 -273s-163.167 -109 -276.5 -109s-205.5 36.333 -276.5 109s-106.5 163.667 -106.5 273s35.5 200.333 106.5 273s163.167 109 276.5 109s205.5 -36.333 276.5 -109s106.5 -163.667 106.5 -273zM638 366
c0 91.333 -20 166.5 -60 225.5s-94.333 88.5 -163 88.5s-123 -29.5 -163 -88.5s-60 -134.167 -60 -225.5s20 -166.5 60 -225.5s94.333 -88.5 163 -88.5s123 29.5 163 88.5s60 134.167 60 225.5zM388 850c0 -21.333 -7.5 -37.666 -22.5 -48.999s-33.167 -17 -54.5 -17
s-39.5 5.66699 -54.5 17s-22.5 27.666 -22.5 48.999s7.5 37.666 22.5 48.999s33.167 17 54.5 17s39.5 -5.66699 54.5 -17s22.5 -27.666 22.5 -48.999zM597 850c0 -21.333 -7.5 -37.666 -22.5 -48.999s-33.167 -17 -54.5 -17s-39.5 5.66699 -54.5 17
s-22.5 27.666 -22.5 48.999s7.5 37.666 22.5 48.999s33.167 17 54.5 17s39.5 -5.66699 54.5 -17s22.5 -27.666 22.5 -48.999z" />
    <glyph glyph-name="multiply" unicode="&#xd7;" horiz-adv-x="600" 
d="M366 239l173 -173l-67 -66l-172 173l-172 -173l-67 66l173 173l-173 173l67 66l172 -173l172 173l67 -66z" />
    <glyph glyph-name="Oslash" unicode="&#xd8;" horiz-adv-x="830" 
d="M593 564l-298 -469c34 -28.667 74 -43 120 -43c68.667 0 123 29.5 163 88.5s60 134.167 60 225.5c0 78.667 -15 144.667 -45 198zM240 162l300 471c-33.333 31.333 -75 47 -125 47c-68.667 0 -123 -29.5 -163 -88.5s-60 -134.167 -60 -225.5c0 -82 16 -150 48 -204z
M247 20l-69.001 -109c-10.667 -16.667 -27.667 -25 -51 -25c-10 0 -18 2.83301 -24 8.5s-9 11.5 -9 17.5c0 14 3.66699 26.667 11 38l71 111c-46 34 -81.5 77.5 -106.5 130.5s-37.5 111.167 -37.5 174.5c0 109.333 35.5 200.333 106.5 273s163.167 109 276.5 109
c64 0 122 -12.667 174 -38l55 86c6.66699 11.333 13.834 19.833 21.501 25.5s19.5 8.5 35.5 8.5c11.333 0 20.333 -2.5 27 -7.5s10 -11.5 10 -19.5s-2 -14.667 -6 -20l-73 -115c44 -34.667 78.167 -78.167 102.5 -130.5s36.5 -109.5 36.5 -171.5
c0 -109.333 -35.5 -200.333 -106.5 -273s-163.167 -109 -276.5 -109c-63.333 0 -119.333 12 -168 36z" />
    <glyph glyph-name="Ugrave" unicode="&#xd9;" horiz-adv-x="760" 
d="M70 732l180.003 0.00488281c12 0 21.5 -2.83301 28.5 -8.5s10.5 -12.834 10.5 -21.501c0 -15.333 -9 -26.333 -27 -33s-28 -13.667 -30 -21c-3.33301 -14 -8.5 -63.333 -15.5 -148s-10.5 -153.334 -10.5 -206.001c0 -86 16.833 -147.833 50.5 -185.5
s84.834 -56.5 153.501 -56.5c132 0 198 74.667 198 224c0 47.333 -2.16699 112.5 -6.5 195.5s-8.83301 135.5 -13.5 157.5c-2 10 -7 18.5 -15 25.5s-15.833 12 -23.5 15s-14.667 7.16699 -21 12.5s-9.5 12 -9.5 20c0 20 9 30 27 30h152c22 0 33 -9.33301 33 -28
c0 -8.66699 -4.5 -15.167 -13.5 -19.5s-18.167 -10.333 -27.5 -18s-14 -19.834 -14 -36.501c0 -4 1.66699 -24.333 5 -61s6.66602 -79.834 9.99902 -129.501s5 -92.834 5 -129.501c0 -217.333 -108.333 -326 -325 -326c-96.667 0 -173.334 25.5 -230.001 76.5
s-85 120.167 -85 207.5c0 30.667 3.83301 92.5 11.5 185.5s12.5 154.833 14.5 185.5c0.666992 9.33301 -1.83301 17 -7.5 23s-11.834 10 -18.501 12s-12.834 5.33301 -18.501 10s-8.5 10.667 -8.5 18c0 20 13.667 30 41 30zM384.003 791.005l-119.998 95l-8 5.5
c-3.33301 2.33301 -5.83301 4.33301 -7.5 6s-3.83398 3.66699 -6.50098 6s-4.66699 4.66602 -6 6.99902s-2.5 5 -3.5 8s-1.5 6.16699 -1.5 9.5c0 18 9.66699 27 29 27h56c13.333 0 23.666 -2.66699 30.999 -8s16 -16.666 26 -33.999l52 -91c10 -16 15 -27 15 -33
c0 -12 -6.33301 -18 -19 -18c-6 0 -18.333 6.66699 -37 20z" />
    <glyph glyph-name="Uacute" unicode="&#xda;" horiz-adv-x="760" 
d="M70 732l180.003 0.00488281c12 0 21.5 -2.83301 28.5 -8.5s10.5 -12.834 10.5 -21.501c0 -15.333 -9 -26.333 -27 -33s-28 -13.667 -30 -21c-3.33301 -14 -8.5 -63.333 -15.5 -148s-10.5 -153.334 -10.5 -206.001c0 -86 16.833 -147.833 50.5 -185.5
s84.834 -56.5 153.501 -56.5c132 0 198 74.667 198 224c0 47.333 -2.16699 112.5 -6.5 195.5s-8.83301 135.5 -13.5 157.5c-2 10 -7 18.5 -15 25.5s-15.833 12 -23.5 15s-14.667 7.16699 -21 12.5s-9.5 12 -9.5 20c0 20 9 30 27 30h152c22 0 33 -9.33301 33 -28
c0 -8.66699 -4.5 -15.167 -13.5 -19.5s-18.167 -10.333 -27.5 -18s-14 -19.834 -14 -36.501c0 -4 1.66699 -24.333 5 -61s6.66602 -79.834 9.99902 -129.501s5 -92.834 5 -129.501c0 -217.333 -108.333 -326 -325 -326c-96.667 0 -173.334 25.5 -230.001 76.5
s-85 120.167 -85 207.5c0 30.667 3.83301 92.5 11.5 185.5s12.5 154.833 14.5 185.5c0.666992 9.33301 -1.83301 17 -7.5 23s-11.834 10 -18.501 12s-12.834 5.33301 -18.501 10s-8.5 10.667 -8.5 18c0 20 13.667 30 41 30zM497.003 886.005l-120 -95
c-18 -13.333 -30.333 -20 -37 -20c-12.667 0 -19 6 -19 18c0 6 5 17 15 33l52 91c10 17.333 18.667 28.666 26 33.999s17.666 8 30.999 8h56c19.333 0 29 -9 29 -27c0 -4 -0.5 -7.66699 -1.5 -11s-3 -6.5 -6 -9.5s-5.5 -5.33301 -7.5 -7s-5.16699 -4.16699 -9.5 -7.5
s-7.16602 -5.66602 -8.49902 -6.99902z" />
    <glyph glyph-name="Ucircumflex" unicode="&#xdb;" horiz-adv-x="760" 
d="M70 732l180.003 0.00488281c12 0 21.5 -2.83301 28.5 -8.5s10.5 -12.834 10.5 -21.501c0 -15.333 -9 -26.333 -27 -33s-28 -13.667 -30 -21c-3.33301 -14 -8.5 -63.333 -15.5 -148s-10.5 -153.334 -10.5 -206.001c0 -86 16.833 -147.833 50.5 -185.5
s84.834 -56.5 153.501 -56.5c132 0 198 74.667 198 224c0 47.333 -2.16699 112.5 -6.5 195.5s-8.83301 135.5 -13.5 157.5c-2 10 -7 18.5 -15 25.5s-15.833 12 -23.5 15s-14.667 7.16699 -21 12.5s-9.5 12 -9.5 20c0 20 9 30 27 30h152c22 0 33 -9.33301 33 -28
c0 -8.66699 -4.5 -15.167 -13.5 -19.5s-18.167 -10.333 -27.5 -18s-14 -19.834 -14 -36.501c0 -4 1.66699 -24.333 5 -61s6.66602 -79.834 9.99902 -129.501s5 -92.834 5 -129.501c0 -217.333 -108.333 -326 -325 -326c-96.667 0 -173.334 25.5 -230.001 76.5
s-85 120.167 -85 207.5c0 30.667 3.83301 92.5 11.5 185.5s12.5 154.833 14.5 185.5c0.666992 9.33301 -1.83301 17 -7.5 23s-11.834 10 -18.501 12s-12.834 5.33301 -18.501 10s-8.5 10.667 -8.5 18c0 20 13.667 30 41 30zM380.003 861.005l-118.999 -74.998
c-20 -10 -32 -15 -36 -15c-4.66699 0 -8.83398 1.83301 -12.501 5.5s-5.5 7.5 -5.5 11.5c0 7.33301 7 18.666 21 33.999l94 97c24.667 26.667 43.667 40 57 40c4 0 8.16699 -0.833008 12.5 -2.5s8.83301 -4.33398 13.5 -8.00098s8.33398 -6.66699 11.001 -9l12 -11
c5.33301 -5 8.33301 -7.83301 9 -8.5l94 -96c14.667 -16 22 -28 22 -36c0 -4 -1.83301 -7.83301 -5.5 -11.5s-7.83398 -5.5 -12.501 -5.5c-6 0 -18 5 -36 15z" />
    <glyph glyph-name="Udieresis" unicode="&#xdc;" horiz-adv-x="760" 
d="M70 732l180.003 0.00488281c12 0 21.5 -2.83301 28.5 -8.5s10.5 -12.834 10.5 -21.501c0 -15.333 -9 -26.333 -27 -33s-28 -13.667 -30 -21c-3.33301 -14 -8.5 -63.333 -15.5 -148s-10.5 -153.334 -10.5 -206.001c0 -86 16.833 -147.833 50.5 -185.5
s84.834 -56.5 153.501 -56.5c132 0 198 74.667 198 224c0 47.333 -2.16699 112.5 -6.5 195.5s-8.83301 135.5 -13.5 157.5c-2 10 -7 18.5 -15 25.5s-15.833 12 -23.5 15s-14.667 7.16699 -21 12.5s-9.5 12 -9.5 20c0 20 9 30 27 30h152c22 0 33 -9.33301 33 -28
c0 -8.66699 -4.5 -15.167 -13.5 -19.5s-18.167 -10.333 -27.5 -18s-14 -19.834 -14 -36.501c0 -4 1.66699 -24.333 5 -61s6.66602 -79.834 9.99902 -129.501s5 -92.834 5 -129.501c0 -217.333 -108.333 -326 -325 -326c-96.667 0 -173.334 25.5 -230.001 76.5
s-85 120.167 -85 207.5c0 30.667 3.83301 92.5 11.5 185.5s12.5 154.833 14.5 185.5c0.666992 9.33301 -1.83301 17 -7.5 23s-11.834 10 -18.501 12s-12.834 5.33301 -18.501 10s-8.5 10.667 -8.5 18c0 20 13.667 30 41 30zM353.003 850.005
c0 -21.333 -7.5 -37.666 -22.5 -48.999s-33.167 -17 -54.5 -17s-39.5 5.66699 -54.5 17s-22.5 27.666 -22.5 48.999s7.5 37.666 22.5 48.999s33.167 17 54.5 17s39.5 -5.66699 54.5 -17s22.5 -27.666 22.5 -48.999zM562.003 850.005c0 -21.333 -7.5 -37.666 -22.5 -48.999
s-33.167 -17 -54.5 -17s-39.5 5.66699 -54.5 17s-22.5 27.666 -22.5 48.999s7.5 37.666 22.5 48.999s33.167 17 54.5 17s39.5 -5.66699 54.5 -17s22.5 -27.666 22.5 -48.999z" />
    <glyph glyph-name="Yacute" unicode="&#xdd;" horiz-adv-x="720" 
d="M459 0l-167.999 0.000976562c-30.667 0 -46 10 -46 30c0 9.33301 2.83301 16.5 8.5 21.5s12.167 8.16699 19.5 9.5s13.833 5.16602 19.5 11.499s8.5 15.5 8.5 27.5v188c-32 33.333 -64 72.5 -96 117.5s-57.833 83.667 -77.5 116l-74.5 126.5
c-2.66699 5.33301 -13.334 12.666 -32.001 21.999s-28 21 -28 35c0 18 8.66699 27 26 27h222c21.333 0 32 -10 32 -30c0 -13.333 -7.66699 -23.333 -23 -30s-23 -12 -23 -16c0 -14 17.667 -49.833 53 -107.5s77 -118.5 125 -182.5c111.333 154.667 167 246.667 167 276
c0 8 -3 14.667 -9 20s-12.5 9 -19.5 11s-13.5 5.5 -19.5 10.5s-9 11.833 -9 20.5c0 18.667 12 28 36 28h150c16.667 0 25 -9 25 -27c0 -8.66699 -2.83301 -15.167 -8.5 -19.5l-24 -18.5c-10.333 -8 -19.5 -19.333 -27.5 -34c-14.667 -27.333 -32.5 -57.333 -53.5 -90
l-52 -79l-61 -86.5c-27 -37.667 -43.833 -61.5 -50.5 -71.5v-206c0 -12 2.83301 -21.167 8.5 -27.5s12.167 -10.166 19.5 -11.499s13.833 -4.5 19.5 -9.5s8.5 -12.167 8.5 -21.5c0 -20 -15.333 -30 -46 -30zM477.001 886.001l-120 -95c-18.667 -13.333 -31 -20 -37 -20
c-12.667 0 -19 6 -19 18c0 6 5 17 15 33l52 91c10 17.333 18.667 28.666 26 33.999s17.666 8 30.999 8h56c19.333 0 29 -9 29 -27c0 -4 -0.5 -7.66699 -1.5 -11s-3 -6.5 -6 -9.5s-5.5 -5.33301 -7.5 -7s-5.16699 -4.16699 -9.5 -7.5s-7.16602 -5.66602 -8.49902 -6.99902z
" />
    <glyph glyph-name="Thorn" unicode="&#xde;" horiz-adv-x="650" 
d="M229 472l-0.000976562 -254c72.667 0 133.834 17.167 183.501 51.5s74.5 78.5 74.5 132.5c0 43.333 -13.833 76.5 -41.5 99.5s-68.5 34.5 -122.5 34.5c-36 0 -60.667 -4.16699 -74 -12.5s-20 -25.5 -20 -51.5zM228.999 604l91.001 0.000976562
c113.333 0 196.166 -17.333 248.499 -52s78.5 -81.334 78.5 -140.001c0 -82 -38.333 -145 -115 -189s-177.667 -66.667 -303 -68v-55c0 -12 2.83301 -21.167 8.5 -27.5s12.167 -10.166 19.5 -11.499s13.833 -4.5 19.5 -9.5s8.5 -12.167 8.5 -21.5c0 -20 -15.333 -30 -46 -30
h-168c-31.333 0 -47 10 -47 30c0 9.33301 3 16.5 9 21.5s12.5 8.16699 19.5 9.5s13.5 5.16602 19.5 11.499s9 15.5 9 27.5v532c0 12 -3 21.167 -9 27.5s-12.5 10.166 -19.5 11.499s-13.5 4.5 -19.5 9.5s-9 12.167 -9 21.5c0 20 15.667 30 47 30h168c30.667 0 46 -10 46 -30
c0 -9.33301 -2.83301 -16.5 -8.5 -21.5s-12.167 -8.16699 -19.5 -9.5s-13.833 -5.16602 -19.5 -11.499s-8.5 -15.5 -8.5 -27.5v-28z" />
    <glyph glyph-name="germandbls" unicode="&#xdf;" horiz-adv-x="667" 
d="M195 484l-0.00488281 -379.998c0 -22.667 3.5 -38.334 10.5 -47.001s10.5 -17.334 10.5 -26.001c0 -12.667 -4.66699 -21.167 -14 -25.5s-25.333 -6.16602 -48 -5.49902h-123c-11.333 1.33301 -19.166 4.33301 -23.499 9s-6.5 12.667 -6.5 24c0 10.667 3.33301 19 10 25
s14 10 22 12s15.333 5.66699 22 11s10 13 10 23v376c0 84.667 24.167 150.5 72.5 197.5s112.833 70.5 193.5 70.5c40 0 78 -6.83301 114 -20.5s66.833 -36.5 92.5 -68.5s38.5 -70.333 38.5 -115c0 -23.333 -3.66699 -43.333 -11 -60s-16.666 -29.834 -27.999 -39.501
s-26.166 -17.167 -44.499 -22.5s-36.333 -8.83301 -54 -10.5s-38.5 -2.5 -62.5 -2.5v-2c166.667 -5.33301 250 -75.666 250 -210.999c0 -68 -22.167 -120.333 -66.5 -157s-97.166 -55 -158.499 -55c-51.333 0 -93.333 10.667 -126 32s-49 57.333 -49 108
c0 30 7 56.667 21 80s34 35 60 35c24 0 36 -9.66699 36 -29c0 -9.33301 -7.16699 -20.5 -21.5 -33.5s-21.5 -29.167 -21.5 -48.5c0 -24.667 8.16699 -42.834 24.5 -54.501s36.5 -17.5 60.5 -17.5c38.667 0 66.834 14.167 84.501 42.5s26.5 63.5 26.5 105.5
c0 62.667 -15.833 105.167 -47.5 127.5s-76.5 33.5 -134.5 33.5c-30 0 -49.833 3 -59.5 9s-14.5 16 -14.5 30c0 18 5.5 30 16.5 36s32.833 9 65.5 9c46 0 78.833 7.66699 98.5 23s29.5 42.333 29.5 81c0 36.667 -10.167 65.667 -30.5 87s-49.5 32 -87.5 32
c-46 0 -80.333 -13.667 -103 -41s-34 -76.333 -34 -147z" />
    <glyph glyph-name="agrave" unicode="&#xe0;" horiz-adv-x="550" 
d="M484 0l-78.002 -0.00390625c-19.333 0 -31.833 4.33301 -37.5 13s-7.83398 22.334 -6.50098 41.001h-4c-13.333 -20.667 -34.333 -36.5 -63 -47.5s-60.334 -16.5 -95.001 -16.5c-54.667 0 -97.667 14.333 -129 43s-47 63.667 -47 105
c0 42.667 17.833 78.834 53.5 108.501s77.334 50.334 125.001 62.001s97.5 17.5 149.5 17.5c0 30 -8.66699 54.5 -26 73.5s-42 28.5 -74 28.5c-27.333 0 -54.166 -9.66699 -80.499 -29s-49.5 -29 -69.5 -29c-12.667 0 -23.167 3.5 -31.5 10.5s-12.5 16.833 -12.5 29.5
c0 22.667 19.333 41.334 58 56.001s81.667 22 129 22c70.667 0 127.834 -14.167 171.501 -42.5s65.5 -72.833 65.5 -133.5v-215c0 -11.333 2.66699 -20.5 8 -27.5s11 -11.5 17 -13.5s11.667 -5.16699 17 -9.5s8 -9.5 8 -15.5c0 -11.333 -3.16699 -19.333 -9.5 -24
s-19.166 -7 -38.499 -7zM351.998 155.996l0.000976562 116c-55.333 0 -100.833 -13.667 -136.5 -41s-53.5 -58 -53.5 -92c0 -24 8.66699 -45.5 26 -64.5s38.666 -28.5 63.999 -28.5c30 0 53.833 11.5 71.5 34.5s27.167 48.167 28.5 75.5zM265.999 553.996l-119.998 95
l-8 5.5c-3.33301 2.33301 -5.83301 4.33301 -7.5 6s-3.83398 3.66699 -6.50098 6s-4.66699 4.66602 -6 6.99902s-2.5 5 -3.5 8s-1.5 6.16699 -1.5 9.5c0 18 9.66699 27 29 27h56c13.333 0 23.666 -2.66699 30.999 -8s16 -16.666 26 -33.999l52 -91c10 -16 15 -27 15 -33
c0 -12 -6.33301 -18 -19 -18c-6 0 -18.333 6.66699 -37 20z" />
    <glyph glyph-name="aacute" unicode="&#xe1;" horiz-adv-x="550" 
d="M484 0l-78.002 -0.00390625c-19.333 0 -31.833 4.33301 -37.5 13s-7.83398 22.334 -6.50098 41.001h-4c-13.333 -20.667 -34.333 -36.5 -63 -47.5s-60.334 -16.5 -95.001 -16.5c-54.667 0 -97.667 14.333 -129 43s-47 63.667 -47 105
c0 42.667 17.833 78.834 53.5 108.501s77.334 50.334 125.001 62.001s97.5 17.5 149.5 17.5c0 30 -8.66699 54.5 -26 73.5s-42 28.5 -74 28.5c-27.333 0 -54.166 -9.66699 -80.499 -29s-49.5 -29 -69.5 -29c-12.667 0 -23.167 3.5 -31.5 10.5s-12.5 16.833 -12.5 29.5
c0 22.667 19.333 41.334 58 56.001s81.667 22 129 22c70.667 0 127.834 -14.167 171.501 -42.5s65.5 -72.833 65.5 -133.5v-215c0 -11.333 2.66699 -20.5 8 -27.5s11 -11.5 17 -13.5s11.667 -5.16699 17 -9.5s8 -9.5 8 -15.5c0 -11.333 -3.16699 -19.333 -9.5 -24
s-19.166 -7 -38.499 -7zM351.998 155.996l0.000976562 116c-55.333 0 -100.833 -13.667 -136.5 -41s-53.5 -58 -53.5 -92c0 -24 8.66699 -45.5 26 -64.5s38.666 -28.5 63.999 -28.5c30 0 53.833 11.5 71.5 34.5s27.167 48.167 28.5 75.5zM376.999 648.996l-120 -95
c-18 -13.333 -30.333 -20 -37 -20c-12.667 0 -19 6 -19 18c0 6 5 17 15 33l52 91c10 17.333 18.667 28.666 26 33.999s17.666 8 30.999 8h56c19.333 0 29 -9 29 -27c0 -4 -0.5 -7.66699 -1.5 -11s-3 -6.5 -6 -9.5s-5.5 -5.33301 -7.5 -7s-5.16699 -4.16699 -9.5 -7.5
s-7.16602 -5.66602 -8.49902 -6.99902z" />
    <glyph glyph-name="acircumflex" unicode="&#xe2;" horiz-adv-x="550" 
d="M484 0l-78.002 -0.00390625c-19.333 0 -31.833 4.33301 -37.5 13s-7.83398 22.334 -6.50098 41.001h-4c-13.333 -20.667 -34.333 -36.5 -63 -47.5s-60.334 -16.5 -95.001 -16.5c-54.667 0 -97.667 14.333 -129 43s-47 63.667 -47 105
c0 42.667 17.833 78.834 53.5 108.501s77.334 50.334 125.001 62.001s97.5 17.5 149.5 17.5c0 30 -8.66699 54.5 -26 73.5s-42 28.5 -74 28.5c-27.333 0 -54.166 -9.66699 -80.499 -29s-49.5 -29 -69.5 -29c-12.667 0 -23.167 3.5 -31.5 10.5s-12.5 16.833 -12.5 29.5
c0 22.667 19.333 41.334 58 56.001s81.667 22 129 22c70.667 0 127.834 -14.167 171.501 -42.5s65.5 -72.833 65.5 -133.5v-215c0 -11.333 2.66699 -20.5 8 -27.5s11 -11.5 17 -13.5s11.667 -5.16699 17 -9.5s8 -9.5 8 -15.5c0 -11.333 -3.16699 -19.333 -9.5 -24
s-19.166 -7 -38.499 -7zM351.998 155.996l0.000976562 116c-55.333 0 -100.833 -13.667 -136.5 -41s-53.5 -58 -53.5 -92c0 -24 8.66699 -45.5 26 -64.5s38.666 -28.5 63.999 -28.5c30 0 53.833 11.5 71.5 34.5s27.167 48.167 28.5 75.5zM265.999 623.996l-118.999 -74.998
c-20 -10 -32 -15 -36 -15c-4.66699 0 -8.83398 2 -12.501 6s-5.5 7.66699 -5.5 11c0 7.33301 7 18.666 21 33.999l94 97c24.667 26.667 43.667 40 57 40c4 0 8.16699 -0.833008 12.5 -2.5s8.83301 -4.33398 13.5 -8.00098s8.33398 -6.66699 11.001 -9l12 -11
c5.33301 -5 8.33301 -7.83301 9 -8.5l94 -96c14.667 -16 22 -28 22 -36c0 -3.33301 -1.83301 -7 -5.5 -11s-7.83398 -6 -12.501 -6c-6 0 -18 5 -36 15z" />
    <glyph glyph-name="atilde" unicode="&#xe3;" horiz-adv-x="550" 
d="M484 0l-78.002 -0.00390625c-19.333 0 -31.833 4.33301 -37.5 13s-7.83398 22.334 -6.50098 41.001h-4c-13.333 -20.667 -34.333 -36.5 -63 -47.5s-60.334 -16.5 -95.001 -16.5c-54.667 0 -97.667 14.333 -129 43s-47 63.667 -47 105
c0 42.667 17.833 78.834 53.5 108.501s77.334 50.334 125.001 62.001s97.5 17.5 149.5 17.5c0 30 -8.66699 54.5 -26 73.5s-42 28.5 -74 28.5c-27.333 0 -54.166 -9.66699 -80.499 -29s-49.5 -29 -69.5 -29c-12.667 0 -23.167 3.5 -31.5 10.5s-12.5 16.833 -12.5 29.5
c0 22.667 19.333 41.334 58 56.001s81.667 22 129 22c70.667 0 127.834 -14.167 171.501 -42.5s65.5 -72.833 65.5 -133.5v-215c0 -11.333 2.66699 -20.5 8 -27.5s11 -11.5 17 -13.5s11.667 -5.16699 17 -9.5s8 -9.5 8 -15.5c0 -11.333 -3.16699 -19.333 -9.5 -24
s-19.166 -7 -38.499 -7zM351.998 155.996l0.000976562 116c-55.333 0 -100.833 -13.667 -136.5 -41s-53.5 -58 -53.5 -92c0 -24 8.66699 -45.5 26 -64.5s38.666 -28.5 63.999 -28.5c30 0 53.833 11.5 71.5 34.5s27.167 48.167 28.5 75.5zM169.999 602.996
c-10.667 0 -19.8311 -4.5 -27.498 -13.5s-14.334 -17.833 -20.001 -26.5s-11.5 -13 -17.5 -13c-10.667 0 -16 6.66699 -16 20c0 27.333 13.333 52 40 74s54 33 82 33c22.667 0 49.834 -9 81.501 -27s53.834 -27 66.501 -27c14.667 0 28.667 7.33301 42 22s22 22 26 22
c11.333 0 17 -6.66699 17 -20c0 -22 -12.833 -43.833 -38.5 -65.5s-54.834 -32.5 -87.501 -32.5c-22.667 0 -49.834 9 -81.501 27s-53.834 27 -66.501 27z" />
    <glyph glyph-name="adieresis" unicode="&#xe4;" horiz-adv-x="550" 
d="M484 0l-78.002 -0.00390625c-19.333 0 -31.833 4.33301 -37.5 13s-7.83398 22.334 -6.50098 41.001h-4c-13.333 -20.667 -34.333 -36.5 -63 -47.5s-60.334 -16.5 -95.001 -16.5c-54.667 0 -97.667 14.333 -129 43s-47 63.667 -47 105
c0 42.667 17.833 78.834 53.5 108.501s77.334 50.334 125.001 62.001s97.5 17.5 149.5 17.5c0 30 -8.66699 54.5 -26 73.5s-42 28.5 -74 28.5c-27.333 0 -54.166 -9.66699 -80.499 -29s-49.5 -29 -69.5 -29c-12.667 0 -23.167 3.5 -31.5 10.5s-12.5 16.833 -12.5 29.5
c0 22.667 19.333 41.334 58 56.001s81.667 22 129 22c70.667 0 127.834 -14.167 171.501 -42.5s65.5 -72.833 65.5 -133.5v-215c0 -11.333 2.66699 -20.5 8 -27.5s11 -11.5 17 -13.5s11.667 -5.16699 17 -9.5s8 -9.5 8 -15.5c0 -11.333 -3.16699 -19.333 -9.5 -24
s-19.166 -7 -38.499 -7zM351.998 155.996l0.000976562 116c-55.333 0 -100.833 -13.667 -136.5 -41s-53.5 -58 -53.5 -92c0 -24 8.66699 -45.5 26 -64.5s38.666 -28.5 63.999 -28.5c30 0 53.833 11.5 71.5 34.5s27.167 48.167 28.5 75.5zM238.999 612.996
c0 -21.333 -7.5 -37.666 -22.5 -48.999s-33.167 -17 -54.5 -17s-39.5 5.66699 -54.5 17s-22.5 27.666 -22.5 48.999s7.5 37.666 22.5 48.999s33.167 17 54.5 17s39.5 -5.66699 54.5 -17s22.5 -27.666 22.5 -48.999zM447.999 612.996c0 -21.333 -7.5 -37.666 -22.5 -48.999
s-33.167 -17 -54.5 -17s-39.5 5.66699 -54.5 17s-22.5 27.666 -22.5 48.999s7.5 37.666 22.5 48.999s33.167 17 54.5 17s39.5 -5.66699 54.5 -17s22.5 -27.666 22.5 -48.999z" />
    <glyph glyph-name="aring" unicode="&#xe5;" horiz-adv-x="550" 
d="M484 0l-78.002 -0.00390625c-19.333 0 -31.833 4.33301 -37.5 13s-7.83398 22.334 -6.50098 41.001h-4c-13.333 -20.667 -34.333 -36.5 -63 -47.5s-60.334 -16.5 -95.001 -16.5c-54.667 0 -97.667 14.333 -129 43s-47 63.667 -47 105
c0 42.667 17.833 78.834 53.5 108.501s77.334 50.334 125.001 62.001s97.5 17.5 149.5 17.5c0 30 -8.66699 54.5 -26 73.5s-42 28.5 -74 28.5c-27.333 0 -54.166 -9.66699 -80.499 -29s-49.5 -29 -69.5 -29c-12.667 0 -23.167 3.5 -31.5 10.5s-12.5 16.833 -12.5 29.5
c0 22.667 19.333 41.334 58 56.001s81.667 22 129 22c70.667 0 127.834 -14.167 171.501 -42.5s65.5 -72.833 65.5 -133.5v-215c0 -11.333 2.66699 -20.5 8 -27.5s11 -11.5 17 -13.5s11.667 -5.16699 17 -9.5s8 -9.5 8 -15.5c0 -11.333 -3.16699 -19.333 -9.5 -24
s-19.166 -7 -38.499 -7zM351.998 155.996l0.000976562 116c-55.333 0 -100.833 -13.667 -136.5 -41s-53.5 -58 -53.5 -92c0 -24 8.66699 -45.5 26 -64.5s38.666 -28.5 63.999 -28.5c30 0 53.833 11.5 71.5 34.5s27.167 48.167 28.5 75.5zM266.999 520.996
c-28.667 0 -53.167 10.167 -73.5 30.5s-30.5 44.833 -30.5 73.5s10.333 53.167 31 73.5s45 30.5 73 30.5s52.333 -10.167 73 -30.5s31 -44.833 31 -73.5s-10.167 -53.167 -30.5 -73.5s-44.833 -30.5 -73.5 -30.5zM266.999 564.996c16.667 0 30.834 5.83301 42.501 17.5
s17.5 25.834 17.5 42.501s-5.83301 30.834 -17.5 42.501s-25.834 17.5 -42.501 17.5s-30.834 -5.83301 -42.501 -17.5s-17.5 -25.834 -17.5 -42.501s5.83301 -30.834 17.5 -42.501s25.834 -17.5 42.501 -17.5z" />
    <glyph glyph-name="ae" unicode="&#xe6;" horiz-adv-x="820" 
d="M464 266c13.333 -1.33301 30.667 -2.00098 52 -2.00098c34 0 67.667 7.83301 101 23.5s50 37.834 50 66.501c0 24 -7.5 43.333 -22.5 58s-33.833 22 -56.5 22c-36 0 -65.667 -16 -89 -48s-35 -72 -35 -120zM24.001 137.999c0 47.333 24.3311 85.667 72.998 115
s110 44 184 44c6 0 15 -0.833008 27 -2.5s21.333 -2.5 28 -2.5c0 42 -7.83301 75.167 -23.5 99.5s-39.5 36.5 -71.5 36.5c-22 0 -40.5 -5.33301 -55.5 -16s-28.833 -21.334 -41.5 -32.001s-27.334 -16 -44.001 -16c-12 0 -23 4 -33 12s-15 16.667 -15 26
c0 7.33301 3.33301 15.5 10 24.5s16.667 18.333 30 28s33.5 17.667 60.5 24s57.833 9.5 92.5 9.5c32 0 66.833 -6.16699 104.5 -18.5s62.5 -25.5 74.5 -39.5c20.667 17.333 46.834 31.333 78.501 42s61.5 16 89.5 16c52.667 0 100 -12.167 142 -36.5s63 -60.833 63 -109.5
c0 -46.667 -21.167 -81.667 -63.5 -105s-98.5 -35 -168.5 -35c-50.667 0 -85 2 -103 6c1.33301 -47.333 14.333 -83.5 39 -108.5s55.334 -37.5 92.001 -37.5c55.333 2.66699 103.666 22.667 144.999 60l6.5 6.5c3 3 5.16699 5 6.5 6s3.33301 2.33301 6 4
s5.33398 2.83398 8.00098 3.50098s5.66699 1 9 1c6.66699 0 12.667 -2.16699 18 -6.5s8 -9.83301 8 -16.5c0 -26.667 -23.667 -55 -71 -85s-96.666 -45 -147.999 -45c-89.333 0 -154.333 24.667 -195 74c-41.333 -49.333 -103.333 -74 -186 -74
c-54 0 -96.833 12.5 -128.5 37.5s-47.5 61.833 -47.5 110.5zM335.999 170l-0.000976562 62c-16 2 -26 3 -30 3c-39.333 0 -73.166 -10 -101.499 -30s-42.5 -45.667 -42.5 -77c0 -20 6.16699 -38 18.5 -54s29.5 -24 51.5 -24c26 0 47.333 7.66699 64 23s27.5 31.333 32.5 48
s7.5 33 7.5 49z" />
    <glyph glyph-name="ccedilla" unicode="&#xe7;" horiz-adv-x="500" 
d="M311 -7l-21.002 -49.001h16c27.333 0 49.5 -6.66699 66.5 -20s25.5 -33 25.5 -59c0 -56.667 -39.667 -85 -119 -85c-30 0 -53 5.33301 -69 16s-24 22 -24 34c0 6 1.83301 11.167 5.5 15.5s8.5 6.5 14.5 6.5c10.667 0 22.5 -3.33301 35.5 -10s23.5 -10 31.5 -10
c10.667 0 20.834 3.33301 30.501 10s14.5 15.334 14.5 26.001c0 18.667 -11.667 28 -35 28c-10.667 0 -21.167 -0.833008 -31.5 -2.5s-16.166 -2.5 -17.499 -2.5c-7.33301 0 -11 3.66699 -11 11c0 6.66699 1.66699 14.334 5 23.001l30 65c-68 3.33301 -124 27.333 -168 72
s-66 101.334 -66 170.001c0 74 24.667 135.167 74 183.5s111.333 72.5 186 72.5c47.333 0 90 -10.5 128 -31.5s57 -45.167 57 -72.5c0 -14 -5.66699 -25.5 -17 -34.5s-26.666 -13.5 -45.999 -13.5c-12.667 0 -23.667 5.16699 -33 15.5s-16.666 21.5 -21.999 33.5
s-14 23.167 -26 33.5s-27 15.5 -45 15.5c-34.667 0 -63 -18.667 -85 -56s-33 -86.333 -33 -147c0 -50.667 13.5 -91.5 40.5 -122.5s59.833 -46.5 98.5 -46.5c21.333 0 41.166 4 59.499 12s32.333 16.833 42 26.5s19.5 18.5 29.5 26.5s18.333 12 25 12
c7.33301 0 13.333 -2.33301 18 -7s7 -10.334 7 -17.001c0 -21.333 -16.833 -45.333 -50.5 -72s-73.834 -43.334 -120.501 -50.001z" />
    <glyph glyph-name="egrave" unicode="&#xe8;" horiz-adv-x="530" 
d="M24 227c0.666992 79.333 25.501 142.666 74.501 189.999s119.167 71 210.5 71c30.667 0 60 -4.33301 88 -13s52.5 -24 73.5 -46s31.5 -48.667 31.5 -80s-11.833 -58.333 -35.5 -81s-55 -39.5 -94 -50.5s-73.833 -18.833 -104.5 -23.5s-63.334 -8 -98.001 -10
c6 -36.667 22 -66.167 48 -88.5s56.667 -33.5 92 -33.5c52 2.66699 98.667 22.667 140 60l6 6c3.33301 3.33301 5.66602 5.5 6.99902 6.5s3.5 2.33301 6.5 4s5.83301 2.83398 8.5 3.50098s5.66699 1 9 1c15.333 0 23 -7.66699 23 -23c0 -27.333 -24.167 -55.833 -72.5 -85.5
s-101.166 -44.5 -158.499 -44.5c-70.667 0 -130.667 22 -180 66s-74.333 101 -75 171zM300.001 434c-45.333 0 -79.999 -19.167 -103.999 -57.5s-35.333 -84.5 -34 -138.5c19.333 2 38 4.83301 56 8.5s40.167 9.66699 66.5 18s47.5 21 63.5 38s24 37.167 24 60.5
c0 22.667 -6.33301 40.167 -19 52.5s-30.334 18.5 -53.001 18.5zM292.002 554l-119.998 95l-8 5.5c-3.33301 2.33301 -5.83301 4.33301 -7.5 6s-3.83398 3.66699 -6.50098 6s-4.66699 4.66602 -6 6.99902s-2.5 5 -3.5 8s-1.5 6.16699 -1.5 9.5c0 18 9.66699 27 29 27h56
c13.333 0 23.666 -2.66699 30.999 -8s16 -16.666 26 -33.999l52 -91c10 -16 15 -27 15 -33c0 -12 -6.33301 -18 -19 -18c-6 0 -18.333 6.66699 -37 20z" />
    <glyph glyph-name="eacute" unicode="&#xe9;" horiz-adv-x="530" 
d="M24 227c0.666992 79.333 25.501 142.666 74.501 189.999s119.167 71 210.5 71c30.667 0 60 -4.33301 88 -13s52.5 -24 73.5 -46s31.5 -48.667 31.5 -80s-11.833 -58.333 -35.5 -81s-55 -39.5 -94 -50.5s-73.833 -18.833 -104.5 -23.5s-63.334 -8 -98.001 -10
c6 -36.667 22 -66.167 48 -88.5s56.667 -33.5 92 -33.5c52 2.66699 98.667 22.667 140 60l6 6c3.33301 3.33301 5.66602 5.5 6.99902 6.5s3.5 2.33301 6.5 4s5.83301 2.83398 8.5 3.50098s5.66699 1 9 1c15.333 0 23 -7.66699 23 -23c0 -27.333 -24.167 -55.833 -72.5 -85.5
s-101.166 -44.5 -158.499 -44.5c-70.667 0 -130.667 22 -180 66s-74.333 101 -75 171zM300.001 434c-45.333 0 -79.999 -19.167 -103.999 -57.5s-35.333 -84.5 -34 -138.5c19.333 2 38 4.83301 56 8.5s40.167 9.66699 66.5 18s47.5 21 63.5 38s24 37.167 24 60.5
c0 22.667 -6.33301 40.167 -19 52.5s-30.334 18.5 -53.001 18.5zM405.002 649l-120 -95c-18 -13.333 -30.333 -20 -37 -20c-12.667 0 -19 6 -19 18c0 6 5 17 15 33l52 91c10 17.333 18.667 28.666 26 33.999s17.666 8 30.999 8h56c19.333 0 29 -9 29 -27
c0 -4 -0.5 -7.66699 -1.5 -11s-3 -6.5 -6 -9.5s-5.5 -5.33301 -7.5 -7s-5.16699 -4.16699 -9.5 -7.5s-7.16602 -5.66602 -8.49902 -6.99902z" />
    <glyph glyph-name="ecircumflex" unicode="&#xea;" horiz-adv-x="530" 
d="M24 227c0.666992 79.333 25.501 142.666 74.501 189.999s119.167 71 210.5 71c30.667 0 60 -4.33301 88 -13s52.5 -24 73.5 -46s31.5 -48.667 31.5 -80s-11.833 -58.333 -35.5 -81s-55 -39.5 -94 -50.5s-73.833 -18.833 -104.5 -23.5s-63.334 -8 -98.001 -10
c6 -36.667 22 -66.167 48 -88.5s56.667 -33.5 92 -33.5c52 2.66699 98.667 22.667 140 60l6 6c3.33301 3.33301 5.66602 5.5 6.99902 6.5s3.5 2.33301 6.5 4s5.83301 2.83398 8.5 3.50098s5.66699 1 9 1c15.333 0 23 -7.66699 23 -23c0 -27.333 -24.167 -55.833 -72.5 -85.5
s-101.166 -44.5 -158.499 -44.5c-70.667 0 -130.667 22 -180 66s-74.333 101 -75 171zM300.001 434c-45.333 0 -79.999 -19.167 -103.999 -57.5s-35.333 -84.5 -34 -138.5c19.333 2 38 4.83301 56 8.5s40.167 9.66699 66.5 18s47.5 21 63.5 38s24 37.167 24 60.5
c0 22.667 -6.33301 40.167 -19 52.5s-30.334 18.5 -53.001 18.5zM288.002 624l-118.999 -74.998c-20 -10 -32 -15 -36 -15c-4.66699 0 -8.83398 2 -12.501 6s-5.5 7.66699 -5.5 11c0 7.33301 7 18.666 21 33.999l94 97c24.667 26.667 43.667 40 57 40
c4 0 8.16699 -0.833008 12.5 -2.5s8.83301 -4.33398 13.5 -8.00098s8.33398 -6.66699 11.001 -9l12 -11c5.33301 -5 8.33301 -7.83301 9 -8.5l94 -96c14.667 -16 22 -28 22 -36c0 -3.33301 -1.83301 -7 -5.5 -11s-7.83398 -6 -12.501 -6c-6 0 -18 5 -36 15z" />
    <glyph glyph-name="edieresis" unicode="&#xeb;" horiz-adv-x="530" 
d="M24 227c0.666992 79.333 25.501 142.666 74.501 189.999s119.167 71 210.5 71c30.667 0 60 -4.33301 88 -13s52.5 -24 73.5 -46s31.5 -48.667 31.5 -80s-11.833 -58.333 -35.5 -81s-55 -39.5 -94 -50.5s-73.833 -18.833 -104.5 -23.5s-63.334 -8 -98.001 -10
c6 -36.667 22 -66.167 48 -88.5s56.667 -33.5 92 -33.5c52 2.66699 98.667 22.667 140 60l6 6c3.33301 3.33301 5.66602 5.5 6.99902 6.5s3.5 2.33301 6.5 4s5.83301 2.83398 8.5 3.50098s5.66699 1 9 1c15.333 0 23 -7.66699 23 -23c0 -27.333 -24.167 -55.833 -72.5 -85.5
s-101.166 -44.5 -158.499 -44.5c-70.667 0 -130.667 22 -180 66s-74.333 101 -75 171zM300.001 434c-45.333 0 -79.999 -19.167 -103.999 -57.5s-35.333 -84.5 -34 -138.5c19.333 2 38 4.83301 56 8.5s40.167 9.66699 66.5 18s47.5 21 63.5 38s24 37.167 24 60.5
c0 22.667 -6.33301 40.167 -19 52.5s-30.334 18.5 -53.001 18.5zM256.002 613c0 -21.333 -7.5 -37.666 -22.5 -48.999s-33.167 -17 -54.5 -17s-39.5 5.66699 -54.5 17s-22.5 27.666 -22.5 48.999s7.5 37.666 22.5 48.999s33.167 17 54.5 17s39.5 -5.66699 54.5 -17
s22.5 -27.666 22.5 -48.999zM465.002 613c0 -21.333 -7.5 -37.666 -22.5 -48.999s-33.167 -17 -54.5 -17s-39.5 5.66699 -54.5 17s-22.5 27.666 -22.5 48.999s7.5 37.666 22.5 48.999s33.167 17 54.5 17s39.5 -5.66699 54.5 -17s22.5 -27.666 22.5 -48.999z" />
    <glyph glyph-name="igrave" unicode="&#xec;" horiz-adv-x="270" 
d="M217 0l-150.001 -0.00292969c-24.667 0 -37 8.66699 -37 26c0 8 2.5 14 7.5 18s10.333 6.66699 16 8s11 5.83301 16 13.5s7.5 18.834 7.5 33.501v259c0 11.333 -2.83301 20.333 -8.5 27s-11.834 11.334 -18.501 14.001s-12.834 6.16699 -18.501 10.5
s-8.5 9.83301 -8.5 16.5c0 12 8.66699 20 26 24c2.66699 0.666992 12.834 4.33398 30.501 11.001s35.334 12.834 53.001 18.501s30.5 8.5 38.5 8.5c14.667 0 24.334 -5.33301 29.001 -16s7 -30.667 7 -60v-313c0 -14.667 2.5 -25.834 7.5 -33.501s10.333 -12.167 16 -13.5
s11 -4 16 -8s7.5 -10 7.5 -18c0 -17.333 -12.333 -26 -37 -26zM138.999 553.997l-119.998 95l-8 5.5c-3.33301 2.33301 -5.83301 4.33301 -7.5 6s-3.83398 3.66699 -6.50098 6s-4.66699 4.66602 -6 6.99902s-2.5 5 -3.5 8s-1.5 6.16699 -1.5 9.5c0 18 9.66699 27 29 27h56
c13.333 0 23.666 -2.66699 30.999 -8s16 -16.666 26 -33.999l52 -91c10 -16 15 -27 15 -33c0 -12 -6.33301 -18 -19 -18c-6.66699 0 -19 6.66699 -37 20z" />
    <glyph glyph-name="iacute" unicode="&#xed;" horiz-adv-x="270" 
d="M217 0l-150.001 -0.00292969c-24.667 0 -37 8.66699 -37 26c0 8 2.5 14 7.5 18s10.333 6.66699 16 8s11 5.83301 16 13.5s7.5 18.834 7.5 33.501v259c0 11.333 -2.83301 20.333 -8.5 27s-11.834 11.334 -18.501 14.001s-12.834 6.16699 -18.501 10.5
s-8.5 9.83301 -8.5 16.5c0 12 8.66699 20 26 24c2.66699 0.666992 12.834 4.33398 30.501 11.001s35.334 12.834 53.001 18.501s30.5 8.5 38.5 8.5c14.667 0 24.334 -5.33301 29.001 -16s7 -30.667 7 -60v-313c0 -14.667 2.5 -25.834 7.5 -33.501s10.333 -12.167 16 -13.5
s11 -4 16 -8s7.5 -10 7.5 -18c0 -17.333 -12.333 -26 -37 -26zM251.999 648.997l-120 -95c-18.667 -13.333 -31 -20 -37 -20c-12.667 0 -19 6 -19 18c0 6 5 17 15 33l52 91c10 17.333 18.667 28.666 26 33.999s17.666 8 30.999 8h56c19.333 0 29 -9 29 -27
c0 -4 -0.5 -7.66699 -1.5 -11s-3 -6.5 -6 -9.5s-5.5 -5.33301 -7.5 -7s-5.16699 -4.16699 -9.5 -7.5s-7.16602 -5.66602 -8.49902 -6.99902z" />
    <glyph glyph-name="icircumflex" unicode="&#xee;" horiz-adv-x="270" 
d="M217 0l-150.001 -0.00292969c-24.667 0 -37 8.66699 -37 26c0 8 2.5 14 7.5 18s10.333 6.66699 16 8s11 5.83301 16 13.5s7.5 18.834 7.5 33.501v259c0 11.333 -2.83301 20.333 -8.5 27s-11.834 11.334 -18.501 14.001s-12.834 6.16699 -18.501 10.5
s-8.5 9.83301 -8.5 16.5c0 12 8.66699 20 26 24c2.66699 0.666992 12.834 4.33398 30.501 11.001s35.334 12.834 53.001 18.501s30.5 8.5 38.5 8.5c14.667 0 24.334 -5.33301 29.001 -16s7 -30.667 7 -60v-313c0 -14.667 2.5 -25.834 7.5 -33.501s10.333 -12.167 16 -13.5
s11 -4 16 -8s7.5 -10 7.5 -18c0 -17.333 -12.333 -26 -37 -26zM134.999 623.997l-119.001 -74.998c-20 -10 -32 -15 -36 -15s-8 2 -12 6s-6 7.66699 -6 11c0 7.33301 7 18.666 21 33.999l94 97c24.667 26.667 43.667 40 57 40c4 0 8.16699 -0.833008 12.5 -2.5
s8.83301 -4.33398 13.5 -8.00098s8.33398 -6.66699 11.001 -9l12 -11c5.33301 -5 8.33301 -7.83301 9 -8.5l94 -96c14.667 -16 22 -28 22 -36c0 -3.33301 -2 -7 -6 -11s-8 -6 -12 -6c-6 0 -18 5 -36 15z" />
    <glyph glyph-name="idieresis" unicode="&#xef;" horiz-adv-x="270" 
d="M217 0l-150.001 -0.00292969c-24.667 0 -37 8.66699 -37 26c0 8 2.5 14 7.5 18s10.333 6.66699 16 8s11 5.83301 16 13.5s7.5 18.834 7.5 33.501v259c0 11.333 -2.83301 20.333 -8.5 27s-11.834 11.334 -18.501 14.001s-12.834 6.16699 -18.501 10.5
s-8.5 9.83301 -8.5 16.5c0 12 8.66699 20 26 24c2.66699 0.666992 12.834 4.33398 30.501 11.001s35.334 12.834 53.001 18.501s30.5 8.5 38.5 8.5c14.667 0 24.334 -5.33301 29.001 -16s7 -30.667 7 -60v-313c0 -14.667 2.5 -25.834 7.5 -33.501s10.333 -12.167 16 -13.5
s11 -4 16 -8s7.5 -10 7.5 -18c0 -17.333 -12.333 -26 -37 -26zM107.999 612.997c0 -21.333 -7.5 -37.666 -22.5 -48.999s-33.167 -17 -54.5 -17s-39.5 5.66699 -54.5 17s-22.5 27.666 -22.5 48.999s7.5 37.666 22.5 48.999s33.167 17 54.5 17s39.5 -5.66699 54.5 -17
s22.5 -27.666 22.5 -48.999zM316.999 612.997c0 -21.333 -7.5 -37.666 -22.5 -48.999s-33.167 -17 -54.5 -17s-39.5 5.66699 -54.5 17s-22.5 27.666 -22.5 48.999s7.5 37.666 22.5 48.999s33.167 17 54.5 17s39.5 -5.66699 54.5 -17s22.5 -27.666 22.5 -48.999z" />
    <glyph glyph-name="eth" unicode="&#xf0;" horiz-adv-x="590" 
d="M164 595l97.999 56c-32.667 29.333 -69 53.666 -109 72.999c-4 1.33301 -6 6.66602 -6 15.999c0 6 2.33301 11.167 7 15.5s10.334 6.5 17.001 6.5c6 0 10.667 -1 14 -3c44 -15.333 90 -39.666 138 -72.999l98 55c6 3.33301 13 5 21 5c6 0 11.5 -2.33301 16.5 -7
s7.83301 -10 8.5 -16c1.33301 -9.33301 -3 -16.666 -13 -21.999l-87 -51c64.667 -58.667 114 -119.167 148 -181.5s51 -132.5 51 -210.5c0 -81.333 -26 -146.333 -78 -195s-116.333 -73 -193 -73c-76 0 -140.167 23.333 -192.5 70s-78.5 106.334 -78.5 179.001
s26.167 132.334 78.5 179.001s116.5 70 192.5 70c30.667 0 60.667 -4.66699 90 -14c-21.333 54.667 -49.666 101 -84.999 139l-103 -59c-6 -3.33301 -11.333 -5 -16 -5s-9.83398 3.16699 -15.501 9.5s-8.5 13.166 -8.5 20.499s2.33301 12.666 7 15.999zM294.999 50
c38.667 0 70.5 16.5 95.5 49.5s37.5 79.5 37.5 139.5s-12.5 106.5 -37.5 139.5s-56.833 49.5 -95.5 49.5s-70.5 -16.5 -95.5 -49.5s-37.5 -79.5 -37.5 -139.5s12.5 -106.5 37.5 -139.5s56.833 -49.5 95.5 -49.5z" />
    <glyph glyph-name="ntilde" unicode="&#xf1;" horiz-adv-x="590" 
d="M404 100l-0.000976562 184.001c0 21.333 -0.833008 38.5 -2.5 51.5s-5.5 26.167 -11.5 39.5s-15.667 23.166 -29 29.499s-30.666 9.5 -51.999 9.5c-31.333 0 -56.5 -11 -75.5 -33s-28.5 -47 -28.5 -75v-206c0 -14.667 2.5 -25.834 7.5 -33.501s10.333 -12.167 16 -13.5
s11 -4 16 -8s7.5 -10 7.5 -18c0 -18 -12.333 -27 -37 -27h-150c-24.667 0 -37 9 -37 27c0 8 2.5 14 7.5 18s10.333 6.66699 16 8s11 5.83301 16 13.5s7.5 18.834 7.5 33.501v244c0 17.333 -2.83301 30.5 -8.5 39.5s-11.667 14.167 -18 15.5s-12.333 4.33301 -18 9
s-8.5 12 -8.5 22c0 16.667 17.167 30.5 51.5 41.5s60.5 16.5 78.5 16.5c14.667 0 24 -5.33301 28 -16s6.66699 -32 8 -64c46 53.333 101 80 165 80c62 0 107.667 -15.833 137 -47.5s44 -81.167 44 -148.5v-192c0 -14.667 2.5 -25.834 7.5 -33.501s10.333 -12.167 16 -13.5
s11 -4 16 -8s7.5 -10 7.5 -18c0 -18 -12.333 -27 -37 -27h-150c-24.667 0 -37 9 -37 27c0 8 2.5 14 7.5 18s10.333 6.66699 16 8s11 5.83301 16 13.5s7.5 18.834 7.5 33.501zM198.999 603.001c-10.667 0 -19.8311 -4.5 -27.498 -13.5s-14.334 -17.833 -20.001 -26.5
s-11.5 -13 -17.5 -13c-10.667 0 -16 6.66699 -16 20c0 27.333 13.333 52 40 74s54 33 82 33c22.667 0 49.667 -9 81 -27s53.666 -27 66.999 -27c14.667 0 28.667 7.33301 42 22s22 22 26 22c11.333 0 17 -6.66699 17 -20c0 -22 -12.833 -43.833 -38.5 -65.5
s-54.834 -32.5 -87.501 -32.5c-23.333 0 -50.666 9 -81.999 27s-53.333 27 -66 27z" />
    <glyph glyph-name="ograve" unicode="&#xf2;" horiz-adv-x="590" 
d="M566 239c0 -72.667 -26.167 -132.334 -78.5 -179.001s-116.5 -70 -192.5 -70s-140.167 23.333 -192.5 70s-78.5 106.334 -78.5 179.001s26.167 132.334 78.5 179.001s116.5 70 192.5 70s140.167 -23.333 192.5 -70s78.5 -106.334 78.5 -179.001zM162 239
c0 -60.667 12.333 -107.334 37 -140.001s56.667 -49 96 -49s71.333 16.333 96 49s37 79.334 37 140.001s-12.333 107.334 -37 140.001s-56.667 49 -96 49s-71.333 -16.333 -96 -49s-37 -79.334 -37 -140.001zM299 554l-119.998 95l-8 5.5
c-3.33301 2.33301 -5.83301 4.33301 -7.5 6s-3.83398 3.66699 -6.50098 6s-4.66699 4.66602 -6 6.99902s-2.5 5 -3.5 8s-1.5 6.16699 -1.5 9.5c0 18 9.66699 27 29 27h56c13.333 0 23.666 -2.66699 30.999 -8s16 -16.666 26 -33.999l52 -91c10 -16 15 -27 15 -33
c0 -12 -6.33301 -18 -19 -18c-6.66699 0 -19 6.66699 -37 20z" />
    <glyph glyph-name="oacute" unicode="&#xf3;" horiz-adv-x="590" 
d="M566 239c0 -72.667 -26.167 -132.334 -78.5 -179.001s-116.5 -70 -192.5 -70s-140.167 23.333 -192.5 70s-78.5 106.334 -78.5 179.001s26.167 132.334 78.5 179.001s116.5 70 192.5 70s140.167 -23.333 192.5 -70s78.5 -106.334 78.5 -179.001zM162 239
c0 -60.667 12.333 -107.334 37 -140.001s56.667 -49 96 -49s71.333 16.333 96 49s37 79.334 37 140.001s-12.333 107.334 -37 140.001s-56.667 49 -96 49s-71.333 -16.333 -96 -49s-37 -79.334 -37 -140.001zM412 649l-120 -95c-18.667 -13.333 -31 -20 -37 -20
c-12.667 0 -19 6 -19 18c0 6 5 17 15 33l52 91c10 17.333 18.667 28.666 26 33.999s17.666 8 30.999 8h56c19.333 0 29 -9 29 -27c0 -4 -0.5 -7.66699 -1.5 -11s-3 -6.5 -6 -9.5s-5.5 -5.33301 -7.5 -7s-5.16699 -4.16699 -9.5 -7.5s-7.16602 -5.66602 -8.49902 -6.99902z
" />
    <glyph glyph-name="ocircumflex" unicode="&#xf4;" horiz-adv-x="590" 
d="M566 239c0 -72.667 -26.167 -132.334 -78.5 -179.001s-116.5 -70 -192.5 -70s-140.167 23.333 -192.5 70s-78.5 106.334 -78.5 179.001s26.167 132.334 78.5 179.001s116.5 70 192.5 70s140.167 -23.333 192.5 -70s78.5 -106.334 78.5 -179.001zM162 239
c0 -60.667 12.333 -107.334 37 -140.001s56.667 -49 96 -49s71.333 16.333 96 49s37 79.334 37 140.001s-12.333 107.334 -37 140.001s-56.667 49 -96 49s-71.333 -16.333 -96 -49s-37 -79.334 -37 -140.001zM295 624l-119.001 -74.998c-20 -10 -32 -15 -36 -15s-8 2 -12 6
s-6 7.66699 -6 11c0 7.33301 7 18.666 21 33.999l94 97c24.667 26.667 43.667 40 57 40c4 0 8.16699 -0.833008 12.5 -2.5s8.83301 -4.33398 13.5 -8.00098s8.33398 -6.66699 11.001 -9l12 -11c5.33301 -5 8.33301 -7.83301 9 -8.5l94 -96c14.667 -16 22 -28 22 -36
c0 -3.33301 -2 -7 -6 -11s-8 -6 -12 -6c-6 0 -18 5 -36 15z" />
    <glyph glyph-name="otilde" unicode="&#xf5;" horiz-adv-x="590" 
d="M566 239c0 -72.667 -26.167 -132.334 -78.5 -179.001s-116.5 -70 -192.5 -70s-140.167 23.333 -192.5 70s-78.5 106.334 -78.5 179.001s26.167 132.334 78.5 179.001s116.5 70 192.5 70s140.167 -23.333 192.5 -70s78.5 -106.334 78.5 -179.001zM162 239
c0 -60.667 12.333 -107.334 37 -140.001s56.667 -49 96 -49s71.333 16.333 96 49s37 79.334 37 140.001s-12.333 107.334 -37 140.001s-56.667 49 -96 49s-71.333 -16.333 -96 -49s-37 -79.334 -37 -140.001zM199 603c-10.667 0 -19.8311 -4.5 -27.498 -13.5
s-14.334 -17.833 -20.001 -26.5s-11.5 -13 -17.5 -13c-10.667 0 -16 6.66699 -16 20c0 27.333 13.333 52 40 74s54 33 82 33c22.667 0 49.667 -9 81 -27s53.666 -27 66.999 -27c14.667 0 28.667 7.33301 42 22s22 22 26 22c11.333 0 17 -6.66699 17 -20
c0 -22 -12.833 -43.833 -38.5 -65.5s-54.834 -32.5 -87.501 -32.5c-23.333 0 -50.666 9 -81.999 27s-53.333 27 -66 27z" />
    <glyph glyph-name="odieresis" unicode="&#xf6;" horiz-adv-x="590" 
d="M566 239c0 -72.667 -26.167 -132.334 -78.5 -179.001s-116.5 -70 -192.5 -70s-140.167 23.333 -192.5 70s-78.5 106.334 -78.5 179.001s26.167 132.334 78.5 179.001s116.5 70 192.5 70s140.167 -23.333 192.5 -70s78.5 -106.334 78.5 -179.001zM162 239
c0 -60.667 12.333 -107.334 37 -140.001s56.667 -49 96 -49s71.333 16.333 96 49s37 79.334 37 140.001s-12.333 107.334 -37 140.001s-56.667 49 -96 49s-71.333 -16.333 -96 -49s-37 -79.334 -37 -140.001zM268 613c0 -21.333 -7.5 -37.666 -22.5 -48.999
s-33.167 -17 -54.5 -17s-39.5 5.66699 -54.5 17s-22.5 27.666 -22.5 48.999s7.5 37.666 22.5 48.999s33.167 17 54.5 17s39.5 -5.66699 54.5 -17s22.5 -27.666 22.5 -48.999zM477 613c0 -21.333 -7.5 -37.666 -22.5 -48.999s-33.167 -17 -54.5 -17s-39.5 5.66699 -54.5 17
s-22.5 27.666 -22.5 48.999s7.5 37.666 22.5 48.999s33.167 17 54.5 17s39.5 -5.66699 54.5 -17s22.5 -27.666 22.5 -48.999z" />
    <glyph glyph-name="divide" unicode="&#xf7;" horiz-adv-x="600" 
d="M539 194h-478v90h478v-90zM233 42c0 18.667 6.5 34.5 19.5 47.5s28.833 19.5 47.5 19.5s34.5 -6.5 47.5 -19.5s19.5 -28.833 19.5 -47.5s-6.5 -34.5 -19.5 -47.5s-28.833 -19.5 -47.5 -19.5s-34.5 6.5 -47.5 19.5s-19.5 28.833 -19.5 47.5zM233 436
c0 18.667 6.5 34.5 19.5 47.5s28.833 19.5 47.5 19.5s34.5 -6.5 47.5 -19.5s19.5 -28.833 19.5 -47.5s-6.5 -34.5 -19.5 -47.5s-28.833 -19.5 -47.5 -19.5s-34.5 6.5 -47.5 19.5s-19.5 28.833 -19.5 47.5z" />
    <glyph glyph-name="oslash" unicode="&#xf8;" horiz-adv-x="590" 
d="M190 115l163 298.001c-18 10 -37.333 15 -58 15c-39.333 0 -71.333 -16.333 -96 -49s-37 -79.334 -37 -140.001c0 -50.667 9.33301 -92 28 -124zM402 361.001l-160 -298.002c15.333 -8.66699 33 -13 53 -13c39.333 0 71.333 16.333 96 49s37 79.334 37 140.001
c0 48.667 -8.66699 89.334 -26 122.001zM209 2.99902l-35.998 -65.998c-8.66699 -16.667 -23.334 -25 -44.001 -25c-10 0 -17.5 2.33301 -22.5 7s-7.5 10 -7.5 16c0 7.33301 1.33301 14 4 20l41 75c-36.667 21.333 -65.834 50.166 -87.501 86.499
s-32.5 77.166 -32.5 122.499c0 72.667 26.167 132.334 78.5 179.001s116.5 70 192.5 70c32.667 0 63 -4.66699 91 -14l32 59c5.33301 11.333 11 19.333 17 24s14.667 7 26 7c21.333 0 32 -9 32 -27c0 -6 -1.66699 -11.667 -5 -17l-40 -74c36.667 -21.333 65.5 -50 86.5 -86
s31.5 -76.333 31.5 -121c0 -72.667 -26.167 -132.334 -78.5 -179.001s-116.5 -70 -192.5 -70c-32 0 -60.667 4.33301 -86 13z" />
    <glyph glyph-name="ugrave" unicode="&#xf9;" horiz-adv-x="570" 
d="M528 0l-75.998 0.000976562c-23.333 0 -38.333 4.16699 -45 12.5s-11.667 25.166 -15 50.499c-46.667 -48.667 -102 -73 -166 -73c-55.333 0 -96.5 15.333 -123.5 46s-40.5 70.334 -40.5 119.001v205c0 16 -2.33301 28.167 -7 36.5s-10 13.333 -16 15
s-11.333 4.5 -16 8.5s-7 10 -7 18c0 13.333 18.5 25 55.5 35s63.5 15 79.5 15c13.333 0 23.5 -5.16699 30.5 -15.5s10.5 -29.833 10.5 -58.5v-237c0 -44 5.83301 -73.833 17.5 -89.5s32.5 -23.5 62.5 -23.5c29.333 0 55.333 8.66699 78 26s34 39.333 34 66v204
c0 16 -2.33301 28.167 -7 36.5s-10 13.333 -16 15s-11.333 4.5 -16 8.5s-7 10 -7 18c0 13.333 18.5 25 55.5 35s63.5 15 79.5 15c13.333 0 23.5 -5.16699 30.5 -15.5s10.5 -29.833 10.5 -58.5v-317c0 -12.667 2.66699 -22.834 8 -30.501s11.166 -12.667 17.499 -15
s12.166 -5.5 17.499 -9.5s8 -9 8 -15c0 -18 -12.333 -27 -37 -27zM254.002 554.001l-119.998 95l-8 5.5c-3.33301 2.33301 -5.83301 4.33301 -7.5 6s-3.83398 3.66699 -6.50098 6s-4.66699 4.66602 -6 6.99902s-2.5 5 -3.5 8s-1.5 6.16699 -1.5 9.5c0 18 9.66699 27 29 27
h56c13.333 0 23.666 -2.66699 30.999 -8s16 -16.666 26 -33.999l52 -91c10 -16 15 -27 15 -33c0 -12 -6.33301 -18 -19 -18c-6 0 -18.333 6.66699 -37 20z" />
    <glyph glyph-name="uacute" unicode="&#xfa;" horiz-adv-x="570" 
d="M528 0l-75.998 0.000976562c-23.333 0 -38.333 4.16699 -45 12.5s-11.667 25.166 -15 50.499c-46.667 -48.667 -102 -73 -166 -73c-55.333 0 -96.5 15.333 -123.5 46s-40.5 70.334 -40.5 119.001v205c0 16 -2.33301 28.167 -7 36.5s-10 13.333 -16 15
s-11.333 4.5 -16 8.5s-7 10 -7 18c0 13.333 18.5 25 55.5 35s63.5 15 79.5 15c13.333 0 23.5 -5.16699 30.5 -15.5s10.5 -29.833 10.5 -58.5v-237c0 -44 5.83301 -73.833 17.5 -89.5s32.5 -23.5 62.5 -23.5c29.333 0 55.333 8.66699 78 26s34 39.333 34 66v204
c0 16 -2.33301 28.167 -7 36.5s-10 13.333 -16 15s-11.333 4.5 -16 8.5s-7 10 -7 18c0 13.333 18.5 25 55.5 35s63.5 15 79.5 15c13.333 0 23.5 -5.16699 30.5 -15.5s10.5 -29.833 10.5 -58.5v-317c0 -12.667 2.66699 -22.834 8 -30.501s11.166 -12.667 17.499 -15
s12.166 -5.5 17.499 -9.5s8 -9 8 -15c0 -18 -12.333 -27 -37 -27zM367.002 649.001l-120 -95c-18.667 -13.333 -31 -20 -37 -20c-12.667 0 -19 6 -19 18c0 6 5 17 15 33l52 91c10 17.333 18.667 28.666 26 33.999s17.666 8 30.999 8h56c19.333 0 29 -9 29 -27
c0 -4 -0.5 -7.66699 -1.5 -11s-3 -6.5 -6 -9.5s-5.5 -5.33301 -7.5 -7s-5.16699 -4.16699 -9.5 -7.5s-7.16602 -5.66602 -8.49902 -6.99902z" />
    <glyph glyph-name="ucircumflex" unicode="&#xfb;" horiz-adv-x="570" 
d="M528 0l-75.998 0.000976562c-23.333 0 -38.333 4.16699 -45 12.5s-11.667 25.166 -15 50.499c-46.667 -48.667 -102 -73 -166 -73c-55.333 0 -96.5 15.333 -123.5 46s-40.5 70.334 -40.5 119.001v205c0 16 -2.33301 28.167 -7 36.5s-10 13.333 -16 15
s-11.333 4.5 -16 8.5s-7 10 -7 18c0 13.333 18.5 25 55.5 35s63.5 15 79.5 15c13.333 0 23.5 -5.16699 30.5 -15.5s10.5 -29.833 10.5 -58.5v-237c0 -44 5.83301 -73.833 17.5 -89.5s32.5 -23.5 62.5 -23.5c29.333 0 55.333 8.66699 78 26s34 39.333 34 66v204
c0 16 -2.33301 28.167 -7 36.5s-10 13.333 -16 15s-11.333 4.5 -16 8.5s-7 10 -7 18c0 13.333 18.5 25 55.5 35s63.5 15 79.5 15c13.333 0 23.5 -5.16699 30.5 -15.5s10.5 -29.833 10.5 -58.5v-317c0 -12.667 2.66699 -22.834 8 -30.501s11.166 -12.667 17.499 -15
s12.166 -5.5 17.499 -9.5s8 -9 8 -15c0 -18 -12.333 -27 -37 -27zM255.002 624.001l-119.001 -74.998c-20 -10 -32 -15 -36 -15s-8 2 -12 6s-6 7.66699 -6 11c0 7.33301 7 18.666 21 33.999l94 97c24.667 26.667 43.667 40 57 40c4 0 8.16699 -0.833008 12.5 -2.5
s8.83301 -4.33398 13.5 -8.00098s8.33398 -6.66699 11.001 -9l12 -11c5.33301 -5 8.33301 -7.83301 9 -8.5l94 -96c14.667 -16 22 -28 22 -36c0 -3.33301 -2 -7 -6 -11s-8 -6 -12 -6c-6 0 -18 5 -36 15z" />
    <glyph glyph-name="udieresis" unicode="&#xfc;" horiz-adv-x="570" 
d="M528 0l-75.998 0.000976562c-23.333 0 -38.333 4.16699 -45 12.5s-11.667 25.166 -15 50.499c-46.667 -48.667 -102 -73 -166 -73c-55.333 0 -96.5 15.333 -123.5 46s-40.5 70.334 -40.5 119.001v205c0 16 -2.33301 28.167 -7 36.5s-10 13.333 -16 15
s-11.333 4.5 -16 8.5s-7 10 -7 18c0 13.333 18.5 25 55.5 35s63.5 15 79.5 15c13.333 0 23.5 -5.16699 30.5 -15.5s10.5 -29.833 10.5 -58.5v-237c0 -44 5.83301 -73.833 17.5 -89.5s32.5 -23.5 62.5 -23.5c29.333 0 55.333 8.66699 78 26s34 39.333 34 66v204
c0 16 -2.33301 28.167 -7 36.5s-10 13.333 -16 15s-11.333 4.5 -16 8.5s-7 10 -7 18c0 13.333 18.5 25 55.5 35s63.5 15 79.5 15c13.333 0 23.5 -5.16699 30.5 -15.5s10.5 -29.833 10.5 -58.5v-317c0 -12.667 2.66699 -22.834 8 -30.501s11.166 -12.667 17.499 -15
s12.166 -5.5 17.499 -9.5s8 -9 8 -15c0 -18 -12.333 -27 -37 -27zM223.002 613.001c0 -21.333 -7.5 -37.666 -22.5 -48.999s-33.167 -17 -54.5 -17s-39.5 5.66699 -54.5 17s-22.5 27.666 -22.5 48.999s7.5 37.666 22.5 48.999s33.167 17 54.5 17s39.5 -5.66699 54.5 -17
s22.5 -27.666 22.5 -48.999zM432.002 613.001c0 -21.333 -7.5 -37.666 -22.5 -48.999s-33.167 -17 -54.5 -17s-39.5 5.66699 -54.5 17s-22.5 27.666 -22.5 48.999s7.5 37.666 22.5 48.999s33.167 17 54.5 17s39.5 -5.66699 54.5 -17s22.5 -27.666 22.5 -48.999z" />
    <glyph glyph-name="yacute" unicode="&#xfd;" horiz-adv-x="510" 
d="M29 478l147.001 -0.00292969c20.667 0 31 -8.66699 31 -26c0 -6.66699 -2.83301 -12.167 -8.5 -16.5s-11.5 -10.666 -17.5 -18.999s-9 -21.166 -9 -38.499c0 -32 4.5 -70.333 13.5 -115s23.167 -86.334 42.5 -125.001s40.666 -58 63.999 -58c19.333 0 37 21.5 53 64.5
s27.5 86.833 34.5 131.5s10.5 79.334 10.5 104.001c0 13.333 -4.66699 24.333 -14 33s-18.666 16.167 -27.999 22.5s-14 13.833 -14 22.5c0 13.333 7.33301 20 22 20h130c18.667 0 28 -7 28 -21c0 -8 -3.5 -14.667 -10.5 -20s-14.667 -13.666 -23 -24.999
s-13.833 -27.333 -16.5 -48c-8.66699 -68.667 -22.834 -135.667 -42.501 -201s-44 -125 -73 -179s-63.667 -97.5 -104 -130.5s-82.833 -49.5 -127.5 -49.5c-20.667 0 -40.667 4.5 -60 13.5s-29 21.833 -29 38.5c0 32 20 48 60 48c10 0 23.167 -2.66699 39.5 -8
s27.5 -8 33.5 -8c18.667 0 42.167 14 70.5 42s49.166 58.333 62.499 91c-18 -6 -30.667 -9 -38 -9c-22 0 -42.667 4.5 -62 13.5s-35.666 19.833 -48.999 32.5s-25.666 29.667 -36.999 51s-20.5 40.833 -27.5 58.5s-13.667 40 -20 67s-10.833 48 -13.5 63
s-5.83398 34.833 -9.50098 59.5s-6.16699 40 -7.5 46c-2 11.333 -7.83301 20.5 -17.5 27.5s-14.5 14.5 -14.5 22.5c0 16.667 10.333 25 31 25zM372.001 648.997l-120 -95c-18.667 -13.333 -31 -20 -37 -20c-12.667 0 -19 6 -19 18c0 6 5 17 15 33l52 91
c10 17.333 18.667 28.666 26 33.999s17.666 8 30.999 8h56c19.333 0 29 -9 29 -27c0 -4 -0.5 -7.66699 -1.5 -11s-3 -6.5 -6 -9.5s-5.5 -5.33301 -7.5 -7s-5.16699 -4.16699 -9.5 -7.5s-7.16602 -5.66602 -8.49902 -6.99902z" />
    <glyph glyph-name="thorn" unicode="&#xfe;" horiz-adv-x="610" 
d="M211 277v-364.999c0 -14.667 3 -25.834 9 -33.501s12.5 -12 19.5 -13s13.5 -3.66699 19.5 -8s9 -10.833 9 -19.5c0 -17.333 -15.667 -26 -47 -26h-150c-24.667 0 -37 9 -37 27c0 8 2.5 14 7.5 18s10.333 6.66699 16 8s11 5.83301 16 13.5s7.5 18.834 7.5 33.501v706
c0 17.333 -3 30.5 -9 39.5s-12.833 14.167 -20.5 15.5s-14.5 4.33301 -20.5 9s-9 12 -9 22c0 11.333 20.5 23.833 61.5 37.5s69.833 20.5 86.5 20.5c14.667 0 25.167 -4.33301 31.5 -13s9.5 -23.334 9.5 -44.001v-281c46 42.667 97 64 153 64
c66.667 0 120.334 -24 161.001 -72s61 -106 61 -174c0 -71.333 -22.333 -131.166 -67 -179.499s-102.334 -72.5 -173.001 -72.5c-27.333 0 -52.333 3.5 -75 10.5s-34 18.833 -34 35.5c0 17.333 8.33301 26 25 26c1.33301 0 9.5 -0.666992 24.5 -2s27.5 -2 37.5 -2
c42 0 73.167 18.667 93.5 56s30.5 79 30.5 125c0 46.667 -10 89.167 -30 127.5s-51.333 57.5 -94 57.5c-36.667 0 -64.667 -14.333 -84 -43s-29 -63.334 -29 -104.001z" />
    <glyph glyph-name="ydieresis" unicode="&#xff;" horiz-adv-x="510" 
d="M29 478l147.001 -0.00292969c20.667 0 31 -8.66699 31 -26c0 -6.66699 -2.83301 -12.167 -8.5 -16.5s-11.5 -10.666 -17.5 -18.999s-9 -21.166 -9 -38.499c0 -32 4.5 -70.333 13.5 -115s23.167 -86.334 42.5 -125.001s40.666 -58 63.999 -58c19.333 0 37 21.5 53 64.5
s27.5 86.833 34.5 131.5s10.5 79.334 10.5 104.001c0 13.333 -4.66699 24.333 -14 33s-18.666 16.167 -27.999 22.5s-14 13.833 -14 22.5c0 13.333 7.33301 20 22 20h130c18.667 0 28 -7 28 -21c0 -8 -3.5 -14.667 -10.5 -20s-14.667 -13.666 -23 -24.999
s-13.833 -27.333 -16.5 -48c-8.66699 -68.667 -22.834 -135.667 -42.501 -201s-44 -125 -73 -179s-63.667 -97.5 -104 -130.5s-82.833 -49.5 -127.5 -49.5c-20.667 0 -40.667 4.5 -60 13.5s-29 21.833 -29 38.5c0 32 20 48 60 48c10 0 23.167 -2.66699 39.5 -8
s27.5 -8 33.5 -8c18.667 0 42.167 14 70.5 42s49.166 58.333 62.499 91c-18 -6 -30.667 -9 -38 -9c-22 0 -42.667 4.5 -62 13.5s-35.666 19.833 -48.999 32.5s-25.666 29.667 -36.999 51s-20.5 40.833 -27.5 58.5s-13.667 40 -20 67s-10.833 48 -13.5 63
s-5.83398 34.833 -9.50098 59.5s-6.16699 40 -7.5 46c-2 11.333 -7.83301 20.5 -17.5 27.5s-14.5 14.5 -14.5 22.5c0 16.667 10.333 25 31 25zM228.001 612.997c0 -21.333 -7.5 -37.666 -22.5 -48.999s-33.167 -17 -54.5 -17s-39.5 5.66699 -54.5 17
s-22.5 27.666 -22.5 48.999s7.5 37.666 22.5 48.999s33.167 17 54.5 17s39.5 -5.66699 54.5 -17s22.5 -27.666 22.5 -48.999zM437.001 612.997c0 -21.333 -7.5 -37.666 -22.5 -48.999s-33.167 -17 -54.5 -17s-39.5 5.66699 -54.5 17s-22.5 27.666 -22.5 48.999
s7.5 37.666 22.5 48.999s33.167 17 54.5 17s39.5 -5.66699 54.5 -17s22.5 -27.666 22.5 -48.999z" />
    <glyph glyph-name="dotlessi" unicode="&#x131;" horiz-adv-x="270" 
d="M217 0l-150.001 -0.00292969c-24.667 0 -37 8.66699 -37 26c0 8 2.5 14 7.5 18s10.333 6.66699 16 8s11 5.83301 16 13.5s7.5 18.834 7.5 33.501v259c0 11.333 -2.83301 20.333 -8.5 27s-11.834 11.334 -18.501 14.001s-12.834 6.16699 -18.501 10.5
s-8.5 9.83301 -8.5 16.5c0 12 8.66699 20 26 24c2.66699 0.666992 12.834 4.33398 30.501 11.001s35.334 12.834 53.001 18.501s30.5 8.5 38.5 8.5c14.667 0 24.334 -5.33301 29.001 -16s7 -30.667 7 -60v-313c0 -14.667 2.5 -25.834 7.5 -33.501s10.333 -12.167 16 -13.5
s11 -4 16 -8s7.5 -10 7.5 -18c0 -17.333 -12.333 -26 -37 -26z" />
    <glyph glyph-name="Lslash" unicode="&#x141;" horiz-adv-x="600" 
d="M228 457l97.9971 71.0049c12.667 10 24.667 15 36 15c8.66699 0 16.334 -4 23.001 -12s10 -16.333 10 -25c0 -14 -5.66699 -25.333 -17 -34l-150 -108v-248c0 -14 2.16699 -24 6.5 -30s14.833 -10.5 31.5 -13.5s43.334 -4.5 80.001 -4.5
c39.333 0 72.833 3.16699 100.5 9.5s47.834 14.166 60.501 23.499s23 18.666 31 27.999s15.5 17.166 22.5 23.499s14.833 9.5 23.5 9.5c14.667 0 22 -13 22 -39c0 -28 -7 -55.5 -21 -82.5s-33.667 -40.5 -59 -40.5h-456c-30.667 0 -46 10 -46 30c0 9.33301 3 16.5 9 21.5
s12.333 8.16699 19 9.5s13 5.16602 19 11.499s9 15.5 9 27.5v156l-24 -17c-8 -6 -17 -9 -27 -9c-9.33301 0 -17.5 3.66699 -24.5 11s-10.5 16.666 -10.5 27.999c0 10.667 5 20 15 28l71 52v283c0 12 -3 21.167 -9 27.5s-12.333 10.166 -19 11.499s-13 4.5 -19 9.5
s-9 12.167 -9 21.5c0 20 15.333 30 46 30h168c30.667 0 46 -10 46 -30c0 -9.33301 -3 -16.5 -9 -21.5s-12.333 -8.16699 -19 -9.5s-13 -5.16602 -19 -11.499s-9 -15.5 -9 -27.5v-175z" />
    <glyph glyph-name="lslash" unicode="&#x142;" horiz-adv-x="270" 
d="M205 400v-300.001c0 -14.667 2.5 -25.834 7.5 -33.501s10.333 -12.167 16 -13.5s11 -4 16 -8s7.5 -10 7.5 -18c0 -18 -12.333 -27 -37 -27h-150c-24.667 0 -37 9 -37 27c0 8 2.5 14 7.5 18s10.333 6.66699 16 8s11 5.83301 16 13.5s7.5 18.834 7.5 33.501v216l-53 -34
c-4 -2 -8.33301 -3 -13 -3c-6 0 -11.333 3.66699 -16 11s-7 13 -7 17c0 9.33301 3 15.666 9 18.999l80 51v255c0 12 -2.83301 21.333 -8.5 28s-11.834 10.834 -18.501 12.501s-12.834 5.16699 -18.501 10.5s-8.5 13 -8.5 23c0 9.33301 19.167 21 57.5 35s68.5 21 90.5 21
c12.667 0 21.834 -4.66699 27.501 -14s8.5 -26.666 8.5 -51.999v-235l49 31c4 2.66699 8.66699 4 14 4c6.66699 0 12.334 -3.16699 17.001 -9.5s7 -13.166 7 -20.499c0 -6.66699 -2.33301 -11.334 -7 -14.001z" />
    <glyph glyph-name="OE" unicode="&#x152;" horiz-adv-x="1000" 
d="M555 732h343.996c24 0 39.833 -6.33301 47.5 -19s11.5 -41.334 11.5 -86.001c0 -19.333 -5.66699 -29 -17 -29c-6.66699 0 -12.334 1.83301 -17.001 5.5s-11.667 9.5 -21 17.5s-19.666 15.333 -30.999 22c-15.333 9.33301 -34.166 15.166 -56.499 17.499
s-55.833 3.5 -100.5 3.5c-24.667 0 -40.334 -3.83301 -47.001 -11.5s-10 -27.167 -10 -58.5v-164h126c22 0 40.333 5.66699 55 17s25.334 17 32.001 17c10.667 0 17.834 -5 21.501 -15s5.5 -26.333 5.5 -49c0 -30.667 -1.33301 -50.667 -4 -60s-10 -14 -22 -14
c-6.66699 0 -12.5 1.83301 -17.5 5.5s-9.33301 7.83398 -13 12.501s-10.5 8.83398 -20.5 12.501s-22.667 5.5 -38 5.5h-125v-179c0 -52.667 3.5 -85 10.5 -97s24.833 -18 53.5 -18c108.667 0 173.334 15.333 194.001 46c16.667 24.667 32.334 37 47.001 37
c19.333 0 29 -10.667 29 -32c0 -44.667 -5.5 -75.667 -16.5 -93s-29.833 -26 -56.5 -26h-367c-24.667 0 -37 13.667 -37 41v32h-2c-16 -28.667 -39.833 -50.667 -71.5 -66s-65.5 -23 -101.5 -23c-41.333 0 -81.166 8 -119.499 24s-73.166 39.167 -104.499 69.5
s-56.333 70.166 -75 119.499s-28 104.333 -28 165s9.33301 116 28 166s43.667 90.667 75 122s66.166 55.5 104.499 72.5s78.166 25.5 119.499 25.5c74 0 132.333 -29.333 175 -88h2v36c0 14.667 2.5 24.334 7.5 29.001s15.167 7 30.5 7zM154.996 338
c0 -90 16.333 -160.168 49 -210.501s78 -75.5 136 -75.5c118.667 0 178 107 178 321c0 204.667 -58.667 307 -176 307c-62.667 0 -109.5 -27.167 -140.5 -81.5s-46.5 -141.166 -46.5 -260.499z" />
    <glyph glyph-name="oe" unicode="&#x153;" horiz-adv-x="890" 
d="M162 239c0 -60.667 11.167 -107.334 33.5 -140.001s51.166 -49 86.499 -49s64.166 16.333 86.499 49s33.5 79.334 33.5 140.001s-11.167 107.334 -33.5 140.001s-51.166 49 -86.499 49s-64.166 -16.333 -86.499 -49s-33.5 -79.334 -33.5 -140.001zM287 488
c83.333 0 145.002 -28.0029 185.002 -84.0029c40 56 105.333 84 196 84c30 0 59 -4.33301 87 -13s52.5 -24 73.5 -46s31.5 -48.667 31.5 -80c-0.666992 -97.333 -107.334 -152.333 -320.001 -165c1.33301 -36.667 14.333 -66.167 39 -88.5s54.667 -33.5 90 -33.5
c52 2.66699 98.667 22.667 140 60l6 6c3.33301 3.33301 5.66602 5.5 6.99902 6.5s3.5 2.33301 6.5 4s5.83301 2.83398 8.5 3.50098s5.66699 1 9 1c16 0 24 -7.66699 24 -23c0 -27.333 -24.167 -55.833 -72.5 -85.5s-101.5 -44.5 -159.5 -44.5c-76 0 -132 23 -168 69
c-38.667 -46 -99.667 -69 -183 -69c-72.667 0 -134.667 23.333 -186 70s-77 106.334 -77 179.001s25.667 132.334 77 179.001s113.333 70 186 70zM659.002 433.997c-37.333 0 -66.5 -19.334 -87.5 -58.001s-31.5 -84.667 -31.5 -138c126.667 18.667 190 60.334 190 125.001
c0 22 -6.33301 39.333 -19 52s-30 19 -52 19z" />
    <glyph glyph-name="Scaron" unicode="&#x160;" 
d="M50 520c0 69.333 26.4971 124.665 79.4971 165.998s115.833 62 188.5 62c45.333 0 87.5 -5 126.5 -15s67.667 -20.5 86 -31.5s28.833 -20.167 31.5 -27.5c4 -13.333 6 -42.666 6 -87.999c0 -22.667 -9.33301 -34 -28 -34c-11.333 0 -20.333 4.33301 -27 13
s-13 19.334 -19 32.001s-14.167 25.334 -24.5 38.001s-28.166 23.334 -53.499 32.001s-57.333 13 -96 13s-69.334 -11 -92.001 -33s-34 -48.333 -34 -79c0 -26 7.83301 -47.167 23.5 -63.5s36.167 -28.5 61.5 -36.5s53.333 -14.833 84 -20.5s61.334 -12.667 92.001 -21
s58.667 -19.166 84 -32.499s45.833 -33.333 61.5 -60s23.5 -59.667 23.5 -99c0 -72 -28.5 -131.833 -85.5 -179.5s-130.833 -71.5 -221.5 -71.5c-80 0 -149.167 18.5 -207.5 55.5s-87.5 78.167 -87.5 123.5c0 12 3.83301 22.667 11.5 32s17.5 14 29.5 14
c12.667 0 23.667 -3.83301 33 -11.5s16.833 -17.334 22.5 -29.001s13.334 -24.334 23.001 -38.001s20.667 -26.334 33 -38.001s30.333 -21.334 54 -29.001s51.5 -11.5 83.5 -11.5c52.667 0 94.834 12.5 126.501 37.5s47.5 57.167 47.5 96.5c0 24.667 -8 45.334 -24 62.001
s-36.833 29.167 -62.5 37.5s-54 16 -85 23s-62 15 -93 24s-59.333 20.167 -85 33.5s-46.5 33 -62.5 59s-24 57.667 -24 95zM320.997 868.999l119.001 74.998c20 10 32 15 36 15s8 -1.83301 12 -5.5s6 -7.5 6 -11.5c0 -7.33301 -7 -18.666 -21 -33.999l-94 -97
c-24.667 -26.667 -43.667 -40 -57 -40c-4 0 -8.16699 0.833008 -12.5 2.5s-8.83301 4.33398 -13.5 8.00098s-8.33398 6.66699 -11.001 9l-12 11c-5.33301 5 -8.33301 7.83301 -9 8.5l-94 96c-14.667 16 -22 28 -22 36c0 4 2 7.83301 6 11.5s8 5.5 12 5.5c6 0 18 -5 36 -15z
" />
    <glyph glyph-name="scaron" unicode="&#x161;" horiz-adv-x="450" 
d="M41 328c0 52 20.668 91.6689 62.001 119.002s89.333 41 144 41c49.333 0 89.333 -7.83301 120 -23.5s46 -32.167 46 -49.5c0 -30 -1.33301 -48.833 -4 -56.5s-8.66699 -11.5 -18 -11.5s-18.333 4.16699 -27 12.5s-16.5 17.666 -23.5 27.999s-18.667 19.666 -35 27.999
s-35.833 12.5 -58.5 12.5c-29.333 0 -50 -6.83301 -62 -20.5s-18 -28.834 -18 -45.501s9.16699 -30 27.5 -40s40.833 -17.833 67.5 -23.5s53.167 -12.334 79.5 -20.001s48.666 -21.167 66.999 -40.5s27.5 -44.666 27.5 -75.999c0 -52.667 -20 -94.5 -60 -125.5
s-93 -46.5 -159 -46.5c-51.333 0 -96.333 12.833 -135 38.5s-58 48.5 -58 68.5c0 12.667 3.66699 24.334 11 35.001s17 16 29 16c10.667 0 20.834 -5.16699 30.501 -15.5s18.167 -21.5 25.5 -33.5s19.166 -23.167 35.499 -33.5s35.833 -15.5 58.5 -15.5
c26 0 47.833 6.66699 65.5 20s26.5 30.333 26.5 51c0 19.333 -9.16699 34.333 -27.5 45s-40.333 18.667 -66 24s-51.5 11.666 -77.5 18.999s-48.167 20.833 -66.5 40.5s-27.5 45.834 -27.5 78.501zM226.001 632.002l118.999 74.998c20 10 32 15 36 15
c4.66699 0 8.83398 -2 12.501 -6s5.5 -7.66699 5.5 -11c0 -7.33301 -7 -18.666 -21 -33.999l-94 -97c-24.667 -26.667 -43.667 -40 -57 -40c-4 0 -8.16699 0.833008 -12.5 2.5s-8.83301 4.33398 -13.5 8.00098s-8.33398 6.66699 -11.001 9l-12 11
c-5.33301 5 -8.33301 7.83301 -9 8.5l-94 96c-14.667 16 -22 28 -22 36c0 3.33301 1.83301 7 5.5 11s7.83398 6 12.501 6c6 0 18 -5 36 -15z" />
    <glyph glyph-name="Ydieresis" unicode="&#x178;" horiz-adv-x="720" 
d="M459 0l-167.999 0.000976562c-30.667 0 -46 10 -46 30c0 9.33301 2.83301 16.5 8.5 21.5s12.167 8.16699 19.5 9.5s13.833 5.16602 19.5 11.499s8.5 15.5 8.5 27.5v188c-32 33.333 -64 72.5 -96 117.5s-57.833 83.667 -77.5 116l-74.5 126.5
c-2.66699 5.33301 -13.334 12.666 -32.001 21.999s-28 21 -28 35c0 18 8.66699 27 26 27h222c21.333 0 32 -10 32 -30c0 -13.333 -7.66699 -23.333 -23 -30s-23 -12 -23 -16c0 -14 17.667 -49.833 53 -107.5s77 -118.5 125 -182.5c111.333 154.667 167 246.667 167 276
c0 8 -3 14.667 -9 20s-12.5 9 -19.5 11s-13.5 5.5 -19.5 10.5s-9 11.833 -9 20.5c0 18.667 12 28 36 28h150c16.667 0 25 -9 25 -27c0 -8.66699 -2.83301 -15.167 -8.5 -19.5l-24 -18.5c-10.333 -8 -19.5 -19.333 -27.5 -34c-14.667 -27.333 -32.5 -57.333 -53.5 -90
l-52 -79l-61 -86.5c-27 -37.667 -43.833 -61.5 -50.5 -71.5v-206c0 -12 2.83301 -21.167 8.5 -27.5s12.167 -10.166 19.5 -11.499s13.833 -4.5 19.5 -9.5s8.5 -12.167 8.5 -21.5c0 -20 -15.333 -30 -46 -30zM333.001 850.001c0 -21.333 -7.5 -37.666 -22.5 -48.999
s-33.167 -17 -54.5 -17s-39.5 5.66699 -54.5 17s-22.5 27.666 -22.5 48.999s7.5 37.666 22.5 48.999s33.167 17 54.5 17s39.5 -5.66699 54.5 -17s22.5 -27.666 22.5 -48.999zM542.001 850.001c0 -21.333 -7.5 -37.666 -22.5 -48.999s-33.167 -17 -54.5 -17
s-39.5 5.66699 -54.5 17s-22.5 27.666 -22.5 48.999s7.5 37.666 22.5 48.999s33.167 17 54.5 17s39.5 -5.66699 54.5 -17s22.5 -27.666 22.5 -48.999z" />
    <glyph glyph-name="Zcaron" unicode="&#x17d;" horiz-adv-x="600" 
d="M212 68l129.002 -0.000976562c34.667 0 64.334 3 89.001 9s43.167 13.333 55.5 22s22.666 17.5 30.999 26.5s16.166 16.5 23.499 22.5s15.666 9 24.999 9c16.667 0 25 -9 25 -27c0 -26.667 -3.66699 -55 -11 -85s-18.333 -45 -33 -45h-466
c-21.333 0 -37 4.16699 -47 12.5s-14.333 20.833 -13 37.5c-0.666992 26 31.166 85.5 95.499 178.5l193 271.5c64.333 88 96.5 138.667 96.5 152c0 8 -7.33301 12 -22 12c-89.333 1.33301 -150.666 -1.16699 -183.999 -7.5s-59.666 -21.166 -78.999 -44.499
c-15.333 -19.333 -29 -29 -41 -29c-8.66699 0 -15.667 2.66699 -21 8s-8 12.333 -8 21c0 31.333 4.66699 59.166 14 83.499s22.666 36.5 39.999 36.5h427c12 0 23 -3.33301 33 -10s15 -14.667 15 -24c0 -26.667 -20.167 -73.167 -60.5 -139.5
s-84.5 -131.666 -132.5 -195.999l-132.5 -182c-40.333 -57 -60.5 -90.833 -60.5 -101.5c0 -7.33301 6.33301 -11 19 -11zM301.002 868.999l119.001 74.998c20 10 32 15 36 15s8 -1.83301 12 -5.5s6 -7.5 6 -11.5c0 -7.33301 -7 -18.666 -21 -33.999l-94 -97
c-24.667 -26.667 -43.667 -40 -57 -40c-4 0 -8.16699 0.833008 -12.5 2.5s-8.83301 4.33398 -13.5 8.00098s-8.33398 6.66699 -11.001 9l-12 11c-5.33301 5 -8.33301 7.83301 -9 8.5l-94 96c-14.667 16 -22 28 -22 36c0 4 2 7.83301 6 11.5s8 5.5 12 5.5c6 0 18 -5 36 -15z
" />
    <glyph glyph-name="zcaron" unicode="&#x17e;" horiz-adv-x="460" 
d="M177 60l113 0.00195312c18.667 0 35 2.83301 49 8.5s24.5 12.667 31.5 21s13.333 16.666 19 24.999s11.167 15.333 16.5 21s11.333 8.5 18 8.5c13.333 0 20 -8.66699 20 -26c0 -32.667 -6.16699 -60.5 -18.5 -83.5s-29.5 -34.5 -51.5 -34.5h-289c-24 0 -41 3 -51 9
s-15 16 -15 30c0 17.333 15.667 45 47 83l240 296h-110c-25.333 0 -46.5 -3.5 -63.5 -10.5s-28.5 -14.667 -34.5 -23s-12.333 -16 -19 -23s-13.667 -10.5 -21 -10.5c-12 0 -18 13 -18 39c0 22.667 5 43 15 61s23.667 27 41 27h287c40.667 0 61 -15.333 61 -46
c0 -4 -0.666992 -8.5 -2 -13.5s-3 -9.33301 -5 -13s-4.83301 -8.33398 -8.5 -14.001l-8.5 -13c-2 -3 -5.33301 -7.5 -10 -13.5s-7.66699 -10 -9 -12zM231 632.002l119.001 74.998c20 10 32 15 36 15s8 -2 12 -6s6 -7.66699 6 -11c0 -7.33301 -7 -18.666 -21 -33.999l-94 -97
c-24.667 -26.667 -43.667 -40 -57 -40c-4 0 -8.16699 0.833008 -12.5 2.5s-8.83301 4.33398 -13.5 8.00098s-8.33398 6.66699 -11.001 9l-12 11c-5.33301 5 -8.33301 7.83301 -9 8.5l-94 96c-14.667 16 -22 28 -22 36c0 3.33301 2 7 6 11s8 6 12 6c6 0 18 -5 36 -15z" />
    <glyph glyph-name="florin" unicode="&#x192;" 
d="M469 407l-86.001 0.000976562l-38 -250c-17.333 -114 -50.5 -201.333 -99.5 -262s-112.5 -91 -190.5 -91c-41.333 0 -74.833 10.333 -100.5 31s-38.5 41 -38.5 61c0 30.667 13.333 46 40 46c10.667 0 20.667 -4.33301 30 -13s17 -18.334 23 -29.001
s14.833 -20.334 26.5 -29.001s25.167 -13 40.5 -13c40 0 70.333 20.333 91 61s39 116 55 226l38 262h-70c-30.667 0 -46 11.667 -46 35s15.333 35 46 35h82c10.667 90 38.334 164.333 83.001 223s103.667 88 177 88c30 0 53.5 -7.33301 70.5 -22s25.5 -31.667 25.5 -51
c0 -30.667 -12.667 -46 -38 -46c-16 0 -30 9.5 -42 28.5s-26 28.5 -42 28.5s-29.833 -5.66699 -41.5 -17s-24.167 -36.166 -37.5 -74.499s-25 -90.833 -35 -157.5h77c30.667 0 46 -11.667 46 -35s-15.333 -35 -46 -35z" />
    <glyph glyph-name="circumflex" unicode="&#x2c6;" horiz-adv-x="259" 
d="M129 624l-119.001 -74.998c-20 -10 -32 -15 -36 -15s-8 2 -12 6s-6 7.66699 -6 11c0 7.33301 7 18.666 21 33.999l94 97c24.667 26.667 43.667 40 57 40c4 0 8.16699 -0.833008 12.5 -2.5s8.83301 -4.33398 13.5 -8.00098s8.33398 -6.66699 11.001 -9l12 -11
c5.33301 -5 8.33301 -7.83301 9 -8.5l94 -96c14.667 -16 22 -28 22 -36c0 -3.33301 -2 -7 -6 -11s-8 -6 -12 -6c-6 0 -18 5 -36 15z" />
    <glyph glyph-name="caron" unicode="&#x2c7;" horiz-adv-x="259" 
d="M130 632l118.999 74.998c20 10 32 15 36 15c4.66699 0 8.83398 -2 12.501 -6s5.5 -7.66699 5.5 -11c0 -7.33301 -7 -18.666 -21 -33.999l-94 -97c-24.667 -26.667 -43.667 -40 -57 -40c-4 0 -8.16699 0.833008 -12.5 2.5s-8.83301 4.33398 -13.5 8.00098
s-8.33398 6.66699 -11.001 9l-12 11c-5.33301 5 -8.33301 7.83301 -9 8.5l-94 96c-14.667 16 -22 28 -22 36c0 3.33301 1.83301 7 5.5 11s7.83398 6 12.501 6c6 0 18 -5 36 -15z" />
    <glyph glyph-name="uni02C9" unicode="&#x2c9;" horiz-adv-x="259" 
d="M236 576h-213c-13.333 0 -23.166 2.66699 -29.499 8s-9.5 15 -9.5 29s3.16699 23.667 9.5 29s16.166 8 29.499 8h213c13.333 0 23.166 -2.66699 29.499 -8s9.5 -15 9.5 -29s-3.16699 -23.667 -9.5 -29s-16.166 -8 -29.499 -8z" />
    <glyph glyph-name="breve" unicode="&#x2d8;" horiz-adv-x="259" 
d="M-23 679c0 18 6 27 18 27c6 0 12.5 -5 19.5 -15s14 -21 21 -33s18.833 -23 35.5 -33s36 -15 58 -15s41.333 5 58 15s28.5 21 35.5 33s14 23 21 33s13.5 15 19.5 15c12 0 18 -9 18 -27c0 -38 -15.167 -71.667 -45.5 -101s-65.833 -44 -106.5 -44s-76.167 14.667 -106.5 44
s-45.5 63 -45.5 101z" />
    <glyph glyph-name="dotaccent" unicode="&#x2d9;" horiz-adv-x="259" 
d="M206 613c0 -21.333 -7.5 -37.666 -22.5 -48.999s-33.167 -17 -54.5 -17s-39.5 5.66699 -54.5 17s-22.5 27.666 -22.5 48.999s7.5 37.666 22.5 48.999s33.167 17 54.5 17s39.5 -5.66699 54.5 -17s22.5 -27.666 22.5 -48.999z" />
    <glyph glyph-name="ring" unicode="&#x2da;" horiz-adv-x="259" 
d="M130 521c-28.667 0 -53.167 10.167 -73.5 30.5s-30.5 44.833 -30.5 73.5s10.333 53.167 31 73.5s45 30.5 73 30.5s52.333 -10.167 73 -30.5s31 -44.833 31 -73.5s-10.167 -53.167 -30.5 -73.5s-44.833 -30.5 -73.5 -30.5zM130 565c16.667 0 30.834 5.83301 42.501 17.5
s17.5 25.834 17.5 42.501s-5.83301 30.834 -17.5 42.501s-25.834 17.5 -42.501 17.5s-30.834 -5.83301 -42.501 -17.5s-17.5 -25.834 -17.5 -42.501s5.83301 -30.834 17.5 -42.501s25.834 -17.5 42.501 -17.5z" />
    <glyph glyph-name="ogonek" unicode="&#x2db;" horiz-adv-x="259" 
d="M130 0l55 0.000976562c-52 -32 -78 -66.333 -78 -103c0 -17.333 5.33301 -31.5 16 -42.5s24.667 -16.5 42 -16.5c13.333 0 27.833 7.16699 43.5 21.5s25.5 21.5 29.5 21.5c6.66699 0 12.5 -2.33301 17.5 -7s7.5 -10 7.5 -16c0 -16.667 -12 -32.834 -36 -48.501
s-52.333 -23.5 -85 -23.5c-36 0 -64.167 9.16699 -84.5 27.5s-30.5 43.5 -30.5 75.5c0 52.667 34.333 89.667 103 111z" />
    <glyph glyph-name="tilde" unicode="&#x2dc;" horiz-adv-x="259" 
d="M33 603c-10.667 0 -19.8311 -4.5 -27.498 -13.5s-14.334 -17.833 -20.001 -26.5s-11.5 -13 -17.5 -13c-10.667 0 -16 6.66699 -16 20c0 27.333 13.333 52 40 74s54 33 82 33c22.667 0 49.667 -9 81 -27s53.666 -27 66.999 -27c14.667 0 28.667 7.33301 42 22s22 22 26 22
c11.333 0 17 -6.66699 17 -20c0 -22 -12.833 -43.833 -38.5 -65.5s-54.834 -32.5 -87.501 -32.5c-23.333 0 -50.666 9 -81.999 27s-53.333 27 -66 27z" />
    <glyph glyph-name="hungarumlaut" unicode="&#x2dd;" horiz-adv-x="259" 
d="M178 649l-116 -95c-18 -13.333 -30.333 -20 -37 -20c-12.667 0 -19 6 -19 18c0 6 5 17 15 33l48 91c10 17.333 18.667 28.666 26 33.999s17.666 8 30.999 8h56c19.333 0 29 -9 29 -27c0 -4 -0.5 -7.66699 -1.5 -11s-3 -6.5 -6 -9.5s-5.5 -5.33301 -7.5 -7
s-5.16699 -4.16699 -9.5 -7.5s-7.16602 -5.66602 -8.49902 -6.99902zM350 649l-120 -95c-18.667 -13.333 -31 -20 -37 -20c-12.667 0 -19 6 -19 18c0 6 5 17 15 33l52 91c10 17.333 18.667 28.666 26 33.999s17.666 8 30.999 8h56c19.333 0 29 -9 29 -27
c0 -4 -0.5 -7.66699 -1.5 -11s-3 -6.5 -6 -9.5s-5.5 -5.33301 -7.5 -7s-5.16699 -4.16699 -9.5 -7.5s-7.16602 -5.66602 -8.49902 -6.99902z" />
    <glyph glyph-name="uni03A9" unicode="&#x3a9;" horiz-adv-x="837" 
d="M799 178l-31.002 -178h-286l-10 25c0 0.666992 9.83301 19.834 29.5 57.501s32.5 63.667 38.5 78l29 71.5c13.333 33.333 22.5 64 27.5 92s7.5 56 7.5 84c-0.666992 103.333 -18.334 178.833 -53.001 226.5s-79.667 71.5 -135 71.5c-122 0 -183 -100.667 -183 -302
c0 -33.333 3.5 -66.666 10.5 -99.999s18.833 -69.5 35.5 -108.5s29.167 -66.833 37.5 -83.5l44.5 -87l-9 -25h-286l-28 178l35 1c12 -32.667 23.833 -53.834 35.5 -63.501s29.834 -14.5 54.501 -14.5h109c-20.667 14.667 -37.667 27.5 -51 38.5s-30 26.833 -50 47.5
s-36 41 -48 61s-22.5 44.5 -31.5 73.5s-13.5 59.167 -13.5 90.5c0 100.667 32.167 181.667 96.5 243s146.166 92 245.499 92c100.667 0 182 -29.5 244 -88.5s93 -138.5 93 -238.5c0 -34.667 -5.66699 -67.667 -17 -99s-28.166 -60.833 -50.499 -88.5
s-42.666 -50.5 -60.999 -68.5s-42.166 -39 -71.499 -63h120c24 0 41.167 4.66699 51.5 14s21.5 30.666 33.5 63.999z" />
    <glyph glyph-name="uni03BC" unicode="&#x3bc;" horiz-adv-x="570" 
d="M384 156l0.00195312 204.002c0 16 -2.33301 28.167 -7 36.5s-10 13.333 -16 15s-11.333 4.5 -16 8.5s-7 10 -7 18c0 13.333 18.5 25 55.5 35s63.5 15 79.5 15c13.333 0 23.5 -5.16699 30.5 -15.5s10.5 -29.833 10.5 -58.5v-317c0 -12.667 2.66699 -22.834 8 -30.501
s11.166 -12.667 17.499 -15s12.166 -5.5 17.499 -9.5s8 -9 8 -15c0 -18 -12.333 -27 -37 -27h-76c-23.333 0 -38.333 4.16699 -45 12.5s-11.667 25.166 -15 50.499c-46.667 -48.667 -102 -73 -166 -73c-12.667 0 -24 1 -34 3v-126c0 -24 -4.83301 -40.5 -14.5 -49.5
s-26.5 -13.5 -50.5 -13.5s-40.833 4.5 -50.5 13.5s-14.5 25.5 -14.5 49.5v493c0 16 -2.33301 28.167 -7 36.5s-10 13.333 -16 15s-11.333 4.5 -16 8.5s-7 10 -7 18c0 13.333 18.5 25 55.5 35s63.5 15 79.5 15c13.333 0 23.5 -5.16699 30.5 -15.5s10.5 -29.833 10.5 -58.5
v-237c0 -44 5.83301 -73.833 17.5 -89.5s32.5 -23.5 62.5 -23.5c29.333 0 55.333 8.66699 78 26s34 39.333 34 66z" />
    <glyph glyph-name="pi" unicode="&#x3c0;" horiz-adv-x="658" 
d="M598 518l30.998 -8.99805c-2.66699 -22 -8.5 -45.667 -17.5 -71s-17.5 -42.666 -25.5 -51.999c-14 -4.66699 -38.333 -7 -73 -7c-3.33301 -38 -5 -110.667 -5 -218c0.666992 -62.667 16 -94 46 -94c14 0 31 8.33301 51 25l14 -29
c-14 -22.667 -33.167 -41.167 -57.5 -55.5s-48.833 -21.5 -73.5 -21.5c-75.333 0 -113 48.333 -113 145c0 52.667 3.66699 136.334 11 251.001c-22.667 0 -50.5 0.333008 -83.5 1s-55.5 1 -67.5 1v-13c0 -74.667 -5.33301 -140.834 -16 -198.501s-20.667 -97.167 -30 -118.5
s-18.333 -37.333 -27 -48c-26 -10.667 -51.333 -17.334 -76 -20.001l-8 24c36.667 47.333 63.334 106.166 80.001 176.499s25 136.833 25 199.5c-32 0.666992 -57.5 -2.33301 -76.5 -9s-41.5 -18.334 -67.5 -35.001l-18 32c1.33301 1.33301 5 6 11 14l12 16
c2 2.66699 6.33301 7.66699 13 15s11.834 12.333 15.501 15s9.16699 7 16.5 13s13.833 10.333 19.5 13l22 10c9 4 17.833 6.83301 26.5 8.5s18.667 3.16699 30 4.5s23 2 35 2c27.333 0 76.333 -0.666992 147 -2c18 0 45 -0.166992 81 -0.5s62.667 -0.5 80 -0.5
c18 0 31.667 2.5 41 7.5s18.333 14.5 27 28.5z" />
    <glyph glyph-name="uni2010" unicode="&#x2010;" horiz-adv-x="320" 
d="M271 191h-222c-19.333 0 -29 16 -29 48s9.66699 48 29 48h222c19.333 0 29 -16 29 -48s-9.66699 -48 -29 -48z" />
    <glyph glyph-name="endash" unicode="&#x2013;" horiz-adv-x="500" 
d="M489 191h-478c-19.333 0 -29 16 -29 48s9.66699 48 29 48h478c19.333 0 29 -16 29 -48s-9.66699 -48 -29 -48z" />
    <glyph glyph-name="emdash" unicode="&#x2014;" horiz-adv-x="1000" 
d="M989 191h-978c-19.333 0 -29 16 -29 48s9.66699 48 29 48h978c19.333 0 29 -16 29 -48s-9.66699 -48 -29 -48z" />
    <glyph glyph-name="quoteleft" unicode="&#x2018;" horiz-adv-x="300" 
d="M228 554c0 -18 -7.33301 -32.498 -22 -43.498s-32 -16.5 -52 -16.5c-24.667 0 -43.834 8.66699 -57.501 26s-20.5 39 -20.5 65c0 39.333 14.5 76.333 43.5 111s51.5 52 67.5 52c4 0 8.16699 -1.66699 12.5 -5s6.5 -7 6.5 -11c0 -3.33301 -5.16699 -9.83301 -15.5 -19.5
s-21 -23.334 -32 -41.001s-17.167 -37.834 -18.5 -60.501c0.666992 0 4.33398 0.5 11.001 1.5s11.667 1.5 15 1.5c18 0 32.833 -5.5 44.5 -16.5s17.5 -25.5 17.5 -43.5z" />
    <glyph glyph-name="quoteright" unicode="&#x2019;" horiz-adv-x="300" 
d="M224 657c0 -39.333 -14.5 -76.335 -43.5 -111.002s-51.5 -52 -67.5 -52c-4 0 -8.16699 1.66699 -12.5 5s-6.5 7 -6.5 11c0 3.33301 5.16699 9.83301 15.5 19.5s21 23.334 32 41.001s17.167 37.834 18.5 60.501c-0.666992 0 -4.33398 -0.5 -11.001 -1.5
s-11.667 -1.5 -15 -1.5c-18 0 -32.833 5.5 -44.5 16.5s-17.5 25.5 -17.5 43.5s7.33301 32.5 22 43.5s32 16.5 52 16.5c24.667 0 43.834 -8.66699 57.501 -26s20.5 -39 20.5 -65z" />
    <glyph glyph-name="quotesinglbase" unicode="&#x201a;" horiz-adv-x="300" 
d="M224 28c0 -39.333 -14.5 -76.335 -43.5 -111.002s-51.5 -52 -67.5 -52c-4 0 -8.16699 1.66699 -12.5 5s-6.5 7 -6.5 11c0 3.33301 5.16699 9.83301 15.5 19.5s21 23.334 32 41.001s17.167 37.834 18.5 60.501c-0.666992 0 -4.33398 -0.5 -11.001 -1.5
s-11.667 -1.5 -15 -1.5c-18 0 -32.833 5.5 -44.5 16.5s-17.5 25.5 -17.5 43.5s7.33301 32.5 22 43.5s32 16.5 52 16.5c24.667 0 43.834 -8.66699 57.501 -26s20.5 -39 20.5 -65z" />
    <glyph glyph-name="quotedblleft" unicode="&#x201c;" horiz-adv-x="500" 
d="M228 554c0 -18 -7.33301 -32.498 -22 -43.498s-32 -16.5 -52 -16.5c-24.667 0 -43.834 8.66699 -57.501 26s-20.5 39 -20.5 65c0 39.333 14.5 76.333 43.5 111s51.5 52 67.5 52c4 0 8.16699 -1.66699 12.5 -5s6.5 -7 6.5 -11c0 -3.33301 -5.16699 -9.83301 -15.5 -19.5
s-21 -23.334 -32 -41.001s-17.167 -37.834 -18.5 -60.501c0.666992 0 4.33398 0.5 11.001 1.5s11.667 1.5 15 1.5c18 0 32.833 -5.5 44.5 -16.5s17.5 -25.5 17.5 -43.5zM436 554.002c0 -18 -7.33301 -32.498 -22 -43.498s-32 -16.5 -52 -16.5
c-24.667 0 -43.834 8.66699 -57.501 26s-20.5 39 -20.5 65c0 39.333 14.5 76.333 43.5 111s51.5 52 67.5 52c4 0 8.16699 -1.66699 12.5 -5s6.5 -7 6.5 -11c0 -3.33301 -5.16699 -9.83301 -15.5 -19.5s-21 -23.334 -32 -41.001s-17.167 -37.834 -18.5 -60.501
c0.666992 0 4.33398 0.5 11.001 1.5s11.667 1.5 15 1.5c18 0 32.833 -5.5 44.5 -16.5s17.5 -25.5 17.5 -43.5z" />
    <glyph glyph-name="quotedblright" unicode="&#x201d;" horiz-adv-x="500" 
d="M272 688c0 18 7.33301 32.498 22 43.498s32 16.5 52 16.5c24.667 0 43.834 -8.66699 57.501 -26s20.5 -39 20.5 -65c0 -39.333 -14.5 -76.333 -43.5 -111s-51.5 -52 -67.5 -52c-4 0 -8.16699 1.66699 -12.5 5s-6.5 7 -6.5 11c0 3.33301 5.16699 9.83301 15.5 19.5
s21 23.334 32 41.001s17.167 37.834 18.5 60.501c-0.666992 0 -4.33398 -0.5 -11.001 -1.5s-11.667 -1.5 -15 -1.5c-18 0 -32.833 5.5 -44.5 16.5s-17.5 25.5 -17.5 43.5zM64 687.998c0 18 7.33301 32.498 22 43.498s32 16.5 52 16.5c24.667 0 43.834 -8.66699 57.501 -26
s20.5 -39 20.5 -65c0 -39.333 -14.5 -76.333 -43.5 -111s-51.5 -52 -67.5 -52c-4 0 -8.16699 1.66699 -12.5 5s-6.5 7 -6.5 11c0 3.33301 5.16699 9.83301 15.5 19.5s21 23.334 32 41.001s17.167 37.834 18.5 60.501c-0.666992 0 -4.33398 -0.5 -11.001 -1.5
s-11.667 -1.5 -15 -1.5c-18 0 -32.833 5.5 -44.5 16.5s-17.5 25.5 -17.5 43.5z" />
    <glyph glyph-name="quotedblbase" unicode="&#x201e;" horiz-adv-x="500" 
d="M272 59c0 18 7.33301 32.498 22 43.498s32 16.5 52 16.5c24.667 0 43.834 -8.66699 57.501 -26s20.5 -39 20.5 -65c0 -39.333 -14.5 -76.333 -43.5 -111s-51.5 -52 -67.5 -52c-4 0 -8.16699 1.66699 -12.5 5s-6.5 7 -6.5 11c0 3.33301 5.16699 9.83301 15.5 19.5
s21 23.334 32 41.001s17.167 37.834 18.5 60.501c-0.666992 0 -4.33398 -0.5 -11.001 -1.5s-11.667 -1.5 -15 -1.5c-18 0 -32.833 5.5 -44.5 16.5s-17.5 25.5 -17.5 43.5zM64 58.998c0 18 7.33301 32.498 22 43.498s32 16.5 52 16.5c24.667 0 43.834 -8.66699 57.501 -26
s20.5 -39 20.5 -65c0 -39.333 -14.5 -76.333 -43.5 -111s-51.5 -52 -67.5 -52c-4 0 -8.16699 1.66699 -12.5 5s-6.5 7 -6.5 11c0 3.33301 5.16699 9.83301 15.5 19.5s21 23.334 32 41.001s17.167 37.834 18.5 60.501c-0.666992 0 -4.33398 -0.5 -11.001 -1.5
s-11.667 -1.5 -15 -1.5c-18 0 -32.833 5.5 -44.5 16.5s-17.5 25.5 -17.5 43.5z" />
    <glyph glyph-name="dagger" unicode="&#x2020;" horiz-adv-x="510" 
d="M196 316l25 135.001l-111 -19c-10 -2 -20 -3 -30 -3c-14 0 -27 5.33301 -39 16s-18 24.334 -18 41.001s6 30.334 18 41.001s25 16 39 16c10 0 20 -1 30 -3l111 -19l-18 141c0 1.33301 -0.5 5.5 -1.5 12.5s-1.5 12.167 -1.5 15.5c0 16 5.33301 29.667 16 41
s23.667 17 39 17s28.333 -5.66699 39 -17s16 -25 16 -41c0 -2.66699 -0.166992 -5.5 -0.5 -8.5s-0.833008 -6.33301 -1.5 -10s-1 -6.83398 -1 -9.50098l-18 -141l111 19c10 2 20 3 30 3c14 0 27 -5.33301 39 -16s18 -24.334 18 -41.001s-6 -30.334 -18 -41.001
s-25 -16 -39 -16c-10 0 -20 1 -30 3l-111 19l25 -135l-35 -455c-2.66699 -16.667 -10.667 -25 -24 -25s-21.333 8.33301 -24 25z" />
    </font>
</defs>
</svg>
